<?xml version="1.0" standalone="no"?>
<!DOCTYPE svg PUBLIC "-//W3C//DTD SVG 1.1//EN" "http://www.w3.org/Graphics/SVG/1.1/DTD/svg11.dtd" >
<svg>
<metadata>
Created by FontForge 20090622 at Tue Jun 30 08:34:25 2015
 By deploy user
Copyright (c) 2015 by BLKBK. All rights reserved.
</metadata>
<defs>
<font id="YardSale" horiz-adv-x="255" >
  <font-face 
    font-family="Yard Sale"
    font-weight="400"
    font-stretch="normal"
    units-per-em="1000"
    panose-1="2 0 0 0 0 0 0 0 0 0"
    ascent="750"
    descent="-250"
    x-height="456.5"
    cap-height="692"
    bbox="-68.5714 -278 408 870.536"
    underline-thickness="50"
    underline-position="-50"
    unicode-range="U+000D-U+FB02"
  />
<missing-glyph horiz-adv-x="155" 
 />
    <glyph glyph-name=".notdef" horiz-adv-x="155" 
 />
    <glyph glyph-name=".null" horiz-adv-x="0" 
 />
    <glyph glyph-name="nonmarkingreturn" horiz-adv-x="333" 
 />
    <glyph glyph-name="NULL" horiz-adv-x="0" 
 />
    <glyph glyph-name="NULL" horiz-adv-x="0" 
 />
    <glyph glyph-name="CR" unicode="&#xd;" horiz-adv-x="155" 
 />
    <glyph glyph-name="space" unicode=" " horiz-adv-x="155" 
 />
    <glyph glyph-name="exclam" unicode="!" horiz-adv-x="114" 
d="M25 60q4 5 20 7l3 -2q2 -2 4 -2q10 -4 11 -5l11 -7t10.5 -9.5t-0.5 -13.5q-4 -11 -13 -20q-7 -10 -18 -12q-4 -2 -14 -2q-5 0 -13 6q-8 8 -8 27q0 23 7 33zM36 678q1 0 1.5 1.5t1 3.5t1.5 3q2 3 8.5 5t9.5 5q1 0 6 -1.5t8 -2.5t6.5 -3t5.5 -5t3 -7t-1 -9.5t-2 -7.5
q-1 -3 0 -8.5t1 -7.5q0 -5 -0.5 -17.5t-0.5 -19.5q0 -6 1 -18t1 -19q0 -3 -0.5 -9t-0.5 -8q0 -6 2 -14q0 -4 -0.5 -14.5t-0.5 -15.5q-1 -16 -3 -44q-2 -4 -0.5 -24t1.5 -22q-3 -57 -3 -60q-1 -9 -1 -28.5v-29.5q-3 -113 -3 -116q-3 -66 -3 -72l-3 -6q-2 -1 -6 -4.5t-6 -2.5
q-3 1 -5 4t-4.5 7.5t-4.5 6.5q-9 5 -10 6q-12 13 -9 90q0 20 2 60.5l3 61.5q0 1 3 194q2 58 2 86q2 43 0 62z" />
    <glyph glyph-name="quotedbl" unicode="&#x22;" horiz-adv-x="174" 
d="M56 686q4 -4 11 -4q6 -7 6 -34v-17q0 -5 2 -15q1 -5 -2 -48q-5 -7 -7 -15q-10 -3 -14 -8h-4l-3 -3q-7 0 -12 7q-4 9 -6 9q1 2 2.5 3t1.5 2q0 9 -1 25t-1.5 29t-0.5 24t2 15v10q2 6 5 13q2 2 5 3l2 2q3 2 7.5 1.5t6.5 0.5zM127 686q3 -4 11 -4q5 -7 5 -34v-17q0 -2 1 -7
t1 -8q2 -16 -2 -48q-2 -2 -7 -15q-10 -3 -14 -8h-4q-1 0 -1 -2l-1 -1q-6 0 -13 7q-2 8 -5 9q1 2 2.5 3t1.5 2q-3 39 -3 78q0 11 1 15v10q0 1 2 6t4 7q3 3 7 5q3 2 7 1.5t7 0.5z" />
    <glyph glyph-name="numbersign" unicode="#" horiz-adv-x="284" 
d="M226 573q0 -4 -1 -17.5t-2 -19.5q25 2 37 -1q1 -2 2 -5q1 -1 1 -2q3 -3 3 -4q2 -2 2 -7q0 -1 -1 -2t-1 -2t0.5 -2t0.5 -2q-1 -7 -12 -7q-33 -3 -34 -3v-17q-1 -5 -1.5 -10.5t-1 -12t-0.5 -9.5q0 -9 -4 -16q-2 -4 -3 -4q-4 -4 -10.5 -3t-8.5 5q-9 -1 -19 13q-4 8 -4 15
q-1 6 0 19t1 16q-13 -1 -40 -1q-2 -5 -1.5 -13.5t-0.5 -13.5q-2 -12 -11 -30q-5 1 -7 -2q-2 0 -4.5 1t-3.5 1q-2 4 -4 5q-12 -3 -19 14q-5 13 -3 31q-2 2 -8.5 4.5t-9.5 5.5l-3 3q-10 8 -11 12q0 1 0.5 3t1.5 3q17 5 33 6l3 45q-3 1 -9 1h-9h-4l-2 1q-3 1 -6.5 2.5t-5.5 2.5
q-5 3 -6 4q-2 1 -4.5 5.5t-5.5 5.5q-3 7 0 13q24 4 55 4q3 81 3 87q8 0 9 -1q24 -2 36 -14q5 -2 7 -9q1 -2 0 -7.5t-1 -6.5v-16q0 -6 -0.5 -16t-0.5 -15q10 -2 41 1q0 51 1 62q0 14 4 18q3 0 4 2q4 -5 16 -7q21 -13 26 -23q-1 -9 -2 -27t-2 -26q24 2 37 -4q5 -1 8 -8
q0 -1 1 -2.5t1 -2.5t-0.5 -4t1.5 -4q-1 -1 -1.5 -6t-3.5 -6q-1 -1 -6 0l-5 1q-3 0 -8 -0.5t-7 -0.5h-17zM177 567q0 1 -1 1q-31 0 -42 -3q0 -6 -1 -17t-1 -18q6 1 20 1.5t21 0.5q1 5 4 35z" />
    <glyph glyph-name="dollar" unicode="$" horiz-adv-x="220" 
d="M156 510q-3 -1 -4.5 -3t-2.5 -3q-5 -1 -7.5 1.5t-3.5 8t-1 10t0.5 10.5t0.5 8q-1 30 -16 54q-5 10 -11 11q-1 0 -6.5 -4t-6.5 -6q-9 -9 -9 -23q-1 -7 -1 -16q1 -4 7 -10q1 -3 2 -6.5t1 -4.5t1 -5t1 -5q3 -9 3 -13q10 -17 13 -34q0 -1 3 -4t3 -5v-7q0 -1 1.5 -4t1.5 -4
q5 -34 10 -47q1 -3 2.5 -7t1.5 -6q5 -9 5 -24q3 -10 14.5 -45.5t16.5 -54.5q6 -18 6 -25v-9q0 -2 5 -17q1 -1 1 -5t1 -6q6 -41 4 -56q0 -3 -6 -13q-2 -3 -6.5 -10.5t-7 -11t-7.5 -8.5t-11 -8q-9 -1 -19 -8q-2 -4 1 -6l1 -1q0 -2 -3 -4l-2 -3q0 -2 2.5 -5t2.5 -5
q1 -2 -1.5 -7t-2.5 -7q0 -3 2 -12t2 -12q0 -2 -2.5 -6t-2.5 -5v-11q-1 -3 -6.5 -7.5t-7.5 -3.5q-1 0 -5 3.5t-6 4.5q-7 0 -11 -1q-12 16 -12 81q-28 10 -45 37.5t-19 64.5q-1 8 -1 23v9t0.5 10t2.5 5q1 1 18 5h4q5 1 7 1q1 0 5.5 -2t6.5 -2q12 -14 12 -26q2 -7 3.5 -21.5
t4 -26t7.5 -18.5q1 -3 2 -5t3.5 -3.5t5 -2.5t6 -3t6.5 -3q12 12 14 23q13 41 -15 127q-3 13 -21 67q-8 23 -9 37q-9 24 -18 72q-17 59 -30 88q-1 2 1 4l2 1q-21 21 2 50q4 7 11 13t11.5 9t16 9l13.5 7q-9 18 -5 54q7 12 8 12l1 -1l6 -4q4 -2 6 -2q20 -8 26 -27q2 -2 1.5 -13
t-0.5 -14q30 -3 41 -22q13 -21 16 -48q3 -20 -14 -58q-8 -10 -21 -4zM109 680l1 2q-3 0 -1 -2z" />
    <glyph glyph-name="percent" unicode="%" horiz-adv-x="231" 
d="M99 576q-9 1 -13 7q-4 1 -10 6q-15 17 -6 48q4 12 17 17l2 1l2 2q15 -6 17 -9q20 -8 25 -25q1 -4 1 -15q0 -7 -3 -13q0 -8 -4 -12q-6 -8 -19 -8q-1 0 -4 1h-5zM125 69l8 13q6 2 7 2q18 14 32 -1l4 -3q5 -2 7 -4l3 -3l7 -8l4 -6q6 -11 5 -16q0 -4 -2 -7l-2 -2l-2 -3h1
q1 0 0 -1q-4 -13 -8 -16q-6 -5 -18.5 -5.5t-18.5 4.5q-1 1 -3.5 2.5t-3.5 2.5q-19 9 -21 31q0 1 0.5 5t0.5 5q1 6 0 10zM41 -16h-46q0 11 -2 17q-3 12 -3 15q-1 13 6 32q0 1 1 3l9 21q2 9 7 16l42 109q29 69 35 87l3 2h-1q2 9 13 34l4 11q8 27 20 53v-1q3 9 10 26.5t10 26.5
q17 48 19 53l34 78l10 20v-1l4 10q7 20 18 41q5 16 8 23v1l4 8q6 13 19 20l16 -6l-1 -1l11 -6q7 -16 2 -34q-2 -4 -2 -6l-2 -8l-5 -11l-5 -14h1q-8 -25 -13 -34q-9 -27 -14 -36l-8 -16q-3 -10 -4 -13l-8 -16q0 -1 -1 -3.5t-1.5 -5t-1.5 -3.5q0 -1 -1 -4v-2q-4 -6 -8 -20v1
q0 -3 -2 -7.5t-3 -6.5l-7 -18q-6 -11 -7 -17l-6 -18l-7 -22l-7 -19l-19 -46q-1 -1 -1 -2h1q-6 -22 -17 -48q-4 -7 -4 -11q-5 -15 -8 -20l-10 -28v1l-8 -22l-26 -67q-3 -4 -3 -6l-6 -12l-3 -9l-3 -7q-2 -9 -7 -14l-3 -5l-6 -15v3l-1 -4l-7 -21z" />
    <glyph glyph-name="ampersand" unicode="&#x26;" horiz-adv-x="295" 
d="M238 171q11 36 23 50q2 -1 2 -6q5 -2 8 -6q1 -1 1.5 -4t0.5 -4l2 -4v-10q0 -1 1 -2v-1v-3v-4.5v-3.5q2 -8 1 -12q-3 -23 -13 -49q-5 -10 -1 -20q1 -2 18 -29t18 -32l3 -9v-15v-4q1 -4 0 -4q0 -1 -1.5 -1t-3.5 -0.5t-3 -1.5q0 1 -2 2.5t-3 3.5q-1 0 -2.5 -1.5t-2.5 -0.5
q-1 0 -1 -2t-1 -3q-2 -1 -5 0.5t-5 1.5q-2 3 -19 30.5t-19 30.5q-3 -9 -26 -39q-9 -11 -9 -13q-10 -8 -15 -13h-1q-4 -2 -12.5 -3.5t-12.5 -4.5q-3 -2 -33 -7q-9 -2 -27 -2q-16 1 -29 13q-19 13 -24 19q-1 0 0 1q-1 1 -1 0t-1 0q-28 38 -29 82q0 4 6 52q5 40 7 53
q3 13 28 90q6 17 17.5 45.5l15.5 38.5q20 49 32 88q-3 10 -7.5 29l-6.5 27q-5 16 -6 18q0 2 -3 5.5t-3 5.5q-2 9 -4 23q0 1 -2 4.5t-3 5.5q0 1 0.5 2.5t0.5 3.5q0 3 -2 11q-3 32 7 53q1 14 11 23q6 10 9 13q14 10 26 9q6 0 11 -2.5t9.5 -7.5l7.5 -8.5t7.5 -10.5t6.5 -9
q6 -22 9 -44q1 -8 -4 -27q-2 -10 -4.5 -31t-4.5 -31q-1 -2 -4.5 -15t-4.5 -20q-2 -21 -6 -31q58 -219 78 -283zM127 328q-4 -8 -5 -13q0 -1 -1 -4t-2 -4l-16.5 -41.5l-17.5 -44.5q-1 -3 -3 -8.5t-3 -7.5q-1 -4 -1 -10.5v-9.5l-3 -12t-2 -10q-1 -3 -1 -16q0 -1 -0.5 -4
t-0.5 -5q-1 -2 0 -5t0 -5q0 -8 -3 -25t-2 -27q2 -14 2 -23q7 -20 23 -29.5t36 -4.5q8 1 16 8q13 6 24 17q18 19 36 48q1 1 6.5 10t5.5 12q0 4 -5 16q-11 33 -33 109l-11 41.5l-13 48l-11 39.5q-8 -20 -15 -40zM145 639q-2 -1 -4 -1h-3.5t-4.5 -0.5t-5 -0.5q0 -3 -2 -8t-3 -8
q-4 -13 0 -34q4 -15 8 -20q2 0 2.5 -2t0 -3.5t-1.5 -4t-1 -4.5t2 -7t2 -6q1 -2 1.5 -4t1.5 -4.5t1 -3.5q8 28 16 92q-5 5 -10 19z" />
    <glyph glyph-name="quotesingle" unicode="'" horiz-adv-x="101" 
d="M56 686q4 -4 11 -4q6 -7 6 -34v-17q0 -5 2 -15q1 -5 -2 -48q-5 -7 -7 -15q-10 -3 -14 -8h-4l-3 -3q-7 0 -12 7q-4 9 -6 9q1 2 2.5 3t1.5 2q0 9 -1 25t-1.5 29t-0.5 24t2 15v10q2 6 5 13q2 2 5 3l2 2q3 2 7.5 1.5t6.5 0.5z" />
    <glyph glyph-name="parenleft" unicode="(" horiz-adv-x="105" 
d="M0 330l6 62q2 20 2 30l3 32l3 21q1 5 2 20t3 22q0 1 1 4t1 4q2 4 4 20q6 26 14 41v-1q17 38 18 40v-2l6 12q18 34 34 45v-1q6 3 7 3q14 4 21 -8q10 -10 10 -22q0 -11 -14 -25l-2 -5l2 3l-7.5 -14.5t-7.5 -15.5q-10 -20 -13 -30q-40 -116 -35 -272l2 -27q0 -2 0.5 -8
t0.5 -9q9 -71 23 -118q6 -41 18 -72l5 -9v1q2 -3 6 -10.5l6 -11.5v1q14 -27 12 -43q-2 -6 -7 -15q-16 -27 -32 -1q-15 21 -19 27l1 -1q-4 6 -6 12v-1q-3 6 -7 11q0 1 -0.5 3t-0.5 3q-2 5 -7 12l-4 12v-1l-7 13q-3 12 -8 21q-9 21 -10 24l-5 21q-1 3 -1 4v-1q-3 20 -5 30
l-1 2v3q-3 17 -4 20l-2 11q-1 4 -1 16q0 2 -0.5 7t-0.5 8q0 5 -2 17q0 2 -0.5 6t-0.5 5q-1 9 -1 35v40z" />
    <glyph glyph-name="parenright" unicode=")" horiz-adv-x="142" 
d="M74 23l1 3q-1 -1 -1 -3zM135 328v-38q0 -26 -1 -35q0 -2 -0.5 -6t-0.5 -5q-2 -12 -2 -19q-1 -5 -1 -13q0 -2 -0.5 -7t-0.5 -7l-2 -13l-4 -20q0 -1 -1 -3v-2l-5 -30v1l-1 -4l-5 -21q-8 -15 -10 -24q-5 -9 -8 -21l-7 -13v1l-4 -12q-6 -8 -7 -11l-1 -3v-4q-4 -5 -7 -11v1
q-2 -6 -6 -12l1 1q-4 -6 -19 -27q-10 -14 -17 -13t-16 17v-1q-5 6 -6 13q-2 16 12 43v-1l6 11.5t6 10.5v-1l5 9q12 31 18 72q14 47 23 118q0 3 0.5 9t0.5 8l2 27q5 156 -35 272q-3 10 -13 30q-1 4 -6.5 14t-7.5 16l1 -3l-2 5q-14 14 -14 25q0 12 10 22q7 12 21 8h-1
q3 0 9 -4q-2 2 -1 2q16 -11 34 -45l6 -12v2q1 -2 18 -40v1q8 -15 14 -41q2 -16 4 -20l2 -8q3 -10 5 -42l3 -21l3 -32q0 -10 2 -30z" />
    <glyph glyph-name="asterisk" unicode="*" horiz-adv-x="247" 
d="M168 539q2 -7 10 -15.5t9 -10.5q-7 -15 -12 -17q-7 1 -12 4t-11 9t-9 8q-1 -10 0 -19.5t-1 -18.5t-7 -14q-1 -7 -5.5 -11t-10.5 0q-1 0 -3.5 4t-4.5 5q-3 7 -3 50q-4 -2 -10 -9t-10 -9q-20 -5 -25 4q5 9 17 22t14 16q-8 -1 -25 -1q-23 1 -38 16q1 3 7 5t7 6q17 3 54 3
q-22 20 -34 32q1 4 9 8t15 3q5 -2 11.5 -8.5t9.5 -8.5q3 43 2 50q1 1 13 4q9 -1 17 -9q0 -1 2.5 -3.5t3.5 -4.5q1 -7 1 -20.5v-20.5l13 13t18 16q2 -2 8 -2.5t8 -1.5q0 -1 1.5 -3t2.5 -4q5 -5 6 -9q1 -5 -7 -13t-9 -12q21 -3 29 -16l-6 -9q-30 -8 -45 -8z" />
    <glyph glyph-name="plus" unicode="+" horiz-adv-x="265" 
d="M148 370q-2 -8 -2 -14t1.5 -19t1.5 -19q53 -2 68 -7l3 -2q4 -2 7 -2q0 -2 2 -4q-5 -10 -7 -11q-2 -7 -6 -10q-1 -4 -4 -4q-2 -1 -10 -1q-8 -1 -27.5 -2t-26.5 -2q0 -1 -1 -28.5t-2 -41.5q-12 -15 -15 -21q-2 -2 -6 -4q-3 2 -4.5 7t-3.5 6q-1 -1 -1 -2.5v-2.5q-2 1 -3 4
l-1 1q-4 0 -5 4q-12 13 -7 77q-4 1 -24 1q-4 1 -13 1q-8 0 -10 1q-2 0 -4.5 2.5t-4.5 1.5q-8 6 -9 10q-1 1 -3 2l-2 1q0 2 -2.5 7t-2.5 7t3 6q4 2 13 6q14 -2 61 0q2 10 2 31t1 30q0 7 -2 9q2 1 2.5 4t1.5 3q2 2 3.5 1t2.5 1l18 -3q11 -3 15 -17q0 -2 -1 -2q2 1 3.5 -1.5
t0.5 -4.5v1z" />
    <glyph glyph-name="comma" unicode="," horiz-adv-x="82" 
d="M23 50q3 0 6 1.5t5 1.5q3 -1 9.5 -2t9.5 -3l1 -1q1 -2 2 -3t4 -3q2 -1 3 -3q1 -1 4 -12v-8v-6v-6q-5 -16 -21 -35l-3 -3q-3 -2 -5 -2l-5 5q0 1 -0.5 3t-0.5 3t1 4t0 5q-5 1 -8.5 3.5t-6 7.5t-3.5 8t-2 11t-2 11v9q0 7 5 12q1 0 3.5 0.5t3.5 1.5z" />
    <glyph glyph-name="hyphen" unicode="-" horiz-adv-x="228" 
d="M209 249q-9 -3 -21 -4t-28 -1t-24 -1q-9 -1 -19.5 -1t-22 0.5t-16.5 0.5q-3 0 -13.5 1.5t-16.5 0.5q-3 1 -10.5 2.5t-10.5 2.5q-3 9 -10 14q1 1 1 5h-4q0 3 10 15q10 -2 14 6q2 0 3 0.5t2 0.5h54h34.5t32.5 1h21q2 0 5 -1t5 -1t4 -0.5t3 -0.5t2.5 -0.5t2.5 -0.5
q5 -5 7 -8q2 -2 1 -9.5t-1 -9.5q-6 -6 -5 -12z" />
    <glyph glyph-name="period" unicode="." horiz-adv-x="74" 
d="M42 -11q-2 0 -6 -2t-6 -2q-18 0 -20 31q0 18 1 20q5 8 15 8q1 0 3 -1t4 -1q2 -1 3.5 -0.5t3.5 0.5t2 -2q16 0 19 -11q3 -5 0 -18q-6 -13 -19 -22z" />
    <glyph glyph-name="slash" unicode="/" horiz-adv-x="229" 
d="M-2 -16h-36q0 11 -2 17q-3 12 -3 15q-1 13 6 32q0 1 1 3l9 21q2 9 7 16l42 109q29 69 35 87l3 2h-1q2 9 13 34l4 11q8 27 20 53v-1q3 9 10 26.5t10 26.5q17 48 19 53l34 78l10 20v-1l4 10q11 28 18 41q5 16 8 23v1l4 8q6 13 19 20l16 -6l-1 -1l11 -6q6 -17 2 -34
q-2 -4 -2 -6l-2 -8l-5 -11l-5 -14h1q-8 -25 -13 -34q-9 -27 -14 -36l-8 -16q-4 -10 -4 -13l-8 -16q0 -1 -1 -3.5t-1.5 -5t-1.5 -3.5q-2 -4 -2 -6q-3 -6 -7 -20v1q-1 -3 -3 -7.5t-2 -6.5l-7 -18q-5 -11 -7 -17l-6 -18l-7 -22l-7 -19l-19 -46q-1 -1 -1 -2h1q-6 -22 -17 -48
q-4 -7 -4 -11q-5 -15 -8 -20l-11 -28v1l-7 -22l-27 -67q-2 -3 -2 -6l-6 -12l-3 -9l-3 -7q-2 -9 -7 -14l-3 -5l-6 -15v3l-1 -4l-7 -21z" />
    <glyph glyph-name="zero" unicode="0" horiz-adv-x="295" 
d="M52 611q3 3 5 3q1 3 3 11t4 11q4 11 15 22q1 0 2.5 0.5t2.5 0.5q1 1 3.5 2.5t3.5 3.5l9 6q5 2 5 3q3 1 6.5 4t5.5 4q1 2 4 3t5 3h1l1 1q3 2 9.5 3.5t7.5 2.5l1 -1q4 3 15 5q3 1 8 1.5t6 0.5q17 -2 25 -7q5 0 12 -7q10 -3 13 -12q1 -1 2.5 -3t2.5 -3q0 -1 0.5 -1t0.5 -1
q11 -8 13 -11q0 -1 1 -3.5t1 -4.5v-3.5t1 -4.5q6 -8 7 -17q6 -12 4 -21h-1v-1q0 -1 -5 -13q1 -1 1 -4t1 -4q-2 -15 1 -20q-1 -1 -1 -6q1 -5 1 -15.5t1 -15.5q-2 -5 0 -13v-1l-1 -1v-21q3 -9 1 -20q-3 -5 -1 -7q0 -3 1 -4q0 -3 -1 -7.5t-1 -7.5q2 -2 2 -4q0 -3 -0.5 -9
t0.5 -7q0 -13 -2 -15q2 -6 0 -11q1 -3 1 -9t1 -9q-2 -6 -2 -20v-4.5t-1 -4.5q0 -21 1 -25q0 -9 1 -11v-5q0 -26 1 -31q-1 0 -1 -1v-8.5t1 -8.5v-1l-1 -1q2 -6 -1 -14v-3v-5v-5q0 -1 -1 -2q1 -2 0.5 -6.5t-0.5 -6.5t1 -4v-3t-2 -4t-2 -4q0 -11 -1 -13v-3q1 -13 -2 -29
q-1 -1 0 -7t1 -7t-1 -4.5t-1 -5.5q1 -1 0.5 -6.5t0.5 -8.5q0 -1 -0.5 -2.5t-0.5 -3.5q1 -10 -2 -24q0 -3 -1 -8t-1 -7q-1 -6 -5 -18q0 -2 -6 -19l-1 -1q-1 -3 -3 -6.5t-2 -5.5q-3 -6 -4 -6t-1 -1v-2h-2q-1 -1 -1 -2q-1 -2 -1 -3h-2q-2 -4 -3 -5q-1 0 -3 -1l-2 -2t-2 0
q-1 -1 -3 -2.5t-3 -2.5q-6 -2 -11 -1q-2 0 -6 -2t-7 -2q-3 -2 -12 -2h-1l-1 -1q-2 0 -7.5 0.5t-6.5 0.5q-4 0 -6 1q-15 4 -22 9q-7 2 -35 23q-2 2 -6.5 6t-6.5 7q-5 4 -8 9q-2 2 -5 8t-6 9q1 1 0 2t-1 2q-4 5 -11 27q-1 5 -4 24q0 3 -1 8.5t0 8.5v16q-1 8 0 22.5t1 17.5
q0 24 2 38q0 38 2 55v2v1v8l1 2v3v9t1 10q-1 0 -1 1q1 11 1.5 31.5t0.5 26.5q-1 1 1 8l-1 1l1 1v28q0 8 1 10v2v1q0 2 1 2q-1 3 -0.5 12.5t0.5 12.5v3v4q1 1 1 8q2 6 0 16q2 4 0 9q0 3 1 3q0 52 5 117zM164 41l1 2q0 1 1 1t1 1l3 3q4 4 4 6l5 5q2 2 3 4q0 1 2 2l2 1
q2 5 4 11q0 1 0.5 3t1 3.5l1 3t0.5 2.5q2 8 2.5 22.5t1.5 20.5q-1 1 0 1l1 1q-1 10 -0.5 30.5t0.5 27.5q1 0 1 2q0 24 1 36v10v3q0 2 -0.5 6.5t-0.5 6.5q2 14 2 24q-1 6 -1 21v4q1 4 0.5 13t0.5 14q-1 14 0 41t1 37q0 3 0.5 11t-0.5 12q0 11 1 42.5t0 48.5q1 3 1 8.5v10.5
q-4 10 -4 17v1l-1 1q1 2 0 6.5t-1 6.5q0 13 -1 18q1 5 -1 15t-2 11q0 3 -2 8.5t-2 8.5q-7 14 -9 17q-2 2 -2 3q-2 0 -2 1q-1 1 -1 2q-1 1 -2.5 1t-2.5 1q-6 4 -10 3q-18 0 -35 -17l-6 -9q-5 -8 -6 -15l-3 -8q0 -1 -1 -1l-1 -2q-1 -1 -1.5 -3l-1 -4t-0.5 -3q-3 0 -3 -5
q1 -3 0.5 -10.5t1.5 -8.5q-2 -20 0 -40q1 -4 1 -11v-9t-0.5 -6t-0.5 -6v-26v-7v-6q0 -2 0.5 -6t0.5 -7q-1 0 -1 -1q0 -7 1 -9q2 -7 -1 -12q0 -21 -1 -29v-9t1 -9q-1 -4 -1 -12t-2 -12q1 -6 1 -17v-4v-34q-1 -2 -1 -18q0 -1 -0.5 -1.5t-0.5 -1.5q1 -3 0 -12t1 -12
q-1 -2 -0.5 -8.5t-0.5 -10.5q0 -1 -0.5 -2.5t-0.5 -2.5v-4q1 -2 0 -6.5t-1 -6.5q1 -2 1 -6.5v-6.5q-1 -2 -1 -11.5t-2 -13.5q3 -1 1 -14.5t-2 -15.5t1 -5.5t1 -4.5v-5q0 -17 -1 -20q1 -2 0.5 -7.5t1.5 -6.5q-1 -3 -1 -8.5v-8.5q4 -6 3 -12q1 -2 4 -8.5l5 -10.5l1 -1
q6 -10 8 -12v-1q5 -3 6 -6q19 -5 21 -5h3q3 2 7.5 5.5t7.5 5.5z" />
    <glyph glyph-name="one" unicode="1" horiz-adv-x="173" 
d="M92 703v1q1 1 2 1q9 -2 10 -2q7 2 9 1t3 -2q2 -2 3 -2q1 -1 10 -7q0 -2 2 -3q1 -1 1 -2q2 -5 5 -28q0 -1 1 -3v-2q0 -2 -1.5 -7t-1.5 -9q0 -19 -2 -27q1 -4 -0.5 -11.5t-1.5 -9.5q0 -1 0.5 -5t0.5 -5q-1 -4 -1 -14q-1 -3 -1.5 -10t-0.5 -9q0 -7 -2 -21q1 -7 -0.5 -18
t-0.5 -17v-1q0 -1 -1 -2q0 -5 -0.5 -17.5t0.5 -17.5l-1 -2q0 -2 -1 -3v-31v-24h1v-1v-12q0 -17 1 -18q0 -25 1 -31q0 -2 -1 -6t-1 -6q0 -5 2 -13q0 -4 -1 -10.5t-1 -9.5v-1h1v-4q0 -4 -1 -6v-10.5t1 -10.5q-1 -1 -1 -4q1 -3 0 -4q1 -5 -1 -26q0 -2 1.5 -10.5t-0.5 -10.5v-12
q0 -3 -0.5 -8.5t-0.5 -7.5q0 -1 1 -3v-2q0 -1 -0.5 -2.5t-0.5 -2.5l1 -2q1 -1 1 -2l-1 -2v-3q2 -31 -2 -52q3 -8 1 -14q1 -2 0 -4.5t0 -3.5q-1 -1 -1 -2v-1q1 -1 0.5 -3.5t0.5 -3.5q-5 -41 -7 -44q1 -6 -2 -9l-6 -3q-2 -2 -6.5 -4.5t-5.5 -3.5t-6 -5q-5 -1 -13 5
q-13 24 -15 30q1 21 1 64v1v19q0 3 1 12t0 15q0 2 1 10t0 11v43v34q1 4 1 13v13v17v15v6v6.5v6.5v7v4v22q0 11 1 17q0 2 -0.5 7t-0.5 7v9.5t1 9.5q-1 9 0 26t1 25v13q0 1 1 1q-1 3 -1 23q0 4 0.5 11t0.5 10q0 6 2 18q0 1 -0.5 4t-0.5 5q2 6 2 9q0 20 2 30q0 7 1.5 20.5
t0.5 22.5q-4 0 -9.5 -3t-6.5 -3v-1q0 -1 -1 -1q-1 -1 -1 0l-1 1q-20 -4 -26 2v4q-1 3 0 10t1 9l2.5 5t2.5 4q6 6 15.5 20t15.5 20q3 5 5 6q0 1 0.5 2.5t0.5 2.5l1 1q1 1 2 0l5 5q1 -1 5 -2t5 -1z" />
    <glyph glyph-name="two" unicode="2" horiz-adv-x="271" 
d="M94 63q3 0 12.5 1t15.5 0q0 1 1 1q3 -1 9 0t9 1h4q3 0 8.5 0.5t8.5 0.5h11h1q3 1 8 0t7 -1q12 0 21 -3h4q5 1 8.5 -0.5t7 -4.5t6.5 -4v-6q1 -2 1 -5q-2 -5 -1 -8q2 -2 2 -3q-1 -2 -4 -6t-4 -6q-10 -4 -16 -5q-1 -2 -13 -7q-3 1 -9.5 0t-8.5 -1q-22 -2 -32 -6q-7 1 -21 -1
q-2 1 -3 1l-1 -1h-2q-1 1 -2 1v-1q-1 0 -2.5 0.5t-2.5 0.5q-18 -3 -24 -1q-16 -6 -37 3q-1 1 -4 1l-2 2h-3q-2 1 -6 3.5t-6 3.5l-4 4t-4 5q-3 4 0 15q-2 2 0 4q0 1 -0.5 1t-0.5 1t1 5t1 5v1l-1 2q0 4 2.5 12.5t2.5 13.5q2 2 4 9t4 9q2 9 6 18q0 3 2 7v2q1 2 2 3q6 22 15 45
l17 56q2 7 6.5 21t6.5 23q1 2 2 5.5t2 4.5q1 5 3 12.5t2 11.5q1 4 5 18t7 21v1q0 1 1 2q1 9 3 15q1 2 2 5t2 5q0 2 0.5 4t1.5 4.5t1 4.5q0 1 1 1q1 8 7 29q0 6 3 16.5t3 15.5l3 9v1l-1 1q2 2 2 3v1q0 1 0.5 3t0.5 3t0.5 3t1 3.5l1 3t0.5 2.5q0 4 1 5q-1 1 0 3.5t1 3.5t1 4
q1 5 2 6v4q1 2 2.5 12.5t3.5 15.5v2q0 1 0.5 3.5t1.5 3.5q0 7 2 27.5t1.5 28.5t-2.5 29q-2 8 -4 11l-6 6l-1 1h-1q-1 0 -3 0.5t-3 1.5q-6 0 -24 -11q-11 -11 -16 -28q0 -8 -1 -12l-1 -1q0 -1 -0.5 -5t-1.5 -6q-1 -1 -1 -6v-7v-2q-1 -1 -1 -2v-4q3 -25 4 -27v-14v-1
q-3 -21 -26 -26h-3q-4 -2 -10 0q-2 0 -8 2q0 2 -6 13q0 2 -1.5 6.5t-1.5 7.5q0 1 -1 1q-3 32 0 60q5 22 10 38h2v2v2q2 0 2 2h1q1 4 4 8.5t4 7.5q1 1 2 3t2 3q0 2 2.5 4.5t3.5 5.5q7 5 11 12q1 1 7 6t11 7q0 1 0.5 1t0.5 1q2 1 23 10q4 1 12 2t9 1q2 -1 7.5 -1t7.5 -2
q1 0 2.5 -0.5t2.5 -1.5q6 0 9 -4q5 -1 9 -3.5t8.5 -6t7.5 -5.5q0 -1 5 -6q3 -6 4 -7t2 -3l2 -1q1 -1 2.5 -7t3.5 -8q2 -10 3 -16q2 -10 0 -31q1 -4 -1 -12v-1q-1 0 0 -1q-1 -5 -2 -15.5t-2 -15.5q0 -8 -2.5 -20.5t-2.5 -17.5q0 -1 -1 -1q0 -13 -3 -17q-1 -2 -1 -7v-6v-3
q-1 -2 -2 -7.5t-2 -7.5q0 -5 -2 -5q0 -4 -1 -9t-1 -8l-1 -1q-4 -20 -6 -29q0 -2 -2 -7.5t-2 -8.5q-1 0 -1 -1v-2v-2q-5 -16 -6 -21q-1 -1 -1 -3t-1 -3q-2 -11 -4 -14q1 -2 -2 -5v-3q0 -1 -1.5 -4.5t-1.5 -5.5q-1 -3 -2.5 -11.5t-3.5 -11.5q0 -2 -1 -4.5t-1 -3.5l-1 -2
q0 -1 -1 -1q0 -2 -1 -5t-1 -4q-5 -16 -10 -38q-1 0 -1 -1t-1 -1q1 -2 0 -4t0 -3q-1 -2 -3 -10v-1q-1 -4 -4 -13q0 -5 -3 -8q1 -1 0 -2t0 -2l-3 -8q0 -1 -1 -3q-2 -4 -2 -6l-1 -1v-2q-1 -3 -3 -10t-3 -9q0 -1 -1 -1q-1 -6 -4 -14.5t-4 -13.5h-1q0 -8 -6 -18q0 -4 -1 -5
q1 -2 -0.5 -6t-1.5 -5l-5 -12q-1 0 -1 -3.5t-2 -4.5q-1 -5 -4.5 -15.5t-4.5 -12.5z" />
    <glyph glyph-name="three" unicode="3" horiz-adv-x="279" 
d="M198 383q0 1 -1 1h-1q1 -1 -1 -3t-2 -4l-1 1v-2q-1 -2 -3 -1q1 -3 -2.5 -4t-3.5 -2l6 -6q4 -2 5 -3l1 -2q1 -2 2 -2t1 -1l2 -1l1 -1q1 -1 1 -2q12 -12 13 -16q3 0 3 -3q2 -1 2.5 -3t1.5 -3q2 -9 4 -11v-1l-1 -1q2 -4 3 -12.5t2 -10.5l-1 -1q2 -5 1 -16.5t0 -16.5
q-1 -2 -1 -12q0 -1 -1 0q1 -3 0.5 -9.5t0.5 -8.5q0 -2 -1 -1q1 -10 -1 -31q2 -5 1.5 -14.5t0.5 -14.5q0 -2 -0.5 -4t-0.5 -3q0 -8 -1 -11q1 -2 0 -7t-1 -7v-1h-1q-2 -22 -12 -50q4 -2 4 1v-4q-1 -9 -10 -27q-2 -6 -5 -9q-2 -6 -9 -9q-2 -6 -7 -7q0 -1 -0.5 -1t-0.5 -1
q-2 -1 -4.5 -3t-3.5 -3q-3 0 -4 -2l-6 -3t-6 -2l1 -1q0 -1 -2 -1q-2 -5 -14 -5h-3q-2 -1 -6 -2.5t-6 -2.5q-14 0 -17 1q-1 0 -1 1q0 -1 -1 -1q-3 1 -8.5 2.5t-7.5 1.5q-2 2 -11 5q-3 2 -7.5 6t-7.5 6q-8 10 -17 16q-3 7 -9 11q-1 2 -4 7t-4 6l-3 6q0 2 -3 8t-2 9q-1 1 -1 2
l-1 2q0 2 -1 4.5t0 4.5q-2 2 -2 6t-1 6q2 4 1 10.5t0 10.5q-1 2 1 8v1q1 2 1.5 6.5t0.5 5.5q-1 2 0 6l1 3q1 3 1 7.5t1 7.5t3 6h13q1 0 2 -1l2 -2q3 0 9 -4q2 -1 11 -4q2 -1 3.5 -3.5t2.5 -3.5l-1 -1q0 -3 2 -8.5t3 -8.5q1 0 1 -1t1 -2q0 -13 6 -37q-1 -5 1.5 -13.5
t2.5 -10.5q5 -9 14 -18q2 0 4.5 -2t4.5 -3q14 7 27 20q1 -1 1 0t1 1q2 2 2 3q3 2 6.5 8t4.5 7v4q4 7 6.5 15t4.5 18.5t3 14.5q-1 5 1 15q0 3 1 4v18q0 1 -0.5 3.5t-0.5 4.5q0 1 1 4q0 3 -0.5 7t-0.5 6q2 19 2 22q0 1 1 1q-1 3 0 7v18q0 1 -0.5 3.5t-0.5 3.5v7v24l-1 1v1
q0 29 -28 40q-6 2 -11 4q-2 0 -10 2t-12 2q-1 1 -5 2t-6 3v1l-4 2q-1 0 -4 2.5t-5 3.5v2q-4 2 -6 7q-1 1 -4.5 3.5t-4.5 4.5q1 4 7.5 4.5t6.5 3.5h8q1 5 5.5 4.5t7.5 -3.5h3q2 2 8.5 3t9.5 2h2q1 1 4 1l8 5.5t8.5 7t6.5 7.5q1 2 2.5 6.5t2.5 6.5q0 2 2 6.5t1 6.5q8 39 9 43
v13v13q4 24 3 34l1 1q0 5 1 16t0 16q1 4 1 11t1 10l-1 1v7t1 7q0 15 -4 26q-13 10 -20 11h-7q-2 0 -6 -0.5t-6 -1.5q-1 0 -8 -5q-1 0 -3 -2t-3 -2q-4 -7 -11 -12q-1 -3 -3.5 -7t-3.5 -7t-1 -6q-2 -2 -2 -6t-1 -5q0 -14 -4 -16q0 -4 -1 -6q-1 -1 0 -1t0 -1q-2 -2 -2 -6
q-5 -9 -18 -11q-2 1 -7.5 0t-8.5 0q-9 5 -11 7q-1 1 -4 1q-1 6 -1 37q13 39 24 51v2q20 22 40 27q14 6 16 6q24 8 52 5l8 -2q8 -3 11 -5h4q8 -4 22 -14q13 -18 13 -21q1 -1 2 -3.5t2 -3.5q0 -5 2 -7q0 -1 0.5 -2.5t-0.5 -3.5q3 -5 3 -16.5t1 -14.5q0 -1 -1 -3.5t-1.5 -4.5
t-0.5 -4t-1 -5.5t-1.5 -6t-0.5 -4.5q-1 -3 -1.5 -10t-2.5 -11l1 -1v-4t-1 -4q0 -2 1 -2q-2 -4 -2 -12v-1h-1q0 -2 -1.5 -14.5t0.5 -13.5q-1 -1 -1 -10q0 -1 -1 -4v-3l1 -2q0 -1 -1 -3v-2l-3 -17q1 -2 0 -6.5t-1 -5.5q-1 -1 -2 -1l-6 -24l-2 -2v-2q-2 -1 -3 -4.5t-2 -4.5
t-3.5 -3t-3.5 -4q-2 -4 -6 -15z" />
    <glyph glyph-name="four" unicode="4" horiz-adv-x="284" 
d="M215 377v-1q25 -3 27 -5q1 0 3 -1.5t3 -1.5q0 -1 1 -5.5t0 -5.5q-2 0 -7 -8v-3l-1 -2q-1 -2 -2 -3h-2v-2l-1 -1q-2 0 -2 -1q-5 -5 -9 -6q-9 -2 -13 -6q2 -4 0.5 -27t-1.5 -28q-2 -3 -2.5 -11.5t-1.5 -10.5q0 -1 1 -1v-1q-2 -12 0 -27q2 -3 0 -5q0 -2 -1 -7t0 -8
q-1 -2 -1 -6.5t-1 -6.5l-1 -27q0 -27 1 -28q-1 -1 -1 -3t-1 -2q1 -3 0 -8.5t0 -8.5v-2q0 -1 -1 -1v-13v-32v-7.5t-1 -6.5q-1 -1 -2 -6.5t-3 -6.5q0 -1 -1.5 -5.5t-1.5 -8.5q-1 -1 -1 -2q-1 -2 -1 -3h-5q-2 -2 -3.5 -7.5t-2.5 -7.5q-5 -1 -8 2l-9 9q-7 7 -8 16q0 3 -1.5 19.5
t0.5 20.5q0 6 -1 9v30q1 1 1 2.5v2.5v1q0 3 0.5 9.5t0.5 10.5v18v14v28q2 11 1 14q2 8 0 14q2 34 4 51v20v6t1 8q0 3 0.5 10t0.5 11q-7 0 -8 -1t-1 0l-1 1q-4 -2 -12 -2h-1l-1 1q-8 -2 -17 0q-12 -2 -21 0q-2 -1 -8 -1h-8q-7 -5 -14 -6q-1 0 -4.5 1t-5.5 1q-9 7 -10 11
q-2 3 -4 3q0 4 -5 11t-6 12v2q1 0 2 1t2 1q0 11 7 30q2 4 4 5q0 2 4 8q3 7 10 26t12 30q0 1 1 3.5t2 3.5q0 3 2.5 7.5t2.5 7.5v1h1q0 1 1 2v1q2 3 4 9.5t3 9.5q1 2 2 2q-1 1 3 9l3 6q0 2 1.5 5t1.5 6q0 1 1 3.5t2 3.5q5 15 7 19q1 5 5 13q0 2 1.5 5t1.5 6q3 5 7 18t7 19
q2 10 9.5 26t8.5 18v1q10 22 17 28l2 1q3 0 4 2h5q0 1 2 1.5t3 2.5q4 -1 12 -1l1 1h2t2 -2l1 -2q16 -12 18 -20q-1 -4 -1 -18q1 -5 -0.5 -17t0.5 -16v-11t1 -10q0 -12 1 -13v-16q-5 -10 -3 -26q0 -4 -0.5 -10.5t-0.5 -9.5q-1 -4 -1 -13v-14v-12q0 -5 -0.5 -14t-1.5 -14v-22
l-1 -2v-2.5t1 -2.5q-3 -13 -1 -31q0 -2 -1 -11t0 -11v-3zM159 552q0 -3 -2 -5q0 -1 -1 -3q-1 -3 -3 -8.5t-3 -8.5v-1h-1q-8 -20 -8 -24q-3 -2 -4 -7q-2 -3 -4 -11t-5 -11q0 -1 -1.5 -3t-0.5 -4q-1 -2 -4.5 -11t-6.5 -12q-1 -3 -2.5 -7t-1.5 -6q-5 -7 -5 -13q-6 -14 -6 -17
q-5 -6 -8 -16q-3 -3 -3 -7q4 -3 8.5 -4.5t11 -2t11 0t13 1t11.5 0.5h5h7.5h6.5v4q0 25 1 37v14q1 10 1.5 32.5t0.5 32.5q0 7 2 25v18q1 3 1 9.5v9.5q1 2 1 17q-4 -1 -6 -8.5t-5 -10.5z" />
    <glyph glyph-name="five" unicode="5" horiz-adv-x="291" 
d="M245 673q-3 -6 5 -9q0 -2 -0.5 -4t-0.5 -3q-1 -1 -3.5 -3t-4.5 -2q-1 -1 -10 -13q-1 0 -4 -1.5t-5 -1.5h-10q-9 -1 -13 -3q-19 2 -31 1h-19q-2 1 -11 -1q-5 0 -15.5 -2t-16.5 -2q0 -1 0.5 -4.5t1.5 -4.5q-1 -1 -1 -3q3 -51 3 -54v-9v-18t-1 -16l-1 -2v-3t-1 -3
q0 -20 -1 -23q0 -1 -1 -3t-1 -3v-8q1 0 4.5 1.5t5.5 1.5l1 1l1 1q24 11 52 14l6 1q6 1 7 -1q5 1 16 -3q3 0 5 -1q1 0 3 -2h4q1 0 2 -1.5t2.5 -2t3.5 -0.5q17 -13 34 -51q-1 0 -1 -1q1 -1 3 -11q2 -4 2 -5q1 0 1 -7l-1 -7q2 -4 2 -8q1 -4 1 -11v-11q0 -33 -1 -37q0 -2 1 -2
q-1 -7 -1.5 -23t-2.5 -23q3 -2 0.5 -10.5t-2.5 -10.5q0 -1 0.5 -2.5t0.5 -2.5q0 -2 -2 -8v-10q-2 -24 -4 -39q0 -21 -2 -31q-1 -3 -0.5 -7t0.5 -6v-17q0 -11 -4 -27q0 -1 -3 -28q-2 -5 -4 -13l-1 -1l-1 -1v-3q-1 0 -1 -2q-2 -2 -5 -8t-5 -8q1 -2 0 -3t-1 -2q-1 -1 -4.5 -6
t-6.5 -7q-1 -1 -2 -2.5t-2 -2.5q-2 -1 -7 -5.5t-9 -5.5q-2 -3 -6.5 -6.5t-5.5 -4.5h-3q-9 -3 -10 -3q-30 -5 -37 -3q-2 1 -7 1q-7 1 -13 4t-13.5 7.5t-11.5 6.5q0 1 -1.5 1.5t-1.5 2.5q-3 2 -16 17q-20 17 -23 45l-1 1l-1 1q-8 31 -8 35q-2 26 -1 42q2 16 2 21q2 32 8 51
q2 2 8.5 3t7.5 2q4 -1 10 -3.5t8 -3.5q1 -1 2.5 -3t2.5 -3q6 -12 8 -18q3 -15 3 -31q-1 -1 0 -1l1 -1q0 -1 -1 -1v-1q-1 -1 0 -2h1v-3q-1 -3 -1 -16q0 -2 -1.5 -8.5t0.5 -7.5q0 -3 0.5 -10.5t-0.5 -11.5q2 -5 3.5 -15.5t2.5 -14.5q14 -36 44 -32q7 4 13.5 9.5t14 12.5
l11.5 11q1 4 9 68v1l-1 1q2 18 2 28l1 2v2q0 25 1 30l-1 1v1q2 20 2 30v4v1q1 1 1 2l-1 1q0 4 0.5 11t1.5 11q0 14 1 18q1 3 0 7.5t-1 6.5q2 26 2 40q1 10 0 19q2 2 0 7q1 0 1 1q0 4 -1 15.5t-1.5 18t-3 14.5t-6.5 13q-2 0 -5.5 1t-4.5 1q-20 -2 -25 -4q-6 -5 -13 -6
q-1 0 -1 -1l-2 -1h-1l-1 -1q-2 -1 -6 -3.5t-6 -3.5q-1 -1 -8 -5t-9 -9q-1 0 -6 -11q-2 0 -4 -4q-3 0 -5 -2h-6q-4 1 -15 8q0 2 -2 2q-1 1 -2.5 4t-2.5 4q1 1 0 1l-1 1q-6 6 -7 10q-4 2 -5 4q0 1 -1.5 3t-1.5 3q-1 6 -0.5 9.5t2 11t1.5 11.5q0 11 1 16q0 2 -1 3q2 4 2 18
q1 3 1 11t1 11l-1 1l1 1l-1 1v2v3.5t1 3.5q-1 6 0 20t1 20q1 0 1 3t1 4v18v61q-1 1 -1 5q2 2 2 3v3q2 2 2 3q1 0 8 3q1 0 4 2t5 2q8 3 19 1q11 1 32.5 -2t32.5 -1q3 0 16.5 0.5t18.5 -1.5h1q2 0 2 1q6 -2 12 0q1 -1 2 -1h3h10q8 0 11 -1q10 -3 11 -3q0 -1 2 -3z" />
    <glyph glyph-name="six" unicode="6" horiz-adv-x="285" 
d="M105 386q2 1 4 1l1 1q1 0 1 1q40 13 56 14l1 -1h3v1q42 -1 60 -34q1 0 1 -0.5t1 -0.5q1 -3 5 -12q0 -1 0.5 -3.5t1.5 -3.5q0 -2 1 -8.5t0 -8.5q1 0 1 -3v-3q-1 -4 2 -13v-21t-1 -21q-1 -1 0 -1v-1q-1 -5 -2 -15t-2 -15l1 -1v-1q-2 -8 -2 -23.5v-19.5q-2 -11 -1 -15
q0 -3 -1 -9t-1 -8q0 -5 -1.5 -21.5t-0.5 -25.5q-2 -33 -9 -51q1 -2 -0.5 -4t-1.5 -3t-0.5 -2.5t-1.5 -2.5q-1 -5 -3.5 -9.5t-6.5 -9t-6 -7.5q-9 -6 -17 -14q-3 0 -7 -2t-6 -2q-4 -3 -13.5 -5t-11.5 -3q-17 0 -20 1q-11 2 -27 9l-1 1q-5 1 -11 5.5t-7 4.5q-2 4 -5 5l-12 15
q0 4 -3 7q1 1 0 2t-2 3.5t-2 3.5t-2 2.5t-2 2.5t-1 3.5t-1 3.5l-2 2l-3 12q-3 6 -3 9q-6 28 -8 43q1 2 0 5.5t0 5.5q-1 4 -1 12q-1 0 -1 1q0 42 4 81q-1 1 1 1q-4 4 -1 16q2 52 6 82q0 9 2 23q0 9 5 59q1 10 2 31t2 31q0 37 5 90q1 5 1 13.5v12.5q0 3 -1 12.5t0 11.5l5 10v3
q1 2 2.5 4.5t2.5 4.5q0 5 3 9l1 1l1 1v2q0 1 1 1q2 4 10 12q2 2 6 4q1 0 7 3q1 1 5 3q1 1 3 2t3 2q3 0 4 1q2 -1 5 -1h5q2 1 8.5 3t8.5 3q4 0 9.5 0.5t7.5 0.5q2 1 3.5 0.5t2.5 -0.5t7 -2t8 -4h3q4 -2 10 -4q2 -2 3 -2l1 -1q1 0 0 -1q6 -3 13.5 -10t10.5 -9q13 -18 16 -33
q0 -3 1.5 -8t1.5 -6q0 -4 1 -5q0 -2 -0.5 -9.5t-1.5 -10.5q2 -17 0 -32q0 -1 -1 -1h-1q0 -15 -2 -23q-1 -3 -4 -6t-4 -5q-1 0 -6.5 -3t-9.5 -3q-6 2 -13 2q-3 2 -6 7.5t-4 7.5q0 4 1.5 14.5t0.5 16.5l1 1q0 5 0.5 14t0.5 13q0 3 -0.5 13t-1.5 15l-3 6l-3 11q0 2 -2 5.5
t-3 5.5q-3 2 -12 11q-1 0 -1 1q-7 1 -28 -9q-1 -2 -5 -4q-1 -1 -2 -1q-1 -2 -3 -8l-2 -2q-3 -2 -4 -3q0 -2 -1 -3q-1 -2 -5 -8q0 -1 -2 -4t-2 -4t1 -4t1 -5t-1 -6t-1 -7q0 -16 2 -24q0 -4 -1 -12.5t-1 -12.5v-4q0 -1 -0.5 -3.5t-0.5 -3.5q-1 -2 -1 -7v-7v-4q-1 0 -1 -1v-1
q0 -1 -0.5 -5.5t-0.5 -6.5q0 -1 1 -5.5t1 -7.5q-1 -2 -1.5 -10t-0.5 -10v-13q0 -3 -0.5 -9.5t-0.5 -10.5q0 -1 0.5 -3t0.5 -3q0 -2 -1 -5t-1 -4v-20q-1 -2 -1 -11zM123 63q0 -1 3 -4q3 0 7.5 -2.5t7.5 -3.5q2 1 7.5 0.5t6.5 1.5l3 3q1 1 1 3l1 1q2 0 2 1l3 9q1 1 3 5
q2 6 3 8q0 1 1 4t1 5v4l1 1v2q1 3 0.5 14.5t2.5 14.5q0 3 2.5 11.5t0.5 13.5q2 27 3 30q-1 6 1 19t2 19q0 3 1.5 9t1.5 9q0 7 2 25q-2 6 -1.5 19t-0.5 20q1 3 0 7.5t-1 6.5q-1 4 -5 10t-5 9q-4 2 -6 6q-2 1 -6.5 4.5t-9 5.5t-9.5 1q-13 -5 -27 -13q-1 -1 -4.5 -5t-5.5 -6
q-8 -8 -9 -10q-1 0 -1 -1t-1 -1q-2 -10 -3 -27.5t-2 -25.5q0 -22 -3 -44q1 -7 1 -22q0 -2 -1 -5.5t-2 -5.5v-11q1 -1 0.5 -14t-0.5 -14q0 -4 0.5 -12.5t1 -15t1.5 -11.5q0 -2 9 -32q5 -1 11 -7.5t11 -8.5z" />
    <glyph glyph-name="seven" unicode="7" horiz-adv-x="236" 
d="M228 676q0 -1 1 -3t1 -3q-5 -8 -3 -11q1 -2 -1 -6l-3 -4v-5q0 -4 -2 -10q-2 -5 -2.5 -13t-1.5 -11q0 -7 -1 -9q0 -1 -1 -3t-1 -3q-1 -2 -1 -8l-2 -2q-7 -27 -9 -30v-3.5v-3.5q-2 -3 -4 -13.5t-5 -13.5q-1 -8 -9 -22q0 -7 -2 -7v-5q-3 -4 -5 -13t-4 -12v-2q-4 -16 -8 -26
q-6 -19 -6 -24q-1 0 -1 -1q-2 -6 -10 -42q-3 -17 -8 -26q0 -2 -1.5 -6.5t-1.5 -7.5q-1 -1 -2 -7t-3 -8q-1 -5 -3.5 -14.5t-3.5 -14.5q0 -2 -2.5 -9.5t-3.5 -12.5q0 -1 -1 -1q0 -2 -2 -9q-2 -8 -3 -9q0 -4 -2 -10.5t-2 -8.5q-2 -5 -6 -22t-9 -25q-1 -7 -5.5 -19t-4.5 -17
q-1 -3 -2.5 -10t-2.5 -10q0 -4 -1 -7q0 -3 -4 -7q0 -1 -1.5 -8t-3.5 -10q1 0 0 -1q-1 -8 -5 -17q-5 -12 -6 -13q0 -1 -0.5 -4t-1.5 -4v-2q-4 -10 -4 -13q0 -1 -1.5 -3.5t-2.5 -3.5q-3 -6 -5 -8q-7 -10 -7 -11l-7 -7l-3 -1q-1 -1 -3 -4q-3 -5 -10 -4l-3 3q-6 14 -6 16
q-8 7 -1 29q1 5 5 20v1q2 7 6 23q0 8 1 11l2 2q1 1 1 4v4q2 4 4.5 15.5t4.5 16.5v3q3 6 5.5 18t4.5 17q0 1 0.5 3t1 3.5t1.5 2.5v3q1 2 5.5 17t7.5 23q0 1 -1 3q2 2 4 9.5t2 8.5v2l6 24q0 1 1 3q2 4 2 6l4 12q1 1 1 3t1 3l1 1q0 2 1 3q2 15 7 25q-1 2 1 7q5 18 8 25
q1 11 6 22q1 6 5 18.5t5 18.5q2 11 4 13l6 21q1 2 3 9t3 10q0 2 1.5 7.5t2.5 8.5q2 9 3 10q1 2 2.5 6t1.5 6q0 3 2 9q2 5 6 17v3q2 2 2 3t0.5 4t1.5 4t0 1v1q2 4 3.5 13t4.5 13q2 11 9 30.5t9 31.5q-22 -2 -28 -4h-3.5t-3.5 -1q-17 1 -46 -1q-10 2 -13 2q-25 4 -27 4l-1 1
q0 1 -1 0t-1 0h-5l-6 4q-6 4 -8 6q-2 1 -4.5 5t-4.5 5q0 1 -0.5 2t-2 2.5t-1.5 2.5q0 2 2 6h5t5 2q2 0 6.5 1.5t8.5 0.5q5 1 15 1.5t13 0.5h6q14 0 20 1q10 -1 25 0t24 1h24l1 -1q1 0 1 0.5t1 0.5q6 -1 26.5 -2t28.5 -6z" />
    <glyph glyph-name="eight" unicode="8" horiz-adv-x="284" 
d="M80 374q0 2 -3 5t-3 5q-2 1 -4.5 4t-4.5 4v2q-16 21 -18 72q2 7 0 17q2 5 3.5 18t2.5 18q0 13 4 31q0 4 1.5 14t0.5 14q0 5 2 14.5t2 13.5q0 1 -2 4t-2 5t2 7l2 4q4 13 17 30q7 7 35 27q3 1 8.5 3.5t7.5 3.5q1 0 9 2t13 4q4 -1 10 -0.5t8 0.5q6 0 25 -7q5 -2 10.5 -7.5
l7.5 -7.5v-2q8 -8 9 -12q1 -1 3 -4t3 -4q8 -17 9 -31q-1 -6 -1 -15q1 0 1 -2q0 -4 1.5 -10t1.5 -9v-10l1 -1v-3v-2q-1 -2 -1 -3t1.5 -3t1.5 -3q0 -7 1 -11q-2 0 -1.5 -3.5t0.5 -5.5q0 -5 1 -6l-3 -18v-12l-2 -2q0 -1 0.5 -2.5t0.5 -3.5t-1 -6.5t-1 -5.5q1 -2 0 -6t-1 -5
q0 -10 -2 -13q1 -1 1.5 -3.5t0.5 -3.5q-1 -1 -0.5 -2t1 -2.5t0.5 -3.5q1 -1 0 -3.5t-1 -3.5v-16q1 -3 -0.5 -8.5t-1.5 -7.5q-4 -3 -6.5 -14t-5.5 -14q-4 -6 -5 -10q-4 -4 -4 -7q0 -2 7 -9q0 -1 1.5 -5t3.5 -6v-4q8 -20 9 -33q2 -5 3.5 -16.5t2.5 -16.5q-1 -2 0.5 -9
t-0.5 -10q1 -1 0.5 -6t1.5 -6q-1 -5 -0.5 -15t-1.5 -14q2 -6 0 -17.5t-1 -16.5q-2 -14 -2 -20q-1 -1 0 -1v-1q-2 -10 -2 -14v-9q0 -1 -1.5 -6.5t0.5 -5.5q-2 -6 -5 -21.5t-6 -22.5v-3q-1 -9 -5 -16q-1 -3 -3.5 -7.5t-3.5 -5.5q0 -2 -1 -3q0 -1 -2 -3.5t-3 -4.5l-3 -5
q-2 -4 -3 -7q-1 0 -4 -3l-1 -1q0 -1 0.5 -1t0.5 -1q-1 0 -3 -1q-2 -4 -6 -8q-1 -1 -4 -3q-1 -1 -5 -3q-5 -6 -7 -6l-6 -3h-5q-6 -3 -9 -2q-14 -2 -21 -2q-37 4 -46 9q-4 3 -14 9t-14.5 9.5t-10.5 9.5t-9 13q-1 0 -1 1t-1 1q-1 4 -5.5 16.5t-5.5 19.5q-1 3 -1.5 8.5t-0.5 8.5
v26q0 3 0.5 9t0.5 9v7q0 1 1 3v41q3 8 4.5 20t2.5 26.5t2 21.5q0 1 0.5 3.5t0.5 4.5v4v4q6 27 8 32v1q-1 0 -1 1q0 2 2 4q0 9 5 19q5 14 6 15v2l6.5 10t9 11.5t10.5 7.5zM168 388q1 3 7.5 13.5t9 19t2.5 18.5l-1 1q2 4 2 12t2 12q-2 2 1 14q0 2 0.5 9.5t-0.5 10.5q1 1 1 2
l-1 4l1 1v2q2 21 1 32q0 1 0.5 1t0.5 1q0 22 1 27q-1 4 0 13t0 12q3 11 -3 29q-2 12 -4 15q0 1 -2 4.5t-3 5.5q-6 6 -9 8h-3l-1 1q0 2 -1 2q-4 1 -11 -1q-2 0 -6 -0.5t-7 -0.5q0 -1 -2 -1l-2 -1q-2 -1 -3 -4.5t-2 -4.5q-4 -4 -6 -7h-2q-1 -2 -9 -9.5t-4 -13.5q-1 -6 -1 -21
t-2 -22q4 -22 0 -35q0 -3 -0.5 -9t-0.5 -8q-1 0 0 -1q0 -8 -2 -22q0 -1 -1 -5v-3q-1 -1 -0.5 -4.5t-1.5 -4.5q1 -9 0 -19q-1 -5 -2 -16.5t-2 -16.5q-1 -1 0 -2h2q-1 -1 -1 -3.5t-1 -3.5q3 -3 3 -11q4 -10 7 -13q2 -1 3.5 -2.5t2.5 -1.5q15 -11 44 -9zM128 344q-1 0 -4 -1
t-4 -1h-4q-16 -5 -18 -8q-3 -1 -5 -11q-6 -13 -8 -29v-20q-2 -10 -2 -17q0 -2 -0.5 -5t-0.5 -4q-1 -5 -1 -24t-3 -28v-11q1 -2 -1 -9q0 -22 -1 -26v-6q0 -2 -0.5 -4t-0.5 -3q1 -1 1 -2q0 -3 -0.5 -6.5t-0.5 -5.5v-18v-18q6 -43 20 -53q20 -8 25 -9q15 -2 21 2q1 2 4 4.5
t4 3.5q0 1 3 11q2 0 2 1q1 1 1.5 3.5t0.5 3.5q2 2 4 7t2 6q0 2 1 4.5t2 3.5q3 6 3 8q1 3 2.5 9.5t2.5 9.5q2 5 10 43q0 1 0.5 4t0.5 5q0 4 1.5 10.5t1.5 10.5q0 3 2 10t2 10v8q2 10 2 26.5t1 23.5q-2 59 -10 83q-13 -1 -33.5 3.5t-22.5 4.5z" />
    <glyph glyph-name="nine" unicode="9" horiz-adv-x="256" 
d="M159 297q-27 -3 -51 5q-25 9 -38 18q-1 2 -3 4q-3 2 -3 3q-1 1 -4 4.5t-5 4.5q0 2 -0.5 3.5t-0.5 2.5q-3 4 -7 13t-5 11q0 4 -1.5 11t-0.5 12q-1 3 -1 10t-1 11q1 1 -1 6v32q1 19 0 40h1v1v4q-1 2 0 10t0 11v44q2 6 0 12q1 1 1.5 3.5t-0.5 3.5q1 4 3.5 29.5t7.5 36.5
q1 -1 2 -1l2 1l5 10q17 17 21 19q1 1 3 2t3 2q4 1 11 6t13 5q4 2 26 7q2 0 8 -0.5t8 -1.5q0 1 1 1q4 -1 9.5 -3.5t8.5 -2.5q3 -3 9 -7t8 -6q1 0 0 -1q2 0 3 -1q1 -2 3.5 -4.5t2.5 -3.5l1 -2q0 -1 1 -1q0 -1 3 -4q0 -2 2 -6.5t3 -7.5q1 0 1 -0.5t1 -0.5q0 -3 2.5 -8t1.5 -9
q1 -4 4 -14.5t4 -17.5q0 -6 -1 -9q1 -2 0.5 -8t0.5 -8q0 -1 -1 -1v-1v-7l1 -1q0 -1 -1 -11t-2 -15q1 0 1 -1t-1 -1q0 -6 -2 -43q0 -15 -1 -18q0 -1 0.5 -1t0.5 -1q-1 -3 -1.5 -10t-0.5 -9v-34v-23q-2 0 -2 -10l1 -1h-1l1 -2q1 -4 0 -11.5t-1 -9.5q0 -15 1 -21q-2 -2 -2 -5
v-4q2 -6 1 -27.5t-1 -27.5q-1 -2 -1 -9q1 -11 -1.5 -35t-2.5 -27q0 -1 3 -20q0 -1 -0.5 -1t-0.5 -1t0.5 -1t0.5 -1t-1 -2v-1v-8q0 -5 -1 -16t0 -16v-6q0 -3 -0.5 -9t0.5 -8q-1 -2 -1 -8t-2 -8v-2t1 -2l-1 -1q0 -3 -1 -11.5t-1 -12.5q0 -2 -1 -3q0 -2 -1 -5t0 -4
q0 -1 -1 -3.5t-2 -4.5q0 -3 -1 -3q-1 -5 -5.5 -11.5t-5.5 -9.5q-2 -1 -5 -4t-9 -7q-4 -1 -10 -4t-10 -4l-1 -1h-1q-3 0 -4 -1q-17 -3 -37 4q-15 6 -27 18q-1 0 -1 0.5t-1 0.5h-1q-1 1 0 2q-13 8 -16 13q-3 2 -7 8q-2 2 -4.5 7.5t-5.5 8.5q0 2 -1 4.5t-1 3.5q-1 0 -1 1t-1 1
q0 9 -3 11q0 2 -1 6t-1 6l-3 15q0 1 -0.5 3t-0.5 3v7.5t-1 7.5v12q-2 6 0 10v8q0 4 0.5 12t1.5 11q-1 3 2 16q2 10 3 10q-1 4 4 9q11 2 17 1q3 -1 11 -6q3 -6 3 -29v-13q2 -6 2 -20.5v-17.5v-7q1 -1 1.5 -5.5t1.5 -5.5q0 -8 4 -20q0 -1 3 -13q6 -11 6 -14l1 -2l5 -10
q5 -2 6 -6q1 0 1 -1v-2l3 -3q4 -3 9 -4q3 0 5 -1q2 0 6 -2v1h7l9 9q1 2 2 6t2 6q1 4 1.5 14t1.5 14q0 3 1 11.5t1 11.5q0 15 1 22q0 5 1 6v28q-1 13 1 44q1 5 0 13t-1 11v16q2 28 5 45zM89 447q1 -2 0.5 -6t-0.5 -5q-1 -1 0 -2q0 -5 -1 -6l1 -2q0 -3 -1 -7t-1 -5q0 -2 1 -5
t1 -4l-1 -1v-3q0 -2 1.5 -6t1.5 -6q4 -15 5 -20q2 -2 4.5 -6.5t3.5 -6.5v-2q11 -13 27 -14h1h4q8 0 12 1q13 11 17 20v8t-1 8v3.5t1 3.5q-1 4 0 14t0 13q1 1 1 4v2q-1 5 0 16t1 14q-1 3 0 11.5t-1 10.5q2 6 2 18t1 17v4q-1 0 -1 3v3q3 16 2 30q1 2 1 14q1 0 1 1q0 13 -1 20
q1 2 0.5 7.5t-0.5 8.5q-1 3 0 9q-1 4 -3.5 13t-3.5 13q-1 2 -3.5 8.5t-5 10t-7.5 4.5q-1 0 -2.5 0.5t-2.5 1.5q-2 0 -3 -1q-4 0 -16 -2q-2 -2 -9 -4q-9 -6 -11 -9q-1 -1 -1 -10q0 -1 -0.5 -3.5t-0.5 -3.5h-1q-1 -1 -1 -6q-2 -2 -3 -4q0 -1 -0.5 -2t-1.5 -2q1 0 0.5 -3
t-0.5 -4q-1 0 -2 -1t-2 -1v-2.5t-1 -2.5q1 -12 -1 -32q1 -2 0.5 -6.5t0.5 -5.5h-1q-1 -1 0 -2q1 -2 0.5 -8.5t-0.5 -8.5q-2 -11 -0.5 -34t-0.5 -32v-4.5t1 -5.5v-8z" />
    <glyph glyph-name="colon" unicode=":" horiz-adv-x="124" 
d="M47 178q-3 -2 -4 -1.5t-3.5 2t-4.5 1.5q-17 27 -5 58q3 11 10 13q1 1 6 1t6 2q4 0 9 -8q30 -19 34 -28q1 -5 1 -22q0 -2 -6 -14q0 -9 -1 -10q-10 -10 -14 -10q-1 0 -4 1t-5 1h-3.5t-3.5 1q-2 0 -12 13zM47 34q-3 -2 -4 -1.5t-3.5 2t-4.5 1.5q-17 27 -5 58q3 11 10 13
q1 1 6 1t6 2q4 0 9 -8q30 -19 34 -28q1 -5 1 -22q0 -2 -6 -14q0 -9 -1 -10q-10 -10 -14 -10q-1 0 -4 1t-5 1h-3.5t-3.5 1q-2 0 -12 13z" />
    <glyph glyph-name="semicolon" unicode=";" horiz-adv-x="109" 
d="M39 109q4 0 7.5 1.5t6.5 1.5q3 -1 11.5 -2t11.5 -3q1 -1 2 -3t3 -3q1 -2 4 -3.5t4 -2.5q3 -4 5 -16v-8v-10v-7q-8 -22 -27 -41q-2 -7 -9 -7q-4 0 -6 7q0 2 -0.5 3t-0.5 2q0 2 1 5.5t0 6.5q-7 1 -11.5 4.5t-7 9.5t-4 10t-3 14t-2.5 13v9q0 8 7 17zM47 180q-2 -1 -12 3
q-6 9 -8 25t3 32q3 11 10 13q1 1 6 1t6 2q2 0 9 -7l9 -6t10 -7t8.5 -7t6.5 -9q1 -5 1 -22q0 -2 -6 -14q0 -9 -1 -10q-9 -9 -14 -9q-1 0 -4 0.5t-5 0.5h-3.5t-3.5 1q-2 0 -12 13z" />
    <glyph glyph-name="less" unicode="&#x3c;" horiz-adv-x="137" 
d="M121 118l-16 -14q-15 9 -18 14q0 2 -2 3q-1 2 -6 5q-1 0 -1 2t-1 3q-1 2 -8 10t-9 14q-27 32 -39 53q-15 6 -14 21q3 15 10 28q2 3 10 11q8 12 27 36l25 32q9 6 20 10q5 1 15 0q0 -1 3 -3.5t4 -4.5q1 0 0 -5.5t-1 -7.5q-9 -18 -30 -48t-29 -43q1 -1 48 -67q1 -1 4.5 -5.5
t5 -7l4 -7t3 -7.5t1 -7t-1 -8t-4.5 -7z" />
    <glyph glyph-name="equal" unicode="=" horiz-adv-x="239" 
d="M233 193q-9 -15 -6 -18q-2 -1 -4 -4t-4 -4q-64 -8 -105 -8h-49q-17 3 -21 1q-3 4 -6 5q-1 -1 -7 -1q-2 1 -7.5 5.5t-9 8t-5.5 7.5q0 2 2.5 4.5l3.5 3.5q8 3 12 7q21 0 24 7q6 -4 50 -1h16q8 0 20 1t22.5 1.5t20.5 0.5q6 0 15.5 -1t13.5 -1q3 -2 9.5 -5t8.5 -5q3 -1 6 -4z
M222 266q-10 -2 -10 -11q-10 -2 -80 -5q-11 -1 -31 -0.5t-28 0.5q-1 0 -3 -0.5l-2 -0.5q-6 0 -18 3.5t-19 2.5q-1 4 -8 4q0 1 0.5 2t0.5 2q-2 1 -4.5 4t-4.5 4q-1 1 -1 4t-2 4q2 6 8.5 9t16 5t14.5 4q2 0 3 -1h1q36 1 95 5h11h12.5h9.5q3 -1 8.5 -1t8.5 -1q0 -1 7 -4
q8 0 11 -3q2 0 5 -6.5t-1 -8.5v-11z" />
    <glyph glyph-name="greater" unicode="&#x3e;" horiz-adv-x="146" 
d="M30 95q-7 6 -9 23q-3 3 -4.5 7t-1 8t1 7t3 7.5l4 7t5 7t4.5 5.5q47 66 48 67q-8 13 -29 43t-30 48q0 2 -1 7.5t0 5.5q1 2 4 4.5t3 3.5q10 1 15 0q11 -4 20 -10l25 -32t27 -36q8 -8 10 -11q7 -13 10 -28q1 -15 -14 -21q-12 -21 -39 -53q-2 -6 -9 -14t-8 -10q-1 -1 -1 -3
t-1 -2q-5 -3 -6 -5q-2 -1 -2 -3q-3 -6 -14 -12l-3 -5q-4 -5 -8 -6z" />
    <glyph glyph-name="question" unicode="?" horiz-adv-x="206" 
d="M54 -33q-3 0 -4.5 1t-3 2.5l-2.5 2.5t-4 3t-4 4q-16 17 -6 52q10 8 13 11q1 0 8 1t11 2q18 -12 16 -23t-8 -24q-11 -26 -16 -32zM49 76q-8 3 -12 10.5t-4 19.5t1 22t3 25l3 22q5 39 23 110q1 4 3 13t4 14q3 6 7 28q31 100 69 197q7 53 4 70q-5 27 -28 28q-17 2 -35 -13.5
t-27 -36.5q-5 -13 -6 -16q-2 -8 -4 -23t-5 -26t-8 -17q-6 -7 -16 -9.5t-19 3.5q-15 27 3 81q25 70 77 100q43 18 70 4q11 -5 13 -7q8 -4 17.5 -13.5t14.5 -18.5q15 -28 15 -62q0 -23 -12 -63q-11 -40 -18 -55l-3 -9q-1 -3 -3.5 -8.5t-3.5 -7.5q-1 -3 -2.5 -10.5t-2.5 -11.5
q-1 -3 -4 -8.5t-4 -9.5l-6 -18q-1 -4 -3.5 -10.5t-3.5 -8.5q0 -8 -1 -10q-1 -1 -3 -5t-2 -5t-0.5 -4t-1.5 -4q-4 -12 -6 -17q-5 -12 -6 -13q-2 -9 -7.5 -23.5t-6.5 -18.5q-16 -66 -22 -88q-2 -10 -4 -22q-2 -7 -4 -22l-3 -22l-3 -18q-1 -2 -4 -6t-4 -7q-4 -10 -10 -10
q-2 -1 -4.5 2.5t-4.5 7.5z" />
    <glyph glyph-name="at" unicode="@" horiz-adv-x="332" 
d="M170 389q1 1 1.5 4.5t2.5 5.5q16 2 27 -9q12 -7 16 -35v-23q-1 -11 -1 -34t-1 -35v-9v-26q0 -3 -1 -10.5t-1 -11t2.5 -7t7.5 -4.5q6 0 15 7q10 9 20 33q6 7 7 16l3 9l6 21q5 25 3 56q0 5 -3 9v10q-1 4 -5 12.5t-5 12.5q-9 17 -21 27q-19 15 -36 20q-7 5 -10 5
q-11 3 -19.5 0.5t-19.5 -9.5t-16 -9q-33 -27 -53 -66q-2 -8 -8 -20q-2 -4 -4 -11t-3 -11q-5 -11 -7 -35q-5 -26 0 -56q0 -2 0.5 -5t0.5 -4v-6t1 -4q0 -1 1 -3l1 -3q6 -22 21 -37q24 -24 40 -27q47 -11 75 10l5.5 5.5t6.5 6t6 3.5q15 5 28 -4q1 -17 -19 -33q-30 -19 -90 -13
q-34 4 -57 18q-31 29 -36 38q-24 38 -26 102q0 23 11 71q1 3 4 14.5t5 16.5q10 21 34 49q15 17 28 26l18 9q32 12 56 9q18 -1 46 -15q11 -5 20 -12q1 0 3.5 -2t4.5 -3q1 -1 4.5 -2.5t4.5 -3.5q4 -2 6 -6q1 -1 3 -2.5t3 -2.5q4 -4 11 -20q11 -21 11 -23q1 -1 3 -13
q0 -2 1.5 -5t1.5 -5v-9q0 -2 1 -5.5t1 -6.5q0 -17 -5.5 -45.5t-6.5 -40.5q-8 -22 -13 -32q-6 -14 -13 -19q-20 -18 -54 -18q-5 -1 -20 6h-7q-1 0 -4 2t-5 2q-1 2 -9.5 0.5t-10.5 -1.5q-15 0 -33 9q-18 12 -26 31q-7 21 -7 38q0 34 6 70q14 51 36 63q12 7 36 5zM167 353
q-8 0 -15 -12q-3 -8 -4 -10q-5 -14 -7 -34l-1 -2l-2 -4q-1 -9 -1 -27q0 -26 1 -36q4 -18 13 -20q3 0 8 3t6 3q0 1 3 139h-1z" />
    <glyph glyph-name="A" unicode="A" horiz-adv-x="297" 
d="M195 691q0 -1 1.5 -3t2.5 -4q2 0 12 -13q6 -22 6 -26q1 -1 1.5 -5t1.5 -5v-8q2 -3 2 -11q0 -5 0.5 -13.5t0.5 -11.5q2 -5 2 -20q2 -6 2 -8q0 -13 1 -19q0 -4 2 -14t1 -16q2 -5 0 -9q2 -4 0 -6q5 -11 3 -23q5 -15 5 -20q-3 -6 1 -14q-1 -2 0 -4v-13q2 -6 2 -9q0 -14 4 -34
v-14v-4t1 -4q0 -6 1 -9q1 -1 -1 -1q2 -3 3 -10.5t2 -9.5q-1 -5 0.5 -12.5t1.5 -10.5q1 -2 1 -12q0 -2 2 -8.5t2 -9.5v-12q0 -1 0.5 -4.5t1.5 -5.5q-2 -6 1 -21q-1 -8 1 -26h-1v-1v-1h1q-1 -4 0 -9v-3q1 -1 1 -4.5v-5.5q1 -4 2 -18t3 -21q0 -1 3 -26q0 -1 -0.5 -2.5
t-0.5 -2.5q2 -4 2 -10q0 -8 1 -11q-1 -4 0.5 -12t1.5 -11v-11q-1 -3 0.5 -9.5t1.5 -8.5t-1 -6t-1 -6q2 -7 1 -9l-1 -1v-2v-8v-5t-1 -5q-2 -2 -7.5 -3.5t-7.5 -2.5l-1 -2q0 -1 -1 -1t-6 5q-2 1 -6 1t-5 1q-3 3 -5 4q0 2 -3.5 4.5t-4.5 5.5l1 1h1q1 1 2 1q0 2 -2.5 4.5
t-2.5 4.5v14l-3 9q-1 5 -1 17q0 1 -1 8.5t-1 9.5q-1 4 -1.5 12.5t-0.5 12.5q-1 5 -2.5 14.5t-1.5 11.5q0 3 -0.5 10.5t-1.5 10.5l-1 4v6v7q-3 48 -3 53q0 22 -4 68h-1v1h-53q-20 0 -22 -1q-3 -9 -3 -19q-3 -6 -6.5 -20.5t-4.5 -16.5q3 -2 -2 -7q-1 -3 -2 -11t-2 -11
q0 -8 -2 -11l-2 -9q-2 -9 -2 -13q-1 -1 -2 -5.5t-2 -5.5q0 -16 -4 -21q0 -2 -0.5 -6.5t-1.5 -6.5q0 -3 -1 -5.5t-2.5 -5.5t-1.5 -4q0 -10 -3 -16v-1q-1 -3 -5.5 -25t-7.5 -25q0 -2 -2 -6.5t-2 -6.5q-3 -3 -3 -8q-5 -6 -2 -14q7 -3 2 -10l-4 -4q-4 -1 -13 -1q-6 0 -16 2
q-1 0 -3 1q-3 0 -3 2q-3 0 -8 1.5t-6 1.5q-6 6 -3 13q0 1 1.5 2.5t0.5 2.5q4 2 2 10q-2 14 6 55q0 2 0.5 7t1.5 7q0 2 2 4v2q2 4 4 19q2 6 2 8q1 0 1 1v1v1q1 3 3 12.5t4 13.5l1 2q0 1 -1 2q3 4 3 12q2 4 4 13t3 13v1q1 6 4.5 21t4.5 22q2 4 4 14q0 2 1 5.5t2 5.5q0 1 1 2v6
l1 1q1 2 0 3l3 15q2 6 2 7q1 4 2 11t2 10v1q1 1 1 3l1 1q0 3 2.5 14.5t3.5 17.5q2 8 4 20t3 17q0 2 1.5 5.5t0.5 6.5h1v1q0 3 3 15q0 6 2 8q-1 2 0 3.5t1 2.5q1 3 2.5 11.5t3.5 11.5q-1 1 -0.5 2.5t1.5 1.5q-1 2 0 6t1 5q1 2 1.5 4t0.5 3q0 5 3 18.5t3 20.5q2 8 7 44v1
q2 15 9.5 49t9.5 48v5q2 4 2 6l3 3q3 1 8 2.5t6 1.5q6 0 9 -2v1q0 1 1 2q3 1 10 1l1 1q1 1 3 1q1 1 4 0l1 -1h7zM177 535q0 -1 -2.5 -8.5t-3.5 -11.5t-2.5 -9t-1.5 -8q0 -5 -1 -7v-1q-1 -2 -1.5 -5t-0.5 -4t-0.5 -2.5t-0.5 -2.5q-1 -2 -1 -5q-2 -2 -2 -7.5t-1 -7.5l-1 -1v-1
q0 -8 -1 -9v-2l-2 -2q0 -15 -4 -24q1 -5 -4 -17q-1 -2 -1 -6.5v-6.5q-2 -4 -2 -5v-1q0 -1 -1 -1q0 -1 -0.5 -2.5t-0.5 -2.5q1 0 1 -1q0 -2 -1.5 -7.5t-1.5 -6.5q0 -12 -1 -14q0 -1 -0.5 -3.5t-0.5 -3.5t1 -2q11 -1 32.5 -1.5t28.5 -0.5q-1 9 -2.5 27t-2.5 27q-1 2 -1 6.5
v6.5t-0.5 6t-0.5 6v1q0 4 -3 31q-1 6 -2 21.5t-2 21.5q-1 5 -1.5 13t-0.5 10q-2 16 -3 22q0 8 -1 11q-1 -1 -3 -10z" />
    <glyph glyph-name="B" unicode="B" horiz-adv-x="283" 
d="M167 392q2 0 2 -1q5 -2 10 -5t11.5 -7.5l9.5 -6.5q0 -1 2.5 -3.5t3.5 -4.5t5 -6.5t5 -7.5h1l1 -1q3 -9 9 -25v-6h1v-1q0 -5 1 -7v-3q2 -2 2 -11q0 -1 0.5 -3.5t0.5 -4.5q0 -3 0.5 -8t1.5 -7q-2 -2 -0.5 -8.5t1.5 -7.5q-2 -2 -2 -3h1v-4q-1 -4 -1 -13v-18
q-1 -4 -1.5 -14.5t-2.5 -15.5q1 -4 -0.5 -10t-1.5 -9v-2q0 -2 -0.5 -3.5t-0.5 -2.5q-1 -2 -2 -10t-3 -11q1 -4 -1.5 -9.5t-2.5 -8.5l-3 -8q-1 0 -2 -2l-1 -2q0 -2 -2 -6q0 -3 -1 -4q0 -1 -1 -1t-1 -1v-2t-1 -2l-3 -6q-1 -1 -2 -3.5t-2 -3.5q0 -2 -3 -6.5t-4 -5.5v-3
q-1 -1 -5 -7q-7 -7 -10 -11q0 -1 -2 -3q-1 0 -1 -1l-1 -2q0 -1 -2 -1t-2 -1t-2 -3q0 -1 -1 -1l-2 -1l-2 -2q-1 0 -1 -1l-2 -1l-1 -1q-5 -3 -5 -4q-4 -2 -7 -5q-1 -1 -8 -5t-9 -6h-1q-5 -4 -15 -7q-3 0 -8 -0.5t-9 -0.5h-3q-4 -2 -13 -2h-11q0 2 -1 2q0 -2 -1 -3q-2 0 -3.5 1
t-2.5 1q-9 -3 -9 4q1 1 1 4v2v3q-1 3 -1 4v4q0 1 -1 1l-1 2q-1 3 -1 9t-1 8q-3 6 -3 16l-1 1q0 22 2 61.5t2 53.5q1 5 1 17q0 3 0.5 9t0.5 9q0 2 0.5 8t0.5 9t0.5 9.5t0.5 10.5q0 3 0.5 8t0.5 7v26v17v75v16q0 18 2 52v26q0 10 0.5 27t0.5 25q0 5 -0.5 13t-0.5 11v24
q0 3 0.5 7t0.5 6q-2 4 -3 5v2q1 1 1 2q0 14 1 16v1h-1q3 26 1 56q0 9 -1 14q1 2 3 4.5t3 3.5q1 0 1 1h1q4 0 5 2h2q18 6 27 8q32 2 43 -1q2 0 6 -1t6 -1q4 -1 12 -4.5t13 -5.5q1 -1 13 -10l2 -2q1 -1 4 -3.5t4 -3.5q1 -3 2 -5t3 -4t3 -4l2 -2q0 -3 3 -4q2 -6 5.5 -14.5
t4.5 -10.5v-3q2 -5 3 -14t2 -12v-7v-1v-2q1 -2 1 -3q0 -10 -1 -14l-1 -2q0 -1 0.5 -3t0.5 -3q0 -2 -1 -5t-1 -5q0 -3 -0.5 -11t-0.5 -12v-11q-2 -6 -2 -9q-1 -1 -1 -4v-5v-1q-1 -1 -1 -2q0 -4 -1 -6q-1 0 -1.5 -2.5t-1.5 -3.5q0 -4 -4 -16q0 -5 -2 -7q0 -1 -2 -5t-2 -8
q-2 -1 -4 -5q-1 -2 -2.5 -5.5t-2.5 -5.5q-1 -1 -4.5 -6.5t-6.5 -7.5q-2 -6 -5 -7q-1 -2 -5 -9q-1 -1 -3.5 -4.5zM127 416q1 2 5 6t5 8q1 1 6 8q2 3 4 9q2 1 3 4t2 4q0 2 1.5 6t1.5 5t2 3l-1 1h1q1 2 1 5q2 4 2 5v2l3 6q0 1 1 4v2l1 1v5q0 1 1.5 5t1.5 6l3 15q1 1 1 2v11
q1 1 1 6q0 3 0.5 9t0.5 8t-0.5 5.5t-0.5 5.5q1 12 -2 26q-1 5 -4 14q-5 17 -7 20q0 2 -1 3v0l-1 1q0 2 -3 5.5t-4 6.5q-3 1 -8 4.5l-8 5.5q-8 3 -9 4q-2 0 -10 0.5t-11 -0.5q1 -4 2 -12t2 -12q3 -27 3 -30q5 -21 4 -28q-4 -6 -4 -15q-2 -13 0 -24v-35v-9t1 -8q0 -4 0.5 -14
t-0.5 -14v-8q0 -3 0.5 -10t0.5 -11q0 -3 -0.5 -6.5t-0.5 -4.5v-4q-2 -12 -1 -16q3 2 7 7t8 7zM123 76q7 5 8 9q9 9 10 12q1 0 2 1.5t3 1.5q10 16 14 29q1 0 1.5 2t1.5 2q9 22 13 39q0 7 1 9q3 33 3 36q0 1 0.5 4t0.5 5v7q1 1 1 2q0 4 -1 6q1 13 -1 40v5v2q-1 2 -1 3
q-1 3 -1 8q-2 4 -2 6q0 6 -1 9q-3 12 -7 18v2l-3 3q0 2 -2 4l-3 3v1q-1 0 -3 2l-2 2q-1 1 -2.5 1t-2.5 1q-1 2 -5 4q-1 1 -5 2t-5 2q-8 2 -9 2q-4 1 -9 -1.5t-7 -2.5h-1q0 -26 1 -35v-3q1 -5 1 -12t-0.5 -15.5t-0.5 -13.5v-9v-11v-9q0 -1 -1 -2t-1 -2q1 -1 1 -5v-10v-13
q0 -6 -2 -18l1 -1v-3q0 -3 -2 -9v-20v-1v-2v-7l-1 -1v-10q0 -5 -1 -14.5t-1 -15.5v-23v-1q-1 -4 -1 -32q4 2 11 8.5t10 8.5z" />
    <glyph glyph-name="C" unicode="C" horiz-adv-x="294" 
d="M211 448q-2 6 -2 50q0 2 1 8t0 9q0 3 1 5l-1 1q1 7 0 21.5t-1 18.5q1 7 0.5 19t-0.5 18q-1 1 -1 8q-1 10 -5 23l-9 24q-1 0 -4.5 1t-6.5 2q-5 2 -6 0q-3 -2 -5 -5q-1 -1 -8 -10q0 -4 -5 -9t-5 -7q1 -5 -1.5 -13t-2.5 -12q-2 -2 -4.5 -8.5t-3.5 -8.5h1q-1 -1 -1 -4
q-1 -2 -2 -7t-3 -8q-1 -7 -5.5 -20t-5.5 -18q-1 -2 -1 -6q-4 -16 -4 -18q-2 -3 -3.5 -11t-3.5 -11v-3q-1 -1 -1.5 -3t-0.5 -3l-1 -1q0 -6 -1 -8q0 -1 -2 -5q0 -3 -0.5 -8.5t-0.5 -7.5q-3 -48 -3 -49q-2 -6 -2 -7q0 -2 0.5 -3.5t0.5 -2.5q0 -2 -0.5 -6t-0.5 -5v-5v-7.5v-6.5
q0 -4 0.5 -10.5t0.5 -9.5v-17q-1 -3 -0.5 -8.5t0.5 -7.5t-0.5 -6t-0.5 -6t0.5 -7t0.5 -8v-10q1 -4 1.5 -12.5t0.5 -12.5q0 -2 0.5 -4t0.5 -4q1 -3 1 -9v-8t2 -10q0 -9 3 -15q0 -2 0.5 -7.5t1.5 -7.5q-1 -2 1 -7t2 -7q3 -5 1 -7q1 -4 10 -36.5t16 -46.5q10 -5 22 -17
q2 1 4.5 4.5t4.5 4.5q2 5 7.5 15t8.5 15q0 2 2 6.5t1 7.5q1 1 4 14l1 1q1 0 2 1q0 9 4 15q0 2 1.5 8.5t2.5 9.5q0 4 1 6q-1 0 -1 1q0 2 0.5 6t1.5 5q0 2 0.5 7t0.5 7h1q0 1 -0.5 3t-0.5 3q0 3 3 10.5t4 11.5q3 13 6 15q1 0 2 -1.5t2 -1.5q4 0 11 -3t10 -3q1 -1 5.5 -5
t6.5 -6q0 -2 1 -4t2.5 -3t1.5 -2q1 -2 1 -11q0 -2 1.5 -5.5t0.5 -5.5v-1l-1 -1v-6v-5q0 -1 -1 -1q0 -12 -1 -18q1 -2 0 -6.5t-1 -5.5q-2 -5 -4 -6q-1 -2 -1 -7l1 -2q0 -3 -2.5 -8.5t-2.5 -7.5q-1 -2 -1 -6q0 -2 -1 -3.5t-2.5 -3t-1.5 -2.5l1 -1v-1q-1 -2 -4 -6q-1 -2 -2 -3
v-2.5t-1 -2.5q-1 -2 -5 -8q0 -1 -1 -3q-2 -4 -2 -6q-1 -1 -3.5 -4.5t-3.5 -5.5l-3 -4q-3 -4 -4 -6q-4 -3 -6 -7q-3 -1 -7 -4.5t-6 -4.5q0 -1 -5 -6q-2 0 -4 -2h-2q-6 -5 -28 -7q-13 0 -17 2q-8 0 -18.5 4.5t-12.5 4.5l-12 12q-1 1 -3 3.5t-4 3.5q-11 13 -18 28q-8 17 -9 19
q-1 1 -1 3t-1 3q0 1 -1 2.5t-1.5 3t-0.5 3.5q-1 5 -5.5 17t-5.5 20q-3 8 -6.5 24t-4.5 20q0 1 -0.5 4t0.5 4q-3 4 -3 13q0 1 -1 1q-5 72 -3 97q-1 4 -0.5 14t-0.5 13q1 7 1 22q0 6 0.5 16.5t1.5 15.5q0 6 0.5 17.5t1.5 17.5q0 3 1.5 16.5t2.5 20.5q2 12 2 17q1 4 2 11.5
t2 11.5q0 7 2 19q0 2 4.5 18t5.5 24q6 23 6 25t2 4q0 4 4.5 17.5t5.5 20.5q2 4 7.5 19.5t9.5 21.5l2 1q4 6 15 17q4 6 9 8l1 1l3.5 3.5t4.5 3.5q2 0 2 1q2 0 6.5 1.5t5.5 -0.5q3 0 4 1q1 -1 3 -1h3q16 4 42 -3l2 -1q4 -1 11 -4l6 -3q10 -9 19 -22l1 -1q0 -2 1 -2t1 -2t1 -2
q1 -2 5 -14q0 -3 2 -5q0 -1 1 -2t1 -2v-2q0 -1 2.5 -9t1.5 -13q4 -12 4 -29q0 -7 -0.5 -23t-0.5 -23q-2 -18 -3 -28q0 -1 -1 -5t0 -6q0 -1 -0.5 -3.5t-0.5 -3.5q0 -3 -2 -7q2 -9 -5 -18l-1 -2v-2q-7 -7 -15 -6q-2 0 -4 1t-3 1t-5 -1t-6 0z" />
    <glyph glyph-name="D" unicode="D" horiz-adv-x="325" 
d="M104 6q-2 0 -3 -1q0 -3 2 -3q-1 0 -3 -0.5t-3 -1.5q-3 0 -5.5 3t-5.5 2q0 1 -2 3t-1 4l-2 2q-2 0 -4 -1.5t-3 -1.5q-2 -2 -4 -3h-3q-3 1 -4 2h-2t-1 -1q-3 1 -7 5l-9 9q-1 2 -3 4q-3 6 -3 14v5v5v20q2 9 0 19v28q2 3 0 8v27q0 24 -1 28q0 1 1 6.5t0 8.5v3v4v3v19v14.5
v14.5v1v1q0 18 2 44v23q-1 6 0 13q-1 0 -1 1q1 1 1 4v4q0 4 0.5 13t0.5 14q-1 5 0 13.5t1 11.5v17v2v4v66v1l-1 1v8q0 4 0.5 11t0.5 10q-1 13 1 33v8q1 2 1 8q0 5 1.5 16.5t0.5 15.5v9q2 3 -2 9q0 8 2 11v11q-1 1 -1 8t-1 11q3 10 0 18q1 1 4.5 1.5t4.5 2.5q1 0 2 1q2 0 2 1
q1 -1 2 -0.5t1 1.5l2 -1q24 4 49 -3h1q1 1 2 1q9 -2 22 -6.5l19 -6.5q5 -3 15 -7t14 -6h2q1 -1 6.5 -4t7.5 -5q1 0 4.5 -2.5t6.5 -3.5l1 -1v-1q1 0 8 -7q0 -1 1 -1t2 -1t4 -3q0 -1 2 -2t2 -3q1 -1 6 -5.5t8 -6.5q1 -2 3.5 -5t3.5 -5q4 -3 8 -10.5t6 -9.5q0 -3 2 -7.5t3 -7.5
q2 -4 4 -6v-3q4 -8 4 -13q3 -4 5 -17q0 -3 2.5 -12.5t2.5 -15.5q2 -5 3.5 -17.5t2.5 -16.5q-1 -1 -1 -2v-1v-7t1 -8q-1 -4 0.5 -17.5t-0.5 -19.5q1 -5 0 -11.5t-1 -8.5q0 -3 -1 -5q-2 -8 -2 -17v-8q-2 -9 -6 -36t-7 -38q0 -5 -3 -13.5t-3 -10.5q0 -5 -2 -7v-3q-1 -3 -2 -8
t-2 -8q0 -2 -2 -6q-1 -2 -1 -3q-5 -15 -7 -17q-2 -9 -3 -10v-3q-7 -19 -10 -24q-1 -2 -2.5 -5.5l-2.5 -6t-2 -3.5q-1 -7 -6 -14q1 -2 -0.5 -5t-1.5 -4q-3 -1 -5 -4.5t-3 -3.5q0 -3 -2 -5t-2 -4v-1h-1q-2 -6 -7.5 -14t-6.5 -11q-3 -3 -9 -11.5t-10 -11.5q0 -2 -1 -3.5
t-1 -2.5q-2 -1 -4 -3t-4 -2q-1 -5 -6 -7q-2 -6 -6 -7q-3 -6 -15 -15h-3q-2 -4 -7.5 -8t-6.5 -5q-2 0 -3 -1t-4.5 -3t-4.5 -5q-1 0 -2 -1.5t-2 -1.5q-2 0 -4.5 3t-3.5 3zM113 71q1 1 2 3l1 1l2 2l3 3q4 8 10 13v1v0q1 1 3 5l3 6q0 -1 1 -1q1 4 4 8t4 6h1l1 1q2 6 4 8v1l1 2
q7 9 16 26.5t12 22.5q0 3 2.5 8.5t2.5 8.5q1 0 3 7q2 3 4.5 10t3.5 9q0 1 1 3q2 4 2 6q1 1 1 6q2 4 4 12q4 10 5 15q1 2 1 7q2 8 6 20v2q1 0 1 1q3 9 3 16q3 8 3 19q2 3 2 7q2 10 2 17q2 4 2 7h-1q0 2 1 4v1q1 3 1.5 10.5t0.5 11.5q1 9 1.5 24.5t0.5 19.5v24q0 3 -0.5 8.5
t-1.5 8.5v12q-2 3 -2 13q-7 39 -20 63q0 1 -0.5 2.5t-0.5 2.5l-4.5 6.5l-5.5 8t-5 6.5q-5 3 -6 7h-2q-3 6 -11 11q-2 1 -4.5 3.5t-4.5 3.5l-1 1h-2l-3 3q-1 0 -3 1h-2q-8 6 -16 9t-10 4q-2 0 -4.5 0.5t-3.5 0.5q-2 -7 -2 -19t-1 -17q1 -1 1 -6v-1q0 -2 -1.5 -14.5t0.5 -12.5
q-1 -1 -1.5 -4.5t-0.5 -4.5q0 -3 -0.5 -10.5t0.5 -11.5q-2 -5 -2 -21q-2 -8 -2 -13q-1 -8 -1 -24q0 -9 -3 -12v-4v-3q0 -3 1 -5v-1q0 -2 -1 -7t-1 -8q0 -2 2 -8q0 -7 -1 -10v-7v-7q1 -1 1 -12l-1 -1q0 -2 1 -3q0 -4 -0.5 -9t-0.5 -8v-2q1 -2 1 -4q0 -3 -1 -13.5t0 -16.5v-1
l1 -1q-1 -2 -1 -6v-6v-8q3 -3 1.5 -15.5t-1.5 -17.5q1 -6 -1 -15q1 0 1 -2.5v-3.5q-1 -1 0 -2q0 -10 -1 -12q1 -4 1 -10.5v-9.5q-2 -5 -1 -9q-1 -5 -1.5 -15.5t-0.5 -13.5v-13q0 -3 0.5 -8t0.5 -7l-1 -1q1 0 1 -1q-2 -9 -1 -10v-8q-1 -2 -1 -3v-9v-8v-5v-5v-9q0 -5 1 -7
q0 -15 1 -21q1 0 3.5 1.5t3.5 2.5zM96 605q3 0 1 2v-1z" />
    <glyph glyph-name="E" unicode="E" horiz-adv-x="225" 
d="M209 663q0 -2 2.5 -6.5t3.5 -7.5v-3l2 -2q0 -2 -0.5 -7.5t-1.5 -7.5q0 -4 -2 -4q0 -3 -5 -3q-3 -1 -14 -1h-4q-4 0 -5 -1h-2l-1 1q-1 -1 -2.5 -1t-2.5 1h-15h-7.5h-9h-6.5q-3 -1 -8 -1q-17 -2 -18 -3q0 -51 -1 -57v-34v-2q-1 -2 -1 -3v-4q2 -5 0 -9v-11q0 -1 -1 -3
q0 -4 -1.5 -12t-1.5 -11q-1 -5 -2 -14t-2 -13q0 -4 -1 -6q-1 -11 -1 -32q0 -2 0.5 -4t0.5 -4q0 -8 -1 -10q1 -4 -2 -47q11 1 31 3q31 2 50 -10q2 -2 5.5 -4.5t4.5 -4.5q-1 -1 0 -1q0 -1 2 -2.5t2 -2.5v-2.5t1 -2.5q0 -8 -1 -12q-1 -2 -2.5 -3.5t-1.5 -2.5q-2 -1 -10 -4
q-11 0 -15 -1h-7h-8.5h-6.5h-3h-10q-15 0 -22 2q-2 0 -6 0.5t-6 -0.5v-3q-1 -2 -2 -3q1 -11 1.5 -32t0.5 -28q-1 -3 -1 -9v-9l-1 -1v-3v-2q1 -2 1 -3q0 -3 -0.5 -9.5t-0.5 -9.5v-1q1 -2 1 -3v-23q0 -4 -0.5 -17.5t-1.5 -20.5q0 -1 0.5 -1.5t0.5 -1.5v-23t-1 -22q1 0 0.5 -9
t-0.5 -10q8 0 20 2q10 0 11 1q5 0 15.5 0.5t16.5 0.5h10q8 -3 11 -1q1 -1 6 -1q2 -2 7.5 -2t6.5 -1q0 -2 0.5 -3.5t0.5 -2.5q5 -2 7 -4q0 -2 -3 -5q0 -1 0.5 -1t0.5 -1t-0.5 -1t-0.5 -1q1 -10 -4 -19l-3 -2q-3 -2 -4 -2h-3t-2 -1q-6 -1 -17 -1h-16q-8 -2 -18 -2
q-1 0 -6 -0.5t-6 -0.5h-12.5t-11.5 -1q-5 1 -13.5 0.5t-12.5 -0.5q-3 1 -7 3q-2 1 -7 1q-4 2 -7 3h-2q-1 0 -3 1t-3 0q0 1 -1.5 2t-1.5 2q-1 -1 -4 -1q-5 9 -8 10q2 11 -2 16q0 2 2 4q0 1 -1 3v2v1q1 1 1 2q-1 11 1 34v2v29v4v19q0 2 1 7t0 7q-1 3 -1 10.5v10.5v32q1 6 1 16
q-1 3 -0.5 8.5t0.5 7.5l3 58v2v1l1 2q-2 7 0 13q0 14 2 42q0 7 1 24t0 25q0 2 -2 8q0 2 0.5 6t0.5 5v36t1 35v1q1 5 1.5 16.5t1.5 16.5v13q1 2 1 8t1 8v18q2 6 1 8q1 9 2 29.5t2 29.5q0 1 -0.5 3t-0.5 3t0.5 2.5t0.5 2.5q0 7 2 8q0 1 -0.5 2.5t-0.5 2.5q5 5 8 1h11h2
q3 0 11 1t11 1q2 0 6 0.5t5 0.5q5 1 14 1t13 1h38q6 0 9 -1h6q1 0 5 -2h7q3 -1 14 -5zM106 623q1 1 -1 1z" />
    <glyph glyph-name="F" unicode="F" horiz-adv-x="232" 
d="M115 640q1 -2 1 -8v-8v-9v-9q1 -11 -1 -34q0 -6 -1 -8v-9t-1 -9v-10q0 -1 -0.5 -5t-0.5 -6v-7q0 -2 -0.5 -7t-0.5 -8q2 -13 0 -27q0 -4 -0.5 -11t-0.5 -10q1 -5 1 -15q1 0 0 -1q8 -1 24 -0.5t23 0.5h8.5h9.5h7q1 0 3.5 -0.5t3.5 -0.5l9 -3l3 -3l2 -2q1 0 3 -5q0 -1 1 -3
v-2q0 -2 -1 -4q0 -1 -0.5 -3t-1.5 -3l-2 -2l-1 -2q-2 -1 -5 -4t-5 -4q-1 -1 -4.5 -1.5t-4.5 -1.5q-1 1 -9 -2q0 1 -1 1q-14 -2 -22 -1l-2 -1h-3h-13q-3 -1 -11 -1q-1 0 -6 0.5t-6 -1.5q2 -3 0 -6q2 -10 -1 -18q1 -1 1 -10q1 -2 -1 -9q0 -1 0.5 -1t0.5 -1v-1q-1 -2 -1 -3v-7
v-4q-1 -7 1 -33q-1 -3 -1.5 -9t-0.5 -8q3 -6 0 -7q2 -11 -1 -16q1 -3 1 -10v-11l-1 -2l1 -1v-1q-1 -1 -0.5 -7.5t0.5 -7.5v-1h-1v-6l1 -2q0 -3 -1 -9.5t0 -9.5v-12q-1 -2 -0.5 -7t-0.5 -8v-44v-1q0 -14 1 -21q0 -4 -0.5 -19t1.5 -19q-1 -3 -0.5 -11.5t-1.5 -10.5
q0 -2 -0.5 -5.5t-0.5 -4.5h-1q-1 -1 -2 -1q0 -2 -0.5 -6t0.5 -7q-2 0 -3 -1q-1 1 -2.5 1.5t-2.5 -0.5q-1 -2 -1 -5q-2 -1 -3.5 -4t-2.5 -3q-4 2 -6 2h-1l-1 -1q-2 3 -7.5 6t-7.5 5q-1 0 -3 1.5t-4 1.5l-1 2l-6 6q0 1 -3 4q0 1 -0.5 5t-0.5 6q-1 3 0 8t1 7t-0.5 7t-0.5 8v2
q1 2 1 3v32q0 1 0.5 2t0.5 2q0 3 -0.5 8.5t-0.5 6.5v36v7v13q0 2 -0.5 8.5t-0.5 9.5v1l1 1l-1 1v1v4q0 10 1 32t1 33v10v12v15l1 1q0 3 -0.5 11t-0.5 11v2q1 2 1 3q0 3 -0.5 8t-0.5 7v36q0 2 0.5 6t0.5 5q0 5 -0.5 13.5t-0.5 15t1 12.5q-1 11 -1 33v3v4v20q0 3 -0.5 8
t-0.5 7t-0.5 6t-0.5 6q1 1 1 4q0 1 -1 3.5t-1 4.5v55v2v1q0 1 0.5 3t0.5 3t-0.5 2.5t-0.5 2.5q0 2 0.5 4.5t0.5 3.5v54q-1 1 -1 4q-2 -1 -2 1q1 0 1 2q-1 1 -1 3q3 3 3 5q6 4 30 6q1 0 1 -1q-1 1 1 1q14 2 28 -2h5h2h23h16h12h10h4h1h2q12 0 17 -1q10 -3 13 -4l5 -5v-1
q0 -1 1 -1l1 -2q1 -1 3 -10q-2 -2 -3.5 -6.5t-3.5 -6.5l-6 -3t-5 -3q-1 0 -3 -0.5t-3.5 -0.5t-3 -0.5t-2.5 -1.5q-12 0 -19 -1h-12h-35q-8 0 -10 -1z" />
    <glyph glyph-name="G" unicode="G" horiz-adv-x="294" 
d="M146 683q1 1 4.5 1.5t5.5 1.5q22 -5 24 -6q4 -2 5 -2q16 -9 20 -14q1 -2 3 -4.5t2 -3.5q1 -1 2.5 -3t2.5 -3t1 -3t1 -3q2 -4 3 -7q3 -6 4 -9q1 -2 1.5 -9t2.5 -10q0 -2 1 -6t0 -6q2 -18 3 -28q-1 -2 0 -7v-4q2 -11 0 -24v-14v-6v-6v-23v-13q0 -1 -0.5 -4t-0.5 -5v-7
l-1 -2v-10q-2 -3 -1.5 -9t-0.5 -10q0 -1 -2.5 -4.5t-2.5 -5.5l-3 -3t-4 -2q-1 -4 -8 -7q-3 3 -8 4q-1 3 -3 7h-1q-1 0 -1 1l-1 1q-2 0 -2 1q-11 29 -12 32q-1 5 2 43q0 2 0.5 7t0.5 8v5q0 6 1 20t1 21q0 23 -4 63q0 1 -3 13q-1 -2 -15 -13q-1 -4 -5 -8q0 -1 -1 -2t-1 -2
q-2 0 -2.5 -2t-2.5 -3q-1 -2 -9 -19q-7 -19 -10 -24v-2q-6 -20 -8 -32q-2 -5 -3.5 -16.5t-3.5 -16.5q0 -5 -5 -28q2 -11 -2 -20q1 -3 0 -8t-1 -7q1 -4 0 -13t-1 -13q0 -1 -0.5 -3.5t-0.5 -3.5v-1v-8q0 -1 0.5 -3.5t0.5 -3.5q-2 -39 0 -80v-17q-1 -3 -0.5 -14t0.5 -15v-1h1
v-29q1 -4 1 -12.5v-12.5v-10v-2q0 -2 1 -3q0 -1 0.5 -4t0.5 -5l-1 -1q0 -1 1 -3v-1q1 -3 2 -15t3 -17l1 -3q0 -2 -1 -4q3 -6 5 -22q1 -3 2.5 -8.5t2.5 -7.5q0 -8 3 -12q6 -17 18 -28q2 0 6 4l1 1q1 1 1 2t3 7l6 15q0 3 2 7q1 3 4 19.5t5 24.5v2q4 16 6 51q0 1 0.5 3.5
t0.5 4.5q0 11 0.5 23.5t1.5 28t1 23.5v1q-5 1 -12.5 2t-9.5 1h-5q-4 6 -13 7q-3 6 -15 12q0 2 -1 2q0 1 -2 1q1 2 -3 6q0 2 2 6h2q1 1 3 4q3 0 6 1t6.5 2.5t5.5 2.5q4 0 5 1h21q3 0 8 -0.5t7 -0.5t7.5 0.5t8.5 0.5q2 0 6 -1t7 -1l2 2l1 -1h2q9 -11 10 -12q0 -2 -2 -6
q0 -2 2 -4v-26q-1 -2 -1 -4.5v-3.5q1 -3 0.5 -10.5t-0.5 -9.5v-8q1 -4 1.5 -13t0.5 -13q0 -1 1 -3t1 -3q0 -5 1 -7q-1 0 -1 -1q3 -13 2 -22v-6v-6l-1 -1v-1l-3 -12q-2 -4 -1 -5v-2q1 -2 1 -6.5v-6.5v-5q-4 -11 -7 -26q0 -1 -1 -2q0 -7 -3 -13q-1 -3 -5 -12q1 -1 0.5 -2
t-1.5 -1q-1 -6 -5 -14l-5 -10q-11 -17 -23 -23q-2 0 -2 1q-8 -6 -15 -7q-4 -3 -14.5 -4t-13.5 -2l-15 3v1l-1 1h-2q-2 1 -6 4.5t-6 4.5l-3 3q-2 1 -2 3h-2q-27 32 -43 83q0 4 -1 6l-6 24q0 3 -1 4q-6 34 -8 55v1q-1 3 -1.5 8t-0.5 8v17q-2 14 -2 50v5v12t1 11q-2 6 0 13
q-1 14 0 41t1 35q1 3 1 11q0 3 1 8t1 8q0 5 2 13v9l3 12v8q0 2 1 5t1.5 5.5t0.5 4.5v6q2 6 4 19.5t3 19.5q0 5 2.5 14.5t2.5 15.5h1q4 19 7 24q0 1 3 13q1 3 3 8.5t2 7.5q2 2 2 4q1 1 2 4q1 2 1 3q1 2 4 9q3 3 4 7q1 1 3 4q1 3 3.5 7t3.5 6q1 0 2 2t3 3q1 2 2.5 4l3.5 4.5
t3 3.5q1 0 1 0.5t1 0.5q1 2 4 4.5t4 3.5h2q1 1 3.5 2.5t3.5 3.5v2l-1 1q2 2 3 1.5t3 -2.5t3 -2z" />
    <glyph glyph-name="H" unicode="H" horiz-adv-x="263" 
d="M194 686q2 1 5 -0.5t5 -1.5q0 -1 0.5 -4t1.5 -5q1 0 1 -1q6 -6 7 -9q6 -6 11 -19v-2q2 -6 2 -20q0 -1 -2 -6.5t-2 -8.5q0 -2 0.5 -6.5t0.5 -6.5q0 -4 0.5 -10t0.5 -9q-2 -13 0 -26v-3v-4v-3q0 -23 -2 -28q-1 -3 -1 -13t-2 -14q0 -3 -0.5 -9t-0.5 -7q0 -7 -1 -12v-18v-2
q0 -4 1 -6q0 -1 -1 -3v-2q1 -2 1 -9q0 -2 -2 -4q0 -2 1 -7.5t1 -9.5v-12q0 -1 -0.5 -1t-0.5 -1v-18.5t1 -19.5q-1 -1 -1 -2v-2q1 -5 0 -14.5t0 -13.5v-1q-1 -2 -1.5 -4t-0.5 -3t-0.5 -1t-0.5 -1t0.5 -3.5t0.5 -4.5q0 -7 -2 -15q1 -4 1 -14q0 -12 -1 -16q1 -2 1.5 -7t0.5 -6
q0 -5 1 -16.5t-1 -16.5q2 -7 1 -11q-2 -8 -1 -11q0 -3 1 -4q0 -2 -1.5 -12t0.5 -12q-1 -4 -0.5 -14t-0.5 -15q1 -3 0.5 -11.5t-0.5 -11.5q1 -2 1 -10q-1 -5 1 -14q0 -1 -0.5 -4.5t-0.5 -5.5q1 -16 -2 -36q-2 -8 -3 -11l-4 -4q0 -1 -1.5 -4l-2.5 -5q0 -1 -1 -1q-1 -1 -1 -3
q-3 1 -8 -4l-2 2q-1 -1 -4 -1t-4 1q-1 0 -3 4h-1v1h-4q-12 19 -17 48q0 3 1.5 11t0.5 12q1 29 0 54q2 28 1 43v13t1 12q-1 0 -1 2v3q-1 2 -0.5 9t-0.5 11v13.5v17v15.5q-12 2 -26 0h-12q-17 0 -25 -1q-1 -3 2 -31l-1 -2q0 -9 2 -23v-13q2 -3 0.5 -21t-1.5 -21t1 -10t1 -11
v-22q1 -2 0 -6t-1 -5q2 -15 0 -19v-10.5t1 -9.5q0 -14 -1 -23q0 -1 -0.5 -2.5t-0.5 -2.5v-2q0 -1 -1 -4t0 -4q-5 -6 -6 -13q-4 -6 -6 -8q-1 -1 -2.5 -2t-2.5 -2q-4 -1 -6 1q-1 7 -7 10q-1 -1 -1 -4v-2q-1 0 -2 1q-1 0 -2 0.5t-2 0.5q-2 2 -4 3q-1 3 -4 4q-9 13 -11 23
q0 3 -1 4q1 2 1.5 7t0.5 7q-3 10 -2 22v13q1 1 1 2.5v2.5q0 6 1 36t0 35q0 1 0.5 1t0.5 1v33.5v33.5q1 6 1 15v13v24t-1 25q2 24 0 48v23q0 5 1 7v5q0 2 -0.5 5.5t-0.5 5.5q0 3 1 15t0 19l1 1v1v14v1l-1 2l1 6q1 5 0 9v8v2q1 2 1 3q0 19 -1 28v41q0 4 -1 5q1 4 0 12t-1 11
v17q0 7 1 11q0 1 -0.5 2.5t-0.5 2.5q0 2 0.5 7.5t0.5 8.5v18v6v7v5q0 5 3 8q2 5 3 5q-1 1 -1 4q1 0 1 1q2 -1 3.5 -2.5t2.5 -1.5q3 0 7.5 -1.5t6.5 -1.5q11 -1 18 -6q2 -1 4 -3.5t4 -3.5q1 -2 4 -5.5t5 -6.5t3 -6t-1 -16q-1 -6 -1 -18t-1 -17q0 -1 -1 -1l-1 -2v-6
q-2 -8 -2 -14q0 -3 -0.5 -9.5t-0.5 -8.5v-17q1 -7 1.5 -20.5t0.5 -17.5v-12q1 -1 0 -1t0 -1v-12v-9v-9v-2q1 -5 0 -16t-1 -15q-2 -2 0 -5v-2l-1 -1q1 -3 0 -9t-1 -9q0 -4 -0.5 -15t0.5 -15q0 -2 -0.5 -11.5t-1.5 -13.5v-36q5 0 17 1.5l20 2.5q6 0 13.5 -0.5t11.5 -0.5v16
q2 9 0 18q0 4 0.5 10.5t0.5 9.5q0 22 1 33q0 10 1.5 33.5t0.5 34.5q2 17 1 23q0 7 1.5 36.5t3.5 45.5q-1 6 0 17t1 16q0 1 1 4t0 5q0 4 0.5 10t0.5 9l-3 14q0 5 1 9l-3 6q0 2 0.5 4t0.5 4q2 2 4 2q0 1 1 2.5t1 2.5q2 2 5 2v1h1q2 0 4.5 1.5t3.5 1.5q0 2 2 2.5t3 -1.5z
M199 276h2l-1 1q0 1 -1 0v-1z" />
    <glyph glyph-name="I" unicode="I" horiz-adv-x="159" 
d="M92 4h-8q-2 -1 -5 -4q-2 1 -5.5 2.5t-4.5 2.5q-1 -2 -1 -4q-1 0 -1 -1q-5 1 -9 4q-5 5 -11 6q-1 2 -3.5 5.5t-3.5 5.5l-1 1q0 1 -3 17q2 12 2 20q1 10 0 19q1 4 1 23v26v9v13v9q0 3 0.5 9.5t0.5 9.5v25q0 13 -1 20q1 4 1 27q1 1 1 5q0 14 2 51t2 58q1 4 1 20q0 3 0.5 8
t0.5 7q0 3 0.5 10.5t-0.5 11.5q1 11 1 31q0 3 1 10.5t0 10.5q3 30 2 35q0 3 -0.5 10.5t0.5 11.5q1 6 1 25v3l1 2v3l1 1v2q0 2 0.5 9t-0.5 11q1 3 1 21q0 3 0.5 8.5t0.5 8.5q0 9 0.5 28t0.5 28q0 3 1 4q0 5 4 9h1l1 -1q1 1 3.5 1h3.5q18 -2 23 -4t12 -9q6 -5 9 -14
q1 -1 2 -2.5t1 -2.5v-3v-3q1 -2 1 -3v-6v-5v-14q0 -7 -2 -19.5t-2 -18.5q0 -2 0.5 -6.5t0.5 -6.5q-3 -25 -3 -26q-1 -5 -2 -15t-1 -11q1 -1 -1 -1q1 -2 1 -6v-5q-1 -3 -1 -10t-2 -11l1 -1v-1q-1 -1 -1 -2q0 -5 -1 -7v-2v-1v-19q-1 -4 -1 -12v-8q0 -1 -0.5 -8t-1.5 -10
q1 -1 1 -4v-4q-1 -2 -1 -16v-13q1 -4 1 -14v-17q0 -2 -0.5 -5t-0.5 -4q1 -6 1 -18v-3l-1 -2q2 -4 2 -6t-0.5 -6t-0.5 -5v-1q0 -1 -0.5 -5t-0.5 -6v-24q-1 -2 -1 -15q0 -1 -0.5 -3t-0.5 -4v-3v-4v-10q-1 -3 -1 -13v-26q-1 -3 -0.5 -12t-1.5 -12v-16q-3 -9 -1 -16
q-1 -16 0 -29q0 -1 -0.5 -1t-0.5 -1v-8.5t1 -8.5q-1 -6 -1 -16t-1 -15q2 -7 0 -11q2 -14 -1 -28q0 -2 -0.5 -4t-0.5 -3.5t-1 -2.5z" />
    <glyph glyph-name="J" unicode="J" 
d="M214 681l1 -1l1 -1q13 -2 15 -4q0 -2 1.5 -4t1.5 -4l2 -2l2 -2v-4q0 -3 -2 -7t-2 -7q-2 -2 -4 -8q-3 0 -5 -1q-5 -1 -14 -1.5t-14 -0.5q-1 0 -1 -0.5t-1 -0.5q-13 0 -19 -6v-22v-12v-12v-6v-2q-2 -12 0 -36q0 -2 -1 -3.5t-1 -3.5q0 -3 -0.5 -11.5t0.5 -12.5v-3t-1 -3
q0 -3 -0.5 -10t-0.5 -10q0 -6 -2 -12q0 -6 -1 -9q0 -16 -2 -24q2 -2 0 -6v-43q1 -8 1 -25q0 -3 -1.5 -14t-0.5 -14q0 -1 -0.5 -3.5t-0.5 -3.5q1 -8 0 -23t-1 -21v-16v-15v-3v-4.5v-3.5v-15v-14l-1 -2q0 -1 0.5 -1t0.5 -1q0 -2 -1 -8.5t0 -9.5l-1 -1v-1v-3.5t1 -4.5
q0 -1 0.5 -3t0.5 -3t-0.5 -2t-0.5 -2q0 -3 0.5 -8t0.5 -7l-1 -3v-4v-5.5v-4.5l1 -2v-14t-1 -14l-1 -1q0 -2 -1 -2q0 -3 -5 -33q-1 -3 -2.5 -9t-2.5 -9t-3 -7t-2 -6q-6 -12 -9 -15q0 -3 -1 -3v-4q-2 0 -2 -2q-1 0 -3.5 -1t-3.5 -1l-3 -3l-2 -1q-2 -1 -2 -2h-2.5h-2.5l-3 -3
q-1 -1 -2 -1q-2 -1 -3 -1q-2 -2 -3 -2h-4l-1 -1h-2h-2l-1 1q-1 0 -3 0.5t-3 1.5q-4 -4 -8 0q-6 0 -8 -1l-12 3q-1 0 -1 1q-2 0 -6 1.5t-5 1.5q0 1 -2 2t-3 1t-4 2t-4 3l-3 3q-1 2 -3.5 5t-3.5 5q-2 1 -3.5 3.5t-2.5 3.5q-12 28 -14 47v1q0 4 -0.5 11t-1.5 11q-1 13 -1 41
q2 6 1 10q0 3 1.5 10t0.5 9q1 2 1 14q2 6 2 12q0 4 2 16.5t2 19.5t1 10q0 13 1 16q3 -1 7 1q2 -1 5 0q1 1 2 1t3 -1t3 0q6 -2 8 -1q1 -1 4.5 -2.5t5.5 -3t4 -4t2 -5.5v-2q-1 -1 -1 -2t0.5 -3t0.5 -3q-2 -16 -1 -24q-1 0 -0.5 -18t0.5 -19q0 -2 -1 -2q1 -6 0 -21.5t-1 -19.5
v-7l3 -41q-1 -1 0 -3.5t1 -3.5q1 -2 1 -4.5v-4.5q1 -2 1 -5l2 -2q1 -1 1 -3.5v-3.5l1 -1l5 -7q3 7 16 13q1 3 5 11t5 12q1 3 2.5 9.5t2.5 9.5v1q0 2 0.5 6t1 7t1.5 5q0 15 2 53v22v25v20v21v20v12v10v17v15q0 1 1 7.5t0 9.5q0 1 0.5 4t0.5 5q1 17 1 52q1 10 1 34q0 8 0.5 18
t1.5 21.5t1 18.5q2 32 2 47q1 16 0 34q0 1 1.5 16t1.5 22q-3 2 -9 0q-14 -1 -33 4q-1 1 -2.5 1.5t-3.5 1t-3 0.5q-2 1 -5.5 3t-5.5 3q0 1 -2 2t-3 2l-1 3l-3 3l-3 3q0 1 -0.5 3t-0.5 3q-1 2 -1 5.5t-1 5.5q2 2 2 5q2 1 5.5 0t4.5 -1q3 0 11 1t13 0q7 0 9 1q4 -1 11 0t11 0
q16 2 47 2.5t43 1.5q10 0 14 -1q2 0 2 1z" />
    <glyph glyph-name="K" unicode="K" horiz-adv-x="279" 
d="M229 4q-1 0 -1 -2t-1 -2q-2 -1 -3 0l-1 2l-2 1h-1l-1 1l-1 -1q-3 3 -4 3v-1h-1v1q-18 2 -24 35q0 2 -2 6v6q-1 3 -3 11q0 5 -2.5 16t-3.5 17q0 4 -1 6q0 1 -1.5 8t-1.5 12q0 1 -3 14q0 1 -1 3.5t-1.5 4.5t-0.5 4q-2 15 -3 16v4l-3 15.5t-4 15.5v5q0 1 -1.5 5t-1.5 6
l-3 12v2q-1 2 -1 6q0 1 -2.5 9t-1.5 13l-3 9v1q-1 3 -2.5 11t-2.5 11q-1 9 -5 27q-2 13 -5 25q-1 3 -2.5 9.5t-1.5 10.5t-1 4q-1 -1 -2 -3.5t-2 -3.5q2 -7 -6 -11q0 -1 -4 -5q0 -1 -1 -2.5t-1 -2.5l-3 -3v-2l-2 -2l-2 -2t-1 -2v-12.5v-15v-12.5q-1 -3 1 -11q0 -2 -1.5 -11
t0.5 -11v-5.5t-1 -5.5q0 -1 1 -1q0 -34 -1 -41v-25q1 -6 1 -20v-15v-2v-4v-1h-1q1 -2 1 -5v-5v-1q1 -26 -3 -68q1 -6 -2 -15q1 -2 0 -6.5t-1 -5.5q-2 -7 -4 -9q-1 1 -2 0l-2 -1q-4 0 -4 1q-11 -2 -13 -1q-1 -3 -6.5 -0.5t-7.5 2.5q-14 14 -14 29h-1q0 13 -1 19q1 1 1 3t-1 3
q0 8 0.5 26.5t0.5 28.5v7q-1 9 0 27.5t1 24.5q-1 0 -1 1q1 2 1 9v22.5t2 27.5q-2 6 0 13l1 3q0 2 -1 3q0 11 1.5 37t0.5 42v5q1 5 1 14v14v14q0 1 0.5 3t0.5 3q3 96 3 105q0 5 0.5 15.5t0.5 17.5q-1 2 0 7.5t1 7.5v16q0 4 0.5 11t0.5 10v1v31q0 4 0.5 13.5t-0.5 14.5
q2 18 2 27q1 0 1.5 2.5t2.5 3.5h2q2 1 5 2t5 2q19 2 29 -6q2 0 2 -2l2 -1l2 -1l1 -2l1 -2q5 -10 5 -14q1 -9 1 -28v-9q0 -2 -0.5 -9.5t-1.5 -11.5q0 -8 -2 -23t-1 -22v-9q-1 0 -1 -2v-28q0 -4 -1 -10.5t-1 -9.5v-8v-1v-20.5t-1 -21.5q7 14 20 44.5t20 44.5q0 2 1 3q0 1 1 1
q1 4 6 13t6 14q6 12 8 20q1 2 7 13q2 3 7.5 15t9.5 18q16 38 29 46l1 1l1 1q0 -1 2 -3q2 0 6.5 1.5t6.5 0.5h1l2 -1q1 -1 3 0t3 0q1 -3 5 -4q3 -1 4 -2q0 -3 -2 -7.5t-2 -6.5q-9 -29 -10 -31q0 -2 -1.5 -5t-1.5 -6q-2 0 -2 -2v-3q-4 -10 -7 -13q-1 -5 -5 -15t-6 -16
q-1 -1 -2 -3l-1 -1q-1 0 -1 -2t-1 -2q-1 -7 -6 -13q0 -3 -3 -5q-1 -6 -5 -10q-1 -2 -3 -8t-4 -8q-6 -17 -11 -25q-2 -14 -7 -18q-2 -4 -2 -6q0 -4 -6 -12v-5q0 -7 1 -10q0 -8 3 -10q0 -6 2 -15.5t2 -13.5q0 -2 1.5 -7.5t2.5 -8.5v-2q1 -5 2 -14t3 -14v-3q2 -4 3.5 -15
t2.5 -15q-1 -4 1 -9t2 -7v-6q1 -2 1.5 -6.5t1.5 -6.5q0 -1 1.5 -6t2.5 -8v-4v-3q4 -5 4 -12v-3l3 -12q0 -1 0.5 -3t1.5 -3v-3q0 -2 1 -5t2 -5q-1 -4 1 -8t1 -8q2 -6 4 -19.5t4 -19.5v-2q1 -4 2.5 -12.5t2.5 -12.5q0 -6 4 -14q0 -10 3 -17l2.5 -12t1.5 -9v-3q2 -5 4 -17l3 -9
v-4v-1l1 -2q1 -2 1 -5v-4q0 -3 1.5 -10t0.5 -11q0 -3 2 -7v-4q-4 -2 -12 -2q0 -1 -2 -3l-6 3v-2q-1 0 -1 1z" />
    <glyph glyph-name="L" unicode="L" horiz-adv-x="213" 
d="M103 375q-1 -1 -3 -1q0 -1 -1 -2.5t0 -3.5q-2 -1 -2.5 -5.5t-1.5 -5.5q0 -2 -1 -8t0 -8v-3.5t-1 -3.5q1 -7 1 -20q-1 -5 1 -15q0 -2 -0.5 -6t-0.5 -6v-5v-12q0 -4 1 -5q-1 -1 -1 -3.5t-1 -3.5q1 0 1 -1q1 -1 0 -10v-9q0 -2 1 -8.5t0 -10.5q-1 -1 0 -1t0 -1v-11
q0 -1 -0.5 -3.5t-0.5 -4.5v-7q0 -2 -1 -9t0 -11v-7q0 -1 -0.5 -3.5t-0.5 -3.5q0 -3 0.5 -7.5t0.5 -6.5q-2 -7 -1 -11v-22q-1 -4 -1 -13v-16q-2 -4 -2 -7v-11q0 -2 0.5 -4.5t0.5 -3.5q3 0 11.5 -2.5t13.5 -2.5q26 0 38 2q14 0 20 1q3 -1 6 -1q1 0 1 -1q5 1 14 -11
q0 -2 1 -5.5t2 -5.5q-4 -12 -5 -14q-1 0 -13 -9q-12 -4 -20 -4q-6 0 -18.5 -1t-19.5 -1q-22 0 -31 1q-4 0 -9 1.5t-7 1.5q-13 3 -14 3q-4 4 -6 4q0 1 -1.5 3t-1.5 3l-12 6q0 1 -1.5 4.5t-2.5 5.5q2 2 -1 5q1 0 2.5 1t2.5 2q0 22 1 31v29v30v20t1 20q0 3 -0.5 9.5t-0.5 9.5
q2 16 2 24q0 3 3 45v35q0 2 0.5 5.5t0.5 5.5v6v9q0 4 -0.5 11t-0.5 10v20v20v9v17v11q0 8 1 12v30q-1 0 -1 1q2 22 2 33q1 4 0 11t-1 9q0 1 -0.5 5.5t-0.5 6.5q0 1 0.5 3t0.5 3q0 2 -0.5 6t-0.5 5q0 4 0.5 12t0.5 12q0 2 0.5 7.5t0.5 8.5v4q0 2 0.5 5.5t0.5 5.5v15
q-1 0 -1 1q1 6 0.5 26.5t2.5 25.5q2 1 4.5 2.5t5 2.5t5.5 1q3 3 12 3l2 1h3q10 0 15 -4q3 -3 5 -6q4 -4 7 -11q0 -3 2 -10t1 -11q0 -19 1 -30q0 -2 0.5 -5t0.5 -4q0 -2 -0.5 -6t-0.5 -7t1 -5q-1 -3 -1.5 -7.5t-0.5 -7.5q-2 -4 -2 -8v-10q0 -5 -1.5 -16t-2.5 -17q-1 -4 0 -12
t1 -10q0 -3 -0.5 -9.5t-0.5 -10.5t-2 -14v-15q0 -5 1 -7q-2 -25 -1 -39q0 -1 -1 -1v-18z" />
    <glyph glyph-name="M" unicode="M" horiz-adv-x="399" 
d="M361 208q2 -7 4 -21.5t2 -15.5q-1 -3 0.5 -9t1.5 -9v-9q0 -1 0.5 -3t0.5 -4q0 -7 1 -8q1 -5 0 -11t-1 -8q1 -1 1 -4q0 -1 -0.5 -6t1.5 -6q-1 -6 0 -16t1 -15q2 -8 -1.5 -22t-3.5 -17v-9t-1 -9q-1 0 -2 -1l-2 -2h-4l-1 -2q0 -1 -1 -1q-2 -1 -4 1q-2 1 -3 1h-1l-1 -1
q0 1 -1 1h-1l-2 1q-1 1 -2 1l-1 -1q-1 -1 -2 -1h-2l-1 1q-15 13 -16 30q-1 1 -1 6q0 1 -1 1q0 3 -0.5 8.5t-0.5 8.5l1 3v3t-0.5 3.5t-0.5 4.5v4q-3 37 -3 38v24l-2 4v5.5t-1 6.5q0 1 -0.5 3t-0.5 4q-4 40 -4 59q0 6 -1 7q1 5 -5 20v4q0 16 -2 23q0 5 -0.5 15t-0.5 15
q0 6 -1.5 18t-1.5 18q0 13 -1 14v26q0 1 -1.5 10t-1.5 13q0 6 -0.5 19.5t-1.5 19.5q0 2 -0.5 8t-0.5 9v7q0 2 -0.5 6.5t-0.5 6.5t0.5 5t0.5 4q0 3 -0.5 7t-0.5 5q0 2 0.5 6t0.5 6q0 3 -0.5 10.5t-0.5 11.5q0 7 -2 21q-3 -6 -5 -18q0 -1 -3.5 -12.5t-5.5 -15.5q0 -2 -0.5 -4
t-0.5 -4q-1 0 -2 -2t-2 -3q0 -4 -2 -10t-2 -9q-6 -12 -10 -36q-2 -4 -4 -16.5t-5 -17.5q2 -5 -4 -8q0 -2 -0.5 -4t-1.5 -4.5t-1 -3.5q-3 -3 -3 -4v-4q0 -1 -2 -4.5t-3 -5.5q0 -1 -0.5 -2.5t-0.5 -2.5t-1 -3t-1 -3q-1 0 -1.5 -3t-2.5 -4q0 -4 -3 -9t-3 -8l-4 -4q1 -1 1 -2
q-8 -10 -19 -10l-3 -3q-6 8 -7 14q-9 10 -15 27q0 5 -2 12.5t-2 10.5v2q0 3 -2 5v12q0 1 -2 3q0 5 -1 6q0 8 -3 24t-3 22q-2 3 -2.5 6.5t-1 8.5t-1.5 8q0 2 -1 5.5t-1 4.5q0 6 -1 9q0 2 -3 14q0 11 -1 15q-3 13 -2 15q-2 0 -2 -4q-1 -9 -1 -27q-1 0 -1 -0.5v-1.5q0 -2 -2 -6
q0 -12 -1 -13v-2q-2 -4 -2 -19q-1 -4 -3 -14q-1 -2 0 -5v-2q0 -3 -2 -9t-2 -9v-12q-3 -10 -2 -13q0 -9 -1 -14q-3 -3 -2 -7q-1 0 -1 -11q-2 -15 -4 -19q0 -21 -2 -25v-2q-1 -3 -1.5 -11t-0.5 -10q0 -1 -0.5 -2t-0.5 -2v-2q-2 -4 -2 -5v-3q0 -5 -2 -16.5t-1 -17.5
q-2 -2 -2 -7q-3 -5 -3 -11q0 -2 0.5 -4t0.5 -3q0 -3 -2 -11t-2 -12v-5q0 -2 -0.5 -4.5t-0.5 -3.5q-1 -2 -1 -6t-1 -6q0 -1 -1 -3t0 -3q-1 0 -0.5 -1t-0.5 -1v-3t-0.5 -3.5t-0.5 -4.5q-2 -10 -3 -14v-16q0 -1 -2 -7v-3q0 -2 -0.5 -5t-0.5 -4q0 -7 -1 -9q0 -1 -3 -10l1 -1
q0 -5 -2 -11h1v-1q-1 -1 -1 -2v-9l-1 -1v-1l1 -2q-2 -2 -2 -4q0 -1 -0.5 -3.5t-1.5 -3.5q1 -2 -2 -10q0 -4 -1 -6q0 -2 -1.5 -4.5t-1.5 -3.5v-2q-1 -1 -1 -4q-1 -1 -1 -5q0 -1 -1.5 -3.5t-0.5 -3.5q-1 -2 -5.5 -2t-4.5 -3q-2 0 -5.5 1.5t-4.5 1.5q-6 4 -10 4q-6 0 -7 1t-3 2
l-1 1q0 2 -1 2l-3 3q-2 6 -3 7l3 21v6q1 6 4.5 16.5t4.5 16.5v8q2 2 2 4q0 1 0.5 6t1.5 8q-1 3 1 13q0 3 1 5q0 1 1 3v2q0 2 0.5 5t0.5 4q0 4 2 16t2 17q1 1 1 10q0 1 1 2q-1 1 -1 2q0 3 2 12.5t2 14.5v2t1 2q1 11 4.5 33.5t4.5 34.5q0 5 1.5 14.5t1.5 14.5q0 3 2 11.5
t2 14.5l1 1q0 2 0.5 8.5t1.5 9.5q0 1 1.5 11t1.5 15q1 0 1 1q0 4 1 4q1 11 3.5 31.5t2.5 25.5v1l1 1q-1 3 -0.5 5t1 5t0.5 4q1 4 4 27q2 2 2 4v6q3 19 3 20q1 0 1 0.5v0.5q0 2 1.5 9t0.5 10l1 1q0 1 1.5 6.5t0.5 8.5q-1 1 0 1l1 1l3 14.5t2 14.5v1h2q-1 4 1 8q0 4 2 12t2 11
h1q0 10 4 18q0 6 5 19q3 1 7 3.5t7 3.5t7 1q2 0 5.5 -1.5t5.5 -1.5h3q18 -2 25 -7q7 -6 8 -20q3 -5 5 -18q0 -2 1 -2q-1 -1 1 -3q-1 -5 2 -14t3 -13q1 -2 1 -5v-4v-4q0 -1 1 -3.5t1 -3.5q0 -14 3 -25q1 -3 1 -9v-9q2 -9 4 -29q-1 -2 0 -7t1 -6q0 -6 2 -18l6 18q6 21 7 25v1
q3 13 7 22l-1 1q0 1 6 23q2 2 2 4q1 3 3 10.5t4 11.5q1 4 4 10q1 2 1 7q1 5 3 7q1 1 2.5 8.5t3.5 9.5q6 21 15 42q1 1 2 3t3 3q5 -2 7 5q20 8 33 1v-2q1 0 2.5 -1.5t2.5 -0.5q1 -2 2.5 -7.5t2.5 -7.5q3 -18 4 -41q0 -1 1 -3l1 -2q-1 -5 -0.5 -15.5t0.5 -14.5q1 -1 1.5 -4
t1 -6.5t0.5 -5.5v-6v-7.5v-6.5q1 -3 1 -28v-2l-1 -1v-2t0.5 -6.5t-1.5 -5.5q1 -2 0 -6.5t-1 -5.5t1.5 -3.5t1.5 -4.5t-0.5 -9.5t1.5 -8.5q0 -4 1.5 -13.5t-0.5 -11.5q1 -10 5 -25q-1 -2 0 -5q1 -1 1 -2q1 -4 1 -15q3 -17 2 -20q2 -14 2 -20q1 -1 1 -9q0 -2 1 -5t1 -4
q1 -3 1 -8.5v-8.5q0 -1 1 -6t0 -6q0 -3 -0.5 -8t0.5 -7q1 -1 1 -2q1 -2 1 -3l1 -3q0 -3 -1 -4q0 -2 1 -6t1 -7q0 -2 -0.5 -4t-0.5 -3q0 -2 2 -6l-1 -7q-1 -7 1 -7q0 -12 1 -14v-3v-18z" />
    <glyph glyph-name="N" unicode="N" horiz-adv-x="329" 
d="M231 236q0 16 5 106q1 6 1 14v15q0 12 0.5 35.5t0.5 34.5v13v14v11v8v5v9v12.5t1 13.5q0 2 3 30v1v6q2 19 1 31v12q0 3 0.5 8t0.5 7t-0.5 5.5t-0.5 4.5q0 2 1 7t0 7q0 7 5 19l3 9q2 4 1 7q3 1 10 -0.5t9 -1.5q9 -3 10 -3q1 -1 6.5 -3.5t8 -5t2.5 -6.5q0 -1 1 -1h1
q0 -3 1.5 -10.5t0.5 -10.5v-7q1 -5 0 -12.5t-1 -9.5q-3 -5 -3 -22q1 -3 1 -10.5t2 -10.5q-1 -3 -1 -23q0 -4 0.5 -11.5t1.5 -11.5q0 -4 -1 -4q2 -7 0 -15q2 -19 -1 -34q1 -1 1 -2.5v-2.5q-2 -4 0 -10l-1 -1l-1 -15q0 -15 1 -15l-3 -3q1 -4 1 -8.5t-0.5 -9.5t-0.5 -8
q0 -1 -1 -1v-1q1 -13 0 -27q0 -2 1 -9.5t0 -12.5q0 -1 -1 -3t-1 -3q0 -6 -1 -9q1 -3 1 -7t-0.5 -9t-0.5 -8q0 -13 -1 -15q1 -5 0 -18.5t-1 -18.5v-1q1 -1 0 -4.5t0 -4.5q0 -1 -0.5 -3t-1 -5t-0.5 -5q-1 -1 -1 -3.5t-1 -3.5q3 -4 0 -13v-5v-17q1 -3 -1 -27q1 -7 0 -19
q1 -4 0 -14t-1 -14v-8q-1 -5 -4 -34v-5v-8q0 -8 -1 -10q1 -3 0 -9.5t-1 -9.5v-6q-1 -1 -2 -2.5t-2 -2.5t-1 -2l-4 -7q-6 3 -6 -3q-1 0 -2 -1h-1q0 1 -0.5 3t-0.5 3q-5 4 -11 -4q-8 1 -12 0q-5 5 -8 2q-1 0 -2.5 3t-3.5 3q0 3 -1 5t-2.5 4.5t-2.5 4.5q-1 0 -1 1v1
q-1 3 -2 6.5t-1.5 6.5t-1.5 7t-1 7q-1 4 -3.5 12.5t-3.5 12.5q0 5 -1 7q0 3 -1 7.5t-1 8.5q-2 2 -3 8t-2 8q0 1 -1 4t0 5q-1 3 -3 13t-4 14q0 5 -1.5 11.5t-1.5 9.5q-1 1 -3 13q0 2 -1 6.5t-1 6.5q-2 3 -4 15q0 1 -0.5 1t-0.5 1t-0.5 5.5t-1.5 7.5q0 7 -5 17q0 6 -1 8
q0 2 -1.5 6.5t-0.5 7.5q-1 2 -2 6t-1 5v3q-2 5 -4.5 15l-3.5 14q-2 12 -4 16q0 2 -1.5 6t-1.5 7q0 4 -1 6q-3 18 -3 21q-2 4 -3.5 14t-4.5 13q0 12 -2 17l-15 64q0 4 -1 6q-1 -6 -0.5 -20.5t-1.5 -20.5q1 -4 1 -14v-14v-1q0 -4 -1 -6v-15q-3 -5 0 -9q0 -2 -0.5 -6t-1.5 -6
q3 -14 -5 -27v-5q-2 -13 -1 -18q-1 -8 1 -22q-5 -8 -3 -19v-17v-25v-7.5t1 -8.5v-18l-1 -2v-11q0 -3 -3 -18l1 -1v-1l-1 -2q0 -1 -0.5 -4t-0.5 -5q2 -5 -1 -29q-1 -1 -1 -1.5t-1 -1.5q2 -5 2 -10.5t-1 -12t-1 -10.5q-1 -3 -1 -9v-9q0 -2 -0.5 -5t-0.5 -4l1 -1l-1 -1v-7v-9
v-7h-1v-1q0 -8 -4 -24q-1 0 -4 -6q-2 -1 -4.5 -5t-5.5 -5q-2 -5 -5 -5q-2 3 -8.5 3t-8.5 2q0 -1 -2 -1.5t-2 -1.5q-12 7 -16 33v18q0 11 0.5 37t0.5 37v31h1v1q1 33 1 95q1 5 1.5 11t1 13.5t0.5 11.5v8v14q0 4 0.5 11.5t0.5 10.5v16q0 4 0.5 14t0.5 15l1 1q-1 5 0 14.5
t1 12.5q3 48 3 95q0 12 -1 19q2 5 3 5v19v2q0 2 0.5 7t0.5 8q0 2 0.5 6t0.5 7q0 13 2 15q0 4 1 6v7.5t0.5 8.5t0.5 6v56h-1q-1 1 -1 2q2 2 6 2l-1 1l-1 1l2 1h23h2q8 0 9 -2h4q3 -1 7.5 -3.5t8.5 -3.5q2 -4 8 -5l4.5 -4.5l5.5 -5.5q0 -2 2 -5.5t2 -6.5q1 -1 2 -3.5t2 -3.5
q3 -9 3 -11v-4q0 -1 0.5 -2t0.5 -2q1 -1 1 -5t1 -5l2 -6q0 -16 2 -24q-1 -2 -0.5 -4.5t0.5 -4.5q0 -1 0.5 -3t0.5 -4q1 -3 2 -9t1 -7q0 -4 2 -11.5t2 -11.5q2 -3 3.5 -10t2.5 -9q0 -5 1 -7q2 -9 6 -18q-2 -1 -0.5 -3t0.5 -3q4 -10 4 -16q3 -15 3 -18q2 -3 4 -14q2 -4 3 -7
v-10q0 -1 1 -3t1 -3v-4q4 -12 4 -13q1 -4 1 -10l2 -2q0 -2 1 -6t1 -7q1 -1 1.5 -4t0.5 -4l2 -2l-2 -2q0 -2 2 -2q3 -12 2 -14q1 -1 2 -4t1 -4q2 -7 5 -10q6 -30 13 -44q0 -8 3 -19.5t4 -14.5v-1z" />
    <glyph glyph-name="O" unicode="O" horiz-adv-x="283" 
d="M133 5q-1 -1 0 -1q1 -2 0 -2q-4 0 -8 -2q-7 0 -19 5q-8 3 -13 7q-1 1 -3 2.5t-3 2.5q0 3 -5 6l-6 9l-6 9q0 1 -5 8q-10 22 -14 33q-1 4 -3 14l-3 15q-6 48 -8 73q-1 3 -1 8.5v7.5q0 5 -0.5 13.5t-1 15.5t-1.5 13h1v1q-1 4 -1.5 16.5t-0.5 17.5q0 22 -1 32q0 3 0.5 9
t0.5 9v70v30q0 4 1 12.5t1 12.5q0 2 0.5 6t0.5 5v7q2 22 2 32q1 1 1 3q2 19 4 29v7q4 22 6 32q1 7 5.5 20t5.5 17l6 21q1 0 3 2q1 1 1.5 3t0.5 3q2 3 6 7t5 7q3 2 7.5 6.5t8.5 6.5q2 2 12 7l1 1q8 4 12 4l1 1l1 1q5 0 12 2t11 2q12 0 24 -3q1 -1 3 -1t3 -1l3 -1q3 -1 4 -2
l2 -2q7 -6 10 -9q2 -5 3 -6t4 -3l2 -2q1 -1 2 -1q1 -1 2 -4t2 -5l2 -4q1 -1 1 -4q1 -3 6 -8q0 -3 1.5 -5.5t1.5 -4.5q1 -2 2 -6.5t2 -5.5v-7v-9l2 -4t1 -4t1 -6.5t2 -7.5q1 -2 1.5 -6.5t0.5 -6.5l-1 -1q2 -6 2.5 -15.5t1.5 -13.5q-2 -8 -0.5 -28.5t0.5 -28.5q1 -1 1 -3.5
v-3.5v-11q0 -11 2 -31q-1 0 -1 -1v-4q1 -3 1 -4q0 -34 1 -51q0 -3 -0.5 -7t-0.5 -7q1 -4 0 -9.5t0 -9.5q0 -4 0.5 -12t1.5 -12h-1v-1q1 -6 1 -18q0 -3 0.5 -9t0.5 -9q0 -2 -0.5 -6t-0.5 -6v-1v-6v-7v-5q-1 -2 -1 -9v-1q-1 -2 -1 -4q0 -3 -1.5 -9.5t-1.5 -8.5v-7v-4
q-1 -1 -1.5 -6t-2.5 -7q0 -6 -2 -16t-2 -16q-1 -3 -3 -12t-4 -12q0 -4 -2 -10.5t-2 -9.5q0 -1 -2 -2q-2 -8 -4 -11q0 -6 -4 -12q-1 -3 -3 -8t-2 -8q-2 -1 -3 -4t-3 -3q-1 -3 -3.5 -7t-3.5 -7q-3 -2 -5 -5q1 -6 -2.5 -10t-10.5 -7t-10 -6q-2 0 -4 -2q-3 -1 -15 -4
q-8 0 -11 -1zM98 495v-11q1 -1 0.5 -6.5t-0.5 -8.5q0 -17 -1 -20q1 -7 -1 -15v-1q1 -1 1 -2q-2 -10 -2 -20q-1 -6 -1 -15.5v-14.5v-6q1 -1 0.5 -5.5t-0.5 -6.5v-5q0 -5 2 -21q-1 0 -1 -2v-2q-2 -7 0 -13q1 -5 1 -14.5v-13.5q0 -2 0.5 -6t0.5 -5l-1 -2v-3q0 -4 2 -10
q0 -2 -0.5 -6t-0.5 -6v-6q0 -1 0.5 -1t0.5 -1v-8q0 -1 0.5 -3t0.5 -3v-8v-6q-1 -1 0 -4.5t1 -5.5v-7q0 -4 0.5 -11t0.5 -10q1 -1 1 -4v-2q-2 -4 0 -9q0 -14 2 -20v-1h-1q2 -14 2 -23q1 -1 1 -2.5t0.5 -3.5t0.5 -4q1 -3 1 -10q0 -3 1 -4q1 -6 4 -18q-2 -4 1 -28
q-1 -6 2.5 -10t8.5 -4q1 1 3 2t3.5 2t2.5 2l8 8q0 1 2 3q0 2 1 2q0 3 2 5q2 4 9 22q0 2 0.5 4t1.5 4.5t1 4.5q1 3 2 9t2 9q4 8 4 17q2 8 2 9q-1 1 -1 2t3 10t4 14q0 10 3 19q0 1 -0.5 1t-0.5 1q2 9 4.5 28t4.5 28q-1 0 -1 3l1 2q-2 2 1 7v22q0 6 2 9v23v4v2l1 1v17
q0 23 1 35v10.5v12.5v11v33v5q0 6 -0.5 16.5t-0.5 15.5v1q1 1 0 2q-2 9 0 16q0 1 -2 5q0 16 -1 19q1 11 -1 32q-9 35 -10 49q-5 25 -9 33h-4q-1 1 -4.5 5t-4.5 6q-6 3 -7 3t-3 -1t-3 -1q-6 -3 -16 -13q0 -1 -6 -13q-4 -6 -5 -6q0 -3 -3 -6t-2 -6q-4 -5 -4 -30
q0 -7 -2.5 -21.5t-2.5 -19.5q0 -10 -1 -15q0 -1 -1 -1v-15z" />
    <glyph glyph-name="P" unicode="P" horiz-adv-x="256" 
d="M105 292q0 -20 -0.5 -58.5t-0.5 -59.5q-2 -5 -1 -10v-9q-2 -16 -1 -26q0 -2 -1 -8.5t0 -9.5q0 -4 1 -5q-1 -12 -1 -33v-10q0 -2 -0.5 -9.5t-0.5 -9.5v-4q0 -1 -0.5 -2.5t-0.5 -2.5v-4q0 -1 -0.5 -4.5t-0.5 -5.5q0 -1 -2 -4t-3 -4t-6 -1q-2 -6 -2 -8q-1 -2 -11 -4h-3
q-2 0 -2 2q-7 0 -12 5l-1 1q-2 0 -2 1t-1 3l-4 4q-5 8 -6 13q0 1 -1 1q0 4 -0.5 11t-1.5 10q1 12 1 38q-1 3 -0.5 10.5t0.5 9.5q0 1 -1 1v12.5v15v13.5q1 4 -1 17q1 3 1 14.5v15.5v7.5v9v6.5q0 3 -0.5 12t0.5 13v14q0 3 0.5 7t0.5 6v19v10q1 9 1 30q-1 2 -0.5 6.5t0.5 5.5
q0 10 0.5 29t0.5 28q0 1 -0.5 4t-0.5 5q1 10 1 29v11v18q0 6 0.5 17.5t0.5 17.5v58q0 2 -0.5 6t-0.5 6q0 1 1 3v9q0 8 -1 11q3 39 3 76q1 1 1 2q3 1 7 3v2t1 2t4 1h6q1 1 3.5 2t5.5 1.5t5 1.5q5 -2 10 0h7q8 1 32 -2q3 -1 7 -2.5t6 -1.5q1 -1 4 -1t4 -1l3 -3q3 0 5 -2
q1 0 1 -1l2 -1q2 -1 6 -3.5t6 -3.5q1 -1 6 -4.5t6 -6.5l5 -5l5 -5q1 -2 3.5 -5t3.5 -4q0 -3 1 -3q7 -14 10 -22q0 -3 1 -6t1 -5q3 -5 4.5 -18.5t2.5 -17.5q-1 -16 0 -32q-2 -4 -2.5 -9t-0.5 -10.5v-8.5v-2q-1 -2 -1 -4v-8v-21q0 -2 -1.5 -7t-0.5 -9q-1 -4 -3 -17t-4 -18
q-3 -19 -12 -36v-1l-1 -2q-1 -1 -4.5 -10t-7.5 -13q-1 -3 -14 -24q-20 -17 -21 -17q-5 -7 -12 -9q-6 -7 -31 -13zM102 653q4 -15 3 -26q1 0 1 -7q0 -2 0.5 -7.5t-0.5 -5.5v-8.5v-12v-9.5q2 -3 2 -9q-1 -2 -1 -7t-1 -7q0 -1 2 -2q-2 -1 -2 -3l-1 -2q2 -6 -1 -31v-2v-6v-5v-13
v-14.5v-16.5v-12q2 -3 1.5 -10t0.5 -8v-2t-1 -2q1 0 1 -1q-1 -5 -1 -19q0 -1 -0.5 -1t-0.5 -1q1 -1 0.5 -28.5t-0.5 -28.5q10 4 16 12h1q17 19 20 24q2 7 5 12q0 1 2 4t2 5q0 1 1 3t1 3q5 12 12 55v5q2 10 2 13q0 89 -1 99q0 1 -1 1q0 2 -2 16q0 3 -2 7.5t-2 7.5
q-1 3 -17 24q-11 8 -14 10q-10 5 -13 5q-1 0 -1 1q-1 0 -3 1h-2q-3 -2 -5 0h-1v-1z" />
    <glyph glyph-name="Q" unicode="Q" horiz-adv-x="321" 
d="M206 13q-7 -7 -30 -11q-3 1 -12 1l-1 1q-5 0 -12 3t-12 3q1 1 0 2h-1q-10 2 -23 13q-3 2 -7 6q0 1 -2.5 3t-2.5 4q-4 3 -10.5 11t-9.5 10q1 1 0 2t-1 2l-1 1h-1q0 3 -2.5 5.5t-2.5 4.5l-10 20q-1 1 -6 13t-6 19q-3 5 -6.5 18.5t-5.5 18.5q-1 6 -3.5 16t-2.5 12
q-1 4 -2 9.5t-1 7.5v4q0 4 -0.5 10t-0.5 9q-2 3 -2 9t-1 9v4t-1 4l1 2q-3 38 -1 92v5q1 18 7 59q0 8 1 11v3q2 7 3.5 21t3.5 21q0 1 1 3.5t1 3.5q4 20 12 56q2 4 3.5 10t2.5 8q7 18 8 23q2 4 6 13t6 14h1q10 19 13 22q0 2 2 4q8 14 18 23q4 0 6 2q1 -1 4 -1l3 1q4 2 4 3
q4 1 13 4t14 4q8 2 28 -3l1 -1h1q2 -1 5.5 -3.5t5.5 -3.5v-2q2 -1 5.5 -3t6.5 -3q2 -4 5 -5q2 -5 8 -10q2 -4 3 -5q0 -2 2.5 -4.5t2.5 -4.5q2 -5 6.5 -14t5.5 -13l3 -12q1 -3 3.5 -9t3.5 -9q0 -1 0.5 -3t1.5 -3q3 -10 4 -18q0 -1 1 -5t0 -7q0 -1 1 -1v-6l1 -1q0 -4 0.5 -7
t1.5 -7t1 -6q2 -8 3 -9v-6q1 -10 5 -35q0 -1 0.5 -3.5t1 -4.5t1.5 -4q-1 -1 -1 -4.5v-4.5v-12q2 -2 3 -6.5t2 -5.5q0 -2 0.5 -7t-0.5 -6q1 -1 1 -7v-1l1 -1q0 -2 -0.5 -4t-0.5 -3q-2 -2 0 -6q0 -3 1 -7t1 -6l-1 -2l-1 -2q-1 -11 1 -20q-1 -3 1 -5q-3 -15 -2 -17l-1 -1
q3 -15 0 -24q1 -1 1 -4.5v-5.5q0 -1 0.5 -2.5t0.5 -2.5t-2.5 -11.5t0.5 -13.5q0 -1 -1 -11t0 -14q-2 -6 -3 -20.5t-4 -20.5q0 -1 -1.5 -4.5t-1.5 -5.5v-1v-1q-1 -1 -1 -2q0 -2 -0.5 -9t-1.5 -10q-2 -6 -4.5 -18t-3.5 -16q-2 -3 -4 -11t-4 -11q-2 -14 -12 -34q-3 -6 -7 -9
q0 -2 -2 -6q-2 -1 -0.5 -2.5t1.5 -2.5q1 0 2 -2t1 -3t2 -3t3 -4q2 -6 3 -8q5 -5 5 -9q0 -1 3 -4.5t4 -5.5q0 -1 1 -2l2.5 -2.5t1.5 -2.5l1 -2q1 -1 2 -1q7 -12 8 -14q2 -2 4 -6.5t3 -5.5q4 -11 5 -15q0 -2 2 -7t-1 -7q-1 0 -1 -1q-3 -1 -5.5 -0.5t-5 0t-3.5 -1.5
q-1 0 -2 0.5t-3 0.5q-7 6 -9 8q-18 20 -21 29l-3 3q-2 4 -4 5q-2 5 -7 14t-7 13q-1 1 -2.5 3.5t-2.5 3.5q-1 4 -3 8zM198 105q1 9 6.5 26.5t6.5 28.5q2 6 2 9q3 18 5 52t3 43q-1 5 1 14t0 14q-1 5 0 15.5t1 12.5q-1 4 -1 15q0 1 0.5 2t0.5 2t1 4.5t1 6.5l-3 9q1 2 1 9
q1 1 0 6t-1 7v10.5t-2 12.5q0 4 0.5 9.5t0.5 8.5q1 0 1 2v3q-4 8 -4 27q-4 9 -4 26q0 2 -5 22q-2 1 -4 12v4q-8 16 -8 19l-4.5 14t-4.5 17v1q0 1 -3 10q-1 2 -1 6v7q-3 1 -4 7.5t-3 7.5l-21 -15q-16 -28 -17 -32q-1 -5 -5 -13t-5 -13v-1q-2 -1 -2 -3.5t-1 -2.5q0 -1 -3 -10
q-3 -18 -11 -34q1 -3 -0.5 -7t-1.5 -6q-1 -2 -2 -7t-1 -6t0.5 -1t0.5 -1q-3 -7 -10 -51v-3q0 -3 -1 -4q0 -1 -0.5 -6t0.5 -7q-1 -2 -1 -8v-8t-2 -8v-4v-22v-2l-1 -1q-2 -3 -1 -13.5t1 -13.5t-1 -8.5t-1 -8.5t1 -9t1 -10q0 -2 -2 -7.5t-1 -8.5q3 -6 2.5 -16t0.5 -16
q2 -4 2 -7q0 -4 1 -6q0 -1 0.5 -4.5t-0.5 -5.5q2 -8 4 -12q1 -4 0.5 -7.5t-0.5 -7t2 -5.5q0 -2 1 -4.5t1 -4.5q1 -4 2.5 -11t3.5 -11q1 -1 1 -5q3 -9 4 -10v-3q1 -2 2.5 -8t3.5 -8v-2q11 -22 16 -28q0 -2 2.5 -5t2.5 -5q2 -1 5.5 -6t6.5 -6q0 -2 5 -4q1 -2 4 1q4 4 8 9
l3.5 3.5t3.5 4.5q-2 2 -4.5 6.5t-3.5 5.5q-2 6 -9 18t-10 19q-2 4 -1 8l2 1h2q2 3 16 3q1 4 6 1q1 -1 2 -2.5l2 -3t3 -1.5q2 -2 5.5 -8.5t5.5 -9.5q3 6 4 6z" />
    <glyph glyph-name="R" unicode="R" horiz-adv-x="267" 
d="M174 338q1 -3 3 -7.5t3 -6.5q3 -6 6 -21q6 -13 7 -25q2 -4 3.5 -14t2.5 -14q1 -8 5 -25v-2q1 -3 2 -9t2 -8q2 -18 8 -47.5t7 -37.5q1 -4 3 -14.5t4 -15.5q0 -14 5 -26q0 -4 1.5 -10.5t1.5 -10.5l3 -9l1 -1l3 -21q2 -9 1 -11q-2 -1 -6 3q-6 -4 -9 -3q-1 0 0 -1t0 -1
q-2 0 -4 2h-4q-6 2 -7 2q0 1 -1.5 2t-1.5 2q-11 4 -18 15q0 1 -2 5t-2 7q-4 9 -8.5 28.5t-5.5 23.5q1 0 1 2t-3.5 16.5t-6.5 22.5q-2 18 -4 29q0 5 -3 18.5t-4 21.5q-1 4 -3 14.5t-3 14.5q-2 26 -3 31v6q-3 7 -7.5 21.5l-6.5 20.5q-1 0 -10.5 -4.5t-15.5 -3.5q-1 -3 0 -12
t0 -13v-1q-1 -4 0 -12.5t1 -12.5q-1 -6 -1 -19v-27q-1 -1 -1 -5.5t-1 -5.5q-1 -4 -0.5 -11t0.5 -10q0 -1 -1 -2q1 -2 1 -9.5v-11.5v-1q1 -2 1 -3t-2 -7v-8l-1 -3v-5q0 -1 0.5 -4t0.5 -5q-1 -7 -1 -21q0 -9 -2 -13q1 -3 0.5 -11t-0.5 -12l-3 -38q-2 -2 -2 -5l-2 -2
q-1 -2 -2 -3v-2q-5 -3 -11 -1q-2 4 -6 5l-3 3q-1 0 -1.5 -1t-1.5 -1h-8q-3 3 -4 3v2q-15 15 -15 44v24q0 7 0.5 21.5t1.5 21.5q0 1 -1 1q1 6 1 17v30v10q0 13 0.5 39t0.5 38v8q0 4 0.5 11t0.5 10q1 4 1 11.5v10.5v23q1 3 0 11.5t-1 11.5q0 2 0.5 5.5t0.5 4.5q0 2 -0.5 6
t-0.5 6v26q0 10 -0.5 31t-0.5 32q0 15 1 20q0 2 -0.5 6.5t-0.5 5.5q0 3 0.5 9t0.5 9v31v5v6q1 4 1 9v8v11v2q1 2 1 3q0 2 0.5 4.5t0.5 3.5t-0.5 4t-0.5 5v10q0 2 1 6t1 6q0 20 4 26q-1 7 2 13v3q4 2 4 5q1 0 1 -1v1l1 1h1l2 1q6 -1 15 0t13 1q21 0 29 -4q6 0 20 -4
q1 0 3.5 -1.5t3.5 -1.5q3 0 6 -1q0 -1 1 -1q1 -1 2 -1q2 0 2 -1q14 -6 21 -12q1 -2 5 -4.5t5 -5.5q3 -2 7 -8q2 -2 5 -6t4 -6q0 -1 0.5 -1t0.5 -1q13 -22 20 -40q0 -4 1 -5q0 -1 0.5 -4t1.5 -4v-1q0 -6 1 -9q2 -22 2 -36t-1 -15q0 -21 -2 -31q1 -2 0 -7t-1 -7q-1 -1 -1 -2.5
v-3.5q1 0 1 -1q-2 -3 -3.5 -11.5t-1.5 -10.5q-2 -9 -5 -16q0 -2 -2 -10q-1 -1 -1 -3l-1 -1q-1 -1 -1 -2l-2 -4v-4q-4 -4 -5 -9q0 -1 -1 -1v-3l-1 -1q-3 -3 -11 -16q-2 -1 -4 -5q-3 -2 -5.5 -5.5t-3.5 -4.5q-1 -2 -4.5 -5t-4.5 -5zM121 354l3.5 3.5t4 4.5t3.5 3v1q4 2 4 5h3
q3 6 8 10l2 4t3 4.5t3 4.5l1 1q1 2 3 5.5t3 5.5l3.5 10.5t3.5 11.5q1 0 1 1v1q7 20 8 26q1 1 1 3.5t-1 3.5q2 7 7 51q1 1 0 1l-1 1q3 22 -3 58q-14 39 -31 59q-1 0 -2.5 1t-3.5 1q-21 12 -37 3q0 -1 0.5 -5t1.5 -5q0 -5 1.5 -19t0.5 -21q1 -2 1 -15v-8v-2v-28
q0 -1 -0.5 -3.5t-0.5 -4.5v-16v-11q0 -6 0.5 -22t-0.5 -21q0 -1 1 -1v-1q-1 -3 -1 -7.5v-7.5q0 -4 -1 -7q0 -4 -1 -6l-1 -1q-1 -2 -1 -3v-12l-1 -1v-3q-1 -5 0 -13.5t1 -12.5q0 -5 1 -17.5t0 -18.5q3 1 7 4.5t6 4.5z" />
    <glyph glyph-name="S" unicode="S" 
d="M36 154h2l2 1q1 2 5.5 6.5l6.5 6.5h2q9 8 27 -2q0 -1 2.5 -5t4.5 -6q0 -2 1 -5.5t2 -5.5q0 -1 0.5 -3.5t0.5 -3.5q4 -4 2 -11q1 -2 2 -8.5t3 -9.5q0 -2 5 -15q0 -6 3.5 -17t3.5 -16q10 -18 15 -22q9 -2 17 1q1 1 3 4.5t4 5.5q0 1 1.5 4t0.5 5q1 1 1.5 3t1.5 3q0 2 2 4.5
t2 3.5v3q0 1 1 3v1q0 3 -0.5 8.5t0.5 9.5q-1 1 -1 2q1 2 -1 7v1q-2 26 -11 54q0 6 -3 15.5t-3 13.5q-1 1 -1.5 5t-1.5 5q0 5 -7 24q0 5 -2.5 11t-2.5 9q-7 16 -8 25q-8 25 -13 45l-22 68q2 2 0 5q0 1 -1 3t-1 3q-1 3 -2 10.5t-4 10.5q0 9 -5 17q0 5 -2 12t-2 11
q-3 6 -6.5 19t-6.5 19q0 1 -4 15.5t-2 21.5v11q-7 21 -5 42q0 14 3 19q0 3 3 21q1 1 2 4t3 5q2 5 6 7q11 15 21 18l2 2l1 1q2 0 5 2t6 2q1 1 3 2t4 1t4 0.5t4 1.5q12 3 15 3q14 0 30 -2q3 0 7 -2t6 -2q2 -2 5 -2q2 -3 7 -7.5t7 -7.5q2 -2 5 -8t4 -7q0 -4 1 -5q1 -7 6 -14
q0 -4 3 -9t4 -9q2 -14 2 -19q3 -6 0 -7q0 -2 1 -4t1 -3q-1 -2 -3 -21q0 -2 -0.5 -4t-0.5 -3v-3q0 -4 -1 -6q0 -9 -2 -12l-1 -1q-1 -1 -1 -2v-2q0 -2 -1 -3q-2 -1 -3 -2t-3 -2l-4 -2q-8 -5 -20 -3q-8 6 -11 13q-1 3 -1 30q0 3 -1 11t0 13q-3 6 -1 9q-2 5 -5 15.5t-4 13.5
q-3 11 -16 30q-11 4 -19 2q-2 0 -2 -2q-1 0 -4 -3q-3 -2 -6 -8t-6 -8q0 -3 -1 -7.5t-1 -6.5v-4q1 -2 3.5 -8t3.5 -9q2 -8 2 -9q1 -2 1.5 -5.5t0.5 -4.5v-4q0 -1 6 -17v-2q1 0 1 -4q7 -7 16 -29q0 -1 -1 -1h-1q4 -10 6 -20q1 -1 1 -2.5v-2.5q0 -2 1.5 -4.5t1.5 -3.5
q2 -10 3 -13q0 -2 2 -6.5t1 -6.5q1 -2 1.5 -7.5t0.5 -7.5q2 -6 5 -17t4 -18q0 -5 2.5 -13t2.5 -12q3 -3 1 -7v-2q1 -2 2 -2q0 -7 3.5 -15t3.5 -14q6 -12 9 -27q2 -3 4 -15q2 -6 5.5 -20t5.5 -20q0 -2 1.5 -7t1.5 -9q2 -4 5 -13t5 -13q0 -5 2 -14.5t2 -14.5q3 -6 5 -20t3 -17
q2 -12 2.5 -33t1.5 -30q0 -3 -2 -9t-3 -10q-1 0 -1 -0.5t-1 -0.5q0 -2 -3 -6.5t-4 -7.5q-4 -3 -8 -9q-2 0 -3 -1.5t-2 -1.5q-6 -9 -17 -15q-3 -1 -9.5 -5t-10.5 -6q-8 0 -14 -2q-2 -1 -5 -1h-3q-13 -1 -37 3q0 1 -1.5 1.5t-1.5 1.5q-5 1 -9 5q-10 3 -14 9q-2 0 -14 16
q-2 2 -7 13q1 2 -1 4q-1 2 -1 3q-1 1 -1.5 5t-1.5 5q0 3 -2 7.5t-3 8.5q-1 2 -1.5 7t-1.5 7q0 4 -2.5 13.5t-2.5 14.5q0 12 -1 15q0 9 3 15zM151 278q0 1 -3 5t-4 7l-1 1q2 -10 8 -13zM152 276q2 0 2 -2q1 0 1 -1q1 1 2 1h1q-6 2 -6 4q0 -1 1 -1q0 1 -2 1l1 -1v-1zM110 374
v-2q1 0 1 1t-1 2v-1v0zM113 366q0 4 -1 4h1v2q-1 -1 -1 -3t1 -3zM111 364q1 0 1 2h-1v-2zM134 340q0 5 -1 6q0 -4 1 -6zM136 333q-1 1 -1 2.5t-1 1.5q0 -4 2 -4zM134 330v1v-1zM137 329v1l-1 -1h1zM138 323l-1 4q0 -3 1 -4zM140 323v1v-1zM138 321v-1h1q0 -5 1 -6v-1
q0 -1 1 -2v4q-1 0 -1 4v1q-1 2 -2 2v-1zM146 298v7q1 0 1 1q-2 0 -2 2h-2q3 1 0 4q1 1 -2 6q0 -10 5 -20zM161 312q-1 0 -1 0.5t-1 0.5zM144 301l-1 1zM141 295q1 0 1 -0.5t1 -1.5q0 5 -2 6v-4zM158 272q1 0 2.5 -3t3.5 -1q-2 1 -3.5 3t-2.5 2v-1z" />
    <glyph glyph-name="T" unicode="T" horiz-adv-x="271" 
d="M0 651q1 1 4.5 1.5t4.5 0.5q1 2 12 2h17q26 0 38 2h9q6 0 20 0.5t21 0.5q6 0 18 1t17 1q16 0 23 -1q4 0 35 1t32 -3q0 -1 1 -2v-1q2 -1 3 -2.5t1.5 -3.5t1.5 -3q-2 -1 -1.5 -4t-0.5 -4q1 -2 3 -4q-6 -3 -7 -3t-3 -7q-1 0 -3 -1h-1q-4 -4 -7 -5h-10h-10l-2 -1h-4h-4t-5 -1
q-1 0 -3 -0.5t-4 -0.5l-1 1q-1 0 -4.5 -0.5t-5.5 -0.5q-10 0 -15 -2v-20q2 -12 1 -15q0 -2 1 -2q-1 -5 -1 -16q0 -2 -1 -5.5t-1 -6.5v-17q-2 -20 -1 -25q-1 -6 -1 -17q0 -2 -1 -4v-3v-7v-4q0 -1 -0.5 -4t-0.5 -5q0 -1 -0.5 -4t-0.5 -5q-2 -2 -0.5 -8.5t1.5 -7.5t-1 -3v-2
q0 -5 1 -6q1 -4 0 -12t-1 -11v-6q0 -2 0.5 -6t0.5 -6t-0.5 -5t-0.5 -4t0.5 -2t0.5 -2t-0.5 -2t-0.5 -2v-3l1 -2l-1 -1v-2q0 -3 0.5 -7t0.5 -5v-8q-2 -2 -1 -13t1 -13v-1v-11v-2v-11q0 -16 -3 -29v-9q1 -2 1 -7.5t1 -7.5q-2 -5 -2 -14q0 -1 1 -1l1 -2q0 -1 -1 -3l-1 -2v-10
q0 -1 1 -2t1 -2t-1 -2.5t-1 -2.5t1 -2.5t1 -2.5t-1 -4t-1 -5q0 -1 3 -28v-6v-4t-0.5 -4.5t-0.5 -5.5t0.5 -5t0.5 -5t-1.5 -14.5t0.5 -13.5q-2 -3 -2 -9l-1 -6v-5l-1 -1v-11q1 -3 -1 -9q0 -1 0.5 -3.5t0.5 -3.5q0 -2 -2 -10v-4l1 -2q0 -5 -2 -15q0 -10 -4 -15q-4 -1 -8 4.5
t-6 6.5q0 -4 -1.5 -7.5t-4.5 -1.5q-1 0 -1 1v2l-1 1l-3 1q-3 1 -3 6q-5 3 -5 4q-3 0 -15 10q0 1 -3 7t-4 10q0 12 0.5 24.5t1.5 28t1 24.5v34q1 3 1 7.5v6.5q0 1 0.5 4t0.5 5q0 1 -0.5 3.5t-0.5 3.5t0.5 2t0.5 2v14q2 97 1 143q0 7 0.5 22t0.5 23q0 4 -0.5 12.5t-0.5 12.5
t0.5 14.5t0.5 15.5q0 6 1 19.5t1 20.5q0 11 1 31.5t1 31.5q-1 11 -0.5 31.5t0.5 30.5q-5 1 -12.5 0t-9.5 -1q-6 -3 -8 -1h-12q-2 0 -6 -0.5t-6 -0.5q-18 0 -30 8v1q-1 0 -2 0.5t-2 0.5v1q-1 0 -1.5 0.5t-1.5 0.5q-2 4 -6.5 9t-5.5 7h-3q1 1 0 3t-1 3q-3 2 -2 9zM134 565h1
q0 1 -1 1t-1 -1h1z" />
    <glyph glyph-name="U" unicode="U" horiz-adv-x="279" 
d="M47 665q25 5 27 5q13 0 17 -5q19 -6 19 -37v-3q0 -12 -1 -16q0 -1 0.5 -3t0.5 -3q-2 -2 -2 -4q1 -12 1 -40q-1 -3 -1 -8q0 -2 -0.5 -8t-1.5 -9v-20v-5t-1 -6v-16v-7q-2 -12 -2 -21q-1 -2 -1 -7q-2 -20 1 -27q1 -4 1 -14q2 -15 1 -23q0 -1 -1 -5t-1 -6l1 -2q1 -2 1 -3
q0 -2 -1 -7.5t-1 -8.5q3 -15 1 -26v-7q0 -1 0.5 -5t0.5 -6v-13q0 -1 0.5 -2.5t0.5 -2.5q0 -2 -0.5 -6.5t-0.5 -7.5q0 -15 -1 -17q1 -2 1.5 -7.5t0.5 -7.5q0 -1 -0.5 -3t-0.5 -4q0 -1 0.5 -4t0.5 -4v-25q0 -4 -1 -7v-9q0 -2 -0.5 -5t-0.5 -5q0 -6 0.5 -17t0.5 -16
q2 -15 0 -23q0 -12 1 -13v-5v-5q2 -1 2 -5.5t1 -4.5q7 -39 22 -48q5 -1 6 -3q1 0 3 -1t3 -1q3 1 5 4l3 4q4 8 14 24l3 6q1 5 1 18q1 5 2 15t2 16q3 30 3 31q0 10 1 14v24q0 2 1 6.5t1 6.5q0 11 1 16q0 8 -1 12q0 3 0.5 8.5t0.5 7.5v6q0 2 2 21v17v35q1 2 1 13q0 3 0.5 8
t0.5 7q-3 28 -2 34q0 3 0.5 7t0.5 6q0 4 -0.5 9.5t-0.5 8.5v34q0 11 2 31v33q0 4 0.5 12t0.5 11q0 2 -0.5 6t-0.5 5q2 6 2 10v4l-1 2q0 2 1 7t0 8t-0.5 17.5t0.5 20.5q0 1 0.5 5t0.5 6q0 24 3 29q0 2 2 3h15t14 -1q3 0 13 -4l2 -3q2 -1 3 -1l2 -2l1 -1v-2q7 -5 5 -15
q0 -7 -1 -12q1 -9 -6 -37v-12v-17v-2l-1 -2v-6q0 -12 -1 -19q0 -10 2 -15q-1 -2 -0.5 -5.5t-1.5 -3.5q3 -12 2 -19q0 -3 1 -5v-15q-1 -4 -1 -11q-1 -2 1 -6q0 -1 -1 -3q0 -1 -0.5 -3.5t-0.5 -4.5v-6.5v-8.5v-7q2 -6 0 -19v-6q0 -12 -1 -15q3 -14 2 -19v-11v-2q1 -6 -1 -17
t-1 -16v-6q0 -2 -0.5 -5t-0.5 -4t0.5 -4.5t0.5 -5.5q-1 -20 -2.5 -60.5t-3.5 -60.5v-2q-1 -4 -1 -24q0 -2 -1.5 -6t-1.5 -6q0 -10 -1 -16q-1 -3 -1 -8q0 -2 -1 -6.5t-1 -6.5t-1 -7t-1 -7q0 -3 -2 -9.5t-2 -8.5q-2 -6 -2 -9q-3 -7 -8 -16q-2 -2 -3 -4v-2q-1 0 -2 -1t-1 -4
q-2 -2 -6 -5t-5 -4q-1 0 -1.5 -0.5t-1.5 -0.5q-3 -4 -5 -4q-5 -5 -10 -7q-3 -1 -7 -3q-12 -2 -19 -2q-5 0 -12 1.5t-11 1.5q-2 1 -5.5 1.5t-5.5 0.5l-5 2q-5 2 -6 5q-3 1 -15 10q-26 24 -32 52q-1 4 -2.5 13t-2.5 13q-1 23 -1.5 63.5t-0.5 53.5l1 2q1 7 -0.5 19.5t-1.5 17.5
q2 32 2 51v29q0 2 0.5 5t0.5 4q0 3 -1 9t-1 8v12v55v17v27q0 1 -0.5 22t-2.5 32q-3 4 -1 12v39q0 2 -0.5 5t-0.5 4v10q2 17 1 26q0 34 3 42z" />
    <glyph glyph-name="V" unicode="V" horiz-adv-x="259" 
d="M116 224q3 12 3 17q1 2 1.5 7t0.5 6q4 8 4 13l2.5 15t1.5 12q1 4 2.5 13t2.5 13q0 2 1 6t1 6v2.5t1 1.5v1q1 1 1 6q0 3 2 9.5t3 9.5q0 2 0.5 6.5t1.5 6.5q2 10 2 12t0.5 6.5t1.5 6.5q0 1 0.5 2t0.5 2v4q2 7 4 20l3 20q1 2 6 30l3 12q1 11 4.5 35.5t4.5 38.5q2 2 4 14
q3 15 3 16l1 1q1 1 1 2v8q5 19 5 21q2 10 7 24v8l2 2q2 12 4 15h3q1 -2 5 -2.5t9 -1t8 -1.5q3 -5 8 -6q4 -6 5 -10q0 -4 1 -7q-1 -3 -1.5 -13t-2.5 -13q0 -8 -2 -22q-2 -8 -2 -10v-6q-1 -1 -1 -2v-9q-4 -6 -3 -11q-1 -2 -3 -15q0 -2 -3 -14q-1 -3 -1 -8.5t-1 -8.5
q0 -1 -0.5 -1t-0.5 -1q-2 -20 -4 -32l-1 -1v-4l-1 -1v-2q-2 -6 -2 -15q-2 -8 -2 -10q0 -7 -2 -11q0 -2 -6 -34q-2 -15 -3 -17q0 -2 -0.5 -7t-0.5 -6q0 -6 -4 -10q0 -3 -0.5 -8t-0.5 -8q-2 -7 -4 -19l-5 -30q-1 -5 -2.5 -14.5t-2.5 -14.5q0 -3 -2 -10.5t-3 -12.5
q0 -3 -1.5 -9.5t-1.5 -8.5q0 -4 -1 -8.5t-2.5 -10t-2.5 -8.5q-3 -22 -4 -30q-2 -9 -5 -27t-6 -27q0 -5 -5 -37q0 -2 -1 -2v-9q0 -1 -0.5 -5t-1.5 -5q0 -1 -0.5 -5t-0.5 -6q-1 -2 -2 -5t-2 -5.5t-2 -4.5h-1q0 -2 -2 -4v-5q-1 0 -1 -1l-1 -2v-6q-1 -1 -3.5 -7t-7.5 -7
q-9 4 -10 1q-3 1 -8 -0.5t-7 -1.5q-14 14 -17 41q0 3 -2 9q-3 54 -10 101q0 6 -2 20v4h1q-1 2 -1 5q-3 38 -3 40v17q0 3 -1 10.5t0 10.5q0 6 -2 16q-1 8 -1.5 24.5t-1.5 24.5q-2 13 -4 33l1 3q0 2 -1 5t-1.5 5.5t-0.5 4.5q0 3 -0.5 7t-0.5 5q-1 9 -2 28.5t-2 28.5
q-1 5 -1 14q-1 0 -1 2t-1 4v2q0 6 -1 15.5t-1 12.5v6q-2 8 -2 12v8v3q-1 4 -1 6q0 4 -0.5 11.5t-0.5 10.5q0 4 -1 6q0 8 -1 11q0 6 -1.5 17.5t-1.5 16.5q0 4 -1 6q-1 7 -1 20q-3 24 -3 25q-1 0 -1 2q1 2 3 2t4.5 -0.5t5.5 0.5q2 0 3 2q3 0 9 1t9 0q7 -2 12 -7q1 0 2 -2l1 -2
l2 -2v-2l-1 -2q1 -2 4 -14q1 -1 1.5 -5.5t0.5 -6.5q0 -1 2 -9q0 -8 2 -11q0 -5 2.5 -17.5t2.5 -20.5q1 -3 1 -12q0 -12 1 -18q0 -2 1 -5t1 -4q0 -2 -0.5 -4t-0.5 -3q0 -4 1 -6q0 -8 1 -13q0 -1 1 -7t0 -9l3 -27q0 -4 0.5 -12.5t1.5 -12.5q1 -8 2.5 -27t3.5 -29q0 -8 2 -26.5
t1 -28.5q1 -5 1.5 -14.5t1.5 -13.5v-21q2 -6 2 -9q2 -8 2 -19q-1 -1 -1 -2q0 -2 2 -4v-7z" />
    <glyph glyph-name="W" unicode="W" horiz-adv-x="395" 
d="M274 12l-1 1q-1 1 -2 1q-2 -1 -2.5 -4t-1.5 -4l-1 -1q-2 -1 -3 -2q-2 0 -5.5 -1.5t-6.5 -1.5q-8 0 -11 1q-4 2 -5 3q-8 0 -9 1q0 1 -0.5 1t-0.5 1q-5 2 -8 11q-3 3 -4.5 14t-2.5 14q1 4 -1 10q0 7 -2 18.5t-2 16.5q0 2 -0.5 6.5t-1 8t-1.5 6.5q2 3 0 6q0 4 -0.5 7.5
t-1.5 7.5t-1 6q-3 37 -9 74q0 9 -2 12q0 -1 -0.5 -4.5t-1.5 -4.5q0 -8 -3 -14q-1 -9 -3 -15q0 -1 -1 -4.5t-1 -5.5q-2 -3 -3.5 -10t-1.5 -9l-3 -12q-1 -3 -1.5 -6t-1 -6.5t-0.5 -5.5q-3 -8 -2 -10q-3 -10 -9 -34q1 -2 -1 -7t-2 -6q-1 -3 -1 -10q-5 -17 -5 -19l-2 -2
q0 -4 -3.5 -12.5t-3.5 -12.5q-2 -1 -3 -5.5t-3 -6.5q-8 0 -9 1q-1 0 -2 -2t-2 -2q-9 0 -10 5q-12 0 -17 1q-7 9 -8 24q-1 0 -2 1l-2 2q-7 15 -8 36v1q1 2 0 6t-1 5v6q-1 4 -1 11t-1 11q0 1 -0.5 2.5t-0.5 2.5v6q0 4 -2 8q0 8 -1 10h1v1t-0.5 3t-0.5 4q1 0 1 1q-1 3 -1 9
q0 2 -1 11t-2 13q1 6 0 15t-1 14q-1 6 -2 18t-1 13q0 2 1 2q-3 8 -2 19q-1 9 -2 19t-2 22.5t-2 19.5q-1 13 -3 34.5t-3.5 40t-2.5 35.5q0 2 -6 59q0 7 -1 11q0 11 -2 35q0 4 -1 5q1 0 1 1q-1 1 -1 6q0 7 -2 20t-2 19v2q1 2 1 3q-2 6 -2 11v5q0 1 -0.5 2t-0.5 2q0 3 -0.5 10
t-1.5 10q0 1 -0.5 5t-0.5 6v5q-2 7 1 10q0 1 1.5 1t1.5 2q1 -1 2 -1q3 3 18 5q1 -1 4 -1q11 -1 19 -15q1 -3 3 -11l3 -12q-2 -5 0 -8q-1 -6 1 -18t0 -19q1 -2 1 -6v-6q0 -1 0.5 -4.5t0.5 -5.5v-3l1 -1v-7t1 -7l1 -1v-2v-3v-2l1 -2v-18q1 -12 3 -21q0 -7 -1 -8l3 -32v-1
q0 -3 1 -7.5t1 -6.5v-6q-1 -6 0.5 -14.5t1.5 -13.5q2 -4 2 -12.5t2 -12.5q-1 -4 1 -8q-1 -5 0 -12.5t1 -11.5q0 -1 1 -5t1 -6q1 -2 0 -2q0 -2 0.5 -6t0.5 -6q0 -3 0.5 -9t1.5 -9q0 -1 0.5 -4.5t0.5 -6.5t1 -8.5t1 -8.5v-4v-6q0 -1 1 -3t1 -4v-12q1 -10 3 -26v-2v-6
q2 -6 2.5 -19t1.5 -17q0 -2 1 -6t0 -7v-4.5t1 -4.5q0 -4 1.5 -13t0.5 -15q0 -2 0.5 -4t0.5 -3.5t1 -2.5q-1 -2 0 -6t1 -5q4 13 10 41q1 5 5 22q1 2 2 5.5t2 5.5q0 6 1 8q6 23 6 25l1 1q1 2 1 3v1q2 9 3 10q1 2 2 8.5t3 9.5q2 14 5 20q0 2 1.5 6.5t1.5 6.5t1 6.5t2 6.5
q5 17 6 18q0 7 4 11q3 0 3 -1q1 0 2.5 1t2.5 1h3l2 1l3 -3l4 -2l3 -3t2 -3v-4q1 -1 2 -3l2 -2v-2q1 -1 2 -5.5t2 -6.5v-5q-1 -2 0 -6l1 -4q1 -4 1 -10q2 -8 3 -10v-6q4 -4 4 -14q4 -14 4 -26q4 -11 5 -20q0 -5 3 -14q3 -26 4 -31q0 -6 2.5 -16.5t2.5 -13.5q0 -5 2 -12.5
t2 -11.5q0 4 1.5 11.5l2.5 12.5v7q1 5 2 15t2 15t2 17.5t2 18.5q2 6 2 12v2q1 1 1 3q1 4 1 12t1 12q1 5 3 17q0 4 1 12.5t1 11.5q2 6 4 28q-1 1 0 2v1q3 15 5 32v3q0 2 0.5 4t1.5 4.5t1 3.5v5q1 6 3 15t2 14q1 3 1 8q1 1 1 3q1 2 1 4v3q1 3 1.5 8.5t0.5 8.5t1 8t1 7
q1 4 3 10q0 7 2 21q1 3 3 11q0 10 1 14q0 6 2 14q2 18 5 27l3 21q1 2 2 6.5t1 6.5q1 4 2 12.5t3 12.5q2 14 4 23q1 4 3 14.5t3 14.5q1 3 3.5 14.5t4.5 15.5h6q1 0 3 -1q6 2 13 -3l3 -3q1 0 1 -2v-1l2 -1q1 -2 1 -5l2 -3v-7.5t1 -6.5q0 -3 -1 -3q0 -14 -1 -16v-8q0 -6 -1 -7
l1 -1q-1 -3 -1 -7q-2 -8 -2 -16q-1 -2 -1 -4q-1 -2 -1.5 -10t-2.5 -11q0 -3 -5 -28q-1 -4 -2 -11t-2 -11q0 -3 -2 -5l1 -2q0 -2 -1 -5t-1.5 -5.5t-0.5 -4.5q-1 -1 -1.5 -4.5t-0.5 -5.5q-1 -2 -1 -4.5t1 -2.5q-1 -3 -2 -9.5t-2 -11.5t-2 -9q0 -6 -4 -26v-1q-1 -5 -1 -16
q-1 -4 -3 -10v-7.5t-1 -8.5v-1q-2 -6 -2 -12v-6q0 -1 -1.5 -6t-1.5 -8q0 -2 -0.5 -6t-1.5 -6q1 -1 0 -5v-3q-1 -2 -2 -7t-1 -6t-0.5 -6t-1.5 -7q-1 -4 -1.5 -14.5t-2.5 -14.5q-1 -1 -1 -4t-1 -4l1 -1q-1 -1 -1 -9l-1 -1q1 0 1 -1q-3 -18 -3 -19q0 -2 -0.5 -7t-1.5 -7
q0 -1 -1 -5.5t0 -6.5q0 -5 -1 -10q-2 -12 -2 -20q-1 -4 -1.5 -8.5t-1 -10.5t-0.5 -9q0 -1 -0.5 -2t-0.5 -2q0 -3 -1 -4v-3q-1 -3 -1 -8t-1 -7q0 -3 -2 -9q-1 -2 -1 -9v-10q-2 -4 -1 -6q0 -1 -0.5 -6t-1.5 -6q0 -3 -1.5 -11t-1.5 -13q-1 -1 -1 -9q-2 -2 -3 -7v-5q0 -2 -8 -4z
M345 636v1h-1q0 -1 1 -1z" />
    <glyph glyph-name="X" unicode="X" horiz-adv-x="256" 
d="M121 205q-2 -1 -2.5 -5t-1.5 -5q-1 -4 -2.5 -9t-1.5 -8l-3 -11.5l-3 -11.5q-1 -1 -1.5 -4t-0.5 -4t-1 -1q0 -4 -2 -11t-3 -11t-5.5 -18.5t-6.5 -21.5v-3q0 -1 -2 -8.5t-4 -10.5q0 -3 -0.5 -5.5t-1.5 -5t-1 -4.5v-1q-2 -12 -4 -17v-1v-1q-1 -1 -2 -4t-2 -4q-2 -8 -7 -12
q-13 -8 -19 -7h-1q-1 1 -2 1q-4 4 -5 6h-2q-3 3 -4 3q-11 21 -8 32l3 9q1 8 5 20q0 5 4 15q-1 3 0.5 7.5t1.5 6.5v3.5t1 3.5q0 1 3 12.5t4 17.5l1 1q14 56 18 70q1 10 6 22q0 4 2 10t2 8q0 5 1 6q0 1 1 3.5t0 3.5q2 3 3.5 10t2.5 10q1 2 2 7t1 7q1 6 3.5 16t3.5 12
q2 10 3 14q2 6 0 9q0 2 -0.5 4t-0.5 3q-1 1 -1 2t-1 2v2q0 1 -1 1q0 5 -2 15l-1 1q0 1 -3 19q0 3 -2 10.5t-2 12.5q-1 4 -2.5 11t-2.5 10l-1 1v3v6q-1 2 -3 8v5q-1 5 -2.5 15t-2.5 15q-3 9 -3 10q-2 12 -3 13q0 4 -1 5q0 4 -1.5 12t-2.5 12v5l-3 9q0 4 -2 12l-3 18
q-2 4 -1 6q-1 7 -3 19q-10 28 -9 50q10 2 14 4q9 1 21 -4q2 -1 6 -5q1 -1 9 -20q2 -12 4 -17q0 -3 2 -7.5t2 -6.5v-10q2 -8 2 -12q0 -7 1 -9t1 -5v-5v-1l1 -1q1 -1 1.5 -4.5t0.5 -4.5v-1q4 -19 5 -27q1 -1 3 -15q0 -2 1.5 -5t1.5 -4v-4t1 -4q0 -1 1 -2.5l2 -3t1 -2.5
q0 -6 1 -9q0 -3 2 -7t2 -6q1 1 1.5 4t0.5 4q0 3 1 5q0 3 1 5t1.5 6.5t0.5 6.5t1.5 7.5t2.5 8.5q0 2 1 4q0 1 0.5 3.5t0.5 3.5v4t1 4q1 3 2.5 11t2.5 11q0 3 1 5q1 1 3 14l1 1q1 5 3 13t2 13q1 9 5 27.5t5 21.5q0 1 1 1v5q1 2 2 8t3 8h12h4q14 1 25 -8q0 -1 3 -4q2 -4 6 -10
q1 -2 1.5 -5.5t0.5 -5.5q-1 -2 0 -3q-1 -3 -1.5 -9t-1.5 -9q0 -1 -1.5 -5t-1.5 -6v-2q-1 -3 -3 -7l1 -1v-1q0 -1 -1.5 -5t-2.5 -6q0 -2 -1 -3l-1 -2v-5q-2 -4 -2 -12q0 -2 -1.5 -7.5t-2.5 -8.5q-2 -4 -4 -10q-1 -5 -5 -20q-2 -16 -4 -21q0 -1 -0.5 -2.5t-0.5 -2.5
q-1 -1 -1 -4q-1 -4 -3 -14q-2 -8 -3 -11v-2q-3 -12 -4 -13v-2q-1 -6 -3 -16q0 -5 -2 -7q0 -4 -2 -12t-3 -13q-1 -1 -1 -2q-1 -4 -2.5 -9.5t-2.5 -10t-1 -9.5q-1 -2 -2 -8t-2 -9v-2q-5 -23 -4 -31q1 -2 1 -6q0 -2 0.5 -4.5t1.5 -5.5t1 -5v-8q0 -4 2 -8v-4q0 -1 0.5 -3l0.5 -2
v-4q5 -8 5 -19q0 -2 1 -3q0 -1 1 -3.5t1 -4.5v-5q1 -2 2 -5t2 -4q-1 -5 4 -15q2 -9 5 -18q0 -3 0.5 -5t1.5 -4.5t1 -4.5q1 -1 1 -2.5v-2.5q0 -2 6 -19v-10q0 -1 2 -5t1 -6q1 -1 1 -3l1 -2q-1 0 -1 -1q1 -3 3.5 -14t3.5 -17q1 -2 1.5 -4.5t1 -5.5t0.5 -5q0 -1 2 -5.5t2 -7.5
q0 -2 1 -6t1 -6q3 -9 3 -17q4 -5 2 -12q-1 0 -3 -2t-3 -2q-4 -6 -7 -8l-1 -1q-1 -1 -18 2l-2 2t-2 1q-1 2 -11 9q0 1 -1 1l-1 2q-1 5 -5 9q0 2 -2 6q-2 13 -8 47q-1 3 -4 21l-1 1v3v2q0 2 -1 3q-2 8 -3 13q0 5 -1 5q-4 23 -11 49q0 2 -3 20zM138 391q-1 0 -1 1v1q0 -2 1 -2z
M80 64v1h-1q0 -1 1 -1z" />
    <glyph glyph-name="Y" unicode="Y" horiz-adv-x="246" 
d="M15 679q2 0 7 2t7.5 2.5t7.5 -1.5l2 -2q2 -1 3 -2l2 -1q2 -1 2 -2l2 -2q1 -3 5.5 -12l6.5 -13l1 -2q1 -2 0 -3q0 -1 1 -3.5t2 -4.5l2 -4l1 -1q1 -1 1 -2.5v-2.5t2 -4.5t2 -5.5v-3q1 0 1 -4q2 -1 2.5 -4.5t1.5 -4.5q1 -5 4 -12.5t3 -11.5q1 -1 1 -3q1 -1 1 -2l1 -1
q0 -2 2 -8l2 -7q0 -2 1 -2q1 -3 1 -10q1 -1 3 -6t3 -8v-4q0 -1 0.5 -2t0.5 -2t1 -3t1 -3t1 -1q1 -2 2 -6.5t1 -6.5v-1l1 -1q1 -2 1 -5t1 -4t1.5 -3.5t1.5 -3.5v-2h1l1 -1q1 -3 12 -31h5q1 1 1.5 5.5t0.5 6.5l1 1l1 5q1 4 2 7q2 6 3 8v4q1 5 4.5 15.5t4.5 16.5q2 2 2 7l2 2v3
l1 1l3 12l1.5 1.5t0.5 1.5v2q1 0 1 1q-1 2 1 2q0 9 5 16v1q2 2 2.5 6.5t1.5 5.5q0 2 1 4t1 3v1l2 2q0 9 5 17q-1 3 1.5 8t2.5 8q3 12 4 15q1 1 2 4t2 5q1 8 5 17v4q1 4 4.5 10t3.5 7q3 0 3 2q1 0 2.5 -0.5t2.5 -0.5t2 1.5t2 1.5t3.5 1.5t3.5 1.5q2 2 7 2q1 0 3.5 -0.5
t4.5 -1.5q0 -1 1 -2t1 -2q0 -9 1 -9q1 -6 -2 -16l1 -1v-1q-1 -1 0 -1q-1 -2 -1 -8q-4 -3 -4 -12l-1 -2q0 -1 -1 -2q1 -3 -1.5 -9t-2.5 -9v-3l-3 -6v-1q0 -1 -1 -1v-1q-1 -1 -1 -3v-3q0 -2 -2 -4.5t-2 -3.5v-2q-1 -3 -1 -6l-1 -1l-2 -2v-1l-2 -4q0 -1 -0.5 -4t-1.5 -4v-1
q-1 -1 -1 -4t-2 -4q-3 -4 -3 -12q-1 -3 -3 -7.5t-2 -6.5v-4q0 -1 -1.5 -2.5t-1.5 -2.5q-3 -9 -3 -11q-5 -10 -5 -11v-5q-5 -8 -4 -15q-1 0 -2 -2t-1.5 -4t-0.5 -3q1 -3 -2 -8l-2 -6v-4q0 -1 -2.5 -5t-1.5 -6l-2.5 -5l-2.5 -5q0 -3 -2 -7q-1 -4 -3.5 -10.5t-3.5 -10.5
q-2 -1 -3 -5.5t-3 -6.5q0 -2 -1.5 -4.5t-1.5 -4.5v-18q1 0 1 -10l-1 -11v-7v-27v-12q0 -4 0.5 -13t0.5 -12v-1q0 -4 0.5 -14t0.5 -15v-12v-16v-1q0 -13 1 -19v-15q0 -8 1 -9q0 -2 -0.5 -6t-0.5 -6q2 -4 2 -6q0 -1 -0.5 -4.5t-0.5 -5.5v-5q0 -3 1 -3v-8q-1 -3 -1.5 -8
t-0.5 -8q1 -1 1 -3.5v-3.5t0.5 -4t0.5 -4t-0.5 -2.5t-0.5 -2.5v-9q2 -6 0 -17q1 -2 1 -7l-1 -1q0 -4 -0.5 -14t-0.5 -16q0 -7 -1 -10q-8 -2 -5 -10q-2 -2 -2 -6q-1 0 -2 -1l-1 -1h-3q-2 -1 -5 0l-3 1l-6 3l-2 2h-1q-1 0 -1 1q-1 0 -2.5 1.5t-2.5 1.5t-3 1t-3 1q-7 4 -12 14
q0 20 1 31q0 3 0.5 8t0.5 7v9v30q-1 13 0 28q0 4 -0.5 12.5t-0.5 13.5v12q1 7 0 19t-1 15q0 1 1 3v1q0 1 -0.5 3.5t-0.5 3.5v5v8q0 7 -1 22t0 23q0 2 -0.5 8t-0.5 8v58q1 4 0 12.5t-1 10.5q1 4 -6 19q0 1 -1.5 4t-1.5 4q-1 1 -1 2.5v2.5q0 2 -2 8.5t-3 10.5q-1 2 -2 7t-3 7
q0 2 -1.5 7t-1.5 7l-6.5 20l-6.5 20q0 2 -1 5t-1 5q-3 8 -7 24q0 4 -2.5 12t-3.5 13l-1 7q-2 6 -3 8q0 6 -3.5 16.5t-3.5 16.5q-2 3 -4 12t-3 12t-10 36q-1 2 -2 6.5t-1 6.5l1 1v2z" />
    <glyph glyph-name="Z" unicode="Z" horiz-adv-x="305" 
d="M270 655l-2 -8q0 -4 -1 -4q0 -5 -2 -10.5t-2 -9.5q-9 -38 -9 -40q0 -1 -2.5 -6.5t-1.5 -9.5q-1 0 -2 -1q0 -3 -1 -7t-3 -9t-3 -7q0 -5 -1 -6q0 -6 -4 -7q0 -3 -1 -4v-2l-1 -1q-1 -6 -5 -16.5t-5 -15.5l-2 -1q-1 -4 -2 -10.5t-2 -10.5q-1 0 -1 -1q0 -2 -1 -6t-1 -5
q-2 -2 -2 -4q0 -1 -0.5 -4.5t-1.5 -4.5q1 -4 -3 -12q1 -2 -0.5 -6.5t-1.5 -6.5l-1 -1q0 -1 -0.5 -5.5t-1.5 -6.5q-1 -1 -2 -5t-1 -5v-2q-1 -1 -1 -2q-1 -1 -1 -3.5v-4.5q-1 0 -1 -1t-0.5 -3.5t-1 -4.5t-1.5 -4h2h-2q-1 -2 -2 -8t-2 -8q-2 -11 -6 -18q0 -2 -1.5 -7t-0.5 -8
l-1 -1l-2 -2q1 -1 0.5 -2t-0.5 -2q-1 0 -1 -1t-1 -1q1 -4 -2 -12t-3 -10l-1 -1h-1q0 -6 -3 -14.5t-3 -12.5l-3 -12q0 -5 -2.5 -11.5t-2.5 -8.5h-1q-1 -8 -6 -22q0 -4 -2 -4v-3q0 -2 -3 -4v-3q0 -3 -2 -8.5t-2 -7.5q-1 0 -1 -1v-1q-2 -11 -7 -22q0 -3 -3 -8q-1 -5 -4 -17
l-1 -2q0 -3 -2 -4q0 -2 -2 -6q0 -3 -3 -11t-3 -11q0 -1 -1 -1q0 -6 -5 -11q1 -2 0 -6t-1 -7l-5 -17q8 -1 22 1.5t22 2.5v1q0 1 1 1h2q1 0 1 -2l2 1q3 1 5 1h21q3 0 7.5 -1t8 -0.5t6.5 2.5v-1h1q0 -2 0.5 -3t2.5 -2t3 -1t4 -1q8 -2 11 -5q2 -1 3 -4l1 -1l2 -1q1 -1 2 -3t3 -3
q1 -1 1 -4.5t1 -4.5q-1 -15 -15 -20h-3h-6q-6 -2 -18 -0.5t-15 0.5h-4q-12 -4 -17 -4q-6 -1 -17 -1.5t-14 -0.5q-2 0 -11 -1t-11 0h-1h-5h-7.5t-8.5 1q-8 0 -12 1q-29 3 -42 23l-1 1q0 1 -3 6t-4 7v6v2l-1 1q2 -1 13 1q0 1 -0.5 1t-0.5 1q1 1 1 6v5q1 5 4 12.5t4 9.5h1
q-2 5 2 7v2q8 13 12 31q0 3 2.5 10.5t3.5 11.5q3 6 8 24l1 1v2v1h1q1 7 7 25.5t8 27.5q1 0 1 0.5t1 0.5q3 12 9 32l9 30q5 8 9 28q1 2 3.5 9t3.5 11q1 2 6 23q0 1 1 2l3 6q0 3 2 9q0 4 2 10q2 0 2 1q4 14 4 17q2 5 1 7q2 2 5 15q0 1 1.5 5.5t1.5 6.5q2 5 5 20l1 2q0 2 2 6
l2 5q0 3 2 9.5t2 8.5v2q1 5 7.5 24.5t8.5 30.5q4 12 4 16h1v3l1 4q1 4 3 6q0 2 1 5t1.5 5t0.5 3q2 1 2.5 4.5t2.5 4.5q0 1 2.5 8.5t2.5 10.5q0 1 1 1q0 1 2 11q-4 1 -11.5 -0.5t-10.5 -1.5h-8q-4 -1 -13 0t-12 1q-1 0 -33 7l-1 1h-3v1h-1q-11 2 -30 13q-1 1 -1 2q-7 2 -10 8
q1 3 -0.5 7t-1.5 6h4v2q14 2 23 2q2 3 6.5 2t6.5 -1q1 0 3 2h16l2 -1q2 0 7.5 1t9.5 0q13 0 17 1h20q45 0 56 -2q1 -6 10 -8q1 -2 9 -6v-1h2q6 -4 8 -10zM227 26l-1 -1q-1 0 0 -1h1l1 1v1h-1z" />
    <glyph glyph-name="bracketleft" unicode="[" horiz-adv-x="177" 
d="M37 34q-1 7 -1 46q1 12 1.5 25t1 29t0.5 24q0 7 0.5 20t1.5 20q0 12 -2 38q2 38 0 77v76q0 12 0.5 25.5t1.5 29.5t1 25v79v155q2 1 5 1t5 1q29 3 63 3h6.5h8h6.5q1 -1 9 -5q0 -2 2 -4q1 -1 7 -10q0 -2 -1.5 -5.5t-0.5 -5.5q-1 -2 -4 -5t-4 -5q-11 -7 -25 -4q-1 0 -4 -0.5
t-5 -0.5q-12 2 -14 -1q1 -12 3 -38v-6q0 -1 0.5 -3.5t0.5 -4.5q-2 -2 -2 -5t1 -8t0 -8q0 -1 -0.5 -2.5t-0.5 -2.5q0 -2 1 -8.5t1 -10.5l-3 -9l1 -2v-3v-3l-1 -2q2 -4 2 -7t-1 -8t-1 -8q0 -2 1 -4.5t1 -3.5q-2 -2 -2 -4v-9q0 -2 0.5 -6.5t0.5 -7.5q-1 -2 -1 -6v-8
q0 -2 -0.5 -5.5t-0.5 -4.5t0.5 -3.5t0.5 -3.5v-24v-8l-1 -2v-3q0 -20 -1 -23l-3 -78v-19q0 -1 -1 -2.5t-1 -2.5t1 -4t0 -5l-1 -2v-3v-17q0 -3 0.5 -8.5t0.5 -7.5q0 -1 -0.5 -4t-0.5 -5q0 -3 2 -7q0 -1 -0.5 -3.5t-0.5 -4.5q0 -1 0.5 -5t0.5 -6v-13q0 -3 0.5 -11.5t0.5 -12.5
v-6v-21v-12.5v-15v-12.5v-10v-15q0 -21 -2 -29q1 -4 0 -9.5t-1 -8.5q2 -1 7 -1t8 -1h9t9.5 -1t6.5 -3q1 -2 3 -8q5 -4 6 -6q0 -1 -1 -2q-2 -5 0 -8q-1 -1 -2.5 -4t-3.5 -3l-2 -4q-2 -1 -3 -2.5t-2 -1.5q-8 -3 -18 -3.5t-24.5 1.5t-20.5 2q-7 0 -10 3q-1 0 -2 1q0 2 -1 2
t-2 1t-2 1t-4 3l-4 4q-2 2 -2 4v4l-1 1v1l1 1q0 2 -1 4t-1 3q1 3 2.5 5t1.5 4z" />
    <glyph glyph-name="backslash" unicode="\" horiz-adv-x="234" 
d="M193 -16l-9 6q-2 3 -7 20q-1 3 -4 8.5t-4 9.5l-1 4l-5 15l-3 5q-5 5 -7 14l-6 16l-6 12l-3 6l-26 67l-8 22v-1q-8 18 -10 29q-7 12 -9 19q-2 10 -3 11q-15 38 -19 50l-17 46l-7 19l-8 22l-6 18q-3 10 -6 17l-7 18l-5 14v-1q-4 14 -8 20l-1 4l-1 4l1 -4q-3 6 -5 14l-7 17
q-4 12 -5 14l-7 14q-10 21 -15 36q-4 8 -12 34h1l-5 14q-3 5 -5 10l-2 9q0 2 -2 6q-6 15 2 34q8 5 11 6q8 6 15 6q12 -4 19 -19l4 -8q0 -1 1 -3l6 -21q10 -17 19 -41l4 -10v1q4 -10 10 -20l34 -79l19 -52q3 -9 9.5 -26t9.5 -26q15 -31 21 -52v-1q0 -2 2 -6.5t3 -6.5
q7 -16 11 -33l2 -1q4 -11 16.5 -41t18.5 -46l43 -109l7 -16l11 -24v-1q4 -16 4 -30l-3 -16q0 -1 -4 -2.5t-7 -5t-3 -7.5z" />
    <glyph glyph-name="bracketright" unicode="]" horiz-adv-x="191" 
d="M150 34q0 -2 1.5 -4t2.5 -5q0 -1 -1 -3t-1 -4v-1l1 -1l-1 -1v-4q0 -2 -2 -4l-4 -4t-4 -3l-2 -1l-2 -1q-1 0 -1.5 -1.5t-1.5 -1.5q-3 -3 -10 -3q-6 0 -20.5 -2t-24.5 -1.5t-18 3.5q-1 0 -2 1.5t-3 2.5l-2 4q-2 0 -3.5 3t-2.5 4q1 2 1 3.5t-1 3.5t-1 3q1 2 6 6q2 6 3 8
q3 2 6.5 3t9.5 1h9q2 1 7 1t8 1q0 3 -1 8.5t0 9.5q-2 8 -2 29v15v10v12.5v15v12.5v21v6q0 4 0.5 12.5t0.5 11.5v13q0 2 0.5 6t0.5 5q0 2 -0.5 4.5t-0.5 3.5q2 4 2 7q0 2 -0.5 5t-0.5 4q0 2 0.5 7.5t0.5 8.5v17q0 1 -1 3v2q-1 2 0 5t1 4t-1 2.5t-1 2.5v19l-3 78q-1 3 -1 23
q0 1 -1 3v2v8v24q0 1 0.5 3.5t0.5 3.5t-0.5 4.5t-0.5 5.5v8q0 4 -1 6q0 3 0.5 7.5t0.5 6.5v9q0 2 -2 4q0 1 1 3.5t1 4.5q0 3 -1 8t-1 8t2 7v2q-1 2 -1 3t1 3v2l-3 9q0 4 1 10.5t1 8.5q0 1 -0.5 2.5t-0.5 2.5q0 3 1 8t0 8q0 3 -2 5q0 2 0.5 4.5t0.5 3.5v6q2 26 3 38
q-2 3 -14 1q-2 0 -5 0.5t-4 0.5q-14 -3 -25 4q-1 2 -4 5t-4 5q1 2 -1 5q-1 4 -1 6q6 9 7 10q2 2 2 4q8 4 9 5h21q34 0 63 -3q2 -1 5 -1t5 -1v-155v-79q0 -9 1 -25t1.5 -29.5t0.5 -25.5v-76q-2 -39 0 -77q-2 -26 -2 -38q1 -7 1.5 -20t0.5 -20q0 -8 0.5 -24t1 -29t1.5 -25
q0 -39 -1 -46z" />
    <glyph glyph-name="asciicircum" unicode="^" horiz-adv-x="250" 
d="M129 827q-4 -3 -10.5 -13t-10.5 -13v-1q0 -1 -1 -1q-1 -1 -5.5 -7t-7.5 -8q-3 -4 -11 -17q-10 -21 -26 -18q-6 2 -10 4q-6 2 -7 4q-1 0 -4 3t-3 4q0 2 4 6t4 5l24.5 31.5l18.5 24.5l9 12q1 2 4.5 6.5t5.5 7.5q1 1 11 7.5t12 6t15 -0.5q6 -1 10 -8q1 -1 3 -7l9 -9
q23 -28 38 -50q1 -1 4 -5t5 -6q5 -10 5 -11q1 -3 -2 -5.5t-4 -4.5l-2 -4t-1 -3t-1 -2.5t-2 -1.5q-6 -1 -13 1q-5 3 -11 9q-4 4 -12 16t-11 16t-12.5 15z" />
    <glyph glyph-name="underscore" unicode="_" horiz-adv-x="226" 
d="M245 -1q-12 -3 -107 -8q-14 -1 -84 -1q-2 0 -18 1t-25 0q-6 2 -30 5q-10 21 -15 23q1 1 1 5q-11 0 5 11q4 2 5 3q14 -2 19 5q3 0 4.5 -2t2.5 -2q14 0 41 2.5t39 2.5q70 2 97 4h30q3 0 7.5 -1t7.5 -1t8.5 -0.5t8.5 -1.5q2 -1 5.5 -3.5t5.5 -3.5q2 -2 0.5 -9.5t-0.5 -9.5
q-11 -7 -8 -19z" />
    <glyph glyph-name="grave" unicode="`" horiz-adv-x="154" 
d="M136 735q-7 -2 -10 -7q-6 -1 -35 14q-8 10 -14 11l-7 3.5l-7 3.5q-9 5 -24.5 16.5t-17.5 13.5q-2 7 -9 16q2 10 0 18q3 0 3 2q1 2 -0.5 3t-1.5 2q3 2 9 5l6 2q6 -6 11 -2l2 -5l72 -46q7 -3 12 -9q4 -2 8 -6q2 -2 5 -7t4 -6v-10q0 -3 -3 -6.5t-3 -5.5z" />
    <glyph glyph-name="a" unicode="a" horiz-adv-x="244" 
d="M196 9q-2 -1 -3.5 -3.5t-3.5 -2.5q-2 -1 -10 -1q-4 -4 -11 -2q-2 0 -8 2t-8 2q-8 2 -10 4h-2q-19 8 -24 12q-2 1 -5 3t-5 3q-2 2 -4 2q-6 6 -10 9q1 1 0 2t-2 1l-12 15q-2 1 -3.5 3.5t-2.5 3.5q-17 28 -20 39q-9 24 -9 59q-1 0 -1 1q0 25 2 38q1 4 2.5 11.5t1.5 9.5
q1 0 1 1q0 3 1 3q7 25 10 29q2 6 4 7v1l1 2h1q0 2 1 3.5t1 2.5l2 4q2 1 3 4.5t3 4.5q3 7 8 12q4 10 12 15q2 4 4 4q13 12 20 14q1 2 4.5 4t4.5 3q2 0 9.5 3t13.5 2l1 1h1v27q0 1 -0.5 5.5t-1.5 5.5q1 22 -10 41q-3 0 -22 -10q-4 -4 -5 -6q-2 -1 -4 -6q-3 -3 -4 -5t-5 -6
q-1 -1 -2.5 -4.5t-1.5 -5.5q-1 -1 -0.5 -2t1.5 -1q-1 -6 -5 -8q-1 -1 -3.5 -1t-3.5 -1q-1 0 -2 -1q-3 0 -11.5 0.5t-12.5 -0.5q-1 1 -4 1.5t-4.5 2t-1.5 4.5q-1 0 -2 3q0 1 2 11t4 14q1 1 2 2.5t1 2.5v2q2 3 5 5q2 3 5 9q1 1 13 11q0 2 1 3h2q2 2 4 3q0 1 1 1l2 1q1 0 2.5 1
t2.5 2l4 3q5 2 7 4q20 6 33 6q2 -1 6.5 -1.5t6.5 -0.5q1 -1 3 -2t2 -2l10 -5q0 -1 2 -1t2 -1l2 -2q0 -1 1 -1t2 -1q0 -1 2 -1v-2q2 0 2 -1q1 -1 2 -3l1 -2q5 -4 6 -5q0 -1 1 -1l1 -2q1 -1 2 -4t2 -4q0 -1 1 -3t1.5 -3.5t0.5 -2.5q0 -2 -1 -3v-1v-1h1q0 -4 1 -6q0 -7 1 -9
q2 -4 2 -18v-10v-4.5t-1 -3.5q1 -5 0 -14t-1 -12q0 -1 1 -5.5t0 -6.5q0 -9 -1 -15v-1q-1 -9 1 -25q0 -1 -1 -7.5t0 -9.5q0 -2 -0.5 -8t-0.5 -8v-12q0 -1 0.5 -5t0.5 -6h-1v-13v-2q1 -1 1 -2t-1 -3q0 -3 0.5 -11.5t1.5 -12.5q-3 -6 -1 -13q-1 -6 -1 -14q0 -1 -0.5 -3l-0.5 -2
l1 -2q1 -3 0 -5t-1 -8v-9t-1 -9v-16q0 -2 0.5 -7.5t-0.5 -8.5v-2v-5v-11q0 -2 -1 -4v-9q0 -3 0.5 -9.5t0.5 -10.5v-4q-2 -4 -2 -7zM135 283q-4 -4 -12 -10q-1 -2 -5.5 -8.5t-6.5 -11.5l-1 -1q-9 -15 -11 -17q-1 -4 -3.5 -11.5t-3.5 -9.5q-1 0 -1 -5l-3 -6v-5q0 -2 -1.5 -6
t-0.5 -6q0 -1 -1 -1q-2 -25 2 -42v-7q1 -2 1 -5v-5q0 -1 1 -3.5t1 -4.5q0 -3 1 -8.5t1 -7.5q13 -25 16 -29q0 -1 0.5 -1t0.5 -1q1 -1 6 -8t9 -9l1 -1q1 -1 1 -2q2 -1 4.5 -4t5 -5t5.5 -3q0 -2 4 -2q-1 3 -0.5 13.5t0.5 13.5t0.5 10t0.5 9q2 44 2 68v5q0 2 1 2v17q1 7 1.5 20
t0.5 17v1q0 6 1 19t0 20q1 0 1 1q-1 14 1 40q-5 -1 -11.5 -5.5t-7.5 -4.5z" />
    <glyph glyph-name="b" unicode="b" horiz-adv-x="251" 
d="M103 431l24 -3q9 -1 20 -5q18 -8 31 -19q2 -2 4 -2q1 -2 3 -3.5t2 -2.5q3 -2 7 -8q0 -1 2 -3q1 -1 1 -3q6 -5 12 -21q1 -1 2.5 -4.5t2.5 -4.5q0 -5 1 -7q3 -7 3 -23q1 -2 1 -4q0 -14 1 -20q0 -24 -2 -35q0 -2 -0.5 -23t-1.5 -26q0 -1 -0.5 -2.5t-0.5 -2.5q-3 -18 -4 -20
q0 -6 -4 -22q-1 -8 -5 -19q0 -2 -2 -4q0 -4 -1 -7.5t-2.5 -7.5t-2.5 -6q0 -1 -1 -2t-1 -2q-1 -1 -3 -5.5t-4 -6.5q-1 -2 -3.5 -6.5t-2.5 -6.5q-1 0 -2 -2t-2 -2q-4 -8 -24 -33q-1 -1 -7 -6l-4 -4q-1 -1 -2.5 -2t-2.5 -2.5t-2 -2.5q-2 -1 -6 -4.5t-5 -4.5q-6 -4 -8 -7
q-5 -2 -6 -5q-6 -1 -11 -6q-6 -2 -8 -5q-3 -1 -9 -4l-8 -4t-5.5 0t-5.5 1l-2 2q-1 1 -2 0l-1 -1v4q-5 2 -6 2q0 1 -2 1l-2 1l-1 -1q0 -1 -1 0q-2 1 -3 6t-2 6l-2 2q-1 6 1 11q0 2 2 4q0 1 -1 3t-1 3q-3 5 -2 28t0 30v29q0 1 0.5 3.5t0.5 3.5q0 2 -0.5 6t-0.5 6v9q0 32 1 48
q0 1 -0.5 4t-0.5 5q0 3 0.5 21.5t0.5 21.5q0 10 1 16v18q1 8 1.5 23t0.5 23v16v27q0 2 0.5 7t0.5 6t-0.5 5.5t-0.5 6.5l1 1v29q1 5 1 16v15v9q0 2 0.5 6t0.5 6v10q0 1 0.5 4t0.5 4v24v1q-1 4 0 6.5t1 6.5v33q0 4 0.5 11t1.5 11v10q0 2 -0.5 6.5t0.5 7.5q1 5 1 17.5t1 17.5v2
v1v8q0 2 0.5 4t0.5 3v8q0 1 2 2l3 1q25 2 33 0l1 -1q1 -1 1.5 -1t1.5 -1q2 0 2 -1q3 -1 8 -6l5 -5l1 -1q0 -2 1 -2q0 -4 2 -8q-1 0 -1 -1t1 -2q0 -5 -0.5 -23t-1.5 -28q0 -2 -1 -2q1 -5 1 -25l1 -1v-1v-5t-1 -6q0 -1 -1 -11.5t-1 -12.5t-0.5 -4.5t-0.5 -3.5v-5t-1 -5v-7
q-1 -1 -1 -5q-3 -16 -2 -35v-9q0 -2 -0.5 -5.5t-0.5 -4.5t0.5 -3.5t0.5 -4.5v-10.5t1 -10.5zM96 80q4 3 10 11l5 5l5 5q9 14 22 32q1 3 7 15q8 17 10 29l3 11.5t2 10.5q2 9 4 25q0 1 0.5 15t0.5 15v6q3 33 0 65q-5 22 -6 23l-3 8q-1 4 -7 12q-8 11 -21 14h-3q-11 4 -22 0
q0 -1 -1 -3q-2 -4 -2 -6q-3 -48 -3 -55q0 -2 -1 -10t0 -12v-17v-22q0 -31 -1 -35v-26q1 -3 0 -9t-1 -9q1 -11 -1 -17q1 -2 1 -5v-12q0 -1 -0.5 -3.5t-0.5 -3.5q-5 -50 -4 -68q7 10 7 11z" />
    <glyph glyph-name="c" unicode="c" horiz-adv-x="237" 
d="M202 283h-8q-2 -2 -5 -2t-6.5 1t-5.5 1q0 1 -4 1q-3 4 -7 16q-1 2 -3 29q0 3 -1.5 16t0.5 15v1l-1 1q1 9 -1 28q0 19 -6 27q-2 0 -3 2.5t-3 3.5h-3q-1 -1 -3.5 -4t-3.5 -4h-1q-1 -2 -11 -9q-1 -5 -5 -13l-6 -15q1 -4 -4 -14q0 -4 -4 -16q1 0 1 -1q-2 -6 -2 -19v-2l-1 -2
l-3 -6v-9q-2 -4 -3 -14.5t-4 -15.5q1 -6 -0.5 -15.5t-1.5 -13.5q-3 -15 -2 -17q0 -4 -2 -12t-1 -12q0 -1 -0.5 -3t-0.5 -3q2 -3 0 -8q1 -1 0 -9.5t-1 -10.5q2 -7 1 -10v-8q0 -1 0.5 -1t0.5 -1v-7q0 -9 2 -13q-2 -1 -0.5 -9t1.5 -10q3 -13 3 -14q0 -7 3 -13q2 -2 2 -3
q1 -1 2 -7.5t3 -8.5q-1 -1 1 -3q-1 -2 2 -6.5t3 -6.5l10 -13l4 -2q1 -2 2 -3q4 0 6.5 3t5.5 9l4 6q0 2 1 4.5t1 3.5q1 2 1 7q2 2 2 4v3q0 1 1 3t1 3v5q2 4 2 7v4q2 2 2 4l-1 1v2t1.5 3.5t1.5 4.5v9q2 2 2 4v4l1 2v2q0 1 0.5 4.5t1.5 5.5q-1 0 -1 1q1 5 2.5 14.5t3.5 13.5
q2 0 4 -2q16 4 21 3q4 -2 10 -2q8 -8 9 -11l1 -1h2q2 -16 0 -22q0 -5 -4 -17q2 -9 -5 -27q0 -7 -1.5 -14t-4 -15t-3.5 -13q-6 -4 -6 -10q-4 -3 -6 -10q-3 -1 -7 -5t-6 -5l-12 -9q1 -3 -8 -10q-24 -3 -31 -3q-10 3 -23 8q-4 4 -14 10q-21 21 -25 28q-6 9 -13 24v1
q-2 3 -4 10.5t-2 8.5q-1 1 -2 4t-1 4v2q0 3 -2.5 11t-1.5 12q-2 2 -2 9l-1 6q0 5 -1 14.5t-1 13.5q-2 19 0 37q0 1 -1 3v1q1 1 1 2l-1 2q0 2 0.5 5.5t0.5 4.5q1 1 0.5 7.5t-0.5 9.5q1 2 1 6.5t1 6.5l-1 1q1 6 3.5 23.5t3.5 27.5h1q0 4 2 10q0 1 0.5 4t0.5 4q0 2 2.5 7.5
t1.5 8.5l1 2q0 1 1 2v2q1 1 3 13q0 1 1.5 3.5t1.5 4.5q2 10 4 13q1 6 3.5 14.5t3.5 11.5v1q1 1 2 1q2 9 10 25q1 2 2.5 4t1.5 3q3 0 5 -1l5 2l3 3q1 1 3.5 2t3.5 1q2 0 5.5 0.5t5.5 0.5q4 0 9.5 1.5t7.5 1.5q12 2 20 0h1l1 -1v1q4 -1 5 -1q5 0 9 -2q1 0 2.5 -1t2.5 -1l2 -1
q2 -1 2 -2h3l1 -1q1 -1 1 -2t1 -1t2 -1l2 -2l2 -2q1 -2 4 -5.5t4 -5.5l3 -3q1 -1 2.5 -4.5t3.5 -5.5v-4q3 -3 1 -8q0 -1 1 -3.5t1 -4.5v-2q1 -1 1 -2q1 -2 1 -3q2 -12 1 -13l1 -2q0 -7 2 -17q0 -9 1 -13q-1 -1 0 -6q1 -3 1 -4q1 -4 1 -12v-12q-1 -2 -1.5 -5t-1 -5t-2 -4.5
t-3.5 -3.5z" />
    <glyph glyph-name="d" unicode="d" horiz-adv-x="266" 
d="M214 34q-1 0 -2.5 -0.5t-2.5 -1.5q0 -6 -1 -7l2 -2q2 -1 3 -2l-3 -3l-2 -1q5 -8 0 -9q-3 0 -6 -1t-5 -1l-1 -1v-2q-3 -1 -7.5 -2t-6.5 -1q-6 0 -18 2q-2 1 -7 2t-7 2q-1 0 -4.5 1t-6.5 2q-4 2 -8 2q-28 12 -38 22q-3 2 -7.5 6.5t-6.5 5.5q-2 3 -3 4l-1 1q-3 3 -6.5 9.5
t-5.5 8.5q-9 20 -10 26q-1 3 -3 10.5t-4 10.5q-7 27 -8 49q1 1 0 1v1q0 5 -1 29t0 30v13q4 68 16 106q1 0 1 1v1q0 1 2 3q1 4 3.5 9.5t3.5 8.5q1 1 2 3t2 2q2 4 18 26q1 0 1 0.5t1 0.5q0 1 1.5 2t1.5 2q3 2 8 7q8 4 12 7q2 0 3 1t5 3q1 0 1 2q2 1 3 2t2 1h4q2 2 14 7
q5 -1 13.5 0t11.5 1q0 2 0.5 5.5t0.5 6.5t-1 5q1 1 1 2q-1 3 0 8t1 7v24q0 1 0.5 2.5t0.5 2.5v14q0 13 1 16v9t1 9q-1 3 -1 21q0 11 2 29q0 1 -0.5 2t-0.5 2q0 2 1 8t1 9v6q1 4 1 10.5v10.5q1 11 -3 31q2 4 2 5q5 3 7 1l2 1q1 0 1 1q3 0 18 -2q4 0 14 -2q9 -4 12 -10v-2
l1 -2q2 -11 -1 -20q1 -3 1 -13t2 -14q1 -3 1 -9t1 -9q0 -1 -0.5 -1t-0.5 -1v-2l1 -1q-2 -34 -2 -40v-2q3 -14 0 -29v-3l-1 -1v-1v-5v-5t1 -6q-1 0 -1 -2q-1 -4 -1 -13q0 -2 -1 -7.5t0 -7.5q0 -6 -0.5 -17.5t-1.5 -17.5v-1l1 -2q-2 -6 -2 -7q-1 -2 -1 -6v-6q2 -1 0.5 -9.5
t-1.5 -10.5q-1 -1 -1 -2.5v-2.5l1 -1q-1 0 -1 -1v-18q0 -20 -1 -24v-10q-1 0 -1 -7l1 -7q-1 -3 -0.5 -7.5t0.5 -6.5q0 -17 -1 -25v-3v-7t-1 -7v-18q-2 -6 -2 -12q0 -1 1 -3v-2v-45v-24v-11q-1 -5 -1 -15.5t-1 -15.5q0 -4 0.5 -13t-0.5 -14q1 -5 0 -16t0 -15q0 -5 -0.5 -14
t-1.5 -14zM138 419h-1h1zM156 389q-4 -4 -8 -4l-3 -3q-3 -1 -7 -7l-1 1h-1q-5 -6 -7 -6q-3 -3 -5 -4q-1 -2 -5.5 -8t-5.5 -10q-2 -1 -3 -3t-2 -2q-1 -4 -4.5 -12.5t-4.5 -14.5q-6 -13 -7 -25q0 -1 -1 -2q-2 -13 -4 -37q-1 -4 -0.5 -11t0.5 -10v-38q1 -7 1.5 -23.5t2.5 -24.5
q0 -4 1.5 -9t1.5 -8q1 -1 1 -6q2 -2 3 -7.5t2 -6.5q0 -1 1 -2.5t1 -2.5t1 -3.5t1 -3.5l2 -2q3 -10 4 -11l2 -2q0 -1 1 -2.5t1 -2.5q1 0 8 -10l3 -3q1 -1 6 -5q1 -1 6.5 -4t7.5 -5q2 0 5.5 -1.5t5.5 -1.5q0 1 -1 5t-1 5q1 5 1.5 16t1.5 16q1 6 0.5 17t0.5 16q-2 7 0 15
q1 8 1 24v8q0 1 0.5 2.5t0.5 2.5q-1 9 0 39.5t1 33.5q0 1 -0.5 3.5t-0.5 3.5q0 2 0.5 6t0.5 6v9v1v1q0 2 0.5 5t0.5 4v16v12t2 15q-1 6 2 62q-2 1 -5 0t-5 -1z" />
    <glyph glyph-name="e" unicode="e" horiz-adv-x="237" 
d="M149 457v-1q4 -2 6 -2h1q2 0 2 -1q2 -1 5 -3t4 -2q1 -1 3 -2q4 -3 6 -4q3 -3 5 -4q1 -3 4 -4q4 -12 6 -17q0 -2 1 -6.5t0 -6.5q1 -2 1 -4t0.5 -5.5t0.5 -6.5q2 -11 1 -16l1 -2q-2 -1 -0.5 -7.5t1.5 -8.5l-1 -1v-1v-7q0 -3 -0.5 -9.5t0.5 -9.5v-13q0 -1 -1.5 -6.5
t-1.5 -7.5q1 -2 1 -6q-1 -4 -1 -11q-2 -6 -2 -9v-18q-1 -1 -1.5 -4t-0.5 -4q0 -2 0.5 -6t0.5 -5v-2q-1 -1 -1 -2q-2 0 -2 -5q-6 -2 -7 -6q-1 0 -7 -0.5t-9 -1.5h-12q-5 -1 -36 -1q-7 0 -11 1q-1 0 -3 -1q-3 1 -13 1q-2 -5 0 -10q0 -1 0.5 -4t-0.5 -4q0 -1 -0.5 -4.5
t-0.5 -5.5q1 -3 1 -24l1 -7q0 -7 -1 -7q0 -11 1 -15v-16q2 -4 2 -7v-3l-1 -1l3 -15v-4v-6q5 -18 5 -23q2 0 2 -3t1 -3q0 -2 0.5 -3.5t0.5 -2.5q1 -1 4.5 -8t6.5 -9q10 9 18 33q3 6 6.5 16.5t4.5 14.5q2 8 4 11q2 9 3 11q-1 3 1 8.5t2 6.5l-2 2q0 2 1.5 4.5t1.5 3.5
q-1 4 1 9.5t2 7.5l1 2q1 3 2 4q1 0 2.5 -1t2.5 0q0 4 2 6h2h1h13v-1h1q2 0 4.5 -2.5t3.5 -2.5q0 -4 2 -6v-4v-1h1q0 -7 2 -19q-1 -1 -1 -5q0 -5 -2 -13.5t-2 -13.5h1q0 -4 -1 -5v-7t-1 -8v-1l-1 -1q0 -1 -1 -4t-1 -4t-2 -3q0 -6 -2 -7q1 -1 0 -2v-1q-3 -6 -2 -7q-4 -4 -4 -8
l-3 -3q0 -2 -2.5 -5t-2.5 -5q-2 -1 -3.5 -5.5t-3.5 -5.5q0 -1 -2 -2.5t-2 -3.5q-2 -1 -5 -5.5t-5 -5.5q-1 -1 -5 -2t-5 -2q-3 -1 -10 -1t-12 -1h-5q-7 0 -15 2q-4 1 -12 5l-2 2q-2 1 -3 2v2q-3 -1 -5 3h-2q-1 1 -1 2q-4 3 -7 7l-2 2q-1 1 -1 4q-9 15 -12 26q0 1 -2 8t-4 11
q0 1 -0.5 3l-1 4t-1.5 3q0 4 -1.5 11t-1.5 10q0 4 -0.5 10.5t-1.5 9.5q0 1 -1 1q0 5 -0.5 18t-0.5 19v1q0 12 1 14q-1 2 -1.5 8.5t-0.5 8.5q1 3 0.5 14t1.5 16q-1 13 0 26q1 1 1 4v4v13q0 2 0.5 5.5t0.5 4.5v6q1 6 2 18t2 18q1 10 4 27.5t3 20.5q1 1 1 2l1 2q3 8 7 20.5
t5 16.5q0 2 2 2l1 1h2v2q1 0 3 -2q10 19 26 30q1 3 14 11h8q2 1 5.5 1h4.5q3 -1 11 -1t10 -2zM123 425q-1 -1 -4 -6.5t-4 -9.5q-2 -2 -4.5 -6t-3.5 -5l-2 -4q1 -1 1.5 -3t0.5 -3q-1 0 -1 -1l-1 -2q-4 -25 -5 -36q-1 0 -1 -1l-1 -2q2 -1 0.5 -9t-1.5 -10q0 -1 -1 -4t-1 -5v-9
q0 -1 -1 -3v-7t-1 -7q0 -1 -1 -3v-2v-9t-1 -9v0v-1l-1 -2v-1l1 -1q0 -1 -0.5 -3.5t-0.5 -3.5v-9t-1 -9q5 0 18.5 1t22.5 2q4 1 8.5 1h7.5q0 4 2.5 11t1.5 12q1 2 1.5 6.5t0.5 5.5q0 7 1.5 20.5t1.5 21.5v22v7q0 5 -0.5 17t-0.5 17q-1 5 -2 16.5t-2 17.5q-6 6 -12 15
q-8 0 -15 -7zM130 35v1v-1z" />
    <glyph glyph-name="f" unicode="f" horiz-adv-x="217" 
d="M188 459q-5 10 -5 11q0 2 1 10.5t0 13.5q0 2 0.5 6t0.5 6q-1 3 -1 9v9v11.5t1 12.5q-1 6 -1 19t-1 20q0 2 1 3q-3 15 -3 32q-1 2 -3.5 11t-4.5 13q0 2 -8 12q-14 -2 -18 -4q-3 -8 -12 -10q-3 -3 -4 -3q-2 -2 -5.5 -6.5t-4.5 -6.5h-1l-11 -23q0 -5 -1 -6q-3 -7 -3 -18
q1 -6 -0.5 -16.5t-1.5 -15.5q-1 -1 -1 -4.5v-5.5q0 -10 1 -15q-2 -15 -1 -21v-12q0 -1 0.5 -3t0.5 -3q0 -2 -0.5 -5.5t-0.5 -4.5q-1 -2 0 -5t1 -4q-1 -6 -1 -15v-12q1 -5 0 -13.5t-1 -11.5q0 -1 0.5 -3t0.5 -3q0 -3 -0.5 -8t-0.5 -9t1 -7q-1 -6 -1 -15q1 -9 -1 -26t-2 -25
q10 -4 16 -3q3 0 9.5 -0.5t10.5 -0.5q1 0 2.5 0.5t2.5 0.5h12q6 0 14 -2q1 -2 4 -5l4 -4q0 -1 2 -1q0 -2 1.5 -6t0.5 -8q-1 -3 -3.5 -5.5t-5.5 -4.5t-5 -4q-7 -3 -26 -3h-9h-5h-6h-5q-15 -2 -16 -3v-6q1 -4 0.5 -11t-0.5 -10v-1l-1 -1q1 -9 1 -34q-3 -12 -1 -24q-1 -2 -1 -7
v-8q2 -3 0 -8q0 -1 0.5 -1t0.5 -1l-2 -8q2 -7 0.5 -25.5t-0.5 -25.5q-1 -5 -1 -30v-12q-1 -5 -1 -12v-11v-1q0 -1 0.5 -4t-0.5 -5q0 -1 -1.5 -3t-1.5 -4q-4 -1 -7.5 -7.5t-5.5 -7.5q-1 0 -4 -0.5t-5 -0.5q-5 1 -10 5.5t-7 5.5q0 1 -1.5 3.5t-2.5 3.5q-3 27 -3 117q2 18 2 47
v3v3.5v3v2.5q1 4 1 28q2 60 2 89q0 4 1 15t0 17q0 7 1.5 20.5t1.5 21.5v38q1 5 1 17q0 4 0.5 13t0.5 14q0 2 0.5 10.5t0.5 11.5v1h1q1 8 1 24q0 9 2 33l-1 1q0 2 0.5 4t0.5 3q-1 5 0.5 17t1.5 16q0 3 1 3v5l1 1q1 11 11 47q1 1 2 3.5t2 3.5q1 3 13 23q2 2 6 8q1 0 2.5 0.5
t2.5 0.5q0 1 0.5 1t0.5 1h3l5 1q5 1 7 2l3 3q4 2 14 4h28q14 -4 19 -8q2 0 2 -2q6 -2 7 -5h2l1 -1q2 -1 4 -2.5l4.5 -3.5t3.5 -3t2.5 -3.5t3.5 -3.5q4 -6 10 -14q3 -7 3 -8q0 -2 3 -8q0 -4 2.5 -11t2.5 -13v-10t1 -11v-27q0 -6 -0.5 -21.5t0.5 -21.5l-1 -1v-2q1 -3 -1 -19
q2 -6 0 -13q0 -17 -2 -23q0 -1 -0.5 -2.5t-1.5 -2.5t-3 -2.5l-2 -1.5h-5q-11 -3 -22 8h-7z" />
    <glyph glyph-name="g" unicode="g" horiz-adv-x="251" 
d="M207 425v-2q5 -5 7 -11t3 -17.5t2 -14.5q-1 -4 1 -12q-1 -1 -1 -3.5t-1 -3.5q2 -4 0 -14v-2q-1 -2 0 -6.5t1 -6.5q0 -3 -0.5 -9.5t-1.5 -9.5v-14v-26v-23v-3.5v-5.5v-4v-12v-14v-8v-13v-8v-19q0 -1 -1 -3v-11.5t-1 -11.5q0 -20 -1 -29q0 -7 -1 -9q1 -3 0 -8t-1 -7
q0 -17 -1 -28q2 -5 0.5 -16.5t-0.5 -16.5q-3 -3 0 -9h-1q-1 0 -1 -1q0 -6 -1 -23t0 -27q-2 -3 0 -10.5t0 -10.5v-1q0 -3 1 -15.5t-1 -15.5q1 -6 -1 -19q-1 0 -1 -1l1 -1q0 -23 -3 -31q0 -7 -2 -9q0 -12 -7 -40l-1 -1q0 -1 -1 0v-4q-2 -2 -5 -8t-5 -8q-1 -3 -4.5 -7.5
t-4.5 -5.5l-1 -1h-2q-1 -1 -2 -2.5l-2 -3t-3 -1.5q-1 -1 -2 -2.5t-2.5 -3t-2.5 -1.5q-1 -1 -3 -2l-1 -1q-1 0 -4.5 -1t-5.5 0q0 -2 -3.5 -4t-4.5 -5q-1 0 -3 -0.5t-3 -1.5q-1 0 -26 3q-1 1 -11 6l-12 3l-6 3q0 2 -1.5 3.5t-1.5 2.5l2 2q-1 1 -6 5t-7 7q-2 1 -4.5 4t-3.5 4
q-8 17 -9 19t-1 5q0 2 -2 6t-2 6q-1 4 -3.5 13t-3.5 13h-1v1q0 2 -2 10.5t-2 11.5q-3 36 0 67q0 2 2 4v6q0 2 1 4.5t0 4.5q3 10 4 13q6 1 12.5 -1t9.5 -2q2 -1 5 -3t4 -2q9 -9 10 -16v-4q-2 -10 -2 -35v-23q2 -17 3 -18q0 -3 0.5 -8t0.5 -7q3 -4 4.5 -13t3.5 -12
q1 -3 13 -23q2 -1 6.5 -5.5t7.5 -6.5q1 1 2 1t2 1l1 2q1 0 3 1.5t3 2.5q2 1 5 4q3 2 4 3q2 1 4 3q4 2 5 3l2 3q2 3 3 4q1 3 3 11l4 4l3 18q-1 0 -1 1q3 8 3 28q1 4 1 14v6v7v6q0 3 0.5 7t0.5 5v20q0 11 1 16q-2 4 0 7q-2 9 1 15q0 26 1 37l-1 1q-6 -2 -18.5 -3t-16.5 -2
q-6 1 -13 1q-4 0 -5 1q-7 0 -23 7l-1 1l-1 1q-3 1 -5.5 3t-4.5 2q-2 2 -9 8t-10 11q-5 7 -24 51q-1 8 -3 22q0 3 -0.5 10t-1.5 9v1v3v2q-2 39 0 77q0 2 0.5 5.5t0.5 4.5v11.5t1 11.5q0 4 0.5 10t0.5 9q0 2 0.5 8.5t1.5 9.5q0 12 1 17l1 4q0 5 -1 5q1 1 1 5.5t1 6.5v1l3 18
q0 13 3 15q1 1 3 1q0 2 1 7.5t2 8.5q1 2 3 5.5l3.5 6t4 5.5t5.5 4q16 13 19 15q21 9 22 9l1 1h6q3 1 12 2t10 1q3 0 14 -0.5t16 -1.5q2 0 2 1q3 -2 5 0h9t8 -1q1 -1 4 -2t4 -1q6 -2 9 -4q1 0 2.5 -1t2.5 -2zM161 388q-2 1 -16 1q-2 0 -4 1h-2q-1 0 -13 -3q-2 0 -4 -0.5
t-3 -0.5q-2 -1 -8 -3h-11q-1 -2 -3.5 -4t-2.5 -3q-2 -2 -2.5 -5t-1.5 -4v-3l-1 -1q-2 -3 -5 -31q-2 -6 -2 -19t-1 -20v-14q0 -17 -3 -29q2 -2 -1 -8q1 -5 0 -15.5t-1 -12.5v-15.5t-1 -13.5q0 -2 0.5 -6t0.5 -5q-1 -2 -1 -3l1 -2q0 -2 -0.5 -4t-0.5 -3v-21q0 -1 1 -2v-1v-5
v-5q1 -2 1.5 -11t2.5 -12q-1 -4 1.5 -11t2.5 -8q2 0 2 -4q21 -23 30 -26h1q1 -1 1 -2h9q10 2 26 9q1 2 3 4q5 7 6 7v1q1 1 1 2v17q0 1 1 3v2q0 1 -0.5 1t-0.5 1q0 5 0.5 15.5t1.5 15.5q0 2 -1 10t0 11v5q0 2 0.5 6t0.5 6q2 8 1.5 28t0.5 28q1 5 1 15v15q0 14 1 20v21
q1 5 1 17v16v10.5t1 10.5q1 11 1 32q-1 0 -1 1l-1 2q-2 0 -5 1t-4 1zM205 276l2 -1q0 2 -2 1zM213 130h-2h2z" />
    <glyph glyph-name="h" unicode="h" horiz-adv-x="244" 
d="M91 415q1 1 5 3t6 4q1 0 3.5 1t3.5 2q1 0 3 1.5t3 2.5t4 2t4 1q10 6 21 6h6h5q2 -1 6 -1.5t7 -1.5t5 -3q6 -2 18 -14v-1q7 -10 8 -12q1 -1 1.5 -4t0.5 -4q0 -2 1 -4t1 -3l1 -6q1 -6 2 -9q0 -3 0.5 -7t0.5 -6v-3q1 -3 1 -11t1 -11v-11q0 -3 -0.5 -7.5t-0.5 -6.5t0.5 -4
t0.5 -3q-1 -4 -1 -12t-1.5 -24t-1.5 -23v-2q0 -1 -0.5 -3.5t-0.5 -4.5q0 -1 0.5 -5t0.5 -6q-2 -7 -2 -23q0 -1 -0.5 -1.5t-0.5 -1.5q0 -2 -3 -64q0 -7 -1 -9q-1 -1 0 -2v-1q0 -3 1 -4q-2 -21 -4 -61q0 -18 -1 -28q-2 -1 -2 -7q-1 -1 -2.5 -4t-3.5 -4q-3 0 -7 2.5t-6 2.5
q-1 -1 -4 -9q-4 0 -8 4q-1 1 -6 5t-7 7v3.5t-1 3.5q-1 5 -1 16v16q2 8 0 14q1 8 1.5 17t1 19t0.5 16q2 26 4 72q0 4 0.5 12t0.5 12q1 16 1 47q1 4 1 9.5v9.5q-2 4 0 6v11v10v9.5t1 8.5q0 4 -0.5 12t-1.5 12t-1 12q-2 4 -2 7v4l-1 2l-1 1v2v2q-1 2 -2.5 5.5t-1.5 4.5
q-5 3 -6 2q-3 0 -8 -3t-8 -3q-4 -3 -8 -4q-2 -1 -6 -4.5t-6 -5.5q-3 -5 -8 -9q0 -3 -3 -3q0 -1 -1.5 -2.5t-1.5 -2.5q-1 -4 -1 -12l-1 -1v-6t1 -6q0 -7 -1 -21t-1 -21q0 -3 -0.5 -8t-0.5 -7t-0.5 -5.5t-0.5 -4.5q0 -10 -1 -11v-6v-7v-6q0 -1 -0.5 -1.5t-0.5 -1.5
q1 -8 0.5 -26t0.5 -26q-1 -7 -1 -17t-1 -16q1 -2 1 -6v-7q-1 -7 1 -20q-1 -3 -1 -17q0 -2 -0.5 -5t-0.5 -4v-1q1 -2 1 -3q0 -2 -0.5 -8t0.5 -9q-2 -4 1 -9q-2 -11 -1 -16q-1 -1 -1 -2v-2q0 -2 -1.5 -7.5t-0.5 -8.5q0 -1 -0.5 -1t-0.5 -1q1 -7 -1 -18q-2 -4 -2 -5
q-19 -7 -25 -7q-1 1 -1 0l-1 -1q-5 0 -11 6q-5 5 -6 8q-3 2 -5 9t-3 8v4q4 30 6 83q0 3 0.5 9t0.5 8q1 6 0 15t-1 11v39q1 5 1 12v11v34q0 9 0.5 26.5t0.5 24.5q0 30 1 45q1 10 1 30l3 54v15q1 8 1 25q0 12 2 38v18v15q0 2 0.5 5.5t0.5 5.5v6q0 2 0.5 5.5t0.5 4.5q1 10 1 33
q3 32 3 61q1 4 1.5 9.5t1 9.5t2.5 7h5v1q0 1 1 1h5q18 1 30 -11q1 -1 2 -3t2 -3.5t2 -2.5v-3l1 -1q1 -6 0 -12v-2q0 -7 1 -29t0 -35q0 -1 0.5 -1t0.5 -1v-10.5t-1 -11.5q1 -1 -2 -16l1 -2q-2 -2 -2 -3v-10q0 -4 -1 -11t-1 -10t-1.5 -14t-0.5 -17q-1 -6 -1.5 -12t-1 -13.5
t-0.5 -11.5v-12v-11q0 -9 1 -13z" />
    <glyph glyph-name="i" unicode="i" horiz-adv-x="147" 
d="M98 474q-1 -2 -3.5 -2.5t-3.5 -1.5q0 -3 -4 -3q-1 2 -2 3q-2 -2 -2 -10q-2 0 -3 -3t0 -6h-2q-2 0 -5.5 0.5t-4.5 0.5q-1 5 -7 5q0 2 -1.5 4.5t-1.5 4.5l-1 1l-5 13t-4 10v13v7q2 4 2 11.5t1 10.5q1 1 6 1.5t7 1.5q1 0 8.5 -0.5t10.5 -2.5l5 -2.5l5 -2.5t4 -2.5t3 -3
t1 -3.5q0 -4 1.5 -12t1 -13.5t-3.5 -9.5q0 -1 -1.5 -4.5t-0.5 -4.5zM85 18q-5 2 -6 1v-5h-3q-1 -7 -5 -14h-4q-1 0 -2.5 1t-2.5 1q-2 0 -3 2q-1 1 -2 2.5t-2.5 2.5t-2.5 2q-2 2 -3 2v2q-1 1 -2 1q0 2 -1 3l-3 3q-2 17 -2 20q0 12 0.5 36t0.5 35q2 36 2 54q1 13 1 36t1 36
q0 41 5 101q-1 3 0 10.5t0 11.5q2 35 1 51v1l-1 2q1 5 6.5 7.5t6.5 4.5q2 -1 3.5 -0.5t1.5 -0.5l1 1l1 1q3 -1 8 -1t8 -1l8 -4q0 -1 1.5 -3t2.5 -3v-31v-17.5v-20.5v-17v-18v-5q-1 -3 -1 -9v-9q-2 -18 -2 -26v-2q0 -2 -1 -8t0 -9q-2 -19 -2 -56v-19q-1 -3 -1 -16v-2v-25
q-2 -23 -1 -35q-1 -10 -1.5 -26.5t-0.5 -21.5q0 -2 -0.5 -6t-0.5 -5q0 -2 -0.5 -5t-1 -5.5t-1.5 -4.5z" />
    <glyph glyph-name="j" unicode="j" horiz-adv-x="168" 
d="M104 448q-1 0 -5 -2t-6 -4t-3 -5v-1h-2q-1 -9 -9 -5q-1 1 -3 1q-1 1 -2 1q-3 3 -4 3q-4 5 -5 6q-9 16 -9 32v3q1 3 0 4q0 14 -1 16q2 2 2 5q1 1 6 2t6 4q1 0 1 -0.5t1 -0.5q1 1 9 4q2 -1 7 -1h8q6 -3 7 -4l2.5 -5t2.5 -4q0 -3 2 -13v-13q-2 -16 -5 -23zM-31 -182
q1 9 -2 17l-3 21q-3 7 -5 40q-2 5 -2 18q0 1 0.5 3.5t0.5 3.5q-1 6 1 18q8 6 11 5q4 6 8 7q2 2 2 3q1 0 2 0.5t2 1.5q4 2 5 4q6 1 12 -9q0 -6 4 -9q1 -4 1.5 -15t2.5 -17q0 -7 1 -10v-14q0 -1 0.5 -5.5t1.5 -6.5v-6q0 -14 1 -15v-3v-25q0 -1 1 -3q2 -4 2 -6q2 -1 5 -3.5
t5 -3.5q2 0 3.5 1t2.5 2.5t2 2.5q5 13 7 16l6 24q2 16 2 23l1 1v2v3q0 7 2 15v12v8v9v15v6.5t1 6.5v53v20q2 7 1 29t-1 30q1 7 1 21v20q1 18 0 34l3 96q0 1 0.5 3.5t0.5 3.5v2q0 2 -1 3q0 4 3 53q1 9 1 24q0 5 1 7q0 2 -0.5 7.5t-0.5 6.5v4q0 13 -2 18q2 8 4 10h2q10 8 28 4
q2 0 4 -1q1 1 3 0t3 -1q3 -1 4 -2q0 -2 1 -3l1 -1q1 -1 2 -1q0 -3 1 -4l3 -12q1 -3 1 -11q0 -2 2 -6v-7q0 -4 1 -14t0 -16q1 -4 1 -11.5v-11.5q0 -2 -0.5 -6t-1.5 -6q0 -8 -1 -25t0 -26l-1 -1q1 -5 0 -16t-1 -15q0 -3 -1 -4v-16.5t-1 -16.5q1 -1 0 -3.5t0 -3.5q-1 -6 -1 -31
v-9.5t-1 -9.5q1 -6 -0.5 -20t-1.5 -18q0 -5 -1.5 -18t-0.5 -19v-1v-7.5v-8v-6.5v-11q0 -2 -0.5 -5.5t-0.5 -5.5v-5.5t-1 -5.5q0 -9 1 -13q-1 -1 -1 -2q0 -4 0.5 -11t0.5 -10q-1 -8 -0.5 -26t-1.5 -24q0 -3 1 -4q-4 -33 -5 -39l-7 -32q-1 -1 -2.5 -3.5t-3.5 -3.5
q-7 -16 -11 -20v-2l-1 -1q-2 -2 -6 -6.5t-7 -7.5q-1 0 -2 -1q-2 -1 -4 -3t-4 -3q-4 0 -9.5 -3t-7.5 -3q-7 0 -7 -1q-2 0 -6.5 0.5t-8 1t-5.5 1.5t-4 3t-4 2v2q-3 2 -6 6.5t-5 5.5t-5 4.5t-5 4.5q0 1 -2 5t-2 7q-3 3 -3 8z" />
    <glyph glyph-name="k" unicode="k" horiz-adv-x="287" 
d="M99 369q1 1 3 5l6 12v2l1 1q4 7 11.5 25t12.5 26l1 2q0 1 2 4t2 5q4 8 5 12q2 3 5 10t5 10v2q1 1 2 3t2 3q1 3 3.5 7.5t3.5 6.5h1q5 13 18.5 33.5t16.5 25.5q4 0 6 -4q1 0 3.5 -1t3.5 -1q10 -6 10 -7q3 1 5 0t4.5 -3.5l3.5 -3.5q0 -5 3 -8v-9q-5 -5 -10 -17.5t-9 -17.5
q1 -3 -3 -8v-3q-1 -1 -2.5 -2t-2.5 -2q-2 -6 -6.5 -18t-5.5 -14q-3 -1 -5 -11l-1 -1q0 -1 -1 -1v-4q-1 0 -1 -1l-2 -1q-2 -5 -6.5 -14t-6.5 -14v-2l-2 -4q-1 -2 -1 -6l-2 -1q-1 -2 -3 -7t-4 -7q-1 -3 -2.5 -6t-1.5 -5q8 -20 11 -31q1 -2 4 -12.5t5 -14.5q0 -4 2 -10t2 -9
q5 -8 5 -17q2 -2 3.5 -7.5t2.5 -7.5q0 -5 1 -7t6 -27l2 -9q1 -3 2.5 -11t3.5 -12v-2q2 -6 2 -12q3 -7 6 -21t6 -21q1 -1 0 -1v-1q0 -5 1 -8q1 -1 2 -4t1 -4q1 -7 4.5 -19.5t4.5 -19.5h1l1 -1q2 -4 2 -11q1 -3 3.5 -9t3.5 -9v-4q0 -1 1 -4t0 -5v-1l-2 -2q0 -1 -6 -13h-6
t-4 -1h-5q-1 0 -4.5 -1t-5.5 -1q-1 0 -4 1.5t-5 1.5q-10 14 -12 22q-1 1 -2 4t-2 3q0 2 -0.5 5t-0.5 4l-1 1q-6 31 -17 76l-21 85q0 2 -1.5 8t-2.5 9q0 1 -0.5 3t-0.5 3q-6 21 -16 63q-2 -1 -4 -7h-2v-3q-2 -2 -4.5 -6t-3.5 -5q1 -1 0 -1.5t-1 -1.5q-6 -5 -6 -13
q-2 -2 -7.5 -6t-7.5 -7v-11q1 -2 -1 -7q1 -11 0.5 -36.5t1.5 -35.5q0 -1 -0.5 -1t-0.5 -1q0 -8 0.5 -23t0.5 -22v-15q0 -13 1 -15q-1 -5 -1 -15.5t-1 -14.5q3 -14 -1 -33q0 -1 -1 -1l-1 -2q1 -7 -4 -10.5t-12 -1.5q-1 -1 -3 -2t-3 -2q-9 -2 -20 7q-1 2 -3.5 5t-3.5 5
q0 4 -1 6q0 1 -1.5 4t-1.5 5v6v7.5v6.5v22q-1 7 -0.5 23.5t0.5 22.5v39t-1 39v5v58v30v31q1 5 1.5 17t0.5 17q0 23 1 34q0 8 0.5 22t1 25.5t1.5 21.5v3l-1 1q3 96 4 111q-2 6 0 10v11v19q1 5 -1 20v3q1 3 1 4t-0.5 4t-0.5 5v4v7q0 12 -1 17q0 6 2 16l-1 1v1q2 13 4 16
q4 -4 7 0q3 -1 6.5 0t5.5 1q1 0 3 -0.5t4 0.5q2 -1 5 -1.5t5 -0.5q9 -1 19 -13q0 -3 1 -9t1 -8q3 -4 1.5 -18.5t-1.5 -18.5l3 -27q0 -2 -0.5 -7t-0.5 -6t0.5 -4.5t0.5 -5.5q0 -3 -1 -7.5t-1 -6.5v-1q1 -1 1 -2q0 -3 -2 -13q1 -1 1 -2v-1q-1 -1 -1 -2q-1 -3 -1 -9.5t-1 -9.5
q-1 -5 -1.5 -14t-0.5 -12l-1 -1v-1v-13q0 -4 -1 -5q2 -18 0 -25v-18t-2 -21q1 -5 0.5 -17.5t-0.5 -17.5v-26z" />
    <glyph glyph-name="l" unicode="l" horiz-adv-x="170" 
d="M117 57l3 5q0 3 2 8t3 9q9 18 10 23h3t3 1q1 0 3 1.5t3 1.5t2.5 0.5t2.5 1.5q6 0 7 2q2 -1 6 -1q2 -1 4 -1v-11q1 -1 2.5 -3t1.5 -3q0 -7 -3 -16q0 -2 -2 -4v-3q-3 -5 -5 -13q-2 -2 -4.5 -6.5t-3.5 -6.5q0 -3 -1 -4q-6 -9 -7 -11q0 -1 -1 -2.5t-2 -2.5t-1 -2q-1 -1 -5 -4
t-6 -5q-2 0 -6.5 -2.5t-7.5 -2.5q-5 -5 -11 -6q-33 1 -51 33q-1 1 -4 7l-2 4q-1 2 -3 8.5t-3 8.5q0 1 -1.5 8t-2.5 11v6t-1 5q0 7 -2 27v6q-1 4 -1 12.5v11.5q1 7 1.5 18.5t0.5 15.5v7q2 56 2 85q0 2 0.5 6t0.5 7t-0.5 8t-0.5 7q0 1 0.5 3.5t0.5 4.5v21v9v14.5v17v13.5
q1 6 1 19.5t1 19.5v12q0 2 -0.5 5t-0.5 4t0.5 2t0.5 2v33q0 2 0.5 6t0.5 5v8q-1 1 -0.5 5t0.5 5q0 19 1 33q0 28 1 43q0 5 1 15.5t1 14.5q0 1 -0.5 4t-0.5 4v10v7q0 11 2 33l-1 1v1l1 1v26q1 0 1 1q3 -1 9 1t9 2h2q2 -1 3 -1h8l8 -4l1 -1h3l4 -4q2 -1 3 -3q4 -3 6 -12
q0 -60 -1 -68q3 -12 0 -25q1 -2 1 -13v-2q0 -1 -0.5 -3t-0.5 -3v-4q0 -1 -0.5 -1t-0.5 -1l1 -2q0 -1 -0.5 -4t-0.5 -5q0 -3 -0.5 -13.5t-1.5 -16.5q-3 -54 -3 -60v-11q-1 -3 -1 -9.5v-9.5q0 -1 -0.5 -3t-0.5 -3l1 -1v-1l-1 -1q1 -2 1 -7q0 -1 -1 -2q1 0 1 -2v-3
q0 -19 -1 -26l1 -2q0 -6 -2 -16v-2q1 -2 1 -3t-1 -10t0 -14q-1 0 -2 -2v-2q1 -4 1 -13q-1 -7 -1.5 -23.5t-0.5 -21.5q-1 0 0 -1t0 -1q-1 -2 -1 -8v-9q0 -2 -1 -3q-1 -3 -1 -9.5v-10.5q0 -13 -1 -20v-8v-16q-1 -9 -1 -26v-27q0 -4 2 -6q-1 -8 4 -34q0 -11 7 -32q1 -1 3 -5
q1 -3 2 -4q3 -3 4 -3q2 -1 3 -0.5t2 3t2 3.5z" />
    <glyph glyph-name="m" unicode="m" horiz-adv-x="360" 
d="M52 17q-3 1 -4 4q-2 1 -4 3.5t-3 3.5q-1 3 -3 7v7q4 25 2 44v14q1 5 1 15.5v15.5q2 4 1 6q2 47 1 71v27q1 8 1 25q0 4 0.5 12t0.5 13q0 3 1 4q-1 0 -0.5 2.5t-0.5 3.5q3 24 3 25q-1 0 -1 1q2 11 0 23q1 4 1.5 13.5t0.5 14.5v8v4v6q-2 6 0 10v4q-1 2 -1 5t1 5q0 8 0.5 26
t0.5 26l1 2q1 1 1 3q5 0 11 4q2 0 3 -1q2 1 6 1l2 -1h4l6 -3l6 -3q1 -1 1 -2q5 -2 6 -6v-8q2 -11 1 -21q2 1 4 5q2 0 4 5l2 1l3 3t2 2.5t2 2.5q4 2 5 4q2 1 6 5q8 3 10 5q2 1 5.5 2.5t5.5 1.5q5 0 7 1q17 0 26 -4q1 0 1 -2q18 -8 24 -30q26 23 35 28q4 0 10 4q3 0 8.5 1.5
t7.5 1.5h1l1 -1q1 0 1 1h1h1l1 -1q5 1 10.5 -1t7.5 -2q1 -1 4 -2.5t4 -2.5q3 -3 4 -3q1 -1 1 -3q4 -2 5 -3q2 -4 3 -5l2 -2t1 -2t1 -2.5t1 -2.5v-2q0 -1 1.5 -3.5t0.5 -4.5l3 -14l1 -2v-2v-6.5t1 -6.5q0 -4 0.5 -12t-0.5 -13q0 -6 -0.5 -22t-0.5 -24q-1 -7 0 -11
q-1 -3 -1 -21q0 -2 -1 -8t-1 -8v-11q-1 -3 -1 -8.5v-8.5v-6v-10t-1 -11q-1 -2 -1 -7.5v-8.5q0 -2 -1 -8.5t0 -9.5q0 -4 -1 -25.5t-4 -30.5q0 -2 1 -2q-2 -7 0 -11q-4 -8 0 -16q-1 -2 -1 -9t-1 -9l1 -4v-4l-1 -1v-5v-4q0 -10 -1 -12v-5q0 -1 0.5 -2.5t0.5 -2.5t-0.5 -3.5
t-0.5 -4.5q-2 -10 -4 -10q0 -3 -1.5 -8t-1.5 -6l-1 -1v-2q-2 0 -3 1q-1 -1 -4.5 -3t-4.5 -5q-1 1 -3.5 1.5t-3.5 1.5q-2 -1 -5.5 -0.5t-4.5 0.5l-8 8l-3 6q0 3 -1 3v6q0 3 0.5 8.5t0.5 8.5q-1 6 -1 21v21q1 3 1 18v48q1 5 1.5 15.5t0.5 15.5v9v11t1 10q0 6 0.5 18t1 22
t1.5 19v11q0 14 2 42q-1 0 -1 1q2 30 2 39v12l-1 1v1v9v11v9q-1 3 -1.5 8.5t-1.5 10t-3 7.5q-4 0 -20 -4q-3 -1 -7 -5l-6 -6q-1 -3 -4 -3q-1 -2 -4 -7.5t-3 -9.5q-2 -2 -4 -8v-1l1 -1q-2 -2 -3 -6.5t-2 -5.5v-6v-12q0 -1 -0.5 -2.5t-0.5 -2.5v-11l-2 -4q0 -1 0.5 -3t0.5 -3
q-2 -11 -1 -14v-6v-7.5v-6.5t-0.5 -4t-0.5 -3v-13q0 -6 1 -9v-4q-1 -1 -1 -12l1 -11q-1 -4 -1 -10v-10q0 -1 -0.5 -4.5t-0.5 -5.5v-3q1 -4 0 -11t-1 -10v-17q0 -1 0.5 -3t0.5 -3t-0.5 -5t-0.5 -6q0 -8 -1 -11l1 -1q-1 -2 -1 -16q0 -1 -0.5 -3.5t-0.5 -4.5v-2q1 -2 1 -3
q0 -5 -2 -13v-4v-7v-3q-1 -3 -0.5 -14t-0.5 -15v-6q0 -17 1 -18q-3 -8 -4 -9q1 -2 -1 -7q1 -2 -2 -13h-3l-2 -4q-4 4 -8 0q-8 6 -14 7q-4 0 -6 1q-1 0 -8 7q0 10 0.5 31.5t0.5 33.5v11v5q3 51 3 60q1 8 1 23q0 6 0.5 18t0.5 17t0.5 18.5t0.5 19.5v6v1v3v4v5v5q1 8 1 31
q1 4 1 10.5v9.5v2v8v4v6v6q2 2 0 4v37q-2 8 -2 9q-2 5 -4 17l-6 12q-3 1 -7 -2.5t-5 -3.5q0 -1 -1 -1.5t0 -1.5q-1 1 -1 0h-1q0 -2 -1.5 -3t-1.5 -2q-3 -2 -6 -8l-4 -6q0 -4 -4 -8q0 -2 -3.5 -8.5t-3.5 -11.5q-2 -2 -4 -8t-4 -8q0 -11 -3 -14q1 -5 -0.5 -12t-1.5 -11
q0 -2 -0.5 -4t-0.5 -3h1q-1 0 -1 -1q0 -11 -1 -13v-5t1 -4q-3 -11 0 -21q-1 -4 -1 -26v-11t1 -10q0 -1 0.5 -2.5t0.5 -2.5v-2q-1 -1 -1 -2v-12q0 -4 -0.5 -11.5t0.5 -12.5v-16q-2 -6 0 -11q0 -2 -0.5 -10.5t-0.5 -12.5v-5q0 -18 -2 -22v-24q0 -1 0.5 -1t0.5 -1q0 -2 -1 -9
t0 -11v-8q-1 -4 -1 -13q-1 -13 -6 -25q-1 0 -1 1h-1q-1 0 -1 -1q-1 -1 -1 -5t-1 -5q-1 0 -2 1.5t-3 0.5q-1 0 -1 -2.5t-2 -2.5q-1 1 -2.5 3.5t-2.5 3t-4 -0.5q-2 1 -4 3.5t-3 3.5q1 0 1 2v-1q-3 2 -5 5z" />
    <glyph glyph-name="n" unicode="n" horiz-adv-x="256" 
d="M201 413l1 -1q5 -13 8 -38q0 -3 0.5 -11t-0.5 -13v-4v-5v-11v-4q0 -4 -0.5 -12t-0.5 -12v-6q1 0 1 -2.5v-3.5q-1 -3 -1 -10v-11q1 -5 0 -17.5t-1 -18.5v-4t-1 -4v-1q-1 -4 -1 -13.5v-14.5v-10q0 -2 -0.5 -9.5t-1.5 -11.5q0 -33 -2 -46v-4t1 -4q0 -2 -1 -4.5t-1 -3.5v-2
v-4v-10v-3v-7t-1 -7v-9l-1 -1q0 -1 0.5 -2t0.5 -2t-1 -5t0 -6v-13v-3q0 -1 -1 -3v-1v-11l-1 -3q-1 -3 -2 -4h-4q0 -5 -1 -6q-3 0 -3 1q-7 5 -9 5v-5l-1 1q0 -1 -2 -3q-2 1 -5 1q-3 2 -7 6t-4 5q-1 1 -3 4q-2 6 -2 19v16q0 1 0.5 1t0.5 1q-1 1 -1 2.5t1 1.5q-1 4 -1 9.5v10.5
v5.5v6.5v5q1 2 1 3q0 2 -0.5 8t0.5 9v2q1 7 1.5 22t0.5 23v3q0 9 1 14v2q1 7 1 26q0 2 0.5 7t0.5 6q0 3 0.5 13t0.5 14l1 1q-1 2 -1 4q0 3 0.5 9t0.5 8v21q0 1 0.5 1t0.5 1t-0.5 1t-0.5 1q1 8 1 22q1 16 1 45q0 45 -10 57q-10 1 -33 -11q-4 -7 -5 -9q-1 -1 -1 -2
q-5 -5 -6 -13h-1q1 0 1 -1l-1 -1q-1 -2 -1 -4q-2 -4 -2 -7q-3 -3 -5 -13q-1 0 -1.5 -1t-1.5 -1q0 -2 -2 -6q0 -1 -2 -2.5t-2 -2.5q-1 -2 -1 -6.5v-7.5v-1q0 -4 -1 -13t0 -14q-1 -5 -1.5 -14.5t-1.5 -14.5q2 -8 0 -15q0 -2 0.5 -7.5t0.5 -8.5q-2 -10 -1 -15v-8v-2v-27v-11
t1 -12q-1 -2 -1 -5v-4v-3.5v-6.5v-6t0.5 -8.5t-0.5 -8.5v-9v-4v-21v-6v-1q1 -1 0 -5v-3v-10q0 -1 -0.5 -1t-0.5 -1l1 -2v-3v-7q0 -2 -0.5 -7t-0.5 -7q1 -2 1 -6.5v-6.5q-1 -2 -1 -6.5v-7.5q0 -6 -3 -7l-2 -7l-1 -1q-2 -1 -3 -2q-1 0 -2.5 -0.5t-3.5 0.5q0 -1 0.5 -1t0.5 -1
h-1q-4 -1 -6 -5l-12 3v2q0 1 -1 1l-1 2l-2 2q-1 1 -2 4l-1 3q-1 2 -2 6t-2 6q-1 5 -0.5 14t0.5 13q1 18 1 54v1v3q0 7 -1 31t0 36v27q-1 4 -1 10v9v19.5v19.5q0 2 1 2v4.5t-1 4.5v35v1q1 1 1 2t-1 1q3 41 3 43q0 1 -1 1q1 7 1 22q1 3 1 12q1 23 -1 65q2 2 2 3q7 0 11 2
q2 0 5.5 -0.5t5.5 -0.5q2 -1 6.5 -3t6.5 -3q6 -3 6 -12q1 -3 2 -8.5t1 -6.5q3 3 5 4q1 1 3 2.5t3 2.5q2 0 2 2q16 8 23 9q4 2 10 4q7 0 10 1q9 3 15 0q7 -1 16 -5t10 -4q13 -11 15 -19zM77 236h1v1h-2z" />
    <glyph glyph-name="o" unicode="o" horiz-adv-x="198" 
d="M49 437l14 20q14 7 17 8q0 2 1 1l-1 1v1h4q2 1 4 3q2 0 3 1q2 1 8 1.5t8 0.5h7q2 0 5.5 -2.5t6.5 -2.5l2 -1h2v-1l1 -1h2l1 -1l3 -3l2 -1l6 -3v-2q1 0 2 -1t6 -9.5t6 -13.5q0 -1 3 -11q0 -1 1 -1q0 -3 1.5 -6.5t1.5 -5.5q0 -3 1 -8t1 -8q0 -1 1 -1v-2q2 -8 4 -28
q1 -2 1 -6.5t1 -6.5q0 -4 1 -14t0 -15v-5q1 -1 0.5 -4t-0.5 -4q0 -3 0.5 -11t-0.5 -13q2 -4 0 -11q2 -7 0 -13q1 -4 1 -13.5v-13.5q-1 -3 -0.5 -8t-0.5 -8q1 -5 -0.5 -18.5t-1.5 -16.5q-1 -2 -1.5 -6.5t-1.5 -5.5q1 -4 -0.5 -13.5t-1.5 -13.5q0 -1 -1 -7.5t-2 -10.5
q-1 -1 -1 -3q-1 -2 -4 -19q0 -1 -0.5 -4t-1.5 -4q0 -1 -0.5 -1t-0.5 -1t-0.5 -3t-1.5 -3q-1 -4 -3.5 -10.5t-3.5 -10.5q-9 -22 -15 -29v-2q-1 -1 -3 -5q-1 0 -3 -3t-3 -4l-1 -1q-2 0 -2 -1q-2 -1 -8 -5q-4 0 -7 -3q0 -2 -1.5 -3.5t-3 -2t-2.5 -1.5l-2 -1q-2 -1 -3 -2l-1 1
q-1 -1 -2 -1l-2 -1h-8l-6 3t-5 3t-3.5 3t-4.5 3q-2 6 -8.5 15t-8.5 15q-6 11 -9 23q-3 8 -7 31q-1 4 -2 12t-2 12q0 9 -1 13q1 1 0 1v2v3q-1 2 -1 6.5v6.5q0 4 -0.5 16t0.5 16q-1 6 0 11q-2 12 0 20v3v3q0 5 0.5 20t1.5 22v1q0 13 1 19q0 2 -1 3q1 0 1 8q0 1 0.5 2.5
t0.5 2.5l-1 1q0 1 0.5 2.5t0.5 2.5v3q1 2 1 3q0 9 1 14v2q1 2 1 3q0 4 1 14.5t1 16.5v2q3 26 4 29q-1 5 4 23h-1q2 5 4 17q2 5 3 5h2zM101 65v2q2 1 10 14q1 4 5 13.5t6 16.5v4q3 6 3 8q1 0 1 2t1 5t1 4q0 2 1 5t1.5 5.5t0.5 4.5q0 1 1 5.5t2 6.5q1 4 1 13q3 34 3 35v1
q-1 0 -1 1q1 5 1.5 16t0.5 14v25v42v10v2v7v4q0 1 -0.5 3.5t-0.5 4.5v2q0 2 -1 9.5t-1 11.5q-9 43 -14 62q-1 0 -6 7t-9 7q-1 0 -4 -3l-1 1q-1 0 -1 -2q-3 -2 -4 -3q-3 -1 -6 -4t-5 -3q-2 -8 -2 -12v-9v-2v-3q0 -2 -0.5 -8t-1.5 -10q1 -3 0 -8.5t-1 -7.5q0 -13 -1 -21v-6
q0 -2 -1 -3v-4q0 -1 -0.5 -3t-0.5 -3v-9q0 -1 -0.5 -4.5t-0.5 -5.5t-0.5 -5t-0.5 -5q-1 -3 -1 -12t-2 -13v-9v-3q0 -4 -0.5 -17.5t-1.5 -19.5q1 -5 0 -16t-1 -14q0 -1 0.5 -1t0.5 -1q-1 -14 -1 -42l1 -1q0 -6 1 -14.5t1 -12.5q1 -2 1 -8q0 -2 1 -7.5t2 -7.5t1 -8
q2 -5 3.5 -12.5t2.5 -10.5v-2l2.5 -5t2.5 -4q6 1 12 11zM38 315v1h-1l-1 1q0 -2 2 -2z" />
    <glyph glyph-name="p" unicode="p" 
d="M93 31q0 -5 -0.5 -16.5t-0.5 -15.5q-1 -5 -1 -17q0 -1 -0.5 -3t-0.5 -4v-11.5t-1 -11.5v-32v-2q-1 -5 -1 -14.5v-14.5q0 -2 -0.5 -3.5t-0.5 -2.5v-6q-1 -3 0 -8.5t1 -7.5q-1 -9 -1.5 -26.5t-1.5 -26.5v-5q0 -19 -1 -28q0 -1 -0.5 -5t-0.5 -5q-1 -1 -1 -3.5v-3.5l-1 -2
q-1 -2 -1 -3q-2 -1 -4 -3h-5q-3 1 -6 3t-5 2q-1 -1 -2 -4t-3 -4q-1 0 -3 1h-3q-8 16 -10 48v9v10.5v8.5q2 17 0 33q1 7 0.5 24t1.5 23q-1 2 -1 5.5v5.5q1 16 1 104q0 2 0.5 7t0.5 7q0 7 0.5 22t0.5 21t1 18t1 17v14v30v6v27q0 3 0.5 9.5t0.5 9.5q-1 8 -0.5 34t0.5 32
q2 14 0 24q1 8 1 21.5v22.5q1 3 1 13v14v1l-1 1v37q1 0 1 28q0 14 4 15q1 0 3 -1q4 1 8 1.5t8 1.5h13.5t14.5 -1q1 0 2 -0.5t2 -0.5l8 -3q8 0 14 -3q4 -2 14 -6q3 -1 9 -5q1 0 8 -5l5 -5q6 -5 11 -11q1 0 2.5 -2t2.5 -3q1 -2 6.5 -10t7.5 -14q2 -3 5 -10t6 -11q1 -9 5 -19
q2 -10 3 -14q0 -3 1 -5q0 -4 1 -7q0 -1 0.5 -3.5t0.5 -4.5q3 -17 2 -18q1 -3 1.5 -10.5t0.5 -10.5q-1 -3 -1 -20.5v-21.5q0 -2 -0.5 -7.5t-0.5 -8.5l-1 -1v-2v-5t-1 -4l1 -1v-1q-6 -32 -11 -47q-1 -2 -4 -11t-5 -14v-3q-2 -1 -4 -8q-1 1 -1 0l-1 -1q0 -2 -1 -4t-1 -4
q-5 -5 -10 -15l-1 -1q0 -1 -1 0q0 -2 -1 -2l-1 -1q-6 -8 -9 -11q-7 -7 -9 -11q-20 -17 -22 -18q0 -1 -1.5 -2t-2.5 -3q-2 0 -4 -2q-1 0 -2.5 -1t-2.5 -1l-2 -2q-4 0 -11.5 -2t-12.5 -3zM109 97h2q1 2 4 5.5t5 5.5q3 6 8 9q0 2 1 3.5t2.5 3l2.5 2.5q-1 0 -1 1q3 2 5 6.5
t3 5.5q3 10 7 15v3l2 2q2 8 7.5 25.5t7.5 27.5q1 2 2 5.5t1 5.5q0 9 1 14t2 24.5t1 24.5q-1 0 -1 1q2 22 -7 63q-1 0 -1 1l-1 2v2q-1 4 -5 12t-5 12l-5 5q-1 1 -2 3.5t-1 4.5q-6 8 -12 14q-1 1 -3.5 2.5t-3.5 2.5l-2 2t-2 1h-2t-2 1q-12 3 -14 3h-7q0 -1 -1 -1q0 -4 1 -16
t0 -19v-12q0 -1 0.5 -2.5t0.5 -2.5q0 -4 -1 -16.5t-1 -18.5v-19l1 -1v-3q0 -2 -0.5 -6.5t-0.5 -7.5t0.5 -10t0.5 -10v-33q0 -4 -1 -6q0 -4 0.5 -10.5t0.5 -9.5t-0.5 -10.5t-0.5 -11.5q1 -6 1 -17v-18l-1 -1v-3.5t1 -3.5q-1 -5 -0.5 -17.5t-0.5 -17.5q0 -24 1 -30q9 7 13 13z
M51 324q1 2 0 2v-2zM55 -119q1 0 1 1h-1v-1z" />
    <glyph glyph-name="q" unicode="q" horiz-adv-x="267" 
d="M213 -231q1 0 13 3q1 0 4 0.5t4 1.5q1 -1 5.5 -1.5t6.5 -0.5q1 0 2.5 -2t2.5 -2q1 -3 5 -4q3 -8 11 -11q0 -2 2 -6t2 -8q-4 -4 -13 -6q-13 -10 -38 -8q-15 0 -19 -3q-4 0 -16 4q-1 3 -6 3q-1 1 -4 4.5t-5 5.5q0 3 -2 14t-2 17t0.5 23t-0.5 25q0 4 0.5 12t0.5 12
q0 1 -0.5 3t-0.5 3v35q0 7 1 10q0 12 -1 19q1 7 1 18.5v19.5v8q1 3 0 9t0 9q1 7 0.5 19.5t-0.5 18.5q-2 1 -17 9q-8 0 -20 10q-1 0 -2 1h-1h-1q-2 1 -3 1q-1 1 -3 2t-3.5 2t-3 2.5l-2.5 2.5q-11 4 -18 14q-1 0 -3.5 2t-3.5 2q-2 5 -6 8q-2 2 -3 2q-2 2 -6 9t-7 10q0 3 -3 4
q-2 5 -6.5 13t-6.5 12q0 4 -3 11.5t-3 11.5q-3 12 -7 31q1 2 1 6q-3 9 -1 24v13q1 6 1 23.5t2 26.5q0 16 3 22q4 29 10 45v3q15 37 29 56q0 1 2 3t2 3q2 2 6 8l4 5q5 5 8 7q1 1 1 2q1 1 4 3t4 3q5 5 31 21q3 0 6.5 1.5t4.5 1.5l7 2q7 2 10 0h2q3 -1 9.5 -4t10.5 -4
q0 -1 3 -3t4 -3q8 -4 15 -12q1 -3 2 -9t1 -7v-30q2 -11 1 -16v-6v-3v-13t-1 -13q-1 -1 -1 -2v-1q1 -1 1 -2v-7v-26q-1 -9 -1 -27.5v-30.5v-33q0 -31 -1 -36q2 -8 1 -24t0 -24q0 -3 -0.5 -8t-0.5 -7q0 -3 0.5 -9.5t-0.5 -10.5q1 -3 0 -10.5t-1 -10.5q1 -2 1 -6v-33v-19
q0 -2 -1 -7.5t0 -7.5q0 -3 0.5 -9t0.5 -10q-1 -4 -1 -14q0 -7 1 -8v-11q0 -8 -1 -11t0 -8t1 -7q0 -4 -0.5 -14.5t0.5 -13.5q-1 -8 -0.5 -23.5t-1.5 -22.5q1 -8 1 -28t1 -26q-1 -2 -1 -6.5t-1 -6.5zM157 395q-3 -4 -9 -7l-3 -3t-3.5 -4t-3.5 -3q-1 -1 -3.5 -3t-4.5 -3
q0 -1 -6 -7q0 -3 -3 -5q-1 -6 -6 -9q-2 -6 -4 -8q-6 -15 -9 -18q0 -3 -4 -9v-2q0 -1 -3 -11q0 -2 -2 -4q-1 -3 -1 -7t-1 -6q0 -1 -1 -3t0 -3q-1 -2 -1.5 -5l-1 -6t-0.5 -5t-2 -6.5t-2 -5.5q1 -2 0 -13.5t-1 -13.5v-1h1q-1 -4 -1 -11v-9q-2 -2 -0.5 -10.5t1.5 -9.5
q-1 -1 -1 -3t-1 -3q0 -3 2 -9q1 -3 1 -8.5v-7.5q0 -1 3 -8q-1 -1 0 -3t0 -3q3 -7 7 -21l6 -9v-1v-1l1 -1l2 -4q1 -1 2.5 -4t2.5 -4l3 -3l2 -4q3 -5 7 -8l3 -3q2 -5 12 -11q0 -1 3 -4l1 -1h1q2 -2 6 -4.5t5 -3.5q4 -1 8.5 -3.5t7.5 -3.5q0 10 0.5 29t0.5 28q0 1 -1 5.5t0 6.5
q-1 2 0 8t1 8q0 4 -0.5 14t0.5 13v20.5v25v21.5v8t1 8v7q0 1 -1 3v1q0 1 0.5 3t0.5 3v25q0 5 0.5 12.5t0.5 9.5q0 3 -0.5 8.5t-0.5 6.5q1 5 0.5 17.5t-0.5 17.5v4v6q0 2 0.5 5t0.5 4v3l-1 1q0 2 -0.5 10t-1.5 11q-2 1 -5.5 -1t-4.5 -2zM170 166h1h3v2q-4 0 -4 -2z" />
    <glyph glyph-name="r" unicode="r" horiz-adv-x="228" 
d="M174 284q-3 0 -5 1q-4 4 -7 32q0 1 1 1v1v8q1 1 1 3v3t0.5 2t0.5 2v9v11.5v10.5v7q0 1 -1 1q1 3 -0.5 7.5t-1.5 7.5q-1 5 -4 11t-4 9q-2 0 -4 2q-3 -1 -9 -4.5t-8 -4.5v-3q-9 -13 -12 -17l1 -2q-1 0 -2 -1l-1 -1q0 -3 -1 -3q-5 -3 -5 -13q-3 -3 -5 -12q-3 -1 -3 -9
q-2 -2 -4 -7t-4 -7q0 -1 -1 -5.5t0 -7.5q1 -1 0 -1l-1 -1q1 -2 1 -6.5v-6.5q-2 -8 -1 -19.5t0 -18.5v-2v-6v-1q0 -24 -2 -37v-26q1 -2 1 -13l-2 -2q2 0 2 -13v-15q-1 -1 -0.5 -6.5t-0.5 -7.5q1 -1 0 -4.5t-1 -5.5q3 -8 1 -21v-30q1 -5 0 -15.5t0 -15.5q-1 -2 -1.5 -9
t-2 -11.5t-4.5 -8.5q-4 4 -7 4q-1 -3 -0.5 -6t0 -6.5t-2.5 -4.5q-2 0 -4.5 1t-3.5 1t-3 -1q-3 3 -4 5q-12 12 -16 21q0 6 -1 7q2 53 1 79v88q0 1 0.5 1.5t0.5 1.5h-1v27q1 1 1 5q0 1 -1 3v2v3q0 3 0.5 9.5t0.5 9.5q-1 0 -1 4v9l1 1q0 3 -0.5 10t-0.5 12q1 1 1 12q1 19 0 35
q1 10 0 27.5t-1 27.5v28l6 2q5 2 7 4q4 0 6 2q0 -1 1 -1h1q6 1 21 -7q0 -1 2 -3q0 -2 1 -2q0 -4 2 -8q0 -10 1 -13q0 -2 -1 -2q3 0 5 5q1 0 8 5.5t11 7.5q1 2 5 3t5 2q22 6 35 7q21 3 40 -12q2 -3 3.5 -9.5t2.5 -8.5q3 -3 3 -8q1 -1 1 -2t1 -2q0 -5 2 -13.5t2 -14.5
q0 -1 1 -1q-1 -7 0 -14q-1 -5 -1 -17t-3 -18q0 -3 -3 -18q-2 -7 -8 -7h-2t-2 -1h-10l-1 1l-2 -1h-3.5t-2.5 1h-2q-2 -1 -2 -2z" />
    <glyph glyph-name="s" unicode="s" horiz-adv-x="190" 
d="M136 350q-1 -1 0 -1l1 -1q-1 -3 -8 -10q-2 0 -4.5 -2.5t-5.5 -1.5q-2 2 -8 4t-8 5q-1 0 -1 0.5t-1 0.5q0 6 1 7q0 11 3 15v3q10 28 1 46q1 3 -1 9q-1 1 -2.5 2t-2.5 2q-6 1 -11 -1t-9 -5t-7 -4q-3 -3 -5 -4q-1 -8 -1 -21q0 -4 0.5 -8.5t1.5 -9t1 -7.5q0 -1 1 -1
q0 -3 2 -9t2 -8l3 -6t2 -6v-4q1 -1 2.5 -3.5t1.5 -3.5l9 -18q3 -10 8 -15q1 -3 6 -14q0 -6 4 -9q1 -4 3 -9t2 -9q1 -1 2 -5t3 -5q0 -3 6 -20q0 -2 1 -2q0 -1 0.5 -3l1 -4t1.5 -3q0 -2 2 -8q1 -1 2 -4.5t1 -5.5l2 -5q1 -1 2 -1q4 -14 12 -38v-2q14 -44 16 -59q-2 -8 -1 -11
q0 -1 -2 -9t-2 -14q-1 0 -3 -5q-2 -3 -4 -14q-1 0 -2 -3t-3 -4q-1 -1 -2 -3t-1 -4q-13 -10 -14 -10q-1 -1 -3 -2t-3 -2q-7 -1 -21 -7q-13 -1 -27 7q-3 -1 -7 0l-3 1q-5 1 -7 6q-10 7 -18 24q0 2 -0.5 3t-0.5 3q-2 3 -3.5 9t-2.5 9q0 6 -1 9v6.5v7v5.5v3v4v3h1v1q0 6 2 9
q8 6 14 14q4 0 5 1q3 0 3 -1q9 2 9 -4q0 -2 -2 -8.5t1 -7.5q0 -9 -1 -15l1 -1q0 -23 9 -32l1 -1v-2t2.5 -3t3.5 -4q4 -2 5 -5q2 -2 5.5 -3.5t4.5 -2.5q15 4 20 30q-1 1 0 5t0 5l1 1q0 18 -7 39q0 4 -4 12q-1 4 -4 9.5t-3 8.5l-2 2q-1 5 -4.5 13.5t-4.5 11.5q-1 0 -1 1v1
q-1 6 -5.5 15t-6.5 15v1q-1 11 -8 21q-1 4 -4.5 13.5t-4.5 14.5q-1 0 -1 1t-1 1q0 2 -2 6t-2 7q-2 3 -4.5 10.5t-4.5 10.5q0 3 -1.5 8.5t-1.5 9.5l-2 2q-1 6 -4 16t-3 12q-3 4 -3 11q-2 3 -3 10t-2 9v20q2 20 6 28q1 3 3.5 8t3.5 9q1 1 3.5 4.5t5 5.5t5.5 3q2 2 12 10
q2 1 5.5 1.5t5.5 0.5h1l1 1q0 1 1 1h3q6 0 8 4q2 0 5.5 0.5t5.5 1.5h8h1v-1q5 1 20 -5q6 -6 8 -7q0 -1 1.5 -3.5t1.5 -4.5q2 -2 3.5 -7t3.5 -7v-8q0 -4 1 -6q-1 -2 -1 -5v-5q0 -1 -0.5 -1t-0.5 -1q0 -2 -2 -13q-1 -3 -1 -10q-1 -2 -1 -6l-1 -1q-1 -2 -1 -6q-1 -2 -1 -4
l-1 -1q0 -2 -1 -4v-1l-1 -1zM70 445q1 0 1 2h-1v-2z" />
    <glyph glyph-name="t" unicode="t" horiz-adv-x="202" 
d="M122 473q2 -1 7.5 -0.5t7.5 -0.5h1h1q2 -1 19 -3.5t22 -7.5v-2q-1 -2 -1 -3q-5 -13 -23 -18h-8q-3 0 -7 0.5t-6 0.5l-1 -1q-2 -1 -6.5 -1.5t-6.5 -1.5q-3 -18 -1 -21q-3 -17 -1 -22l-1 -1q1 -3 0.5 -14.5t-0.5 -15.5q0 -1 -0.5 -1t-0.5 -1v-3q-2 -4 -1 -7q0 -2 0.5 -5.5
t0.5 -4.5v-1q0 -2 -0.5 -10.5t0.5 -11.5q-3 -11 -1 -25q-1 -5 -1 -25v-15q0 -2 -1 -2q2 -5 1 -14.5t0 -14.5q0 -1 -0.5 -5t-1.5 -6q1 -1 1 -4t1 -4q-2 -2 0 -4q0 -1 -0.5 -1t-0.5 -1q0 -2 -1 -4v-13q0 -2 -0.5 -7t-0.5 -8q1 0 0 -13v-13q1 -4 0.5 -14.5t-0.5 -14.5
q1 -2 0.5 -9t1.5 -9v-4.5t-1 -3.5q1 0 1 -3v-3q0 -1 -1 -2q1 -3 2.5 -8t3 -9t3.5 -7v-2q2 -2 3 -2q4 1 6 4.5t4 9t3 7.5v2v1q1 1 2 1q1 7 6 17.5t6 14.5l1 1h2q10 -2 19 -2q2 -1 3.5 -2.5t2.5 -3.5t2 -3q1 -2 1 -19q-1 -3 -3 -10.5t-4 -10.5q0 -4 -3 -10t-3 -7q-4 -6 -5 -10
q-5 -3 -6 -8q-11 -11 -18 -13l-2 -2q-1 -1 -3 -1t-3 -1q-2 0 -4 -0.5t-3 -0.5q-4 0 -16 7q-2 -1 -4 0t-3 1q-2 4 -6 4q-3 4 -9 10t-10.5 11.5t-7.5 11.5q-1 1 -2 1q0 3 -2.5 7.5t-2.5 5.5q0 2 -1.5 7t-1.5 8l-1 2q0 3 -2 10t-2 11h1q0 2 -0.5 5t-0.5 4v21q1 2 1 7.5v8.5
q-2 13 0 25v13l-1 1q1 6 1 19q2 8 1.5 24t0.5 23q-1 1 -1 2q1 0 1 1v1q-1 6 -0.5 20t-0.5 19q0 1 1 1v19q0 4 0.5 10.5t0.5 9.5q0 8 1 23.5t1 22.5v9q1 4 1 14t1 15q0 2 0.5 8t-0.5 9l-1 1q-20 1 -36 10q-4 2 -5 2q0 1 -1.5 2t-1.5 2q-2 1 -5 1q-1 2 -1 5.5v5.5q14 14 32 10
h20q0 1 0.5 3t0.5 4v5q0 6 0.5 14t1.5 18.5t1 15.5q-1 9 0.5 29t1.5 27q0 29 2 41l-1 1q2 12 0 24q0 1 1 1v8q2 2 2 4q2 0 3 -1q1 2 4 3t3 2q9 4 22 2q6 -1 12 -5q8 -3 10 -14v-16t-1 -18q1 -1 1 -3.5t-1 -3.5v-5q0 -5 -1 -18t1 -17q-1 -3 -1 -12.5t-1 -14.5q-1 -1 0 -1
l1 -1q0 -3 -0.5 -7.5t-0.5 -6.5t0.5 -9t-1.5 -9v-22q-2 -6 -2 -16zM70 352q0 -1 1 -1t2 1h-3z" />
    <glyph glyph-name="u" unicode="u" horiz-adv-x="275" 
d="M122 37q4 1 8.5 7t8.5 8q0 1 1 2t1 2q2 1 10 17q2 1 2 5q9 9 14 25q2 1 3.5 4.5t2.5 4.5q0 8 -1 10q1 4 1 9v35q0 13 1 17v3v16.5t-1 15.5q0 2 0.5 7.5t0.5 8.5q0 14 1 43t0 44q-1 4 0 12t1 11q0 5 1.5 44.5t6.5 58.5q1 0 2.5 0.5t2.5 1.5q0 1 -0.5 1t-0.5 1q2 0 3 1l1 1
q1 0 5.5 -0.5t5.5 1.5q4 -1 15 -8q8 -12 7 -24v-6q0 -1 -0.5 -1.5t-0.5 -1.5v-15t1 -15q0 -2 -0.5 -5t-0.5 -4v-8.5t1 -8.5q-1 -1 -1.5 -3.5t-0.5 -3.5q1 -4 0 -15t1 -15q-2 -6 -2 -20.5t-1 -19.5q2 -10 1 -29.5t0 -30.5q0 -6 -1 -10v-5q0 -13 -1 -20v-2q1 0 0 -7v-7
q0 -1 0.5 -2.5t0.5 -2.5q-1 -1 -1 -2q1 -7 0 -14v-6.5v-6.5v-14q0 -1 -1 -1.5t0 -1.5q-1 0 0 -1t1 -2t-0.5 -3t-0.5 -3v-4.5v-4.5v-3q-1 -12 -1 -42q0 -3 -0.5 -8t-0.5 -7q0 -6 -1 -9q0 -4 -2 -12q-3 -6 -3 -7q-2 0 -3 -1q-1 0 -3 1t-4 0q-2 2 -7 4t-6 2q-4 4 -7 4
q-1 2 -3 5.5t-3 6.5t0 6q-2 1 -3 -1t-2 -2q0 -4 -4 -8.5t-4 -7.5q-3 -2 -6.5 -7t-6.5 -7q-3 -1 -7 -3.5t-7 -3.5h-7.5t-7.5 1q-4 2 -7 3q-1 0 -4.5 0.5t-4.5 1.5q-10 3 -16 11q-2 0 -2 1q-2 2 -3 2l-7 7q-6 7 -8 11v1q-1 1 -1 2q-1 2 -4 10q-4 12 -6 17q0 7 -2 17
q0 6 -1.5 20t-0.5 22q-1 2 -1 7v8q0 5 -1 20t0 22v17v20.5v17.5q0 2 -1 3q0 4 0.5 12t0.5 11v20q0 1 0.5 6t0.5 6q-2 14 1 26v3q0 54 2 80q0 4 1.5 12.5t2.5 12.5q3 16 4 18q2 0 3 1q4 4 6 5q2 0 5.5 0.5t5.5 1t4.5 0t4.5 -2.5q16 0 28 -20q0 -3 1 -5q-4 -19 -2 -45v-18
q-1 -21 0 -44q1 -1 0 -1l-1 -1v-2l1 -1q-2 -5 -2 -16.5t-1 -14.5q1 -10 -2 -55q0 -6 -1 -9q1 -1 1 -2q-1 -20 0 -43q-1 -3 -0.5 -9.5t-0.5 -9.5v-9t-1 -9v-13t1 -12q0 -3 -0.5 -12t0.5 -11q0 -6 0.5 -11.5t1.5 -12.5t1 -11q0 -1 2 -9t4 -11zM61 313q0 3 -1 4v-3z" />
    <glyph glyph-name="v" unicode="v" horiz-adv-x="263" 
d="M98 11q-3 -2 -10 0q-13 14 -14 38q-2 16 -3 23q-1 11 -3.5 31t-3.5 29l-3 23.5t-2 22.5l1 1l-3 29q-1 2 -1 5.5v5.5q0 1 -0.5 4.5t-0.5 5.5q-1 3 -1 9v10q0 2 -1 8.5t0 9.5q-1 5 -2 15.5t-3 14.5q0 2 -0.5 6t-0.5 7q0 1 -3 25q-2 7 -2 22q0 2 -2 8q0 8 -1 12q0 2 -1 6.5
t-1 6.5q-1 4 -2 15.5t-3 17.5q0 18 2 21q8 2 13 5q3 -1 8 -0.5t7 0.5l4 -2q1 0 3.5 -1t3.5 -2l3 -3l5 -5q1 -2 7 -20q0 -2 0.5 -4t0.5 -3t-1 -2q3 -2 3 -12q2 -8 2 -15q1 -1 1 -6q1 -3 0.5 -10.5t0.5 -10.5q0 -1 0.5 -3t0.5 -4q0 -3 0.5 -12.5t1.5 -13.5v-7.5t1 -6.5v-22
l3 -18q1 -1 1 -3l1 -2q0 -8 1 -12q0 -2 1 -4t1 -4q1 -3 1.5 -11.5t0.5 -10.5q1 -4 1 -11.5v-12.5q3 -12 3 -13l-1 -1q0 -1 1 -2q2 -18 2 -31q1 -6 1 -22.5t2 -23.5q1 1 1.5 3t0.5 3t1 4.5t1 5.5q9 36 13 62q1 1 1.5 4t0.5 4q2 8 4 27t5 28v1q-1 1 -1 2q3 11 7 35v8
q1 5 3.5 15.5t3.5 16.5l3 18q1 3 2.5 8t1.5 6v5q1 3 3.5 12.5t3.5 14.5q3 10 4 13l3 9q0 3 1 8.5t1 7.5l2 4v3.5t1 4.5q1 4 2 10t2 10q1 1 2.5 3.5t2.5 3.5q8 -2 13 -2q1 0 3.5 -1.5t4.5 -1.5q10 -8 12 -16q1 -19 -4 -39q0 -1 -3 -19q-2 -7 -1 -9q0 -1 -1 -5t-2 -6v-1
q-1 -1 -1 -2q-1 -1 -1 -4v-5t-1 -5t-1.5 -5.5t-0.5 -4.5q-1 -1 -1 -2q-4 -29 -7 -39q1 -2 0 -4t-1 -3v-3.5t-1 -3.5q0 -5 -2 -13q0 -1 -1 -4t-1 -4q0 -2 -0.5 -9t-1.5 -10l-3 -12q-3 -13 -3 -14q0 -9 -3 -15v-1.5v-1.5t-2 -13.5t-4 -17.5q0 -4 -1.5 -10.5t-1.5 -9.5
q-1 -3 -2 -8.5t-2 -7.5q0 -2 -1 -5.5t-1 -4.5q-3 -11 -4 -13q-1 -3 -1 -9q-1 -2 -2.5 -6t-2.5 -6q0 -6 -1 -8q-1 -3 -2.5 -8t-1.5 -6t-9 -28q0 -3 -1.5 -7.5t-1.5 -7.5q0 -1 -2 -4t-2 -5l-3 -6q-1 0 -6 -2.5t-8 -1.5q-5 -2 -11 1l-6 3q-5 1 -8 6z" />
    <glyph glyph-name="w" unicode="w" horiz-adv-x="333" 
d="M237 9q-4 -1 -7 -9q-5 0 -7 2h-12q-4 -3 -11 1q-9 7 -11 12q-5 5 -5 14q-1 0 -1 1l-1 2q-2 12 -4 17q-1 6 -5 18q-1 2 -1 7v7l-3 6q0 1 -1 3v2q0 1 -1 7t-2 9q0 1 -1 3t-1 3q-1 2 -1 6q-1 2 -2.5 10.5t-3.5 13.5q0 6 -2 14t-2 10q-1 0 -1.5 -2t-1.5 -2q-1 -12 -6 -23
q-2 -6 -2 -9q-1 -1 -2 -7t-3 -8q0 -5 -3 -13t-4 -13q-1 -1 -1 -3v-3q-2 -4 -2 -7l-2 -4v-3h-1q-1 -1 -1 -2.5t-1 -2.5q-1 -2 -3 -8l-3 -9q-1 -1 -1 -3v-3q-1 -1 0 -1v-1q-3 -7 0 -10q-1 -5 -4 -8q-1 -4 -4 -8.5t-4 -6.5q-20 -7 -22 -7t-14 2q-2 4 -6 5l-3 3q-1 1 0 1l1 1v3
q-1 1 -2 2.5t-2 2.5q0 1 -2.5 8t-3.5 12q0 8 -1 11h1v1q-2 3 -2 12.5v11.5q-2 8 -2 13v7v11.5v9.5q0 2 -0.5 6.5t-1.5 6.5v11.5t-2 14.5q0 21 -1 25q-1 5 -0.5 14.5t0.5 13.5q0 3 -0.5 9t-0.5 8v1v9q0 3 -0.5 9.5t-0.5 8.5v1q0 4 -0.5 18.5t-1.5 23.5q1 2 0 8t-1 8
q0 14 -2 38q1 0 1 1q-2 4 0 11q-1 3 -1 13t-1 12v60q0 2 1 2v3q1 2 1 4h1h1h1h2l1 1h5q2 1 11 1q3 -1 7.5 -4t5.5 -4q0 -1 1 -2.5t2 -2.5t1 -2q0 -3 1.5 -9l2.5 -10l-1 -1l1 -3q1 -4 1.5 -13t1.5 -13q0 -8 2 -22q0 -6 1.5 -18t0.5 -19q2 -6 2 -21.5t2 -22.5v-1h-1
q1 -8 1.5 -23.5t1.5 -23.5q-1 -1 -1 -3.5t1 -3.5q0 -2 -1 -3q2 -6 1.5 -17t0.5 -17v-1l1 -2q2 -6 1 -18.5t1 -17.5q-1 -1 -1 -1.5v-1.5q2 -5 0 -10q1 -4 1 -11v-10q0 -2 2 -6v-13q1 11 6 21q5 17 6 20q1 1 1 3.5t1 3.5q0 1 2 5l1 3q1 3 2 4q0 3 1 4q1 2 1 4q1 2 9 25
q1 8 5 15q2 10 9 22q-1 1 0 2.5t0 2.5q2 0 3 -1q0 1 1 3t1 3q2 -1 7.5 -1.5t6.5 -0.5v-1l1 -2q1 -1 2 -1q1 -1 2 -3.5t1 -3.5q1 -5 5.5 -15t6.5 -16l1 -1l1 -1v-3q4 -6 11 -30q1 0 1 -1t1 -2q0 -3 1 -6.5t1 -5.5q3 -4 5 -16q1 -1 1.5 -4t2.5 -4q0 -3 1 -4q1 -8 7 -29
q0 -1 2 -5q0 -3 1 -5q1 2 1 13q5 38 5 47q1 0 1 1v1q2 32 4 51l1 2q0 3 2 22q1 2 1 9q1 1 1.5 3.5t0.5 3.5q0 3 0.5 10.5t1.5 10.5t1.5 10t0.5 9t2 8q0 2 1.5 14t3.5 17q0 2 0.5 8.5t-0.5 7.5q1 1 1.5 4.5t0.5 4.5t2 7v11q0 1 1 7t2 8q0 3 1 9.5t1 9.5q2 10 2 12q0 4 2 16
q3 25 1 30q1 1 1.5 4.5t1.5 4.5q2 -1 6.5 -0.5t5.5 0.5q5 2 17 -3q2 -1 4 -4.5t3 -4.5q1 -2 2 -5.5t2 -5.5v-4v-4v-12v-9t-1 -9q0 -1 -0.5 -3t-0.5 -3v-6q-3 -15 -3 -16q-1 -3 -1 -8v-8q0 -2 -2 -8t-2 -10q-2 -22 -4 -25q0 -18 -3 -24q-2 -29 -5 -40v-3q-1 -3 -1 -9
q0 -1 -1 -4t0 -4q-1 -4 -1.5 -9t-1 -11.5t-0.5 -9.5q0 -1 -1.5 -6.5t0.5 -5.5q-2 -10 -2 -25q-2 -12 -2 -18q-1 -4 -1 -13h-1v-1q0 -10 -2 -29.5t-2 -30.5q-1 -3 -1 -18q0 -1 -0.5 -1t-0.5 -1q0 -2 -0.5 -8t-1.5 -8v-3t1 -2l-1 -5q0 -5 -2 -7q0 -1 -3 -16q-2 0 -2 -1
q-1 0 -3 1t-3 0q-1 0 -3.5 1.5t-2.5 3.5z" />
    <glyph glyph-name="x" unicode="x" horiz-adv-x="263" 
d="M188 28q-1 -1 -1 -2l-1 -2q-2 -9 -11 -7q-2 0 -4.5 -2t-3.5 -2l-1 -2q0 -1 -1 -1q-4 -1 -7 4q-2 4 -3 5q-3 8 -5 17l-12 60q0 6 -8 39q-4 -14 -5 -21q-2 -2 -1 -5q-1 -1 -2 -4t-3 -4q0 -4 -3 -8.5t-4 -6.5q-2 -2 -2 -4h-1l-3 -6t-2 -6q-1 -1 -2 -1q-1 -3 -4 -8t-4 -7
q0 -3 -2 -6.5t-2 -5.5q-6 -10 -10 -23l-6 -6q-1 -3 -10 -8q-7 2 -9 -4q-1 0 -6 5q-6 -4 -12 -5q0 -1 -1 -1q-7 2 -6 9t5 12q3 10 11 26l15 44q0 2 2 6.5t2 5.5v1l6 15q0 5 1 5q10 34 12 40v2q2 6 4 18q4 9 13 39q0 4 1 6q3 10 3 12q-3 13 -3 14q-2 6 -3 10q-3 12 -10.5 35
t-8.5 27q-1 1 -2 5t-2 5q0 2 -2 8t-2 10q-5 11 -11 34t-8 30q0 3 -1 4q0 1 1 1q-2 2 -2 7t-1 6q1 5 -1 11q1 1 1.5 3.5t1.5 3.5q7 -2 13 2q25 2 34 -22q-2 -1 2 -5q0 -1 0.5 -3l1 -4t1.5 -3v-1q1 -1 1 -2l1 -1v-2q0 -2 2 -4q0 -2 0.5 -6t1.5 -6l5 -12v-5q0 -3 3 -9.5
t2 -10.5q4 -10 5 -15q2 -2 2 -5t1 -4v-2q1 -2 2.5 -5.5t2.5 -5.5q2 5 5 14.5t5 14.5q0 4 3 10q0 2 1 4.5t2 3.5v1q1 2 2 5.5t2 5.5l-1 1q1 5 5 13q3 13 9 25q1 6 7 20q1 8 7 19l3 3q2 0 7.5 -1t8.5 -1.5t7 -2.5t5 -5v-3q4 -6 -1 -25q-1 -3 -3 -7t-2 -6v-1l-1 -2l-1 -2v-2
q-2 0 -2 -1q-1 -1 -1.5 -3t-0.5 -3t-2 -3q-1 -2 -1 -5t-1 -5v-1v-1q0 -2 -1 -2v-6.5t-1 -6.5q-1 -3 -2 -8.5t-2 -8.5q0 -2 -2 -6q0 -1 -0.5 -3t-0.5 -4q0 -1 -1 -1l-1 -2v-3q0 -1 -0.5 -3t-1 -3.5l-1 -3t-0.5 -2.5q-3 -10 -8.5 -25t-7.5 -23v-4l-1 -3q0 -2 -1 -3q1 -1 0 -4
t-1 -4q-5 -13 -4 -17v-10q1 -2 -0.5 -5.5t-1.5 -4.5v-2q1 -1 1 -2t1 -6t2 -7v-5q0 -1 2 -9t4 -11q0 -2 6 -31q1 1 1 0q0 -6 2 -14q0 -1 3 -10q0 -3 1 -8.5t1 -7.5t1 -5.5t2 -5.5q0 -9 2 -13l-1 -1q1 -3 2.5 -11.5t3.5 -11.5v-4q1 -1 3 -7q4 -8 4 -10q-1 -6 -9 -8z" />
    <glyph glyph-name="y" unicode="y" horiz-adv-x="271" 
d="M106 -209q0 1 -1 1l-1 2q-3 0 -6 3.5t-4 3.5l-3 6q-1 0 -3 2t-3 2v3q-1 0 -2 1l-1 1l-9 21.5t-10 26.5q-9 15 -7 32q-2 2 1 15l5 5q1 0 2 1q2 0 2 1q17 2 21 1q3 -1 6.5 -3.5t4.5 -3.5l3 -6l3 -12.5t4 -11.5q-1 -5 5 -14q0 -1 0.5 -2.5t0.5 -2.5q7 -14 7 -15q8 -8 11 -13
q6 -2 7 -2q4 4 9.5 15t9.5 15h3q1 1 3 17q0 3 2 11q0 1 0.5 5t0.5 5l2 2l3 62q1 11 0.5 30.5t-0.5 27.5v1q0 1 -1 1q-17 -13 -33 -18q-15 -1 -41 12q-1 4 -6 4q-15 13 -17 17h-2q0 1 -2 4t-2 4q-4 6 -7 9q-7 25 -8 30q-2 3 -3 12.5t-2 11.5q-1 17 -3 47q-1 5 -1 13.5v12.5
q0 2 -1 8t0 9q-1 5 -1 16v15v1v2v17q0 2 -0.5 4t-0.5 4v56v10q0 10 0.5 35.5t-0.5 35.5v20.5t1 21.5q0 1 0.5 1t0.5 1q1 4 1 11q1 2 3 5t2 4q6 2 10 4q32 1 42 -20q0 -19 3 -32v-2l-1 -1v-11q0 -1 0.5 -4t0.5 -5v-11v-16t1 -16l-1 -1v-2v-16q0 -4 0.5 -11t0.5 -10
q0 -25 -1 -40q0 -3 0.5 -7t0.5 -5v-21t1 -20q0 -1 -0.5 -1.5t-0.5 -1.5q1 -6 1 -23q2 -12 0 -14q1 -7 1 -25.5t1 -25.5v-1q-1 -1 0 -2q1 -2 1 -8q1 -2 1.5 -8t2.5 -9l6 -24q2 -3 4 -9q2 0 2 -2q1 0 1 -1l1 -2q5 -9 10 -9q4 0 9 7q1 1 3.5 4t4.5 5v4q3 8 7 12q8 33 8 36v12
v12v10v22v6l1 1v1q-1 33 4 74q-2 6 -0.5 19.5t0.5 18.5q0 2 1 8t1 8q0 4 -0.5 12t-0.5 12v64v9t1 12t3 8q0 1 -1 1q0 1 -1 2q0 5 2 16t3 17q4 4 4 6q3 1 3 3q2 0 6.5 0.5t6.5 1.5q1 0 10 -3l1 1q1 0 7 -3q4 -2 5 -5q2 -2 3 -2q2 -4 1.5 -12t1.5 -11q0 -4 -1 -4q2 -7 2 -21
v-11q0 -20 1 -22q-1 -4 0 -18t-1 -19q1 -19 -3 -53v-18q0 -1 -1 -3t-1 -4q0 -21 -2 -27q1 -3 0 -6q-1 -1 0 -1l1 -1q0 -3 -1.5 -10t-1.5 -11v-12.5t-2 -14.5q1 -4 0.5 -16.5t-0.5 -17.5q-2 -3 -2.5 -12t-1.5 -12q0 -4 -0.5 -13t-0.5 -14q2 -10 -1 -14q1 -3 1 -8v-7v-2
q-1 -2 -1 -3l1 -2v-2v-4v-5t-1 -4q1 -3 0.5 -10.5t0.5 -10.5v-9.5t-1 -10.5l-1 -1v-2t0.5 -3.5t0.5 -3.5q-2 -14 -1 -27q1 -1 1 -2q-2 -9 -1 -12q-1 -4 -0.5 -15.5t-1.5 -15.5v-4t1 -4q-2 -2 -2 -7.5v-7.5q0 -1 -1 -3q0 -27 -4 -34v-2l1 -1q-2 -3 -2 -11q-1 -1 -1 -3l-1 -2
q0 -2 -11 -29q-12 -14 -19 -20q-2 -1 -5.5 -3.5t-5.5 -3.5q-2 0 -6 -1.5t-5 -1.5h-9t-8 -1q-8 3 -10 2q-1 1 -9 3q-7 4 -9 3z" />
    <glyph glyph-name="z" unicode="z" 
d="M76 43q4 -3 14 -1q4 0 19 3q10 -1 31 1t30 2l15 -6q6 -12 -1 -14q1 -2 -1 -5l-2 -3q-2 -1 -6.5 -6t-7.5 -7q-1 -1 -1 -2q-11 -6 -26 -3q-2 -1 -6 -1t-6 0.5t-3 -0.5q-1 0 -1 1h-1q-30 -2 -48 -2q-4 0 -11 0.5t-10 0.5q-12 3 -17 10h-2q-5 7 -7 8q0 5 4 13v6q0 9 1 13
q7 17 8 24q3 4 9 21q0 2 2 5t2 4q1 2 2 5.5t2 5.5q1 3 4 9t4 9v2q0 2 1 5t2 5q1 3 3.5 7.5t3.5 6.5q4 14 7 20l1 1v1q0 1 3 11q1 3 3.5 7.5t3.5 5.5l6 21l3 9l9 23v2q1 0 1 1q2 5 7 21t8 24q1 6 4.5 15t4.5 16q1 2 3 7t4 7q0 5 1 7q2 4 5.5 13t5.5 13q1 11 7 22q0 3 1.5 7
t1.5 8q-33 0 -42 2h-1l-1 -1q-1 0 -5 1t-6 2q-21 5 -39 25q3 16 33 18l11 1q10 0 11 -1q0 1 1 1h21h13q10 -2 29 -2h1q5 0 7 1t5 1h4q6 -1 15 -10q0 -2 2.5 -7.5t1.5 -10.5q-1 -1 -1.5 -5t-1.5 -5v-4q-1 -1 -1.5 -3.5t-0.5 -3.5t-1 -2.5t-2 -2.5q0 -2 -0.5 -7t-1.5 -7l-3 -6
q0 -5 -2 -6q1 -1 1 -3q-2 -2 -2 -5l-9 -24l-1 -1q-3 -14 -7 -19q-4 -19 -20 -52q0 -3 -2.5 -8t-2.5 -8l-1 -1q-4 -13 -13 -27q-1 -4 -2.5 -8.5l-3.5 -10t-3 -8.5t-3.5 -9.5t-3.5 -10.5l-1 -1q-2 -7 -4 -9q0 -5 -2 -5q-1 -4 -4 -12q0 -1 -2 -3q-1 -1 -1 -2v-2q-2 -8 -11 -24
q0 -3 -3 -7t-3 -7l-1 -1q-1 -2 -2 -3v-3q-3 -2 -3 -6l-1 -1q0 -3 -2.5 -7.5t-3.5 -8.5q-3 -3 -5.5 -10.5t-4.5 -10.5q-2 -15 -5 -17q0 -1 -1 -3t0 -2q-1 -1 -1.5 -3.5t-1.5 -3.5z" />
    <glyph glyph-name="braceleft" unicode="{" horiz-adv-x="138" 
d="M121 12l4 1h-1l-1 -1h-2zM5 400l2 1q0 5 6 7q14 5 24 13l10 7q18 24 20 62q0 13 -5 30q-2 2 -2 5l-7 24q-8 28 -10 43q-5 37 6 71q3 8 17 26l-1 -2l2 4q9 16 25 18q8 1 28 -8l1 -1l6 -8v1q3 -4 4 -13t-3 -15l-10 -4l-3 -1q-10 -9 -19 -26l-1 -3l-2 -4q-10 -24 -7 -45v1
l3 -10q0 -1 0.5 -4t0.5 -4v-4l4 -12l2.5 -7.5t2.5 -8.5t1 -8q1 -4 4 -14t4 -15q0 -1 0.5 -3.5t0.5 -3.5q0 -3 1 -5q0 -2 0.5 -4t0.5 -3q1 -3 1 -13q-3 -57 -38 -80q6 -8 11 -19v2q4 -4 6 -9q0 -7 1 -9q0 -3 3 -8q7 -27 8 -37q1 -20 -8 -76l-4 -25q-1 -2 -1 -4l-2 -10
q0 -6 -2 -12q-2 -4 -2 -11q0 -2 -0.5 -8t-0.5 -8v-15q0 -1 0.5 -1.5t0.5 -1.5q2 -6 2 -11v-7q0 -10 1 -15q1 -4 6 -10l6 -12q12 -15 19 -19h-2h1q1 -1 2 -1q20 -10 21 -15l-1 1q1 -5 1 -6l-1 -2v-1q3 -12 3 -13q-5 -7 -14 -7h-1q-1 -1 -2 -1q-2 -2 -7 -2q-16 -1 -38 18l1 -1
l-2 2q-9 5 -13 12q-16 19 -22 33q-13 33 -11 92q0 12 1 17v2q1 2 1 3q1 3 1 8q0 2 0.5 6t0.5 5q1 18 5 42l6 44q0 2 0.5 6t0.5 5q4 43 -4 57v-2l-3 3h1q-25 11 -27 15l-7 14l-2 3z" />
    <glyph glyph-name="bar" unicode="|" horiz-adv-x="117" 
d="M84 -58l-7 -6q0 -1 -1 -4h-7q-7 0 -10 5l-7 7h1q-12 8 -15 23q-3 8 -3 29v82q0 5 0.5 13t0.5 12q-1 14 -1 51v50q0 10 0.5 31t0.5 31v56q0 40 2 57q0 15 -1 19q0 3 -0.5 9.5t-0.5 8.5q3 33 3 67v32q0 3 0.5 8.5t0.5 8.5v15q0 1 -0.5 2.5t-0.5 3.5q0 6 0.5 17.5t0.5 17.5
v66q0 4 -0.5 13t-0.5 12l1 1q3 3 15 7l9 2q5 -5 11 -6q1 0 4 -1t4 -1.5t3.5 -2t3.5 -3t2 -4t1 -5.5l-1 -2v-4v-6q0 -10 2 -28v-42v-22q-1 -11 1 -35v1q1 -8 1 -28q0 -44 -2 -62q0 -11 1 -15q0 -3 0.5 -8.5t0.5 -7.5q0 -1 -0.5 -3.5t-0.5 -3.5q-3 -15 -3 -23q0 -12 2 -32
q0 -5 -0.5 -14t-0.5 -13v-46q0 -4 -0.5 -12t-0.5 -13v-20q0 -8 -3 -17q0 -5 2 -10v-24v-41q0 -31 -2 -48v-7l1 -7q0 -7 -1 -7q-1 -15 -1 -48t1 -48q0 -10 -1 -16q0 -1 -1.5 -3.5t-1.5 -3.5q-1 -1 -1 -5z" />
    <glyph glyph-name="braceright" unicode="}" horiz-adv-x="150" 
d="M24 13h-1l4 -1h-1zM146 405l-8 -14v2l-2 -5q0 -1 -1 -3.5t-1 -3.5q-5 -6 -29 -18h1l-3 -3v2q-8 -14 -4 -57q0 -2 0.5 -5.5t0.5 -5.5l6 -44q4 -24 5 -42q0 -1 0.5 -5t0.5 -6q0 -5 1 -8q0 -1 0.5 -3t0.5 -3v1q1 -6 1 -17q2 -59 -11 -92q-9 -18 -22 -33l-12 -12l-5 -2l3 1
q-22 -19 -38 -18q-5 0 -7 2l-3 1q-9 0 -14 7q-1 3 2 13l1 1q-1 1 -1 2l1 6l-1 -1q1 5 21 15l4 2l-3 -1q9 5 16 15v-1l2 4q7 9 7 12q5 7 6 11q1 5 1 15v7q0 5 2 11v-1v1q1 2 1 3q0 3 -0.5 8t-0.5 7v16l-2 11q-2 6 -2 12l-2 10q0 1 -0.5 2.5t-0.5 2.5l-4 24q-9 56 -8 76
q1 14 9 40q0 3 1 5q0 5 3 9h-1q0 1 7 10v-1q2 4 5 9.5t4 7.5q-34 21 -37 80q0 10 1 13q0 1 0.5 3.5t0.5 3.5t0.5 2.5t0.5 2.5q0 4 2 8l-1 -1q1 5 4 15t4 14l6 24l4 12v4q0 1 0.5 4t0.5 4l3 10v-1q3 21 -7 45l-4 9q-9 17 -18 24q-2 1 -3 1l-10 4q-4 6 -3 15t4 13v-1q5 7 6 8
l1 1q20 9 28 8q14 -2 25 -18l2 -5l-1 3q14 -18 17 -26q11 -34 6 -71q-2 -15 -10 -43l-7 -24l-1 -2l-2 -4l1 1q-5 -17 -5 -30q2 -38 20 -62l10 -7q12 -8 29 -16h6z" />
    <glyph glyph-name="asciitilde" unicode="~" horiz-adv-x="267" 
d="M27 296q6 14 24 32q10 10 25 19q14 6 25 3q13 -2 28 -16q3 -3 9 -9.5t9.5 -10t9.5 -7t13 -4.5q13 -1 27 22q1 1 3.5 7t4.5 8t6 1q1 0 2 -0.5t2 -0.5q11 -6 11 -9q2 -5 -0.5 -13.5t-2.5 -12.5q-16 -38 -50 -40q-10 -1 -24 9q-11 4 -18 12l-9.5 9.5t-12.5 11.5t-11 5
q-17 4 -37 -22q-2 -12 -16 -7q-14 7 -18 13z" />
    <glyph glyph-name="exclamdown" unicode="&#xa1;" horiz-adv-x="131" 
d="M32 400q-7 10 -7 33q0 19 8 27q8 6 13 6q10 0 14 -2q11 -2 18 -12q10 -9 13 -20q3 -9 0.5 -13.5t-10.5 -9.5l-11 -7q-1 -1 -11 -5q-1 0 -2.5 -1t-2.5 -2t-2 -1q-16 2 -20 7zM43 -218q2 19 0 62q0 28 -2 86q-3 193 -3 194l-3 61.5t-2 60.5q-3 77 9 90q1 1 10 6
q2 2 4.5 6.5t4.5 7.5t5 4q2 1 6 -2.5t6 -4.5l3 -6q0 -6 3 -72q0 -3 3 -116q1 -10 1 -29.5v-28.5q0 -3 3 -60q0 -2 -1.5 -22t0.5 -24q2 -28 3 -44q0 -5 0.5 -15.5t0.5 -14.5q-2 -8 -2 -14q0 -2 0.5 -8t0.5 -9q0 -7 -1 -19t-1 -18q0 -7 0.5 -19.5t0.5 -17.5q0 -2 -1 -7.5
t0 -8.5q0 -2 2 -7.5t1 -9.5q-1 -5 -4.5 -8.5t-6.5 -5t-10 -3.5t-8 -2q-3 3 -9.5 5t-8.5 5q-1 1 -2 4t-2 4z" />
    <glyph glyph-name="cent" unicode="&#xa2;" horiz-adv-x="273" 
d="M169 167q-3 -8 -3.5 -28.5t-4.5 -29.5q-2 0 -4 -2q-7 -2 -15 2q-1 0 -2.5 -1.5t-3.5 -2.5q-2 0 -5 2t-4 2q-5 11 -5 46q-10 8 -3 21q-1 1 -5.5 5t-6.5 6q-7 3 -14 11.5t-11 11.5q-30 48 -23 146q5 86 28 131q6 14 25 27q7 7 17 4v14l-1 2l-2 4v15v16q0 1 3.5 5t2.5 8
q1 1 6 4.5t8 4.5q8 2 21 -7q2 -4 2 -16q0 -4 1 -14t1 -15v-20q11 -6 21 -14q13 -15 12 -24q0 -1 1.5 -3t1.5 -3q0 -3 1 -9.5t1 -8.5q0 -9 -4 -25q-3 -15 -4 -19q-3 -4 -10 -7.5t-9 -5.5q-11 3 -16 8q0 3 -2 12t-2 15q0 4 2 16.5t1.5 19.5t-5.5 11q-1 0 -2 -1.5l-2 -3
t-2 -2.5q-5 0 -7 1q-2 -2 -3 -6v-3q-1 -5 -4 -15.5t-4 -15.5v-12t-1 -12l-2 -4q-1 -4 0 -11t1 -11q-3 -27 -3 -28v-15q-1 -3 0 -7t1 -5q-2 -2 -2 -4v-12t-1 -12q0 -3 1 -5v-28q0 -1 1 -3t1 -3v-8q0 -2 2 -5.5t2 -4.5q5 -23 8 -27q12 4 25 34q3 8 4 13q2 11 5 19q2 4 6.5 10
t5.5 9q1 -3 5 -3.5t6 -1.5q1 -1 3 -5q6 -6 7 -9q1 -1 1 -6q4 -9 3 -16q-2 -16 -2 -21l1 -3q0 -2 -2.5 -8t-2.5 -9v-7q0 -3 -2.5 -8l-3.5 -7q-8 -16 -11 -19q-4 -2 -11 -7t-12 -7z" />
    <glyph glyph-name="sterling" unicode="&#xa3;" horiz-adv-x="312" 
d="M196 493q-7 22 -7.5 32t4 31.5t4.5 31.5q0 25 -4 41q-2 8 -9 15.5t-15 6.5q-3 0 -17 -9q-18 -14 -29 -42q-3 -4 -2 -26.5t1 -27.5q0 -18 1 -19q-2 -1 -2 -6t1 -19.5t0 -22.5q0 -11 -1.5 -39.5t-0.5 -44.5h19.5t19.5 -1q2 0 6 -1.5t5 -1.5q5 0 8 -1q2 -1 4.5 -4t4.5 -4
q0 -3 2 -7.5t1 -7.5q0 -1 -2 -2.5t-2 -2.5q-2 -8 -3 -8q-21 -5 -65 -5q-2 -16 -2.5 -49.5t-0.5 -35.5q-1 -16 -2 -45.5t-2 -45.5q0 -14 -1 -21q0 -6 -2 -15.5t-2 -12.5q-1 -9 -16 -57q21 -3 47 -13q32 -12 42 -11q33 3 54 36q9 11 10 18q2 5 2.5 19.5t1.5 19.5q0 10 5 10
q2 0 6.5 -2t7.5 -1q2 -1 6.5 -3t6.5 -3q1 -2 2.5 -4t3 -3.5t3 -3.5t2.5 -3q3 -27 0 -41q-1 -4 -3.5 -10.5t-3.5 -8.5t-1 -6q-1 -3 -5 -9q-5 -13 -17 -23q-2 -2 -4 -6q-6 -4 -10 -6q-12 -9 -32 -14q-13 -2 -35 2q-22 3 -58 19q-24 11 -42 9q-12 -2 -16 -4q-16 -7 -16 -14
q-12 -6 -28 -3q-1 0 -4 2.5t-5 2.5h-6.5t-6.5 1q-1 1 -0.5 3t0.5 3q-6 4 -10 7q1 6 10 11.5t10 6.5q2 2 5.5 8.5t4.5 7.5q3 6 11 16q32 42 36 147q1 41 1 125q-1 1 -11 1q-14 -1 -34 7q-12 7 -13 12q-2 1 -10 8q0 1 7 8q5 5 8 6h6q3 1 7.5 3t6.5 2l6 -3q4 0 14 0.5t14 -0.5
q1 19 2 59t2 59q0 33 -1 39q0 3 -2 5q0 2 2.5 3t2.5 2q-1 71 54 107q27 17 48 16q28 -2 44 -12q4 -2 11 -9q9 -6 11 -10q12 -20 12 -59q-1 -6 -5 -21q-1 -2 -1 -5v-5q-1 -4 -4 -13.5t-4 -14.5q-4 -14 -6 -18q0 -2 -2 -4q-1 -3 -3 -7t-3 -7q-3 0 -8 -4t-8 -4z" />
    <glyph glyph-name="currency" unicode="&#xa4;" horiz-adv-x="227" 
d="M179 312l5 -7q5 -7 6.5 -9.5t4.5 -9t3.5 -12t-0.5 -11.5q0 -10 -7 -33q-9 -14 -10 -16q-13 -11 -17 -17q11 -14 19 -33q3 -5 8 -24q4 -11 0 -20q-5 -2 -15 1.5t-12 3.5q-8 8 -15 30t-12 30q-19 -2 -30 0q-10 -8 -25 -31.5t-28 -32.5l-10.5 3.5t-10.5 4.5q-5 1 -5 14
q0 10 5 19.5t13 19.5t10 14q0 2 2 4t2 3l-2 3q-3 2 -4 4q-15 17 -15 36q-2 23 4 38q1 8 9 24q0 4 3 5q0 4 2 6.5t5.5 5.5t4.5 5q-4 3 -8.5 12.5t-6.5 12.5q-1 2 -6 10t-9 12.5t-9 7.5v3l-1 2q5 7 25 9q1 -1 8.5 -4t12.5 -4q0 -2 6 -6q2 -3 5 -9l5.5 -11t4.5 -10q1 -1 3 -6
t4 -7q18 3 43 -6q8 17 32 49v4q2 2 8.5 4t8.5 4q3 -2 7 0q17 -14 18 -17q4 -2 4 -7t-4 -5q-19 -25 -39 -56zM113 214q10 2 13 6t6 12q0 3 1 4q6 10 8 15q8 20 8 34q0 23 -32 23q-1 -1 -9 -7q-17 0 -25 -17q-6 -6 -8 -13q-8 -32 2 -50q17 -11 36 -7z" />
    <glyph glyph-name="yen" unicode="&#xa5;" horiz-adv-x="246" 
d="M227 226q-1 -1 0.5 -2.5t1.5 -2.5q-2 0 -7 -5q-3 -1 -10.5 0t-10.5 1h-10q-2 0 -3 -1h-2h-2l-2 1q-6 0 -18 -0.5t-16 -0.5q0 -16 -2 -47.5t-2 -42.5q0 -9 0.5 -27.5t0.5 -26.5v-7q0 -2 -1 -4t-1 -8t-3 -8q0 -3 -1 -10t-1 -11q0 -20 -2 -22q-1 -3 -1 -6q0 -2 -3 -11h-8
q-2 0 -3 -1h-1l-8 4l-4 7q-1 1 -1.5 3.5t-2 4t-3.5 1.5q-5 11 -3 47q1 7 2.5 21t1.5 20v26q2 18 2 51.5t1 47.5q-32 5 -54 5q-2 1 -6.5 3.5t-7.5 3.5q-1 3 -5 6t-5 5q-4 4 -6 8q8 6 20.5 7.5t33.5 0.5t30 -1q0 6 -0.5 25t0.5 25q-4 1 -11.5 1h-12.5q-4 0 -10 1.5t-8 1.5
q-2 -1 -4 -1q-5 0 -13 6l-6 3q-4 7 -9 10q0 4 -2 4l-2 4t-2 3.5t-1 2.5t1 1t2 1t5.5 1t5.5 1q3 -2 9 -1.5t10 -0.5q31 -2 50 -1q0 2 -2.5 5t-3.5 5l4 2q-3 5 -4 11q0 3 -1.5 10t-1.5 10q-1 7 -7 18q-3 9 -8.5 28t-8.5 27q-10 26 -32 111q-16 48 -25 72q-9 31 -17 38q0 1 2 2
l2 1q3 1 7.5 2t5.5 1q3 -1 7 -1q1 -1 4 -2l2 -2q14 -2 27 -25q1 -2 3 -7.5t4 -7.5q0 -1 8 -19q0 -4 1 -5q0 -2 1.5 -6t2.5 -7q5 -12 13 -37t12 -36q0 -1 1 -5t2 -6q2 -5 5 -18t4 -18q9 -31 13 -40q0 -1 0.5 -2.5t0.5 -3.5v-3q1 -2 3 -3q2 7 7 23t7 25q2 4 4 15.5t5 16.5
q20 81 51 180q3 -1 4 2q2 -1 8 -1q4 -1 10 -7t11 -7q4 -9 5 -11q-3 -8 -8 -30.5t-10 -34.5q-1 -2 -3.5 -14t-4.5 -17q-1 -2 -4.5 -12.5t-4.5 -16.5q-2 -5 -4 -15l-3 -15q0 -1 -2 -7l-6 -21q-1 -2 -3 -10.5t-3 -11.5l-8 -21q-1 -5 -8 -30q0 -1 -2.5 -5.5t-3.5 -6.5l-6 -18
q-5 -21 -5 -25q0 -1 -2 -6t-3 -8q39 0 61 -1l1 -1q2 0 1 -1q0 1 1 0.5t3 -2.5q6 0 7 -1q1 0 0 -2.5t-1 -3.5t2 -2t5 -2t5 -2q-2 -3 -6.5 -4.5t-6.5 -3.5q0 -1 1 -2t1 -3q-5 -1 -6 -5q-7 0 -31 -1t-36 0q-2 -3 -2 -25.5v-25.5q5 0 28 -0.5t38 -3t24 -7.5q-3 -1 -2.5 -3
t-0.5 -4q1 -1 3.5 -2t3.5 -2q-2 -2 -7.5 -3.5t-7.5 -2.5z" />
    <glyph glyph-name="brokenbar" unicode="&#xa6;" horiz-adv-x="150" 
d="M83 306q-1 -1 -2 -1q-2 -1 -3 -1h-2q-1 -1 -4 -1q-2 0 -6.5 2t-6.5 3q-1 1 -6 1q-7 2 -10 11q-3 4 -3 14v30q0 3 0.5 11.5t0.5 13.5q-1 9 -1 26v26q0 10 0.5 31t0.5 30q0 20 2 29q0 4 -1 10.5t-1 8.5q3 18 3 35v16q0 4 0.5 9.5t0.5 7.5q0 1 -1 2v1q0 6 0.5 18t0.5 17
q1 6 0 15.5t-1 12.5l1 1q3 2 10 2.5t10 1.5q3 -1 10 -2t12 -3t6 -5l-1 -3v-3q0 -4 2 -14v-33q-1 -6 0.5 -17t1.5 -15q0 -22 -2 -32q0 -3 1 -8.5t1 -7.5q-4 -12 -4 -16q0 -6 2 -16q0 -4 -0.5 -14t-0.5 -14q0 -3 -0.5 -10.5t-0.5 -12.5v-10q0 -4 -4 -8q0 -4 3 -7v-33
q0 -15 -3 -24v-11q-2 -26 0 -50q0 -4 -1 -8q0 -1 -1.5 -2.5t-2.5 -3.5zM83 -141q-1 -1 -2 -1q-2 -1 -3 -1l-2 -1h-4q-2 0 -6.5 2t-6.5 3q-1 1 -6 1q-7 2 -10 11q-3 4 -3 14v30q0 3 0.5 11.5t0.5 13.5q-1 8 -1 26v26q0 10 0.5 31t0.5 30q0 20 2 29q0 4 -1 10.5t-1 8.5
q3 18 3 35v16q0 4 0.5 9.5t0.5 7.5q0 1 -1 2v1q0 6 0.5 18t0.5 17q1 6 0 15.5t-1 12.5l1 1q3 2 10 2.5t10 1.5q3 -1 10 -2t12 -3t6 -5l-1 -2v-4q0 -4 2 -14v-33q-1 -6 0.5 -17t1.5 -15q0 -22 -2 -32q0 -3 1 -8.5t1 -7.5q-4 -12 -4 -16q0 -6 2 -16q0 -5 -0.5 -14t-0.5 -14
q0 -3 -0.5 -10.5t-0.5 -12.5v-10q0 -4 -4 -8q0 -4 3 -7v-33q0 -15 -3 -24v-11q-2 -26 0 -50q0 -4 -1 -8q0 -1 -1.5 -3t-2.5 -3z" />
    <glyph glyph-name="section" unicode="&#xa7;" horiz-adv-x="206" 
d="M116 652q-38 -22 -32 -98q1 -15 5 -44q1 -3 2 -11.5t1 -10.5q4 -32 7 -48q0 -2 1 -6t1.5 -7t0.5 -5q2 -6 2 -7q1 -3 1.5 -10t0.5 -10q0 -2 0.5 -5.5t0.5 -5.5t2.5 -9t1.5 -11q12 -5 26 -19q14 -12 18 -26q5 -7 5 -17q0 -1 -1.5 -2.5t-2.5 -3.5q8 -28 7 -46q-1 -5 -3 -17
l-3 -21q-7 -40 -25 -58q0 -1 1 -3.5t0 -3.5q-1 -2 -4 -4t-4 -3q1 -4 2 -12.5t2 -12.5q1 -5 5 -18.5t6 -22.5v-12q0 -3 1.5 -8t1.5 -8l3 -18q4 -22 6 -55q2 -30 2 -44q0 -51 -1 -56q-1 -4 -1.5 -11.5t-0.5 -11.5q-1 -3 -2 -9t-2 -9q-5 -19 -9 -25q0 -1 -1 -2.5l-2 -3t-1 -2.5
q-2 -3 -6 -6.5t-5 -6.5q-1 0 -10 -6q-1 0 -3.5 -0.5t-3.5 -1.5q-6 -8 -9 -6q-12 -14 -24 -10q-6 1 -15 7q-31 14 -41 37q-14 31 -17 78q-3 35 5 75q10 46 18 58q2 -1 5 -3t5 -2q2 -4 10 -18t11 -24q2 -6 2 -8q1 -3 -2 -11.5t-3 -11.5v-9q-2 -2 -2 -5v-15q-1 -13 0 -25
q3 -12 8 -22q3 -11 9 -18q12 2 34 24q4 22 4 34q1 71 -24 229q-4 1 -11.5 3.5t-11.5 3.5q-22 7 -33 39q-16 45 1 116q8 34 33 63q-12 69 -14 91q-11 88 -11 97q0 66 16 101q16 34 36 47q20 12 31 12q19 1 38 -18q3 -3 8 -9t8 -9q18 -27 13 -75q-1 -1 -3 -4q1 -4 -0.5 -8
t-1.5 -5v-8q-2 -6 -2 -7q0 -7 -1 -9q0 -2 -2 -14q0 -1 -1 -6t-2 -7t-4 -5q-2 -8 -4 -12q-3 -13 -6 -13q-1 -5 -4 -7.5t-8 -4.5t-7 -3q-1 2 -3.5 2.5t-2.5 1.5q-2 -2 -5 -1t-6.5 5.5t-4.5 9.5q-1 11 5 35q6 25 9 53q3 24 2 30q-1 4 -3 11t-2 9q-5 12 -10 15zM105 213
q8 10 10 28q6 27 0 53q-1 2 -4 8.5t-5 8.5q-1 -1 -5.5 -5t-7.5 -5h-7q-5 -1 -11 -13l-5 -10q-4 -6 -4 -10q-1 -1 0 -4.5t1 -4.5q0 -3 -1 -13t0 -13q0 -8 2 -14q1 -14 6 -21q20 -3 31 15z" />
    <glyph glyph-name="dieresis" unicode="&#xa8;" horiz-adv-x="196" 
d="M86 755q-1 -2 -3 -4t-2 -3l-3 -4q-15 -11 -43 1q-8 4 -11 10v-2q-2 2 -2 8l-1 1q0 7 7 21l1 2v-1q11 14 15 15q8 2 18 2q1 0 3.5 -1.5t3.5 -1.5q1 -1 3 -1q9 0 10 -2q8 -8 8 -14v-3q-1 -4 -1 -6q-2 -2 -2 -3q-1 -1 0 -2.5t1 -2.5q2 -5 -2 -9zM171 755q-1 -1 -6 -7h1
l-4 -4q-13 -12 -42 1q-8 4 -11 10v-2q-2 2 -2 8l-1 1q0 7 7 21l1 2v-1q11 14 15 15q8 2 18 2q1 0 3.5 -1.5t3.5 -1.5q1 -1 3 -1q8 0 10 -2q8 -8 8 -14l-1 -3v-6q-2 -2 -2 -3q-1 -1 0 -2.5t1 -2.5q2 -5 -2 -9z" />
    <glyph glyph-name="copyright" unicode="&#xa9;" horiz-adv-x="381" 
d="M324 593q2 -3 7 -4q0 -2 2 -10t2 -13q0 -1 -0.5 -4t-0.5 -5q0 -3 1 -7t1 -7q0 -1 -0.5 -3t-0.5 -3q0 -15 -4 -19q0 -6 -4 -15t-4 -15q0 -2 -1.5 -2t-1.5 -1q-2 -3 -3.5 -9.5t-3.5 -9.5q-1 -1 -3.5 -2.5t-3.5 -2.5q0 -2 -1 -4l-3 -3q-1 -2 -2.5 -3.5t-1.5 -2.5v-2t-1 -2
q-38 -34 -65 -44q-2 -1 -11 -4t-15 -4h-6q-2 0 -13.5 -1t-13.5 0q-3 0 -10 2t-10 2q-3 1 -11 3q-43 13 -64 59q-29 60 -1 132q9 24 18 31v4q23 29 78 51q1 0 2 -0.5t2 -0.5q14 6 36 8q15 0 22 -2q2 -1 6.5 -3.5t5.5 -2.5t2 -1l2 -2q2 -1 6.5 -2.5t8 -3t6.5 -3.5q0 -1 1 -1
q3 -3 4 -6q1 -1 5 -1q12 -8 14 -16q1 -1 2.5 -3t2.5 -4q1 -1 1 -2t1 -2t3.5 -2.5t3.5 -3.5q1 -1 4.5 -7t6.5 -8q0 -3 1.5 -7t1.5 -6zM212 424q2 1 5 3t5 3l6 3q10 7 24 22q16 20 20 28q0 2 2 5t2 4q9 20 7 51q0 6 -11 50q0 4 -1 5q0 1 -1.5 3t-1.5 3q-12 23 -32 40
q-3 0 -7.5 1.5t-6.5 1.5q-1 0 -8 -3t-12 -2q-3 0 -8 -2t-7 -2l-1 -1q0 -1 -1 -1q-12 -3 -30 -17h-2q-2 -3 -6.5 -6.5t-6.5 -5.5q-1 -1 -3 -5q-6 -6 -9 -7q0 -2 -2.5 -5.5t-1.5 -6.5q-11 -15 -15 -53q2 -3 -1 -6q1 -4 1.5 -16t2.5 -18q2 -28 24 -57q23 -21 44 -19q4 0 11 2.5
t11 2.5q2 1 5.5 2.5t4.5 2.5zM217 560v12v5v1v8v10q-1 0 -1 2q0 1 -2 5q0 1 -1.5 2.5t-1.5 3.5q-3 0 -5 1h-2l-1 -1q-1 -1 -2 -1t-1 -1t-1 -1q0 -1 -3 -2l-2 -2q1 -2 0 -3q-1 -2 -1 -3q-1 0 -2 -1.5t-2 -1.5v-1q-1 -1 -1 -4q0 -1 -2 -4.5t-3 -5.5q-2 -2 -2 -5q-1 -1 -1.5 -2
t-1.5 -2v-1q-1 0 -1 -3v-1l-1 -1v-3l-1 -1q0 -1 -0.5 -5t-0.5 -6q-1 -2 -1 -3v-1v-2v-5v-4v-3v-5v-3v-3v-3q1 -1 1 -5l1 -2v-2q1 -1 1 -3v-2v-1q1 -1 1 -2q0 -3 1 -4q1 0 1 -2l1 -2q7 -16 10 -19q5 -1 9 -5q2 2 4 3l6 6l1 2q1 1 1 2t1 2q0 1 1 1q0 3 2 5q1 0 1 1l1 2v2v2v3
h1l-1 2l5 5q0 4 2 4h1q2 0 5 -1t5 -1l4 -4l2 -2v-2l1 -1q1 -1 0 -2v-2h-1v-5q-1 -1 -1 -2q0 -2 -1 -2v-2v-1l-1 -1q-1 -1 -1 -2l-1 -1v-1q-1 -1 -1 -2t-2 -1q-1 0 -1 -1v-1l-2 -2q-1 0 -1 -2q-1 0 -3 -3q-3 0 -3 -2l-2 -2q-2 0 -3.5 -1t-2.5 -1q-2 0 -3 -1h-1h-1
q-6 -2 -11 -2t-7 1q-5 0 -13 2q-1 0 -5 2q-1 0 -3 2q-6 4 -8 7l-4 4v1q0 1 -0.5 1t-0.5 1t-2.5 4t-2.5 6l-2.5 5t-2.5 4v2v3h-1q-2 16 -1 23v4t-1 2q1 2 1 6q0 5 1 7q0 6 1 8q0 6 1 9l1 2v2q0 2 2 6q0 2 1 4l3 9q3 6 3 7v1q0 1 2 3.5t3 4.5q6 9 7 10h1q1 1 3 2.5t3 2.5
q3 0 4 1h1q1 1 3 2q1 -1 1 0h4h2h2q6 1 17 -1h1q2 0 8 -2q2 0 8 -4v-1l1 -1q0 -1 1 -2l2 -2l1 -1l1 -1v-5q2 -2 2 -6v-12q-1 -1 -1.5 -3t-0.5 -3v-2v-2v-3q0 -2 -3 -3v-1q-4 -2 -7 -2l-2 1l-2 -1h-4z" />
    <glyph glyph-name="ordfeminine" unicode="&#xaa;" horiz-adv-x="182" 
d="M134 420l-4 -4h-6q-4 -2 -7 -1q-4 0 -10 2q-1 1 -3 1t-3 1h-1l-7 3.5t-7 4.5q-1 0 -3 1.5t-3 1.5q-1 1 -3 1q-1 3 -6 6q-1 1 -1 2q-1 1 -3.5 4t-3.5 5l-2 2q-1 2 -2 2q-1 2 -5.5 10t-6.5 13q-5 17 -5 36h-1q0 15 2 23q0 5 2 13h1v2q5 16 6 17q2 4 3 5l1 1v2l1 2l1 2
q1 1 2 3t2 3q1 3 5 7q1 5 7 9q0 2 2 2q7 7 12 9q1 1 3 2t3 2q12 3 13 3t1 0.5t1 0.5v16q0 1 -0.5 3t-1.5 3q1 15 -6 25q-2 0 -13 -6q-2 -2 -3 -4q-2 -1 -2 -3l-3 -3q0 -1 -3 -4q0 -2 -2 -6q1 -1 1 -2q-1 -2 -3 -4q-1 0 -2.5 -1t-2.5 -1h-1h-14q-6 3 -6 5q-1 0 -1 1l3 15
q1 2 2 3v2l3 3q1 1 3 5q1 1 3.5 3t4.5 4v1h2q0 2 2 2q0 1 2 1q2 2 3 2q4 2 6 4q12 4 20 4q2 -1 8 -1l3 -3q3 0 6 -3q2 0 2 -1q1 0 1 -0.5t1 -0.5l1 -1q0 -1 2 -1v-1q1 0 1 -1q1 -2 2 -3l3 -3l1 -1q1 -1 2 -3l1 -2q0 -2 2 -6v-1l-1 -1h1v-1v-3q0 -4 1 -6t1 -10v-6v-3t-1 -2
q1 -1 0.5 -8t-0.5 -8v-7v-9v-1v-15v-10q0 -1 -0.5 -4.5t-0.5 -4.5v-8v-2q1 -3 1 -4h-1v-2.5v-3v-2.5l1 -2l-1 -2v-7t1 -8q-2 -5 0 -7q-1 -4 -1 -9v-3v-4v-5v-5t-1 -6v-9q0 -1 0.5 -4.5t-0.5 -5.5v-1v-3v-7q0 -1 -1 -2v-5q0 -2 0.5 -6t0.5 -6v-3q-1 -1 -1 -4zM97 584
q-1 -1 -3.5 -3t-3.5 -3q-1 -2 -3.5 -5.5t-3.5 -6.5h-1q0 -1 -2 -4.5t-4 -5.5q-1 -5 -5 -13v-3l-2 -4v-3q0 -1 -1 -3t0 -4h-1q0 -17 1 -26v-4q1 -1 1 -3v-3l1 -2v-3t0.5 -4t0.5 -5q7 -15 10 -18q1 0 1 -1t3 -5t6 -5q0 -1 1 -2t4 -3.5t5 -3.5q0 -1 2 -1q-1 2 0 7.5t0 8.5
q0 2 0.5 6t0.5 5q0 7 0.5 21t0.5 20q1 1 1 3v1v11v11t1 11q0 4 0.5 11.5t-0.5 12.5h1q-1 10 1 24z" />
    <glyph glyph-name="guillemotleft" unicode="&#xab;" horiz-adv-x="244" 
d="M211 118l-16 -14q-15 9 -18 14q0 2 -2 3q-1 2 -6 5q-1 0 -1 2t-1 3q-1 2 -8 10t-9 14q-27 32 -39 53q-15 6 -14 21q3 15 10 28q2 3 10 11q8 12 27 36l25 32q9 6 20 10q5 1 15 0q0 -1 3 -3.5t4 -4.5q1 0 0 -5.5t-1 -7.5q-9 -18 -30 -48t-29 -43q1 -1 48 -67q1 -1 4.5 -5.5
t5 -7l4 -7t3 -7.5t1 -7t-1 -8t-4.5 -7zM121 118l-16 -14q-15 9 -18 14q0 2 -2 3q-1 2 -6 5q-1 0 -1 2t-1 3q-1 2 -8 10t-9 14q-27 32 -39 53q-15 6 -14 21q3 15 10 28q2 3 10 11q8 12 27 36l25 32q9 6 20 10q5 1 15 0q0 -1 3 -3.5t4 -4.5q1 0 0 -5.5t-1 -7.5q-9 -18 -30 -48
t-29 -43q1 -1 48 -67q1 -1 4.5 -5.5t5 -7l4 -7t3 -7.5t1 -7t-1 -8t-4.5 -7z" />
    <glyph glyph-name="logicalnot" unicode="&#xac;" horiz-adv-x="338" 
d="M268 225q-5 1 -11 -1q-4 2 -6 2q-13 19 -5 63h-12h-18h-9h-11h-9q-4 2 -7 2q-2 0 -4 -0.5t-4 -0.5q-6 2 -13 2h-3q-5 0 -17 1t-18 1q0 -1 -1 0q-6 0 -14.5 2t-11.5 2h-3q-1 0 -4.5 0.5t-5.5 0.5h-8q-2 0 -4.5 1.5t-4.5 1.5q-10 3 -11 4l-2 3l-5 5v2q-1 2 -4 3l-2 1
q3 6 3 9q3 0 14 8q2 1 8 2t8 2q1 0 4.5 1.5t6.5 1.5q27 -2 79 -2q30 0 43 -1q22 -2 26 -2q3 1 11 1t12 2q5 0 13.5 -4t9.5 -4q6 -4 7 -5q5 6 9 -9q4 -14 4 -25v-3l-1 -1v-4t-1 -3v-9q0 -9 -2 -13l-1 -1q-1 -1 -1 -2v-3t-1 -4q-1 0 -1 -1v-5q0 -1 -3 -4.5t-2 -5.5q-1 0 -3 -2
t-4 -3q-5 -5 -10 -6z" />
    <glyph glyph-name="registered" unicode="&#xae;" horiz-adv-x="385" 
d="M212 538l3 -3q1 -1 1 -2q1 -2 1 -3q3 -3 3 -5q1 -1 1.5 -3t1.5 -3q0 -3 1 -5q0 -1 0.5 -2.5t1.5 -2.5q0 -3 3 -9t3 -9q1 -1 2 -4l1 -3q0 -4 3 -5v-3l1 -1l1 -1v-1q0 -1 0.5 -2.5t1.5 -2.5v-2h-3q-1 -1 -3 0v-1q-1 0 -2 1h-2h-2h-2q-4 2 -7 4q-2 2 -2 3q-2 2 -3.5 5.5
t-2.5 5.5h1q-1 1 -2 4t-3 5q0 1 -0.5 3t-0.5 3t-1.5 4t-1.5 4q-1 1 -2 3.5t-1 3.5q0 4 -1 6v2l-6 9q-6 -2 -11 -2v-5v-1v-5v-4v-6v-2v-5h-1q1 -1 1 -2v-3t-1 -2v-2v-1v-2v-5q0 -2 -1 -3v-2q-1 -2 0 -3q0 -2 -1 -4.5t-1 -3.5v-1q-1 -1 -2 -1q-1 -1 -5 -1q0 1 -2 1
q-1 0 -1 0.5t-1 0.5v-1h-4q-1 1 -2 1v1q-6 3 -6 9v5q0 7 1 9v1h-1q1 1 1 4v6v2v16v3v1q1 2 1 3v5v5v5v2v3v5q0 2 -0.5 7t-0.5 7q0 3 1 4l-1 2q0 1 0.5 2.5t0.5 2.5v7v2v3v3l1 1v2v2v2q0 1 0.5 1t0.5 1q0 5 1 6q-1 1 1 3v1h2v0q1 0 1 0.5t1 0.5h11q9 0 13 -1h8l1 -1h2t2 -1h1
h2l9 -3q0 -1 2 -1l2 -1q1 0 3 -2q1 0 1 -1q1 -1 2 -1h1q1 -2 4 -5l4 -4v-1l1 -2q0 -2 1 -2q0 -1 0.5 -3.5t0.5 -4.5q0 -3 -1 -3q0 -5 -1 -7v-3v-1l-1 -1h1l-1 -2q-1 -1 -1 -2q-2 -2 -3 -4v-2v-1h-1l-1 -1v-1q-2 0 -2 -2h-1v-1q-2 -1 -5 -4h-1q-2 -1 -4 -3l-2 -1zM190 541
q2 2 4 3l2 1h1l3 3q2 0 4 2l3 3q1 1 3 4v1q3 3 4 5v2q2 3 2 11v1q1 3 -1 12q-4 7 -13 13h-2q-7 3 -16 1v-2q0 -1 1 -4t0 -5q1 -1 1 -3v-2v-6l-1 -2v-4v-2v-10h1v-1q0 -2 -1 -2v-1q0 -1 -1 -2v-3v-1v-5v-8q1 0 3 0.5t3 0.5zM324 593q2 -3 7 -4q0 -2 2 -10t2 -13q0 -1 -0.5 -4
t-0.5 -5q0 -3 1 -7t1 -7q0 -1 -0.5 -3t-0.5 -3q0 -15 -4 -19q0 -6 -4 -15t-4 -15q0 -2 -1.5 -2t-1.5 -1q-2 -3 -3.5 -9.5t-3.5 -9.5q-1 -1 -3.5 -2.5t-3.5 -2.5q0 -2 -1 -4l-3 -3q-1 -2 -2.5 -3.5t-1.5 -2.5v-2t-1 -2q-38 -34 -65 -44q-2 -1 -11 -4t-15 -4h-6q-2 0 -13.5 -1
t-13.5 0q-3 0 -10 2t-10 2q-3 1 -11 3q-43 13 -64 59q-29 60 -1 132q9 24 18 31v4q23 29 78 51q1 0 2 -0.5t2 -0.5q14 6 36 8q15 0 22 -2q2 -1 6.5 -3.5t5.5 -2.5t2 -1l2 -2q2 -1 6.5 -2.5t8 -3t6.5 -3.5q0 -1 1 -1q3 -3 4 -6q1 -1 5 -1q12 -8 14 -16q1 -1 2.5 -3t2.5 -4
q1 -1 1 -2t1 -2t3.5 -2.5t3.5 -3.5q1 -1 4.5 -7t6.5 -8q0 -3 1.5 -7t1.5 -6zM212 424q2 1 5 3t5 3l6 3q10 7 24 22q16 20 20 28q0 2 2 5t2 4q9 20 7 51q0 6 -11 50q0 4 -1 5q0 1 -1.5 3t-1.5 3q-12 23 -32 40q-3 0 -7.5 1.5t-6.5 1.5q-1 0 -8 -3t-12 -2q-3 0 -8 -2t-7 -2
l-1 -1q0 -1 -1 -1q-12 -3 -30 -17h-2q-2 -3 -6.5 -6.5t-6.5 -5.5q-1 -1 -3 -5q-6 -6 -9 -7q0 -2 -2.5 -5.5t-1.5 -6.5q-11 -15 -15 -53q2 -3 -1 -6q1 -4 1.5 -16t2.5 -18q2 -28 24 -57q23 -21 44 -19q4 0 11 2.5t11 2.5q2 1 5.5 2.5t4.5 2.5z" />
    <glyph glyph-name="degree" unicode="&#xb0;" horiz-adv-x="186" 
d="M161 635v-16q2 -4 -2 -13v-6l-1 -2q-1 -1 -1 -2q-2 -5 -3 -5q-2 -4 -12 -15q-12 -10 -16 -11q-2 -1 -6.5 -2.5t-6.5 -2.5q-2 0 -8 -4q-1 -1 -3 -1.5t-3 -0.5t-4 -0.5t-4 -0.5q-10 -1 -24 6q-16 8 -23 16q-8 6 -13 19q-4 9 -4 23q2 22 4 29q6 14 10 21q6 9 13 16
q19 19 41 19q4 0 7 -3q4 0 11 -3t12 -4q1 -1 3 -2t3 -2q2 -1 4.5 -3.5t3.5 -2.5q0 -1 1.5 -2t2.5 -3q1 -1 3 -4t4 -3l6 -6q0 -8 2 -12q-1 -2 -0.5 -3t2 -3.5t1.5 -3.5v-7zM96 665q-1 -1 -3 -1h-3h-3h-2q-2 -1 -5.5 -4t-4.5 -3l-2 -2t-2 -1q-1 -1 -2.5 -3.5t-2.5 -3.5
t-2 -3.5t-2 -3.5q-6 -16 -5 -23q1 -2 1 -6q1 -3 3 -5q1 -1 2.5 -4t2.5 -4q14 -9 20 -9q1 0 3 1h2q8 0 12 2q13 5 22 17l1 2v2q1 2 3 4q7 21 5 33q0 1 -1.5 3.5t-0.5 3.5q-1 1 -4 3t-5 4q-1 0 -2 1t-2 1t-2 1q-1 0 -3 0.5t-3 0.5q-3 1 -11 1q-2 -4 -2 -5q-2 2 -2 1z" />
    <glyph glyph-name="plusminus" unicode="&#xb1;" 
d="M148 370q-2 -8 -2 -14t1.5 -19t1.5 -19q53 -2 68 -7l3 -2q4 -2 7 -2q0 -2 2 -4q-5 -10 -7 -11q-2 -7 -6 -10q-1 -4 -4 -4q-2 -1 -10 -1q-8 -1 -27.5 -2t-26.5 -2q0 -1 -1 -28.5t-2 -41.5q-12 -15 -15 -21q-2 -2 -6 -4q-3 2 -4.5 7t-3.5 6q-1 -1 -1 -2.5v-2.5q-2 1 -3 4
l-1 1q-4 0 -5 4q-12 13 -7 77q-4 1 -24 1q-4 1 -13 1q-8 0 -10 1q-2 0 -4.5 2.5t-4.5 1.5q-8 6 -9 10q-1 1 -3 2l-2 1q0 2 -2.5 7t-2.5 7t3 6q4 2 13 6q14 -2 61 0q2 10 2 31t1 30q0 7 -2 9q2 1 2.5 4t1.5 3q2 2 3.5 1t2.5 1l18 -3q11 -3 15 -17q0 -2 -1 -2q2 1 3.5 -1.5
t0.5 -4.5v1zM218 127q-9 -3 -9 -10q-9 -2 -72 -5q-9 -1 -27 -0.5t-25 0.5q-1 0 -3 -0.5l-2 -0.5q-5 0 -16 3.5t-17 2.5q-1 3 -7 3q0 1 0.5 2t0.5 2q-6 6 -8 7q-1 1 -1 4t-2 4q2 5 7.5 8t14.5 5t13 4q2 0 3 -1l1 -1q49 4 84 5h30q3 -1 8 -1h7q1 -2 7 -5q6 0 9 -2q2 0 5 -6
t-1 -8v-10z" />
    <glyph glyph-name="twosuperior" unicode="&#xb2;" horiz-adv-x="166" 
d="M76 435q2 0 6 0.5t6 0.5q1 0 3 0.5t4 0.5h2h7h4h6q3 0 9 -2q1 1 1 0q3 1 4 0.5t2.5 -2t2.5 -1.5v-3q1 0 1 -2q-1 -1 -1 -3q1 0 1 -1t-1 -2.5t-2 -2.5t-3.5 -1.5t-3.5 -0.5l-5 -3h-7q-5 0 -13 -2q-5 0 -8 -1l-1 1l-1 -1l-1 1v-1l-2 1q-6 -2 -10 -1q-4 -2 -15 1l-1 1
q-1 0 -1 1h-1q-1 0 -3 1l-2 1l-2 2t-1 2q-2 2 0 6q-2 0 0 2h-1q0 1 1 3v1v2q0 1 1 4.5t1 5.5l1 3q1 3 2 4q0 3 2 7q0 1 1 2v1q0 2 1 2q1 9 6 18q3 13 7 23q1 4 5 17q1 1 1 4q2 8 2 10q1 2 2.5 7t2.5 8l1 1v1q0 4 1 6q1 1 1 4q0 1 2 5l3 12q0 2 1 6t1 7q0 1 1 3v1l1 1v1v2
q1 2 1 5q0 1 1 2v3q1 1 1 4v1q0 2 1 6t2 5v1q0 2 1 3v34q0 2 -2 4q0 1 -2 3h-1l-2 1q-3 0 -7 -2q-2 -2 -3 -2q-4 -4 -6 -12q0 -3 -1 -4v-1q0 -3 -1 -4v-5q0 -1 -0.5 -1t-0.5 -1q1 -1 0 -2q0 -1 0.5 -5t1.5 -5v-6q-2 -9 -10 -11h-2h-4q-2 1 -3 1q0 3 -2 5q0 1 -0.5 2.5
t-0.5 3.5h-1q-2 13 0 24q1 4 2.5 9t1.5 6h1v2q1 0 1 1t1.5 3t1.5 3l1 1q1 1 1 2l1 1q1 2 1 3q4 2 5 4q4 4 7 6q4 2 10 4q1 1 4 1t4 1q1 0 3 -0.5t3 -1.5h2q2 0 4 -2q2 -1 5 -3t5 -3q0 -2 2 -2q0 -2 1 -3l1 -1l1 -1q1 -1 1.5 -3t0.5 -3q1 -2 1 -6q2 -6 0 -13v-4v-1
q0 -2 -1 -6.5t-1 -6.5q0 -5 -2 -15q0 -5 -1 -7q-1 -1 -1 -3v-2v-1q0 -5 -1 -6q0 -2 -1 -2q0 -2 -0.5 -4t-0.5 -3v-1q-2 -8 -3 -11q0 -1 -0.5 -3t-0.5 -4q-1 0 -1 -1v-1q0 -1 -1 -3.5t-1 -4.5v-1q0 -1 -1 -1q0 -4 -1 -6l-1 -2v-1l-1 -2v-2q-1 -1 -1.5 -4.5t-1.5 -4.5
q0 -1 -0.5 -2t-0.5 -2v-1v-1q-1 -1 -1 -2q-2 -6 -4 -16h-1v-3q-1 -1 -1 -4v-1q-1 -1 -1 -3t-1 -2q0 -2 -1 -3v-2q-1 0 -1 -3q-1 -1 -1 -3l-1 -1v-1q0 -1 -2 -7q0 -1 -1 -1q0 -2 -1.5 -5.5t-1.5 -5.5q0 -4 -3 -7v-2v-2q-1 -1 -1 -2q-1 -1 -1 -2.5t-1 -2.5q-1 0 -1 -2v-1
q0 -4 -4 -12z" />
    <glyph glyph-name="threesuperior" unicode="&#xb3;" horiz-adv-x="174" 
d="M119 570v1h-1l-1 -3h-1v-1q0 -1 -2 -1l-1 -1l3 -3q1 0 2 -1q0 -1 1 -1l1 -1q0 -1 1 -1q4 -4 5 -7q1 0 1 -1q1 0 1 -1t1 -1q0 -4 1 -5v-1q1 -1 1.5 -4.5t0.5 -4.5v-6.5v-6.5v-5q0 -1 -1 0q1 -1 1 -3.5v-3.5t-1 -1v-12q1 -2 1 -6v-6v-1l-1 -2v-4q1 -1 0 -3t-1 -3
q0 -10 -5 -20h2v-1q-1 -2 -2.5 -6t-1.5 -5q-1 0 -1 -2t-1 -2q-1 -1 -4 -3q0 -3 -3 -3v-1q-1 0 -3 -2q-1 0 -2 -1l-2 -1q-2 -1 -3 -1h1l-1 -1q-2 -2 -6 -2h-1q-1 -1 -2 -1q-2 -1 -3 -1q-4 0 -6 1h-1q-2 0 -4 0.5t-3 0.5q0 2 -4 2q-1 1 -3 2.5t-3 2.5q-4 4 -7 6q-2 4 -3 5
q-3 3 -4 5q0 2 -1 2q0 2 -1 4t-1 3l-1 1v1v1v2v2.5t-1 2.5q0 1 -0.5 4t0.5 5q0 2 1 3v5v2l1 2q0 1 0.5 4t1.5 4h5q1 -1 2 -1t3 -2q2 -1 5 -1l1 -1q1 -1 1 -2v-1q0 -2 2 -6v-2q0 -2 3 -14q-1 -2 0 -5.5t1 -4.5q2 -3 6 -7l4 -2q4 2 10 8h1v0l1 1q2 2 4 6v2q2 3 3 6t1.5 7
t1.5 6v6q0 1 1 2v7l-1 1v2t0.5 1t0.5 1t-0.5 2.5t-0.5 2.5q2 6 1 9h1q-2 1 0 3v7v1l-1 2v3v9v1q0 12 -11 16q-1 1 -2.5 1t-2.5 1q-1 0 -4 0.5t-5 0.5l-4 2v1q-1 0 -2 1q-2 1 -3 2v1l-3 3l-3 3q0 2 2.5 2t2.5 1h4q0 5 5 0h1q1 1 3.5 1.5t3.5 0.5h1q0 1 2 1q1 1 4 3.5t5 4.5
q1 1 1 3t1 2q0 1 1 3v2q1 3 2.5 9t1.5 8v11q0 3 0.5 7t0.5 6v1q0 2 0.5 6.5t0.5 6.5v8v6q0 7 -1 10q-3 4 -8 5h-3q-2 -1 -5 -1q-1 0 -3 -2q-2 0 -2 -2q-3 -3 -5 -4q-1 -2 -2 -4.5t-1 -3.5q-1 -1 -1 -3v-2q0 -5 -2 -6v-3q-1 -1 -1 -3q-3 -4 -7 -4q-1 0 -3 -0.5t-4 0.5l-1 1
q-2 1 -3 2h-2v15q6 16 10 20v1q7 8 16 11q4 2 6 2q10 3 21 2l3 -1q3 -1 4 -2h2q3 -1 9 -5q5 -7 5 -9l1 -1l1 -1v-3v-3q1 -2 1.5 -6.5t0.5 -5.5t-1 -2.5t0 -2.5q-2 -5 -1 -6q0 -1 -1 -4t-1 -5v-3v-1v-5h-1v-11q-1 -2 -1 -4v-2v-2v-2q0 -5 -1 -7l-1 -2v-3q-2 -6 -3 -10h-1v-1
q0 -1 -1 -2t-1 -2l-1 -1q-1 -1 -1 -2q-2 -1 -3 -6z" />
    <glyph glyph-name="acute" unicode="&#xb4;" horiz-adv-x="162" 
d="M18 735q0 2 -3 5.5t-3 6.5v10q1 1 4 6t5 7q4 4 8 6q5 6 12 9l72 46l2 5q5 -4 11 2l6 -2q6 -3 9 -5q0 -1 -1.5 -2t-0.5 -3q0 -2 3 -2q-2 -8 0 -18q-7 -9 -9 -16q-2 -2 -17.5 -13.5t-24.5 -16.5l-7 -3.5l-7 -3.5q-6 -1 -14 -11q-29 -15 -35 -14q-3 5 -10 7z" />
    <glyph glyph-name="mu" unicode="&#xb5;" horiz-adv-x="273" 
d="M53 439q6 6 8 5l2 4h3l2 -1h4q1 0 5 -3t6 -2q1 0 2.5 1t2.5 1q7 -2 10 -6q6 0 12 -3q2 -4 2 -5q5 -18 4 -38q3 -8 0 -18q0 -2 -1.5 -4.5t-1.5 -3.5t1 -2.5t1 -3.5q0 -6 1 -9q0 -13 -1 -15q3 -11 1 -22q0 -2 -0.5 -5t-0.5 -4q0 -5 0.5 -13t0.5 -13q0 -1 -0.5 -4.5
t-0.5 -5.5q2 -11 0 -17q1 -4 1 -29v-9v-21v-3q1 -3 1 -4q1 -3 0 -9t-1 -9q1 -2 1 -11q1 -2 0 -6t-1 -5v-20q5 -16 20 -40q2 -1 5 -3t4.5 -2t5.5 1q10 5 13 18q8 20 8 78q0 25 1 37q0 1 -0.5 4.5t-0.5 5.5t0.5 5t0.5 4q0 16 0.5 49t0.5 51q0 25 -2 77v19q2 11 6 16
q5 15 23 17q1 0 5 1q3 -3 6 -3q-1 -1 1 -3.5t1 -5.5h1q1 0 2 -1q0 -3 3 -3l2 1q1 1 2 0l4 -12q-2 -5 -2 -12t1 -17t1 -15v-2q0 -2 1 -6t0 -6q0 -2 -1 -3v-2v-7q-1 -2 -1 -3q-1 -5 0 -8q0 -5 0.5 -13t0.5 -13q0 -11 2 -17q-2 -3 -1.5 -7.5t-0.5 -7.5q2 -2 2 -3
q-1 -4 -0.5 -11t-1.5 -10q0 -1 1 -1.5t1 -1.5q-1 -2 -0.5 -5t-1.5 -4q2 -2 2 -17q2 -5 0 -12q1 -4 0 -16t1 -17q-1 -2 0 -4t0 -3q1 -10 -0.5 -28t-1.5 -23q0 -1 0.5 -3t0.5 -4q1 -13 -3 -38t-4 -29v-30l-1 -1q0 -1 -1 -2q3 -35 0 -49q-1 -3 -13 -10q-2 0 -7.5 -1.5
t-8.5 -0.5q-2 1 -4.5 3.5t-3.5 2.5v3q-5 1 -6.5 8.5t1.5 13.5q-4 6 -4 27q-1 0 -3 -3t-3 -3q-2 -1 -4.5 -3t-3.5 -2q-22 -8 -36 12q-2 2 -4 6q-2 2 -6 4q-1 -6 -1 -13.5v-13.5q0 -5 -2 -9q0 -2 1 -6.5t1 -7.5q0 -1 -0.5 -4.5t-0.5 -4.5q0 -36 -3 -64q0 -1 -3 -19
q-1 -7 -0.5 -13.5t-0.5 -12t-4 -8.5q1 -3 -2 -9l-2 -2q-3 -3 -5 -3q-1 -3 -9 -11q-4 0 -7 -3q-1 1 -4 5t-6 5q0 1 -3 1q-3 2 -5 18q-6 4 -7 7v24q-2 44 -1 58q0 12 1 19q1 2 1 9v21q3 71 5 246v3q0 11 -0.5 32t-0.5 32q-1 11 2 63q0 22 -1 35q0 15 -5 22z" />
    <glyph glyph-name="paragraph" unicode="&#xb6;" horiz-adv-x="327" 
d="M152 354h-7q-26 4 -36 2q-1 1 -2 1l-1 1q-5 0 -7 1q-22 4 -38 17q-5 4 -9 12q-4 4 -8 12q-9 12 -12 27q-1 2 -2 4.5t-1.5 7t-1.5 6.5q0 5 -2 13q-1 3 -3 7v7v2q-1 2 -1 3v11v7q-1 1 -1 11q0 2 -0.5 4.5t-0.5 3.5v6q0 1 -0.5 2.5t-0.5 2.5q1 5 1 15q0 4 1.5 13.5t2.5 14.5
q0 4 1.5 13.5t2.5 14.5q0 2 2.5 11.5t3.5 14.5q2 8 4 13q2 8 10.5 20t9.5 14q5 3 12.5 11t11.5 11l1 1q1 0 3.5 1.5t3.5 1.5q1 1 4.5 2t5.5 2q1 0 5 2l6 3q1 0 24 3q4 2 7 2t7 -0.5t6 -0.5q10 3 11 3q5 0 15.5 0.5t17.5 0.5q5 -1 14 0t12 1l15 -3h7t7 -1q1 0 10 -3h7
q15 -4 19 -11q1 -2 1.5 -8.5t0.5 -8.5q0 -1 2 -11.5t2 -16.5q0 -19 1 -28q0 -2 0.5 -7t0.5 -8q-2 -10 -2 -13q0 -4 -0.5 -13t-0.5 -13q0 -2 0.5 -4t0.5 -3q0 -2 -0.5 -3.5t-0.5 -2.5v-12q1 -4 1 -18l-1 -2q-3 -50 -3 -51q0 -7 -1 -24.5t0 -25.5v-1q-1 -1 -1 -2v-10
q1 -1 1 -3v-3v-20v-14.5t-1 -16.5q3 -22 0 -45v-13q0 -7 -1 -10q0 -2 0.5 -4.5t0.5 -3.5v-3v-12v-3v-5q0 -3 -1 -5q0 -2 0.5 -4t0.5 -3q0 -3 -1 -7.5t-1 -6.5q0 -1 0.5 -2t0.5 -2t-0.5 -4t-0.5 -5v-9q0 -2 0.5 -6t0.5 -6q-1 -2 -1 -3t0.5 -2t0.5 -2q1 -1 0 -5t-1 -5
q0 -2 0.5 -6t0.5 -7v-10v-13v-14q1 -2 1 -7v-6v-7v-10v-9q0 -3 -1 -4q0 -1 0.5 -3t0.5 -3q0 -9 -1 -14q0 -6 -2 -9q2 -2 1 -7.5t0 -7.5q-1 -5 -1.5 -14.5t-0.5 -14.5q-1 -3 -2.5 -8t-1.5 -7q-5 -5 -5 -6q-2 -1 -4 -4t-4 -4.5t-6 -0.5l-1 1q-1 1 -2 1t-3 2q-7 3 -7 4
q-1 0 -1.5 -1.5t-1.5 -1.5l-6 3q-1 1 -4 5.5t-4 5.5q-5 10 -3 39q1 8 1 24.5v25.5q2 17 4 53q0 6 -0.5 18.5t-0.5 18.5q1 23 2 68.5t2 68.5q2 30 2 47q3 111 3 115t-0.5 11.5t-0.5 10.5q0 23 2 63.5t2 53.5q1 9 1.5 27.5t1.5 28.5q-20 4 -33 -1q-2 -17 0 -23q-1 -6 1 -17
t1 -17q0 -2 -1 -7t-1 -7q-1 -6 -1 -19t-1 -19q-3 -25 -2 -44q0 -2 -0.5 -4t-0.5 -4v-19q0 -3 -0.5 -8.5t-0.5 -9.5v-20q0 -4 -2 -13.5t-1 -15.5q-2 0 -1 -14l1 -13v-12q3 -26 2 -36v-21q0 -4 -1.5 -11.5t-1.5 -8.5v-13q0 -3 -0.5 -7t-0.5 -7v-5q0 -4 -0.5 -11t-0.5 -10
q0 -2 0.5 -6.5t0.5 -5.5q-2 -4 -3 -7q0 -1 0.5 -4t0.5 -5q-1 -2 -1 -8q1 -5 0 -12.5t-1 -9.5t-1 -5.5t-1 -5.5q0 -5 0.5 -13.5t0.5 -12.5q0 -3 -0.5 -8.5t-0.5 -8.5q0 -1 -0.5 -4t-0.5 -5l1 -2v-2v-10v-8q0 -2 -0.5 -7t-0.5 -7q0 -1 0.5 -6t-0.5 -6q1 -7 -1 -24
q3 -19 -1 -38q-1 -3 -1 -8q0 -1 -1 -2t-1 -2q0 -6 -3 -9q-1 -2 -5 -4t-5 -5l-6 -3q-1 -2 1 -2v-1v-2q-8 0 -18 10q-13 13 -14 24q0 2 0.5 4t0.5 4q1 9 1 27.5t1 26.5v48v38v40q1 4 1.5 13.5t0.5 14.5q0 4 0.5 11.5t0.5 10.5q1 7 1.5 19t0.5 16q1 10 1.5 30.5t0.5 30.5z" />
    <glyph glyph-name="periodcentered" unicode="&#xb7;" horiz-adv-x="166" 
d="M98 267q-2 0 -6 -1.5t-6 -2.5t-5 0q-27 0 -29 43q0 24 3 29q5 11 20 11q1 0 4.5 -1.5t5.5 -1.5h7t6 -4q22 0 27 -15q5 -14 -1 -26q-8 -19 -26 -31z" />
    <glyph glyph-name="cedilla" unicode="&#xb8;" horiz-adv-x="134" 
d="M74 -136h-8q-22 0 -38 11q-19 15 -23 27v9q4 13 12 15q3 1 21 -4q-2 -4 -2 -5q1 -1 1 -2q2 -4 2 -8q2 -8 15 -14q6 -4 11 -4q3 0 5 2.5t3.5 6.5t2.5 5l3 3q3 6 3 14q0 5 -2 15q-2 4 -6 10q-4 8 -7 10q-6 2 -7 3q-5 3 -7 12v9q0 1 -2 3v9q0 1 -0.5 2.5t-0.5 2.5v9v10
q1 3 3 5t6 2.5t7 0.5t8 -0.5t8 -0.5q6 -8 6 -21q0 -9 1 -13q0 -2 0.5 -6.5t0.5 -5.5q10 -5 15 -10q18 -18 20 -30q1 -3 1 -11.5t1 -11.5q-1 -1 -4 -7q-2 -2 -2 -4l-3 -3q0 -1 0.5 -2.5t0.5 -2.5q-2 -11 -16 -20q-12 -9 -29 -10z" />
    <glyph glyph-name="onesuperior" unicode="&#xb9;" horiz-adv-x="170" 
d="M91 698h5h3q2 0 2 -1t1 -1q2 -2 5 -2q0 -2 1 -2q0 -2 1 -6t1 -6v-2q0 -1 -0.5 -3t-0.5 -3q0 -8 -1 -11q1 -2 0 -5t-1 -4l1 -2v-2q-1 -1 -1 -5q0 -6 -1 -8q1 -3 -1 -9q1 -2 0.5 -6.5t-0.5 -7.5v-1l-1 -7q0 -7 1 -7l-1 -1v-1v-13v-9v-1v-4q0 -6 1 -8v-12q0 -1 -1 -3v-2v-3
l1 -2q0 -2 -0.5 -4.5t-0.5 -3.5q1 0 1 -1v-1q0 -2 -1 -3v-4t1 -4q-1 -1 -1 -2q1 -1 0 -2v-10v-9v-4v-7v-2v-2l1 -1l-1 -2q2 -13 -1 -22q1 -2 1 -5v-3v-1q0 -1 -1 -1q1 0 1 -1v-1l-3 -18q0 -3 -1 -4h-1q-1 -1 -2 -1q0 -1 -5 -3q0 -2 -2 -2q-3 -1 -6 2l-6 12v26v8q0 1 0.5 4.5
t0.5 5.5v9v17v14v11v7v6v10v2v9q0 4 1 7v2q-1 2 -1 3q1 1 1 4v4q0 3 0.5 10t-0.5 11q1 1 1 5v9v9q0 5 1 7v2q-1 1 -1 2q1 1 1 3q0 9 1 13q0 2 1 7.5t0 9.5q-1 0 -7 -3h-1q-9 -2 -11 1v1v8l2 4q2 2 6.5 7.5t7.5 8.5q0 2 2 2v2l1 1l2 2q1 -1 5 -1z" />
    <glyph glyph-name="ordmasculine" unicode="&#xba;" horiz-adv-x="178" 
d="M48 665q1 1 2 1q1 2 2 5t1 4q1 4 6 9h2l3 3l4 2q0 1 2 1l4 4l4 2h1q1 1 4 2l3 1v-1q2 2 6 2q2 1 6 1q6 0 10 -3q2 0 4 -2q4 -1 6 -5q0 -1 2 -3l5 -5q0 -1 1 -3v-3q3 -3 3 -7q3 -6 2 -8h-1v-1t-2 -5v-1q0 -1 1 -2q0 -7 1 -8q-1 -1 -1 -3q1 -2 1 -6v-6v-5v-1v-8v-8v-3v-2
q0 -1 -0.5 -2.5t-0.5 -3.5l1 -1v-7q0 -5 -1 -6q2 -2 0 -4q1 -1 1 -3.5v-3.5q-1 -3 -1 -8v-4v-10q0 -3 1 -4v-2v-13v-7v-1q0 -4 -1 -5v-6q1 -1 0 -3t0 -3v-2q0 -1 -0.5 -2t-0.5 -2q0 -3 -1 -5q1 -1 0 -1q1 -4 -1 -12q0 -1 0.5 -2.5t0.5 -2.5t-1 -4v-6v-3q0 -6 -1 -9
q0 -4 -1 -6q0 -3 -2 -7q0 -4 -2 -8t-2 -5t-1 -1l-1 -2v-1h-1q-1 0 -1 -2h-1q0 -1 -0.5 -1t-0.5 -1h-1q-1 -1 -2 -1l-2 -2h-5q-4 -2 -5 -2q-1 -1 -5 -1h-6q-2 0 -2 1q-3 0 -9 3q-4 1 -14 9q-4 4 -5 6q-1 0 -4 3q-3 6 -4 7v2q-2 3 -5 10q-1 4 -1 10q0 2 -0.5 4t-0.5 3v6
q0 3 0.5 8.5t0.5 7.5v15q0 16 1 22v1v1v3q1 1 1 2v7v1v23q0 2 1 3l-1 1h1v11v4v1h1v1v10v1v2v3v7v3v1q0 17 2 47zM93 437l1 1v1l1 1h1l1 2l2 2q1 1 1 2l2 1q0 1 2 5v2l1 2q1 6 1 18h1v24q0 10 1 15v4v1v3l-1 2q1 3 1 10v8v2v11v31v9q0 6 0.5 18t0.5 18v8q-1 2 -1 7
q-1 0 -1 1v5q0 5 -1 7q1 4 -1 10q0 2 -0.5 4t-0.5 3q-1 1 -2 3.5t-2 3.5l-1 1q-1 0 -1 1q-1 1 -2 1q-2 2 -4 1q-6 0 -14 -6l-5 -10q-1 0 -1 -3l-1 -1q-1 -2 -1 -4q-1 0 -1 -2v-4t1 -4q-2 -8 0 -16v-8v-5v-10v-3v-2v-6v-4v-4q0 -9 -1 -12q1 -1 1 -3.5v-3.5q-1 -2 -1 -5.5
t-1 -4.5q1 -2 1 -7v-1v-14q-1 -2 -1 -7v-1v-5v-5v-7v-2v-2q0 -1 -0.5 -2.5t-0.5 -2.5q1 -1 1 -3v-2q0 -1 -0.5 -5t-1.5 -5v-12v-2l1 -2v-2q0 -6 -1 -8v-3.5t1 -2.5v-7q1 -1 1 -5q2 -4 4 -7v-1q1 -2 3 -4v-1l1 -1q2 0 2 -1q6 -3 8 -2h1q1 1 3 2.5t3 1.5z" />
    <glyph glyph-name="guillemotright" unicode="&#xbb;" horiz-adv-x="242" 
d="M37 104l-16 14q-3 3 -4.5 7t-1 8t1 7t3 7.5l4 7t5 7t4.5 5.5q47 66 48 67q-8 13 -29 43t-30 48q0 2 -1 7.5t0 5.5q1 2 4 4.5t3 3.5q10 1 15 0q11 -4 20 -10l25 -32t27 -36q8 -8 10 -11q7 -13 10 -28q1 -15 -14 -21q-12 -21 -39 -53q-2 -6 -9 -14t-8 -10q-1 -1 -1 -3
t-1 -2q-5 -3 -6 -5q-2 -1 -2 -3q-3 -5 -18 -14zM127 104l-16 14q-3 3 -4.5 7t-1 8t1 7t3 7.5l4 7t5 7t4.5 5.5q47 66 48 67q-8 13 -29 43t-30 48q0 2 -1 7.5t0 5.5q1 2 4 4.5t3 3.5q10 1 15 0q11 -4 20 -10l25 -32t27 -36q8 -8 10 -11q7 -13 10 -28q1 -15 -14 -21
q-12 -21 -39 -53q-2 -6 -9 -14t-8 -10q-1 -1 -1 -3t-1 -2q-5 -3 -6 -5q-2 -1 -2 -3q-3 -5 -18 -14z" />
    <glyph glyph-name="onequarter" unicode="&#xbc;" horiz-adv-x="392" 
d="M95 144h-27q0 2 -2 7t-2 8q-1 8 4 17v2q0 2 1 2q3 4 8 13t7 12q12 24 36.5 67t34.5 62q2 1 4 4q2 6 8 17t7 14q7 17 18 34l36 71q13 22 41 66q12 22 21 33q1 6 8 18q7 11 12 13l1 1q1 0 6.5 -3t9.5 -4q3 -6 -2 -23q-6 -10 -7 -14q-10 -23 -15 -29q-2 -7 -10 -19t-9 -14
q-4 -5 -5 -11q-4 -6 -7 -11q-1 -3 -6 -11l-5.5 -11.5t-6.5 -11.5q-1 -3 -5.5 -11t-5.5 -12q-9 -18 -11 -24q-16 -30 -25 -45l-1 -1v-2q-3 -7 -19 -39q-3 -7 -8 -13l-6.5 -12.5t-6.5 -14.5q-18 -32 -27 -50l-4.5 -6.5t-3.5 -5.5q-2 -2 -4.5 -6.5t-3.5 -6.5q0 -2 -8 -12
q-1 -5 -7 -13q-6 -15 -13 -25zM111 628h5h3q2 0 2 -1t1 -1q2 -2 5 -2q0 -2 1 -2q0 -2 1 -6t1 -6v-2q0 -1 -0.5 -3t-0.5 -3q0 -8 -1 -11q1 -2 0 -5t-1 -4l1 -2v-2q-1 -1 -1 -5q0 -6 -1 -8q1 -3 -1 -9q1 -2 0.5 -6.5t-0.5 -7.5v-1l-1 -7q0 -7 1 -7l-1 -1v-1v-13v-9v-1v-4
q0 -6 1 -8v-12q0 -1 -1 -3v-2v-3l1 -2q0 -2 -0.5 -4.5t-0.5 -3.5q1 0 1 -1v-1q0 -2 -1 -3v-4t1 -4q-1 -1 -1 -2q1 -1 0 -2v-3v-4v-3v-9v-4v-7v-2v-2l1 -1l-1 -2q2 -13 -1 -22q1 -2 1 -5v-3v-1q0 -1 -1 -1q1 0 1 -1v-1l-3 -18q0 -3 -1 -4h-1q-1 -1 -2 -1q0 -1 -5 -3
q0 -2 -2 -2q-3 -1 -6 2l-6 12v26v8q0 1 0.5 4.5t0.5 5.5v9v17v14v11v7v6v10v2v9q0 4 1 7v2q-1 2 -1 3q1 2 1 4.5v3.5q0 3 0.5 10t-0.5 11q1 1 1 5v9v9q0 5 1 7v2q-1 1 -1 2q1 1 1 3q0 9 1 13q0 2 1 7.5t0 9.5q-1 0 -7 -3h-1q-9 -2 -11 1v1v8l2 4q2 2 6.5 7.5t7.5 8.5
q0 2 2 2v2l1 1l2 2q1 -1 5 -1zM279 160v1h-1l-1 -3h-1v-1q0 -1 -2 -1l-1 -1l3 -3q1 0 2 -1q0 -1 1 -1l1 -1q0 -1 1 -1q4 -4 5 -7q1 0 1 -1q1 0 1 -1t1 -1q0 -4 1 -5v-1q1 -1 1.5 -4.5t0.5 -4.5v-6.5v-6.5v-5q0 -1 -1 0q1 -1 1 -3.5v-3.5t-1 -1v-3v-5v-4q1 -2 1 -6v-6v-1
l-1 -2v-4q1 -1 0 -3t-1 -3q0 -10 -5 -20h2v-1q-1 -2 -2.5 -6t-1.5 -5q-1 0 -1 -2t-1 -2q-1 -1 -4 -3q0 -3 -3 -3v-1q-1 0 -3 -2q-1 0 -2 -1l-2 -1q-2 -1 -3 -1h1l-1 -1q-2 -2 -6 -2h-1q-1 -1 -2 -1q-2 -1 -3 -1q-4 0 -6 1h-1q-2 0 -4 0.5t-3 0.5q0 2 -4 2q-1 1 -3 2.5
t-3 2.5q-4 4 -7 6q-2 4 -3 5q-3 3 -4 5q0 2 -1 2q0 2 -1 4t-1 3l-1 1v1v1v2v2.5t-1 2.5q0 1 -0.5 4t0.5 5q0 2 1 3v5v2l1 2q0 1 0.5 4t1.5 4h5q1 -1 2 -1t3 -2q2 -1 5 -1l1 -1q1 -1 1 -2v-1q0 -2 2 -6v-2q0 -2 3 -14q-1 -2 0 -5.5t1 -4.5q2 -3 6 -7l4 -2q4 2 10 8h1v0l1 1
q2 2 4 6v2q2 3 3 6t1.5 7t1.5 6v6q0 1 1 2v7l-1 1v2t0.5 1t0.5 1t-0.5 2.5t-0.5 2.5q2 6 1 9h1q-2 1 0 3v7v1l-1 2v3v9v1q0 12 -11 16q-1 1 -2.5 1t-2.5 1q-1 0 -4 0.5t-5 0.5l-4 2v1q-1 0 -2 1q-2 1 -3 2v1l-3 3l-3 3q0 2 2.5 2t2.5 1h4q0 5 5 0h1q1 1 3.5 1.5t3.5 0.5h1
q0 1 2 1q1 1 4 3.5t5 4.5q1 1 1 3t1 2q0 1 1 3v2q1 3 2.5 9t1.5 8v11q0 3 0.5 7t0.5 6v1q0 2 0.5 6.5t0.5 6.5v8v6q0 7 -1 10q-3 4 -8 5h-3q-2 -1 -5 -1q-1 0 -3 -2q-2 0 -2 -2q-3 -3 -5 -4q-1 -2 -2 -4.5t-1 -3.5q-1 -1 -1 -3v-2q0 -5 -2 -6v-3q-1 -1 -1 -3q-3 -4 -7 -4
q-1 0 -3 -0.5t-4 0.5l-1 1q-2 1 -3 2h-2v15q6 16 10 20v1q7 8 16 11q4 2 6 2q10 3 21 2l3 -1q3 -1 4 -2h2q3 -1 9 -5q5 -7 5 -9l1 -1l1 -1v-3v-3q1 -2 1.5 -6.5t0.5 -5.5t-1 -2.5t0 -2.5q-2 -5 -1 -6q0 -1 -1 -4t-1 -5v-3v-1v-5h-1v-11q-1 -2 -1 -4v-2v-2v-2q0 -5 -1 -7
l-1 -2v-3q-2 -6 -3 -10h-1v-1l-1 -2q-1 -1 -1 -2l-1 -1q-1 -1 -1 -2q-2 -2 -3 -6z" />
    <glyph glyph-name="onehalf" unicode="&#xbd;" horiz-adv-x="374" 
d="M95 144h-27q0 2 -2 7t-2 8q-1 8 4 17v2q0 2 1 2q3 4 8 13t7 12q12 24 36.5 67t34.5 62q2 1 4 4q2 6 8 17t7 14q7 17 18 34l36 71q13 22 41 66q12 22 21 33q1 6 8 18q7 11 12 13l1 1q1 0 6.5 -3t9.5 -4q3 -6 -2 -23q-6 -10 -7 -14q-10 -23 -15 -29q-2 -7 -10 -19t-9 -14
q-4 -5 -5 -11q-4 -6 -7 -11q-1 -3 -6 -11l-5.5 -11.5t-6.5 -11.5q-1 -3 -5.5 -11t-5.5 -12q-9 -18 -11 -24q-16 -30 -25 -45l-1 -1v-2q-3 -7 -19 -39q-3 -7 -8 -13l-6.5 -12.5t-6.5 -14.5q-18 -32 -27 -50l-4.5 -6.5t-3.5 -5.5q-2 -2 -4.5 -6.5t-3.5 -6.5q0 -2 -8 -12
q-1 -5 -7 -13q-6 -15 -13 -25zM111 628h5h3q2 0 2 -1t1 -1q2 -2 5 -2q0 -2 1 -2q0 -2 1 -6t1 -6v-2q0 -1 -0.5 -3t-0.5 -3q0 -8 -1 -11q1 -2 0 -5t-1 -4l1 -2v-2q-1 -1 -1 -5q0 -6 -1 -8q1 -3 -1 -9q1 -2 0.5 -6.5t-0.5 -7.5v-1l-1 -7q0 -7 1 -7l-1 -1v-1v-13v-9v-1v-4
q0 -6 1 -8v-12q0 -1 -1 -3v-2v-3l1 -2q0 -2 -0.5 -4.5t-0.5 -3.5q1 0 1 -1v-1q0 -2 -1 -3v-4t1 -4q-1 -1 -1 -2q1 -1 0 -2v-3v-4v-3v-9v-4v-7v-2v-2l1 -1l-1 -2q2 -13 -1 -22q1 -2 1 -5v-3v-1q0 -1 -1 -1q1 0 1 -1v-1l-3 -18q0 -3 -1 -4h-1q-1 -1 -2 -1q0 -1 -5 -3
q0 -2 -2 -2q-3 -1 -6 2l-6 12v26v8q0 1 0.5 4.5t0.5 5.5v9v17v14v11v7v6v10v2v9q0 4 1 7v2q-1 2 -1 3q1 2 1 4.5v3.5q0 3 0.5 10t-0.5 11q1 1 1 5v9v9q0 5 1 7v2q-1 1 -1 2q1 1 1 3q0 9 1 13q0 2 1 7.5t0 9.5q-1 0 -7 -3h-1q-9 -2 -11 1v1v8l2 4q2 2 6.5 7.5t7.5 8.5
q0 2 2 2v2l1 1l2 2q1 -1 5 -1zM246 35q2 0 6 0.5t6 0.5q1 0 3 0.5t4 0.5h2h7h4h6q3 0 9 -2q1 1 1 0q3 1 4 0.5t2.5 -2t2.5 -1.5v-3q1 0 1 -2q-1 -1 -1 -3q1 0 1 -1t-1 -2.5t-2 -2.5t-3.5 -1.5t-3.5 -0.5l-5 -3h-7q-5 0 -13 -2q-5 0 -8 -1l-1 1l-1 -1l-1 1v-1l-2 1
q-6 -2 -10 -1q-4 -2 -15 1l-1 1q-1 0 -1 1h-1q-1 0 -3 1l-2 1l-2 2t-1 2q-2 2 0 6q-2 0 0 2h-1q0 1 1 3v1v2q0 1 1 4.5t1 5.5l1 3q1 3 2 4q0 3 2 7q0 1 1 2v1q0 2 1 2q1 9 6 18q3 13 7 23q1 4 5 17q1 1 1 4q2 8 2 10q1 3 2.5 8t2.5 7l1 1v1q0 4 1 6q1 1 1 4q0 1 2 5l3 12
q0 2 1 6t1 7q0 1 1 3v1l1 1v1v2q1 2 1 5q0 1 1 2v3q1 1 1 4v1q0 2 1 5.5t2 5.5v1q0 2 1 3q0 3 0.5 10t0.5 13t-1 11q0 2 -2 4q0 1 -2 3h-1l-2 1q-3 0 -7 -2q-2 -2 -3 -2q-4 -4 -6 -12q0 -3 -1 -4v-1q0 -3 -1 -4v-5q0 -1 -0.5 -1t-0.5 -1q1 -1 0 -2q0 -1 0.5 -5t1.5 -5v-6
q-2 -9 -10 -11h-2h-4q-2 1 -3 1q0 3 -2 5q0 1 -0.5 2.5t-0.5 3.5h-1q-2 13 0 24q1 4 2.5 9t1.5 6h1v2q1 0 1 1t1.5 3t1.5 3l1 1q1 1 1 2l1 1q1 2 1 3q4 2 5 4q4 4 7 6q4 2 10 4q1 1 4 1t4 1q1 0 3 -0.5t3 -1.5h2q2 0 4 -2q2 -1 5 -3t5 -3q0 -2 2 -2q0 -2 1 -3l1 -1l1 -1
q1 -1 1.5 -3t0.5 -3q1 -2 1 -6q2 -6 0 -13v-4v-1q0 -2 -1 -6.5t-1 -6.5q0 -5 -2 -15q0 -5 -1 -7q-1 -1 -1 -3v-2v-1q0 -5 -1 -6q0 -2 -1 -2q0 -2 -0.5 -4t-0.5 -3v-1q-2 -8 -3 -11q0 -1 -0.5 -3t-0.5 -4q-1 0 -1 -1v-1q0 -1 -1 -3.5t-1 -4.5v-1q0 -1 -1 -1q0 -4 -1 -6l-1 -2
v-1l-1 -2v-2q-1 -1 -1.5 -4.5t-1.5 -4.5q0 -1 -0.5 -2t-0.5 -2v-1v-1q-1 -1 -1 -2q-2 -6 -4 -16h-1v-3q-1 -1 -1 -4v-1q-1 -1 -1 -3t-1 -2q0 -2 -1 -3v-2q-1 0 -1 -3q-1 -1 -1 -3l-1 -1v-1q0 -1 -2 -7q0 -1 -1 -1q0 -2 -1.5 -5.5t-1.5 -5.5q0 -4 -3 -7v-2q0 -1 -0.5 -2
t-0.5 -2q-1 -1 -1 -2.5t-1 -2.5q-1 0 -1 -2v-1q0 -4 -4 -12z" />
    <glyph glyph-name="threequarters" unicode="&#xbe;" horiz-adv-x="381" 
d="M95 144h-27q0 2 -2 7t-2 8q-1 8 4 17v2q0 2 1 2q3 4 8 13t7 12q12 24 36.5 67t34.5 62q2 1 4 4q2 6 8 17t7 14q7 17 18 34l36 71q13 22 41 66q12 22 21 33q1 6 8 18q7 11 12 13l1 1q1 0 6.5 -3t9.5 -4q3 -6 -2 -23q-6 -10 -7 -14q-10 -23 -15 -29q-2 -7 -10 -19t-9 -14
q-4 -5 -5 -11q-4 -6 -7 -11q-1 -3 -6 -11l-5.5 -11.5t-6.5 -11.5q-1 -3 -5.5 -11t-5.5 -12q-9 -18 -11 -24q-16 -30 -25 -45l-1 -1v-2q-3 -7 -19 -39q-3 -7 -8 -13l-6.5 -12.5t-6.5 -14.5q-18 -32 -27 -50l-4.5 -6.5t-3.5 -5.5q-2 -2 -4.5 -6.5t-3.5 -6.5q0 -2 -8 -12
q-1 -5 -7 -13q-6 -15 -13 -25zM139 550v1h-1l-1 -3h-1v-1q0 -1 -2 -1l-1 -1l3 -3q1 0 2 -1q0 -1 1 -1l1 -1q0 -1 1 -1q4 -4 5 -7q1 0 1 -1q1 0 1 -1t1 -1q0 -4 1 -5v-1q1 -1 1.5 -4.5t0.5 -4.5v-6.5v-6.5v-5q0 -1 -1 0q1 -1 1 -3.5v-3.5t-1 -1v-3v-5v-4q1 -2 1 -6v-6v-1
l-1 -2v-4q1 -1 0 -3t-1 -3q0 -10 -5 -20h2v-1q-1 -2 -2.5 -6t-1.5 -5q-1 0 -1 -2t-1 -2q-1 -1 -4 -3q0 -3 -3 -3v-1q-1 0 -3 -2q-1 0 -2 -1l-2 -1q-2 -1 -3 -1h1l-1 -1q-2 -2 -6 -2h-1q-1 -1 -2 -1q-2 -1 -3 -1q-4 0 -6 1h-1q-2 0 -4 0.5t-3 0.5q0 2 -4 2q-1 1 -3 2.5
t-3 2.5q-4 4 -7 6q-2 4 -3 5q-3 3 -4 5q0 2 -1 2q0 2 -1 4t-1 3l-1 1v1v1v2v2.5t-1 2.5q0 1 -0.5 4t0.5 5q0 2 1 3v5v2l1 2q0 1 0.5 4t1.5 4h5q1 -1 2 -1t3 -2q2 -1 5 -1l1 -1q1 -1 1 -2v-1q0 -2 2 -6v-2q0 -2 3 -14q-1 -2 0 -5.5t1 -4.5q2 -3 6 -7l4 -2q4 2 10 8h1v0l1 1
q2 2 4 6v2q2 3 3 6t1.5 7t1.5 6v6q0 1 1 2v7l-1 1v2t0.5 1t0.5 1t-0.5 2.5t-0.5 2.5q2 6 1 9h1q-2 1 0 3v7v1l-1 2v3v9v1q0 12 -11 16q-1 1 -2.5 1t-2.5 1q-1 0 -4 0.5t-5 0.5l-4 2v1q-1 0 -2 1q-2 1 -3 2v1l-3 3l-3 3q0 2 2.5 2t2.5 1h4q0 5 5 0h1q1 1 3.5 1.5t3.5 0.5h1
q0 1 2 1q1 1 4 3.5t5 4.5q1 1 1 3t1 2q0 1 1 3v2q1 3 2.5 9t1.5 8v11q0 3 0.5 7t0.5 6v1q0 2 0.5 6.5t0.5 6.5v8v6q0 7 -1 10q-3 4 -8 5h-3q-2 -1 -5 -1q-1 0 -3 -2q-2 0 -2 -2q-3 -3 -5 -4q-1 -2 -2 -4.5t-1 -3.5q-1 -1 -1 -3v-2q0 -5 -2 -6v-3q-1 -1 -1 -3q-3 -4 -7 -4
q-1 0 -3 -0.5t-4 0.5l-1 1q-2 1 -3 2h-2v15q6 16 10 20v1q7 8 16 11q4 2 6 2q10 3 21 2l3 -1q3 -1 4 -2h2q3 -1 9 -5q5 -7 5 -9l1 -1l1 -1v-3v-3q1 -2 1.5 -6.5t0.5 -5.5t-1 -2.5t0 -2.5q-2 -5 -1 -6q0 -1 -1 -4t-1 -5v-3v-1v-5h-1v-11q-1 -2 -1 -4v-2v-2v-2q0 -5 -1 -7
l-1 -2v-3q-2 -6 -3 -10h-1v-1l-1 -2q-1 -1 -1 -2l-1 -1q-1 -1 -1 -2q-2 -2 -3 -6zM282 190q8 0 11 -2q1 -1 2 -1v-5q-2 0 -2 -3v-1q-1 0 -1 -1t-1 -1v-1q-1 0 -2 -1q-2 -2 -3 -2q-3 0 -5 -2q0 -4 -0.5 -11.5t-0.5 -10.5q-1 -2 -1 -9v-1v-11v-2l-1 -3q0 -2 1 -3q-1 -1 -1 -2
v-3v-22l-1 -2v-7v-1v-5v-13q-1 -1 -1 -3v-3l-1 -2q-1 -2 -1 -3t-0.5 -2.5t-0.5 -2.5q0 -2 -1 -2h-2q0 -1 -0.5 -3t-1.5 -3h-3l-4 4q-3 3 -3 6t-0.5 8.5t-0.5 7.5v4v12v2q0 2 0.5 4.5t0.5 3.5v8v5v11v6q2 3 0 6q0 3 0.5 10t1.5 10v8v6q0 1 0.5 3.5t0.5 4.5h-4q-1 0 -3 -0.5
l-2 -0.5l-1 1q-3 -2 -7 0q-5 -2 -8 0h-3.5t-3.5 -1q-2 -2 -5 -2l-2 1h-2q-4 2 -4 4q-1 1 -2 1q0 2 -2 5t-2 4v1l1 1q0 3 3 12l2 2v1q1 1 1 2q1 3 9 23l1 2l2 6h1v1v1q1 2 3 8h1q-1 1 0 3l1 1q0 2 1 2q0 1 0.5 2.5t0.5 2.5l1 1q0 2 1 2q0 3 2 7t2 5t1 2.5t1 2.5q1 2 2.5 7.5
t2.5 7.5q1 3 3.5 8.5t3.5 8.5v1q4 8 7 11h1q1 0 2 1h2h1q0 1 1 2q1 -1 4 -1q1 0 1 0.5t1 0.5q0 -2 1 -2q6 -4 7 -8v-7v-13v-9v-5v-6q-1 -3 -1 -11v-8v-5t-1 -6v-4v-12v-8l-1 -1v-1l1 -1q-1 -4 -1 -13v-8v-2zM259 260v-2q-1 0 -1 -1q-1 -1 -1.5 -3.5t-0.5 -3.5h-1
q-2 -6 -3 -10q-1 0 -1 -2q-1 -1 -2 -4.5t-2 -4.5q0 -1 -1 -3l-2 -4q-1 -4 -2 -5q0 -1 -0.5 -2.5t-1.5 -2.5q-2 -4 -2 -6q-2 -4 -2 -6q-3 -6 -3 -7q-2 -2 -2 -3q3 -2 22 -2h8v2v15v5q1 8 1 26q0 2 0.5 5.5t0.5 4.5v8v7q1 2 1 7q-1 0 -1.5 -1.5t-1.5 -3.5t-2 -3z" />
    <glyph glyph-name="questiondown" unicode="&#xbf;" horiz-adv-x="236" 
d="M149 693q3 0 4.5 -1t3 -2.5l2.5 -2.5t4 -3.5t4 -3.5q16 -17 6 -52q-10 -8 -13 -11q-1 0 -8 -1t-11 -2q-18 12 -16 23t8 24q11 26 16 32zM154 584q8 -3 12 -10.5t4 -19.5t-1 -22t-3 -25l-3 -22q-5 -39 -23 -110q-2 -5 -4 -14t-3 -13q-3 -6 -7 -28q-31 -100 -69 -197
q-7 -53 -4 -70q5 -27 28 -28q17 -2 35 13.5t27 36.5q5 13 6 16q2 8 4 23t5 26t8 17q6 7 16 9.5t19 -3.5q15 -27 -3 -81q-25 -70 -77 -100q-43 -18 -70 -4q-11 5 -13 7q-8 4 -18 13.5t-14 18.5q-15 28 -15 62q0 23 12 63q11 40 18 55q0 1 1 2.5t1.5 3t0.5 3.5q1 3 3.5 8.5
t3.5 7.5q1 3 2.5 10.5t2.5 11.5q1 3 4 8.5t4 9.5l6 18q1 4 3.5 10.5t3.5 8.5q0 8 1 10q0 1 2 4.5t3 5.5q0 1 0.5 4t1.5 4q4 12 6 17q5 12 6 13q2 9 7.5 23.5t6.5 18.5q16 66 22 88q3 10 4 22q2 7 4 22l3 22l3 18q1 2 4 6t4 7q4 10 10 10q2 1 4.5 -2.5t4.5 -7.5z" />
    <glyph glyph-name="Agrave" unicode="&#xc0;" horiz-adv-x="300" 
d="M195 691q0 -1 1.5 -3t2.5 -4q2 0 12 -13q6 -22 6 -26q1 -1 1.5 -5t1.5 -5v-8q2 -3 2 -11q0 -5 0.5 -13.5t0.5 -11.5q2 -5 2 -20q2 -6 2 -8q0 -13 1 -19q0 -4 2 -14t1 -16q2 -5 0 -9q2 -4 0 -6q5 -11 3 -23q5 -15 5 -20q-3 -6 1 -14q-1 -2 0 -4v-13q2 -6 2 -9q0 -14 4 -34
v-14v-4t1 -4q0 -6 1 -9q1 -1 -1 -1q2 -3 3 -10.5t2 -9.5q-1 -5 0.5 -12.5t1.5 -10.5q1 -2 1 -12q0 -2 2 -8.5t2 -9.5v-12q0 -1 0.5 -4.5t1.5 -5.5q-2 -6 1 -21q-1 -8 1 -26h-1v-1v-1h1q-1 -4 0 -9v-3q1 -1 1 -4.5v-5.5q1 -4 2 -18t3 -21q0 -1 3 -26q0 -1 -0.5 -2.5
t-0.5 -2.5q2 -4 2 -10q0 -8 1 -11q-1 -4 0.5 -12t1.5 -11v-11q-1 -3 0.5 -9.5t1.5 -8.5t-1 -6t-1 -6q2 -7 1 -9l-1 -1v-2v-8v-5t-1 -5q-2 -2 -7.5 -3.5t-7.5 -2.5l-1 -2q0 -1 -1 -1t-6 5q-2 1 -6 1t-5 1q-3 3 -5 4q0 2 -3.5 4.5t-4.5 5.5l1 1h1q1 1 2 1q0 2 -2.5 4.5
t-2.5 4.5v14l-3 9q-1 5 -1 17q0 1 -1 8.5t-1 9.5q-1 4 -1.5 12.5t-0.5 12.5q-1 5 -2.5 14.5t-1.5 11.5q0 3 -0.5 10.5t-1.5 10.5l-1 4v6v7q-3 48 -3 53q0 22 -4 68h-1v1h-53q-20 0 -22 -1q-3 -9 -3 -19q-3 -6 -6.5 -20.5t-4.5 -16.5q3 -2 -2 -7q-1 -3 -2 -11t-2 -11
q0 -8 -2 -11l-2 -9q-2 -9 -2 -13q-1 -1 -2 -5.5t-2 -5.5q0 -16 -4 -21q0 -2 -0.5 -6.5t-1.5 -6.5q0 -3 -1 -5.5t-2.5 -5.5t-1.5 -4q0 -10 -3 -16v-1q-1 -3 -5.5 -25t-7.5 -25q0 -2 -2 -6.5t-2 -6.5q-3 -3 -3 -8q-5 -6 -2 -14q7 -3 2 -10l-4 -4q-4 -1 -13 -1q-6 0 -16 2
q-1 0 -3 1q-3 0 -3 2q-3 0 -8 1.5t-6 1.5q-6 6 -3 13q0 1 1.5 2.5t0.5 2.5q4 2 2 10q-2 14 6 55q0 2 0.5 7t1.5 7q0 2 2 4v2q2 4 4 19q2 6 2 8q1 0 1 1v1v1q1 3 3 12.5t4 13.5l1 2q0 1 -1 2q3 4 3 12q2 4 4 13t3 13v1q1 6 4.5 21t4.5 22q2 4 4 14q0 2 1 5.5t2 5.5q0 1 1 2v6
l1 1q1 2 0 3l3 15q2 6 2 7q1 4 2 11t2 10v1q1 1 1 3l1 1q0 3 2.5 14.5t3.5 17.5q2 8 4 20t3 17q0 2 1.5 5.5t0.5 6.5h1v1q0 3 3 15q0 6 2 8q-1 2 0 3.5t1 2.5q1 3 2.5 11.5t3.5 11.5q-1 1 -0.5 2.5t1.5 1.5q-1 2 0 6t1 5q1 2 1.5 4t0.5 3q0 5 3 18.5t3 20.5q2 8 7 44v1
q2 15 9.5 49t9.5 48v5q2 4 2 6l3 3q3 1 8 2.5t6 1.5q6 0 9 -2v1q0 1 1 2q3 1 10 1l1 1q1 1 3 1q1 1 4 0l1 -1h7zM177 535q0 -1 -2.5 -8.5t-3.5 -11.5t-2.5 -9t-1.5 -8q0 -5 -1 -7v-1q-1 -2 -1.5 -5t-0.5 -4t-0.5 -2.5t-0.5 -2.5q-1 -2 -1 -5q-2 -2 -2 -7.5t-1 -7.5l-1 -1v-1
q0 -8 -1 -9v-2l-2 -2q0 -15 -4 -24q1 -5 -4 -17q-1 -2 -1 -6.5v-6.5q-2 -4 -2 -5v-1q0 -1 -1 -1q0 -1 -0.5 -2.5t-0.5 -2.5q1 0 1 -1q0 -2 -1.5 -7.5t-1.5 -6.5q0 -12 -1 -14q0 -1 -0.5 -3.5t-0.5 -3.5t1 -2q11 -1 32.5 -1.5t28.5 -0.5q-1 9 -2.5 27t-2.5 27q-1 2 -1 6.5
v6.5t-0.5 6t-0.5 6v1q0 4 -3 31q-1 6 -2 21.5t-2 21.5q-1 5 -1.5 13t-0.5 10q-2 16 -3 22q0 8 -1 11q-1 -1 -3 -10zM241 735q-7 -2 -10 -7q-6 -1 -35 14q-8 10 -14 11l-7 3.5l-7 3.5q-9 5 -24.5 16.5t-17.5 13.5q-2 7 -9 16q1 10 0 18q3 0 3 2q1 2 -0.5 3t-1.5 2q3 2 9 5
l6 2q6 -6 11 -2l2 -5l72 -46q7 -3 12 -9q4 -2 8 -6q2 -2 5 -7t4 -6v-10q0 -3 -3 -6.5t-3 -5.5z" />
    <glyph glyph-name="Aacute" unicode="&#xc1;" horiz-adv-x="300" 
d="M195 691q0 -1 1.5 -3t2.5 -4q2 0 12 -13q6 -22 6 -26q1 -1 1.5 -5t1.5 -5v-8q2 -3 2 -11q0 -5 0.5 -13.5t0.5 -11.5q2 -5 2 -20q2 -6 2 -8q0 -13 1 -19q0 -4 2 -14t1 -16q2 -5 0 -9q2 -4 0 -6q5 -11 3 -23q5 -15 5 -20q-3 -6 1 -14q-1 -2 0 -4v-13q2 -6 2 -9q0 -14 4 -34
v-14v-4t1 -4q0 -6 1 -9q1 -1 -1 -1q2 -3 3 -10.5t2 -9.5q-1 -5 0.5 -12.5t1.5 -10.5q1 -2 1 -12q0 -2 2 -8.5t2 -9.5v-12q0 -1 0.5 -4.5t1.5 -5.5q-2 -6 1 -21q-1 -8 1 -26h-1v-1v-1h1q-1 -4 0 -9v-3q1 -1 1 -4.5v-5.5q1 -4 2 -18t3 -21q0 -1 3 -26q0 -1 -0.5 -2.5
t-0.5 -2.5q2 -4 2 -10q0 -8 1 -11q-1 -4 0.5 -12t1.5 -11v-11q-1 -3 0.5 -9.5t1.5 -8.5t-1 -6t-1 -6q2 -7 1 -9l-1 -1v-2v-8v-5t-1 -5q-2 -2 -7.5 -3.5t-7.5 -2.5l-1 -2q0 -1 -1 -1t-6 5q-2 1 -6 1t-5 1q-3 3 -5 4q0 2 -3.5 4.5t-4.5 5.5l1 1h1q1 1 2 1q0 2 -2.5 4.5
t-2.5 4.5v14l-3 9q-1 5 -1 17q0 1 -1 8.5t-1 9.5q-1 4 -1.5 12.5t-0.5 12.5q-1 5 -2.5 14.5t-1.5 11.5q0 3 -0.5 10.5t-1.5 10.5l-1 4v6v7q-3 48 -3 53q0 22 -4 68h-1v1h-53q-20 0 -22 -1q-3 -9 -3 -19q-3 -6 -6.5 -20.5t-4.5 -16.5q3 -2 -2 -7q-1 -3 -2 -11t-2 -11
q0 -8 -2 -11l-2 -9q-2 -9 -2 -13q-1 -1 -2 -5.5t-2 -5.5q0 -16 -4 -21q0 -2 -0.5 -6.5t-1.5 -6.5q0 -3 -1 -5.5t-2.5 -5.5t-1.5 -4q0 -10 -3 -16v-1q-1 -3 -5.5 -25t-7.5 -25q0 -2 -2 -6.5t-2 -6.5q-3 -3 -3 -8q-5 -6 -2 -14q7 -3 2 -10l-4 -4q-4 -1 -13 -1q-6 0 -16 2
q-1 0 -3 1q-3 0 -3 2q-3 0 -8 1.5t-6 1.5q-6 6 -3 13q0 1 1.5 2.5t0.5 2.5q4 2 2 10q-2 14 6 55q0 2 0.5 7t1.5 7q0 2 2 4v2q2 4 4 19q2 6 2 8q1 0 1 1v1v1q1 3 3 12.5t4 13.5l1 2q0 1 -1 2q3 4 3 12q2 4 4 13t3 13v1q1 6 4.5 21t4.5 22q2 4 4 14q0 2 1 5.5t2 5.5q0 1 1 2v6
l1 1q1 2 0 3l3 15q2 6 2 7q1 4 2 11t2 10v1q1 1 1 3l1 1q0 3 2.5 14.5t3.5 17.5q2 8 4 20t3 17q0 2 1.5 5.5t0.5 6.5h1v1q0 3 3 15q0 6 2 8q-1 2 0 3.5t1 2.5q1 3 2.5 11.5t3.5 11.5q-1 1 -0.5 2.5t1.5 1.5q-1 2 0 6t1 5q1 2 1.5 4t0.5 3q0 5 3 18.5t3 20.5q2 8 7 44v1
q2 15 9.5 49t9.5 48v5q2 4 2 6l3 3q3 1 8 2.5t6 1.5q6 0 9 -2v1q0 1 1 2q3 1 10 1l1 1q1 1 3 1q1 1 4 0l1 -1h7zM177 535q0 -1 -2.5 -8.5t-3.5 -11.5t-2.5 -9t-1.5 -8q0 -5 -1 -7v-1q-1 -2 -1.5 -5t-0.5 -4t-0.5 -2.5t-0.5 -2.5q-1 -2 -1 -5q-2 -2 -2 -7.5t-1 -7.5l-1 -1v-1
q0 -8 -1 -9v-2l-2 -2q0 -15 -4 -24q1 -5 -4 -17q-1 -2 -1 -6.5v-6.5q-2 -4 -2 -5v-1q0 -1 -1 -1q0 -1 -0.5 -2.5t-0.5 -2.5q1 0 1 -1q0 -2 -1.5 -7.5t-1.5 -6.5q0 -12 -1 -14q0 -1 -0.5 -3.5t-0.5 -3.5t1 -2q11 -1 32.5 -1.5t28.5 -0.5q-1 9 -2.5 27t-2.5 27q-1 2 -1 6.5
v6.5t-0.5 6t-0.5 6v1q0 4 -3 31q-1 6 -2 21.5t-2 21.5q-1 5 -1.5 13t-0.5 10q-2 16 -3 22q0 8 -1 11q-1 -1 -3 -10zM118 735q0 2 -3 5.5t-3 6.5v10q1 1 4 6t5 7q4 4 8 6q5 6 12 9l72 46l2 5q5 -4 11 2l6 -2q6 -3 9 -5q0 -1 -1.5 -2t-0.5 -3q0 -2 3 -2q-2 -8 0 -18
q-7 -9 -9 -16q-2 -2 -17.5 -13.5t-24.5 -16.5l-7 -3.5l-7 -3.5q-6 -1 -14 -11q-29 -15 -35 -14q-3 5 -10 7z" />
    <glyph glyph-name="Acircumflex" unicode="&#xc2;" horiz-adv-x="297" 
d="M195 691q0 -1 1.5 -3t2.5 -4q2 0 12 -13q6 -22 6 -26q1 -1 1.5 -5t1.5 -5v-8q2 -3 2 -11q0 -5 0.5 -13.5t0.5 -11.5q2 -5 2 -20q2 -6 2 -8q0 -13 1 -19q0 -4 2 -14t1 -16q2 -5 0 -9q2 -4 0 -6q5 -11 3 -23q5 -15 5 -20q-3 -6 1 -14q-1 -2 0 -4v-13q2 -6 2 -9q0 -14 4 -34
v-14v-4t1 -4q0 -6 1 -9q1 -1 -1 -1q2 -3 3 -10.5t2 -9.5q-1 -5 0.5 -12.5t1.5 -10.5q1 -2 1 -12q0 -2 2 -8.5t2 -9.5v-12q0 -1 0.5 -4.5t1.5 -5.5q-2 -6 1 -21q-1 -8 1 -26h-1v-1v-1h1q-1 -4 0 -9v-3q1 -1 1 -4.5v-5.5q1 -4 2 -18t3 -21q0 -1 3 -26q0 -1 -0.5 -2.5
t-0.5 -2.5q2 -4 2 -10q0 -8 1 -11q-1 -4 0.5 -12t1.5 -11v-11q-1 -3 0.5 -9.5t1.5 -8.5t-1 -6t-1 -6q2 -7 1 -9l-1 -1v-2v-8v-5t-1 -5q-2 -2 -7.5 -3.5t-7.5 -2.5l-1 -2q0 -1 -1 -1t-6 5q-2 1 -6 1t-5 1q-3 3 -5 4q0 2 -3.5 4.5t-4.5 5.5l1 1h1q1 1 2 1q0 2 -2.5 4.5
t-2.5 4.5v14l-3 9q-1 5 -1 17q0 1 -1 8.5t-1 9.5q-1 4 -1.5 12.5t-0.5 12.5q-1 5 -2.5 14.5t-1.5 11.5q0 3 -0.5 10.5t-1.5 10.5l-1 4v6v7q-3 48 -3 53q0 22 -4 68h-1v1h-53q-20 0 -22 -1q-3 -9 -3 -19q-3 -6 -6.5 -20.5t-4.5 -16.5q3 -2 -2 -7q-1 -3 -2 -11t-2 -11
q0 -8 -2 -11l-2 -9q-2 -9 -2 -13q-1 -1 -2 -5.5t-2 -5.5q0 -16 -4 -21q0 -2 -0.5 -6.5t-1.5 -6.5q0 -3 -1 -5.5t-2.5 -5.5t-1.5 -4q0 -10 -3 -16v-1q-1 -3 -5.5 -25t-7.5 -25q0 -2 -2 -6.5t-2 -6.5q-3 -3 -3 -8q-5 -6 -2 -14q7 -3 2 -10l-4 -4q-4 -1 -13 -1q-6 0 -16 2
q-1 0 -3 1q-3 0 -3 2q-3 0 -8 1.5t-6 1.5q-6 6 -3 13q0 1 1.5 2.5t0.5 2.5q4 2 2 10q-2 14 6 55q0 2 0.5 7t1.5 7q0 2 2 4v2q2 4 4 19q2 6 2 8q1 0 1 1v1v1q1 3 3 12.5t4 13.5l1 2q0 1 -1 2q3 4 3 12q2 4 4 13t3 13v1q1 6 4.5 21t4.5 22q2 4 4 14q0 2 1 5.5t2 5.5q0 1 1 2v6
l1 1q1 2 0 3l3 15q2 6 2 7q1 4 2 11t2 10v1q1 1 1 3l1 1q0 3 2.5 14.5t3.5 17.5q2 8 4 20t3 17q0 2 1.5 5.5t0.5 6.5h1v1q0 3 3 15q0 6 2 8q-1 2 0 3.5t1 2.5q1 3 2.5 11.5t3.5 11.5q-1 1 -0.5 2.5t1.5 1.5q-1 2 0 6t1 5q1 2 1.5 4t0.5 3q0 5 3 18.5t3 20.5q2 8 7 44v1
q2 15 9.5 49t9.5 48v5q2 4 2 6l3 3q3 1 8 2.5t6 1.5q6 0 9 -2v1q0 1 1 2q3 1 10 1l1 1q1 1 3 1q1 1 4 0l1 -1h7zM177 535q0 -1 -2.5 -8.5t-3.5 -11.5t-2.5 -9t-1.5 -8q0 -5 -1 -7v-1q-1 -2 -1.5 -5t-0.5 -4t-0.5 -2.5t-0.5 -2.5q-1 -2 -1 -5q-2 -2 -2 -7.5t-1 -7.5l-1 -1v-1
q0 -8 -1 -9v-2l-2 -2q0 -15 -4 -24q1 -5 -4 -17q-1 -2 -1 -6.5v-6.5q-2 -4 -2 -5v-1q0 -1 -1 -1q0 -1 -0.5 -2.5t-0.5 -2.5q1 0 1 -1q0 -2 -1.5 -7.5t-1.5 -6.5q0 -12 -1 -14q0 -1 -0.5 -3.5t-0.5 -3.5t1 -2q11 -1 32.5 -1.5t28.5 -0.5q-1 9 -2.5 27t-2.5 27q-1 2 -1 6.5
v6.5t-0.5 6t-0.5 6v1q0 4 -3 31q-1 6 -2 21.5t-2 21.5q-1 5 -1.5 13t-0.5 10q-2 16 -3 22q0 8 -1 11q-1 -1 -3 -10zM179 827q-4 -3 -10.5 -13t-10.5 -13v-1q0 -1 -1 -1q-1 -1 -5.5 -7t-7.5 -8q-3 -4 -11 -17q-10 -21 -26 -18q-6 2 -10 4q-6 2 -7 4q-1 0 -4 3t-3 4q0 2 4 6
t4 5l24.5 31.5l18.5 24.5q1 1 2.5 4t3 5t3.5 3q1 2 4.5 6.5t5.5 7.5q1 1 11 7.5t12 6t15 -0.5q6 -1 10 -8q1 -1 3 -7l9 -9q23 -28 38 -50q1 -1 4 -5t5 -6q5 -10 5 -11q1 -3 -2 -5.5t-4 -4.5l-2 -4t-1 -3t-1 -2.5t-2 -1.5q-6 -1 -13 1q-5 3 -11 9q-4 4 -12 16t-11 16
t-12.5 15z" />
    <glyph glyph-name="Atilde" unicode="&#xc3;" horiz-adv-x="297" 
d="M195 691q0 -1 1.5 -3t2.5 -4q2 0 12 -13q6 -22 6 -26q1 -1 1.5 -5t1.5 -5v-8q2 -3 2 -11q0 -5 0.5 -13.5t0.5 -11.5q2 -5 2 -20q2 -6 2 -8q0 -13 1 -19q0 -4 2 -14t1 -16q2 -5 0 -9q2 -4 0 -6q5 -11 3 -23q5 -15 5 -20q-3 -6 1 -14q-1 -2 0 -4v-13q2 -6 2 -9q0 -14 4 -34
v-14v-4t1 -4q0 -6 1 -9q1 -1 -1 -1q2 -3 3 -10.5t2 -9.5q-1 -5 0.5 -12.5t1.5 -10.5q1 -2 1 -12q0 -2 2 -8.5t2 -9.5v-12q0 -1 0.5 -4.5t1.5 -5.5q-2 -6 1 -21q-1 -8 1 -26h-1v-1v-1h1q-1 -4 0 -9v-3q1 -1 1 -4.5v-5.5q1 -4 2 -18t3 -21q0 -1 3 -26q0 -1 -0.5 -2.5
t-0.5 -2.5q2 -4 2 -10q0 -8 1 -11q-1 -4 0.5 -12t1.5 -11v-11q-1 -3 0.5 -9.5t1.5 -8.5t-1 -6t-1 -6q2 -7 1 -9l-1 -1v-2v-8v-5t-1 -5q-2 -2 -7.5 -3.5t-7.5 -2.5l-1 -2q0 -1 -1 -1t-6 5q-2 1 -6 1t-5 1q-3 3 -5 4q0 2 -3.5 4.5t-4.5 5.5l1 1h1q1 1 2 1q0 2 -2.5 4.5
t-2.5 4.5v14l-3 9q-1 5 -1 17q0 1 -1 8.5t-1 9.5q-1 4 -1.5 12.5t-0.5 12.5q-1 5 -2.5 14.5t-1.5 11.5q0 3 -0.5 10.5t-1.5 10.5l-1 4v6v7q-3 48 -3 53q0 22 -4 68h-1v1h-53q-20 0 -22 -1q-3 -9 -3 -19q-3 -6 -6.5 -20.5t-4.5 -16.5q3 -2 -2 -7q-1 -3 -2 -11t-2 -11
q0 -8 -2 -11l-2 -9q-2 -9 -2 -13q-1 -1 -2 -5.5t-2 -5.5q0 -16 -4 -21q0 -2 -0.5 -6.5t-1.5 -6.5q0 -3 -1 -5.5t-2.5 -5.5t-1.5 -4q0 -10 -3 -16v-1q-1 -3 -5.5 -25t-7.5 -25q0 -2 -2 -6.5t-2 -6.5q-3 -3 -3 -8q-5 -6 -2 -14q7 -3 2 -10l-4 -4q-4 -1 -13 -1q-6 0 -16 2
q-1 0 -3 1q-3 0 -3 2q-3 0 -8 1.5t-6 1.5q-6 6 -3 13q0 1 1.5 2.5t0.5 2.5q4 2 2 10q-2 14 6 55q0 2 0.5 7t1.5 7q0 2 2 4v2q2 4 4 19q2 6 2 8q1 0 1 1v1v1q1 3 3 12.5t4 13.5l1 2q0 1 -1 2q3 4 3 12q2 4 4 13t3 13v1q1 6 4.5 21t4.5 22q2 4 4 14q0 2 1 5.5t2 5.5q0 1 1 2v6
l1 1q1 2 0 3l3 15q2 6 2 7q1 4 2 11t2 10v1q1 1 1 3l1 1q0 3 2.5 14.5t3.5 17.5q2 8 4 20t3 17q0 2 1.5 5.5t0.5 6.5h1v1q0 3 3 15q0 6 2 8q-1 2 0 3.5t1 2.5q1 3 2.5 11.5t3.5 11.5q-1 1 -0.5 2.5t1.5 1.5q-1 2 0 6t1 5q1 2 1.5 4t0.5 3q0 5 3 18.5t3 20.5q2 8 7 44v1
q2 15 9.5 49t9.5 48v5q2 4 2 6l3 3q3 1 8 2.5t6 1.5q6 0 9 -2v1q0 1 1 2q3 1 10 1l1 1q1 1 3 1q1 1 4 0l1 -1h7zM177 535q0 -1 -2.5 -8.5t-3.5 -11.5t-2.5 -9t-1.5 -8q0 -5 -1 -7v-1q-1 -2 -1.5 -5t-0.5 -4t-0.5 -2.5t-0.5 -2.5q-1 -2 -1 -5q-2 -2 -2 -7.5t-1 -7.5l-1 -1v-1
q0 -8 -1 -9v-2l-2 -2q0 -15 -4 -24q1 -5 -4 -17q-1 -2 -1 -6.5v-6.5q-2 -4 -2 -5v-1q0 -1 -1 -1q0 -1 -0.5 -2.5t-0.5 -2.5q1 0 1 -1q0 -2 -1.5 -7.5t-1.5 -6.5q0 -12 -1 -14q0 -1 -0.5 -3.5t-0.5 -3.5t1 -2q11 -1 32.5 -1.5t28.5 -0.5q-1 9 -2.5 27t-2.5 27q-1 2 -1 6.5
v6.5t-0.5 6t-0.5 6v1q0 4 -3 31q-1 6 -2 21.5t-2 21.5q-1 5 -1.5 13t-0.5 10q-2 16 -3 22q0 8 -1 11q-1 -1 -3 -10zM87 776q6 14 24 32q10 10 25 19q14 6 25 3q13 -2 28 -16q3 -3 9 -9.5t9.5 -10t9.5 -7t13 -4.5q13 -1 27 22q1 1 3.5 7t4.5 8t6 1q1 0 2 -0.5t2 -0.5
q11 -6 11 -9q2 -5 -0.5 -13.5t-2.5 -12.5q-16 -38 -50 -40q-10 -1 -24 9q-11 4 -18 12l-9.5 9.5t-12.5 11.5t-11 5q-17 4 -37 -22q-2 -12 -16 -7q-14 7 -18 13z" />
    <glyph glyph-name="Adieresis" unicode="&#xc4;" horiz-adv-x="300" 
d="M195 691q0 -1 1.5 -3t2.5 -4q2 0 12 -13q6 -22 6 -26q1 -1 1.5 -5t1.5 -5v-8q2 -3 2 -11q0 -5 0.5 -13.5t0.5 -11.5q2 -5 2 -20q2 -6 2 -8q0 -13 1 -19q0 -4 2 -14t1 -16q2 -5 0 -9q2 -4 0 -6q5 -11 3 -23q5 -15 5 -20q-3 -6 1 -14q-1 -2 0 -4v-13q2 -6 2 -9q0 -14 4 -34
v-14v-4t1 -4q0 -6 1 -9q1 -1 -1 -1q2 -3 3 -10.5t2 -9.5q-1 -5 0.5 -12.5t1.5 -10.5q1 -2 1 -12q0 -2 2 -8.5t2 -9.5v-12q0 -1 0.5 -4.5t1.5 -5.5q-2 -6 1 -21q-1 -8 1 -26h-1v-1v-1h1q-1 -4 0 -9v-3q1 -1 1 -4.5v-5.5q1 -4 2 -18t3 -21q0 -1 3 -26q0 -1 -0.5 -2.5
t-0.5 -2.5q2 -4 2 -10q0 -8 1 -11q-1 -4 0.5 -12t1.5 -11v-11q-1 -3 0.5 -9.5t1.5 -8.5t-1 -6t-1 -6q2 -7 1 -9l-1 -1v-2v-8v-5t-1 -5q-2 -2 -7.5 -3.5t-7.5 -2.5l-1 -2q0 -1 -1 -1t-6 5q-2 1 -6 1t-5 1q-3 3 -5 4q0 2 -3.5 4.5t-4.5 5.5l1 1h1q1 1 2 1q0 2 -2.5 4.5
t-2.5 4.5v14l-3 9q-1 5 -1 17q0 1 -1 8.5t-1 9.5q-1 4 -1.5 12.5t-0.5 12.5q-1 5 -2.5 14.5t-1.5 11.5q0 3 -0.5 10.5t-1.5 10.5l-1 4v6v7q-3 48 -3 53q0 22 -4 68h-1v1h-53q-20 0 -22 -1q-3 -9 -3 -19q-3 -6 -6.5 -20.5t-4.5 -16.5q3 -2 -2 -7q-1 -3 -2 -11t-2 -11
q0 -8 -2 -11l-2 -9q-2 -9 -2 -13q-1 -1 -2 -5.5t-2 -5.5q0 -16 -4 -21q0 -2 -0.5 -6.5t-1.5 -6.5q0 -3 -1 -5.5t-2.5 -5.5t-1.5 -4q0 -10 -3 -16v-1q-1 -3 -5.5 -25t-7.5 -25q0 -2 -2 -6.5t-2 -6.5q-3 -3 -3 -8q-5 -6 -2 -14q7 -3 2 -10l-4 -4q-4 -1 -13 -1q-6 0 -16 2
q-1 0 -3 1q-3 0 -3 2q-3 0 -8 1.5t-6 1.5q-6 6 -3 13q0 1 1.5 2.5t0.5 2.5q4 2 2 10q-2 14 6 55q0 2 0.5 7t1.5 7q0 2 2 4v2q2 4 4 19q2 6 2 8q1 0 1 1v1v1q1 3 3 12.5t4 13.5l1 2q0 1 -1 2q3 4 3 12q2 4 4 13t3 13v1q1 6 4.5 21t4.5 22q2 4 4 14q0 2 1 5.5t2 5.5q0 1 1 2v6
l1 1q1 2 0 3l3 15q2 6 2 7q1 4 2 11t2 10v1q1 1 1 3l1 1q0 3 2.5 14.5t3.5 17.5q2 8 4 20t3 17q0 2 1.5 5.5t0.5 6.5h1v1q0 3 3 15q0 6 2 8q-1 2 0 3.5t1 2.5q1 3 2.5 11.5t3.5 11.5q-1 1 -0.5 2.5t1.5 1.5q-1 2 0 6t1 5q1 2 1.5 4t0.5 3q0 5 3 18.5t3 20.5q2 8 7 44v1
q2 15 9.5 49t9.5 48v5q2 4 2 6l3 3q3 1 8 2.5t6 1.5q6 0 9 -2v1q0 1 1 2q3 1 10 1l1 1q1 1 3 1q1 1 4 0l1 -1h7zM177 535q0 -1 -2.5 -8.5t-3.5 -11.5t-2.5 -9t-1.5 -8q0 -5 -1 -7v-1q-1 -2 -1.5 -5t-0.5 -4t-0.5 -2.5t-0.5 -2.5q-1 -2 -1 -5q-2 -2 -2 -7.5t-1 -7.5l-1 -1v-1
q0 -8 -1 -9v-2l-2 -2q0 -15 -4 -24q1 -5 -4 -17q-1 -2 -1 -6.5v-6.5q-2 -4 -2 -5v-1q0 -1 -1 -1q0 -1 -0.5 -2.5t-0.5 -2.5q1 0 1 -1q0 -2 -1.5 -7.5t-1.5 -6.5q0 -12 -1 -14q0 -1 -0.5 -3.5t-0.5 -3.5t1 -2q11 -1 32.5 -1.5t28.5 -0.5q-1 9 -2.5 27t-2.5 27q-1 2 -1 6.5
v6.5t-0.5 6t-0.5 6v1q0 4 -3 31q-1 6 -2 21.5t-2 21.5q-1 5 -1.5 13t-0.5 10q-2 16 -3 22q0 8 -1 11q-1 -1 -3 -10zM157 755q-1 -2 -3 -4t-2 -3l-3 -4q-15 -11 -43 1q-8 4 -11 10v-2q-2 2 -2 8l-1 1q0 7 7 21l1 2v-1q11 14 15 15q8 2 18 2q1 0 3.5 -1.5t3.5 -1.5q1 -1 3 -1
q9 0 10 -2q8 -8 8 -14l-1 -3v-6q-2 -2 -2 -3q-1 -1 0 -2.5t1 -2.5q2 -5 -2 -9zM242 755q0 -1 -6 -7h1l-4 -4q-13 -12 -42 1q-8 4 -11 10v-2q-2 2 -2 8l-1 1q0 7 7 21l1 2v-1q11 14 15 15q8 2 18 2q1 0 3.5 -1.5t3.5 -1.5q1 -1 3 -1q8 0 10 -2q8 -8 8 -14v-3q-1 -4 -1 -6
q-2 -2 -2 -3q-1 -1 0 -2.5t1 -2.5q2 -5 -2 -9z" />
    </font>
</defs>
</svg>
